<?xml version="1.0"?>
<svg xmlns="http://www.w3.org/2000/svg" xmlns:xlink="http://www.w3.org/1999/xlink" viewBox="0 0 407.300000 212.000000" width="203.650000mm" height="106.000000mm" version="1.1">
<a xlink:href="instruments-0x7fc7c01317b0.svg">
<rect x="1.000000" y="1.000000" width="406.300000" height="211.000000" rx="0" ry="0" style="stroke:none;fill:#cccccc;"/>
<rect x="0.000000" y="0.000000" width="406.300000" height="211.000000" rx="0" ry="0" style="stroke:none;fill:#ffffff;"/>
</a>
<text x="10.000000" y="7.000000" font-family="Arial" font-size="7"></text>
<a xlink:href="chstrip-0x7fc7c012ac60.svg">
<rect x="43.000000" y="35.000000" width="38.700000" height="144.000000" rx="0" ry="0" style="stroke:none;fill:#cccccc;"/>
<rect x="42.000000" y="34.000000" width="38.700000" height="144.000000" rx="0" ry="0" style="stroke:none;fill:#003366;"/>
</a>
<a xlink:href="chstrip-0x7fc7c012ac60.svg">
<text x="61.350000" y="108.000000" font-family="Arial" font-size="7" text-anchor="middle" fill="#FFFFFF">chstrip</text>
</a>
<circle cx="44.000000" cy="36.000000" r="1"/>
<line x1="39.000000" y1="37.000000" x2="42.000000" y2="38.000000"  transform="rotate(0.000000,42.000000,38.000000)" style="stroke: black; stroke-width:0.25;"/>
<line x1="39.000000" y1="39.000000" x2="42.000000" y2="38.000000"  transform="rotate(0.000000,42.000000,38.000000)" style="stroke: black; stroke-width:0.25;"/>
<line x1="39.000000" y1="45.000000" x2="42.000000" y2="46.000000"  transform="rotate(0.000000,42.000000,46.000000)" style="stroke: black; stroke-width:0.25;"/>
<line x1="39.000000" y1="47.000000" x2="42.000000" y2="46.000000"  transform="rotate(0.000000,42.000000,46.000000)" style="stroke: black; stroke-width:0.25;"/>
<line x1="39.000000" y1="53.000000" x2="42.000000" y2="54.000000"  transform="rotate(0.000000,42.000000,54.000000)" style="stroke: black; stroke-width:0.25;"/>
<line x1="39.000000" y1="55.000000" x2="42.000000" y2="54.000000"  transform="rotate(0.000000,42.000000,54.000000)" style="stroke: black; stroke-width:0.25;"/>
<line x1="39.000000" y1="61.000000" x2="42.000000" y2="62.000000"  transform="rotate(0.000000,42.000000,62.000000)" style="stroke: black; stroke-width:0.25;"/>
<line x1="39.000000" y1="63.000000" x2="42.000000" y2="62.000000"  transform="rotate(0.000000,42.000000,62.000000)" style="stroke: black; stroke-width:0.25;"/>
<line x1="39.000000" y1="69.000000" x2="42.000000" y2="70.000000"  transform="rotate(0.000000,42.000000,70.000000)" style="stroke: black; stroke-width:0.25;"/>
<line x1="39.000000" y1="71.000000" x2="42.000000" y2="70.000000"  transform="rotate(0.000000,42.000000,70.000000)" style="stroke: black; stroke-width:0.25;"/>
<line x1="39.000000" y1="77.000000" x2="42.000000" y2="78.000000"  transform="rotate(0.000000,42.000000,78.000000)" style="stroke: black; stroke-width:0.25;"/>
<line x1="39.000000" y1="79.000000" x2="42.000000" y2="78.000000"  transform="rotate(0.000000,42.000000,78.000000)" style="stroke: black; stroke-width:0.25;"/>
<line x1="39.000000" y1="85.000000" x2="42.000000" y2="86.000000"  transform="rotate(0.000000,42.000000,86.000000)" style="stroke: black; stroke-width:0.25;"/>
<line x1="39.000000" y1="87.000000" x2="42.000000" y2="86.000000"  transform="rotate(0.000000,42.000000,86.000000)" style="stroke: black; stroke-width:0.25;"/>
<line x1="39.000000" y1="93.000000" x2="42.000000" y2="94.000000"  transform="rotate(0.000000,42.000000,94.000000)" style="stroke: black; stroke-width:0.25;"/>
<line x1="39.000000" y1="95.000000" x2="42.000000" y2="94.000000"  transform="rotate(0.000000,42.000000,94.000000)" style="stroke: black; stroke-width:0.25;"/>
<line x1="39.000000" y1="101.000000" x2="42.000000" y2="102.000000"  transform="rotate(0.000000,42.000000,102.000000)" style="stroke: black; stroke-width:0.25;"/>
<line x1="39.000000" y1="103.000000" x2="42.000000" y2="102.000000"  transform="rotate(0.000000,42.000000,102.000000)" style="stroke: black; stroke-width:0.25;"/>
<line x1="39.000000" y1="109.000000" x2="42.000000" y2="110.000000"  transform="rotate(0.000000,42.000000,110.000000)" style="stroke: black; stroke-width:0.25;"/>
<line x1="39.000000" y1="111.000000" x2="42.000000" y2="110.000000"  transform="rotate(0.000000,42.000000,110.000000)" style="stroke: black; stroke-width:0.25;"/>
<line x1="39.000000" y1="117.000000" x2="42.000000" y2="118.000000"  transform="rotate(0.000000,42.000000,118.000000)" style="stroke: black; stroke-width:0.25;"/>
<line x1="39.000000" y1="119.000000" x2="42.000000" y2="118.000000"  transform="rotate(0.000000,42.000000,118.000000)" style="stroke: black; stroke-width:0.25;"/>
<line x1="39.000000" y1="125.000000" x2="42.000000" y2="126.000000"  transform="rotate(0.000000,42.000000,126.000000)" style="stroke: black; stroke-width:0.25;"/>
<line x1="39.000000" y1="127.000000" x2="42.000000" y2="126.000000"  transform="rotate(0.000000,42.000000,126.000000)" style="stroke: black; stroke-width:0.25;"/>
<line x1="39.000000" y1="133.000000" x2="42.000000" y2="134.000000"  transform="rotate(0.000000,42.000000,134.000000)" style="stroke: black; stroke-width:0.25;"/>
<line x1="39.000000" y1="135.000000" x2="42.000000" y2="134.000000"  transform="rotate(0.000000,42.000000,134.000000)" style="stroke: black; stroke-width:0.25;"/>
<line x1="39.000000" y1="141.000000" x2="42.000000" y2="142.000000"  transform="rotate(0.000000,42.000000,142.000000)" style="stroke: black; stroke-width:0.25;"/>
<line x1="39.000000" y1="143.000000" x2="42.000000" y2="142.000000"  transform="rotate(0.000000,42.000000,142.000000)" style="stroke: black; stroke-width:0.25;"/>
<line x1="39.000000" y1="149.000000" x2="42.000000" y2="150.000000"  transform="rotate(0.000000,42.000000,150.000000)" style="stroke: black; stroke-width:0.25;"/>
<line x1="39.000000" y1="151.000000" x2="42.000000" y2="150.000000"  transform="rotate(0.000000,42.000000,150.000000)" style="stroke: black; stroke-width:0.25;"/>
<line x1="39.000000" y1="157.000000" x2="42.000000" y2="158.000000"  transform="rotate(0.000000,42.000000,158.000000)" style="stroke: black; stroke-width:0.25;"/>
<line x1="39.000000" y1="159.000000" x2="42.000000" y2="158.000000"  transform="rotate(0.000000,42.000000,158.000000)" style="stroke: black; stroke-width:0.25;"/>
<line x1="39.000000" y1="165.000000" x2="42.000000" y2="166.000000"  transform="rotate(0.000000,42.000000,166.000000)" style="stroke: black; stroke-width:0.25;"/>
<line x1="39.000000" y1="167.000000" x2="42.000000" y2="166.000000"  transform="rotate(0.000000,42.000000,166.000000)" style="stroke: black; stroke-width:0.25;"/>
<line x1="39.000000" y1="173.000000" x2="42.000000" y2="174.000000"  transform="rotate(0.000000,42.000000,174.000000)" style="stroke: black; stroke-width:0.25;"/>
<line x1="39.000000" y1="175.000000" x2="42.000000" y2="174.000000"  transform="rotate(0.000000,42.000000,174.000000)" style="stroke: black; stroke-width:0.25;"/>
<a xlink:href="fader-0x7fc7b8f72540.svg">
<rect x="166.700000" y="99.000000" width="25.800000" height="24.000000" rx="0" ry="0" style="stroke:none;fill:#cccccc;"/>
<rect x="165.700000" y="98.000000" width="25.800000" height="24.000000" rx="0" ry="0" style="stroke:none;fill:#003366;"/>
</a>
<a xlink:href="fader-0x7fc7b8f72540.svg">
<text x="178.600000" y="112.000000" font-family="Arial" font-size="7" text-anchor="middle" fill="#FFFFFF">fader</text>
</a>
<circle cx="167.700000" cy="100.000000" r="1"/>
<rect x="208.500000" y="95.000000" width="24.000000" height="24.000000" rx="0" ry="0" style="stroke:none;fill:#cccccc;"/>
<rect x="207.500000" y="94.000000" width="24.000000" height="24.000000" rx="0" ry="0" style="stroke:none;fill:#4B71A1;"/>
<text x="219.500000" y="108.000000" font-family="Arial" font-size="7" text-anchor="middle" fill="#FFFFFF">*</text>
<circle cx="209.500000" cy="96.000000" r="1"/>
<line x1="204.500000" y1="101.000000" x2="207.500000" y2="102.000000"  transform="rotate(0.000000,207.500000,102.000000)" style="stroke: black; stroke-width:0.25;"/>
<line x1="204.500000" y1="103.000000" x2="207.500000" y2="102.000000"  transform="rotate(0.000000,207.500000,102.000000)" style="stroke: black; stroke-width:0.25;"/>
<line x1="204.500000" y1="109.000000" x2="207.500000" y2="110.000000"  transform="rotate(0.000000,207.500000,110.000000)" style="stroke: black; stroke-width:0.25;"/>
<line x1="204.500000" y1="111.000000" x2="207.500000" y2="110.000000"  transform="rotate(0.000000,207.500000,110.000000)" style="stroke: black; stroke-width:0.25;"/>
<a xlink:href="vmeter-0x7fc7c012f4c0.svg">
<rect x="274.500000" y="63.000000" width="25.800000" height="24.000000" rx="0" ry="0" style="stroke:none;fill:#cccccc;"/>
<rect x="273.500000" y="62.000000" width="25.800000" height="24.000000" rx="0" ry="0" style="stroke:none;fill:#003366;"/>
</a>
<a xlink:href="vmeter-0x7fc7c012f4c0.svg">
<text x="286.400000" y="76.000000" font-family="Arial" font-size="7" text-anchor="middle" fill="#FFFFFF">vmeter</text>
</a>
<circle cx="275.500000" cy="64.000000" r="1"/>
<line x1="270.500000" y1="73.000000" x2="273.500000" y2="74.000000"  transform="rotate(0.000000,273.500000,74.000000)" style="stroke: black; stroke-width:0.25;"/>
<line x1="270.500000" y1="75.000000" x2="273.500000" y2="74.000000"  transform="rotate(0.000000,273.500000,74.000000)" style="stroke: black; stroke-width:0.25;"/>
<a xlink:href="sends-0x7fc7b8f79c50.svg">
<rect x="274.500000" y="95.000000" width="25.800000" height="56.000000" rx="0" ry="0" style="stroke:none;fill:#cccccc;"/>
<rect x="273.500000" y="94.000000" width="25.800000" height="56.000000" rx="0" ry="0" style="stroke:none;fill:#003366;"/>
</a>
<a xlink:href="sends-0x7fc7b8f79c50.svg">
<text x="286.400000" y="124.000000" font-family="Arial" font-size="7" text-anchor="middle" fill="#FFFFFF">sends</text>
</a>
<circle cx="275.500000" cy="96.000000" r="1"/>
<line x1="270.500000" y1="97.000000" x2="273.500000" y2="98.000000"  transform="rotate(0.000000,273.500000,98.000000)" style="stroke: black; stroke-width:0.25;"/>
<line x1="270.500000" y1="99.000000" x2="273.500000" y2="98.000000"  transform="rotate(0.000000,273.500000,98.000000)" style="stroke: black; stroke-width:0.25;"/>
<line x1="270.500000" y1="105.000000" x2="273.500000" y2="106.000000"  transform="rotate(0.000000,273.500000,106.000000)" style="stroke: black; stroke-width:0.25;"/>
<line x1="270.500000" y1="107.000000" x2="273.500000" y2="106.000000"  transform="rotate(0.000000,273.500000,106.000000)" style="stroke: black; stroke-width:0.25;"/>
<line x1="270.500000" y1="113.000000" x2="273.500000" y2="114.000000"  transform="rotate(0.000000,273.500000,114.000000)" style="stroke: black; stroke-width:0.25;"/>
<line x1="270.500000" y1="115.000000" x2="273.500000" y2="114.000000"  transform="rotate(0.000000,273.500000,114.000000)" style="stroke: black; stroke-width:0.25;"/>
<line x1="270.500000" y1="121.000000" x2="273.500000" y2="122.000000"  transform="rotate(0.000000,273.500000,122.000000)" style="stroke: black; stroke-width:0.25;"/>
<line x1="270.500000" y1="123.000000" x2="273.500000" y2="122.000000"  transform="rotate(0.000000,273.500000,122.000000)" style="stroke: black; stroke-width:0.25;"/>
<line x1="270.500000" y1="129.000000" x2="273.500000" y2="130.000000"  transform="rotate(0.000000,273.500000,130.000000)" style="stroke: black; stroke-width:0.25;"/>
<line x1="270.500000" y1="131.000000" x2="273.500000" y2="130.000000"  transform="rotate(0.000000,273.500000,130.000000)" style="stroke: black; stroke-width:0.25;"/>
<line x1="270.500000" y1="137.000000" x2="273.500000" y2="138.000000"  transform="rotate(0.000000,273.500000,138.000000)" style="stroke: black; stroke-width:0.25;"/>
<line x1="270.500000" y1="139.000000" x2="273.500000" y2="138.000000"  transform="rotate(0.000000,273.500000,138.000000)" style="stroke: black; stroke-width:0.25;"/>
<line x1="270.500000" y1="145.000000" x2="273.500000" y2="146.000000"  transform="rotate(0.000000,273.500000,146.000000)" style="stroke: black; stroke-width:0.25;"/>
<line x1="270.500000" y1="147.000000" x2="273.500000" y2="146.000000"  transform="rotate(0.000000,273.500000,146.000000)" style="stroke: black; stroke-width:0.25;"/>
<line x1="156.700000" y1="53.000000" x2="156.700000" y2="159.000000"  style="stroke: black; stroke-linecap:round; stroke-width:0.25; stroke-dasharray:3,3;"/>
<line x1="156.700000" y1="159.000000" x2="308.300000" y2="159.000000"  style="stroke: black; stroke-linecap:round; stroke-width:0.25; stroke-dasharray:3,3;"/>
<line x1="308.300000" y1="159.000000" x2="308.300000" y2="53.000000"  style="stroke: black; stroke-linecap:round; stroke-width:0.25; stroke-dasharray:3,3;"/>
<line x1="156.700000" y1="53.000000" x2="161.700000" y2="53.000000"  style="stroke: black; stroke-linecap:round; stroke-width:0.25; stroke-dasharray:3,3;"/>
<line x1="213.300000" y1="53.000000" x2="308.300000" y2="53.000000"  style="stroke: black; stroke-linecap:round; stroke-width:0.25; stroke-dasharray:3,3;"/>
<text x="161.700000" y="55.000000" font-family="Arial" font-size="7">hgroup(BONGOS)</text>
<line x1="33.000000" y1="25.000000" x2="33.000000" y2="187.000000"  style="stroke: black; stroke-linecap:round; stroke-width:0.25; stroke-dasharray:3,3;"/>
<line x1="33.000000" y1="187.000000" x2="318.300000" y2="187.000000"  style="stroke: black; stroke-linecap:round; stroke-width:0.25; stroke-dasharray:3,3;"/>
<line x1="318.300000" y1="187.000000" x2="318.300000" y2="25.000000"  style="stroke: black; stroke-linecap:round; stroke-width:0.25; stroke-dasharray:3,3;"/>
<line x1="33.000000" y1="25.000000" x2="38.000000" y2="25.000000"  style="stroke: black; stroke-linecap:round; stroke-width:0.25; stroke-dasharray:3,3;"/>
<line x1="89.600000" y1="25.000000" x2="318.300000" y2="25.000000"  style="stroke: black; stroke-linecap:round; stroke-width:0.25; stroke-dasharray:3,3;"/>
<text x="38.000000" y="27.000000" font-family="Arial" font-size="7">vgroup(BONGOS)</text>
<line x1="15.000000" y1="15.000000" x2="15.000000" y2="197.000000"  style="stroke: black; stroke-linecap:round; stroke-width:0.25; stroke-dasharray:3,3;"/>
<line x1="15.000000" y1="197.000000" x2="392.300000" y2="197.000000"  style="stroke: black; stroke-linecap:round; stroke-width:0.25; stroke-dasharray:3,3;"/>
<line x1="392.300000" y1="197.000000" x2="392.300000" y2="15.000000"  style="stroke: black; stroke-linecap:round; stroke-width:0.25; stroke-dasharray:3,3;"/>
<line x1="15.000000" y1="15.000000" x2="20.000000" y2="15.000000"  style="stroke: black; stroke-linecap:round; stroke-width:0.25; stroke-dasharray:3,3;"/>
<line x1="42.575000" y1="15.000000" x2="392.300000" y2="15.000000"  style="stroke: black; stroke-linecap:round; stroke-width:0.25; stroke-dasharray:3,3;"/>
<text x="20.000000" y="17.000000" font-family="Arial" font-size="7">bongo</text>
<line x1="394.300000" y1="77.000000" x2="397.300000" y2="78.000000"  transform="rotate(0.000000,397.300000,78.000000)" style="stroke: black; stroke-width:0.25;"/>
<line x1="394.300000" y1="79.000000" x2="397.300000" y2="78.000000"  transform="rotate(0.000000,397.300000,78.000000)" style="stroke: black; stroke-width:0.25;"/>
<line x1="394.300000" y1="85.000000" x2="397.300000" y2="86.000000"  transform="rotate(0.000000,397.300000,86.000000)" style="stroke: black; stroke-width:0.25;"/>
<line x1="394.300000" y1="87.000000" x2="397.300000" y2="86.000000"  transform="rotate(0.000000,397.300000,86.000000)" style="stroke: black; stroke-width:0.25;"/>
<line x1="394.300000" y1="93.000000" x2="397.300000" y2="94.000000"  transform="rotate(0.000000,397.300000,94.000000)" style="stroke: black; stroke-width:0.25;"/>
<line x1="394.300000" y1="95.000000" x2="397.300000" y2="94.000000"  transform="rotate(0.000000,397.300000,94.000000)" style="stroke: black; stroke-width:0.25;"/>
<line x1="394.300000" y1="101.000000" x2="397.300000" y2="102.000000"  transform="rotate(0.000000,397.300000,102.000000)" style="stroke: black; stroke-width:0.25;"/>
<line x1="394.300000" y1="103.000000" x2="397.300000" y2="102.000000"  transform="rotate(0.000000,397.300000,102.000000)" style="stroke: black; stroke-width:0.25;"/>
<line x1="394.300000" y1="109.000000" x2="397.300000" y2="110.000000"  transform="rotate(0.000000,397.300000,110.000000)" style="stroke: black; stroke-width:0.25;"/>
<line x1="394.300000" y1="111.000000" x2="397.300000" y2="110.000000"  transform="rotate(0.000000,397.300000,110.000000)" style="stroke: black; stroke-width:0.25;"/>
<line x1="394.300000" y1="117.000000" x2="397.300000" y2="118.000000"  transform="rotate(0.000000,397.300000,118.000000)" style="stroke: black; stroke-width:0.25;"/>
<line x1="394.300000" y1="119.000000" x2="397.300000" y2="118.000000"  transform="rotate(0.000000,397.300000,118.000000)" style="stroke: black; stroke-width:0.25;"/>
<line x1="394.300000" y1="125.000000" x2="397.300000" y2="126.000000"  transform="rotate(0.000000,397.300000,126.000000)" style="stroke: black; stroke-width:0.25;"/>
<line x1="394.300000" y1="127.000000" x2="397.300000" y2="126.000000"  transform="rotate(0.000000,397.300000,126.000000)" style="stroke: black; stroke-width:0.25;"/>
<line x1="394.300000" y1="133.000000" x2="397.300000" y2="134.000000"  transform="rotate(0.000000,397.300000,134.000000)" style="stroke: black; stroke-width:0.25;"/>
<line x1="394.300000" y1="135.000000" x2="397.300000" y2="134.000000"  transform="rotate(0.000000,397.300000,134.000000)" style="stroke: black; stroke-width:0.25;"/>
<line x1="10.000000" y1="38.000000" x2="20.000000" y2="38.000000"  style="stroke:black; stroke-linecap:round; stroke-width:0.25;"/>
<line x1="10.000000" y1="46.000000" x2="20.000000" y2="46.000000"  style="stroke:black; stroke-linecap:round; stroke-width:0.25;"/>
<line x1="10.000000" y1="54.000000" x2="20.000000" y2="54.000000"  style="stroke:black; stroke-linecap:round; stroke-width:0.25;"/>
<line x1="10.000000" y1="62.000000" x2="20.000000" y2="62.000000"  style="stroke:black; stroke-linecap:round; stroke-width:0.25;"/>
<line x1="10.000000" y1="70.000000" x2="20.000000" y2="70.000000"  style="stroke:black; stroke-linecap:round; stroke-width:0.25;"/>
<line x1="10.000000" y1="78.000000" x2="20.000000" y2="78.000000"  style="stroke:black; stroke-linecap:round; stroke-width:0.25;"/>
<line x1="10.000000" y1="86.000000" x2="20.000000" y2="86.000000"  style="stroke:black; stroke-linecap:round; stroke-width:0.25;"/>
<line x1="10.000000" y1="94.000000" x2="20.000000" y2="94.000000"  style="stroke:black; stroke-linecap:round; stroke-width:0.25;"/>
<line x1="10.000000" y1="102.000000" x2="20.000000" y2="102.000000"  style="stroke:black; stroke-linecap:round; stroke-width:0.25;"/>
<line x1="10.000000" y1="110.000000" x2="20.000000" y2="110.000000"  style="stroke:black; stroke-linecap:round; stroke-width:0.25;"/>
<line x1="10.000000" y1="118.000000" x2="20.000000" y2="118.000000"  style="stroke:black; stroke-linecap:round; stroke-width:0.25;"/>
<line x1="10.000000" y1="126.000000" x2="20.000000" y2="126.000000"  style="stroke:black; stroke-linecap:round; stroke-width:0.25;"/>
<line x1="10.000000" y1="134.000000" x2="20.000000" y2="134.000000"  style="stroke:black; stroke-linecap:round; stroke-width:0.25;"/>
<line x1="10.000000" y1="142.000000" x2="20.000000" y2="142.000000"  style="stroke:black; stroke-linecap:round; stroke-width:0.25;"/>
<line x1="10.000000" y1="150.000000" x2="20.000000" y2="150.000000"  style="stroke:black; stroke-linecap:round; stroke-width:0.25;"/>
<line x1="10.000000" y1="158.000000" x2="20.000000" y2="158.000000"  style="stroke:black; stroke-linecap:round; stroke-width:0.25;"/>
<line x1="10.000000" y1="166.000000" x2="20.000000" y2="166.000000"  style="stroke:black; stroke-linecap:round; stroke-width:0.25;"/>
<line x1="10.000000" y1="174.000000" x2="20.000000" y2="174.000000"  style="stroke:black; stroke-linecap:round; stroke-width:0.25;"/>
<line x1="20.000000" y1="38.000000" x2="24.000000" y2="38.000000"  style="stroke:black; stroke-linecap:round; stroke-width:0.25;"/>
<line x1="20.000000" y1="46.000000" x2="24.000000" y2="46.000000"  style="stroke:black; stroke-linecap:round; stroke-width:0.25;"/>
<line x1="20.000000" y1="54.000000" x2="24.000000" y2="54.000000"  style="stroke:black; stroke-linecap:round; stroke-width:0.25;"/>
<line x1="20.000000" y1="62.000000" x2="24.000000" y2="62.000000"  style="stroke:black; stroke-linecap:round; stroke-width:0.25;"/>
<line x1="20.000000" y1="70.000000" x2="24.000000" y2="70.000000"  style="stroke:black; stroke-linecap:round; stroke-width:0.25;"/>
<line x1="20.000000" y1="78.000000" x2="24.000000" y2="78.000000"  style="stroke:black; stroke-linecap:round; stroke-width:0.25;"/>
<line x1="20.000000" y1="86.000000" x2="24.000000" y2="86.000000"  style="stroke:black; stroke-linecap:round; stroke-width:0.25;"/>
<line x1="20.000000" y1="94.000000" x2="24.000000" y2="94.000000"  style="stroke:black; stroke-linecap:round; stroke-width:0.25;"/>
<line x1="20.000000" y1="102.000000" x2="24.000000" y2="102.000000"  style="stroke:black; stroke-linecap:round; stroke-width:0.25;"/>
<line x1="20.000000" y1="110.000000" x2="24.000000" y2="110.000000"  style="stroke:black; stroke-linecap:round; stroke-width:0.25;"/>
<line x1="20.000000" y1="118.000000" x2="24.000000" y2="118.000000"  style="stroke:black; stroke-linecap:round; stroke-width:0.25;"/>
<line x1="20.000000" y1="126.000000" x2="24.000000" y2="126.000000"  style="stroke:black; stroke-linecap:round; stroke-width:0.25;"/>
<line x1="20.000000" y1="134.000000" x2="24.000000" y2="134.000000"  style="stroke:black; stroke-linecap:round; stroke-width:0.25;"/>
<line x1="20.000000" y1="142.000000" x2="24.000000" y2="142.000000"  style="stroke:black; stroke-linecap:round; stroke-width:0.25;"/>
<line x1="20.000000" y1="150.000000" x2="24.000000" y2="150.000000"  style="stroke:black; stroke-linecap:round; stroke-width:0.25;"/>
<line x1="20.000000" y1="158.000000" x2="24.000000" y2="158.000000"  style="stroke:black; stroke-linecap:round; stroke-width:0.25;"/>
<line x1="20.000000" y1="166.000000" x2="24.000000" y2="166.000000"  style="stroke:black; stroke-linecap:round; stroke-width:0.25;"/>
<line x1="20.000000" y1="174.000000" x2="24.000000" y2="174.000000"  style="stroke:black; stroke-linecap:round; stroke-width:0.25;"/>
<line x1="24.000000" y1="38.000000" x2="28.000000" y2="38.000000"  style="stroke:black; stroke-linecap:round; stroke-width:0.25;"/>
<line x1="24.000000" y1="46.000000" x2="28.000000" y2="46.000000"  style="stroke:black; stroke-linecap:round; stroke-width:0.25;"/>
<line x1="24.000000" y1="54.000000" x2="28.000000" y2="54.000000"  style="stroke:black; stroke-linecap:round; stroke-width:0.25;"/>
<line x1="24.000000" y1="62.000000" x2="28.000000" y2="62.000000"  style="stroke:black; stroke-linecap:round; stroke-width:0.25;"/>
<line x1="24.000000" y1="70.000000" x2="28.000000" y2="70.000000"  style="stroke:black; stroke-linecap:round; stroke-width:0.25;"/>
<line x1="24.000000" y1="78.000000" x2="28.000000" y2="78.000000"  style="stroke:black; stroke-linecap:round; stroke-width:0.25;"/>
<line x1="24.000000" y1="86.000000" x2="28.000000" y2="86.000000"  style="stroke:black; stroke-linecap:round; stroke-width:0.25;"/>
<line x1="24.000000" y1="94.000000" x2="28.000000" y2="94.000000"  style="stroke:black; stroke-linecap:round; stroke-width:0.25;"/>
<line x1="24.000000" y1="102.000000" x2="28.000000" y2="102.000000"  style="stroke:black; stroke-linecap:round; stroke-width:0.25;"/>
<line x1="24.000000" y1="110.000000" x2="28.000000" y2="110.000000"  style="stroke:black; stroke-linecap:round; stroke-width:0.25;"/>
<line x1="24.000000" y1="118.000000" x2="28.000000" y2="118.000000"  style="stroke:black; stroke-linecap:round; stroke-width:0.25;"/>
<line x1="24.000000" y1="126.000000" x2="28.000000" y2="126.000000"  style="stroke:black; stroke-linecap:round; stroke-width:0.25;"/>
<line x1="24.000000" y1="134.000000" x2="28.000000" y2="134.000000"  style="stroke:black; stroke-linecap:round; stroke-width:0.25;"/>
<line x1="24.000000" y1="142.000000" x2="28.000000" y2="142.000000"  style="stroke:black; stroke-linecap:round; stroke-width:0.25;"/>
<line x1="24.000000" y1="150.000000" x2="28.000000" y2="150.000000"  style="stroke:black; stroke-linecap:round; stroke-width:0.25;"/>
<line x1="24.000000" y1="158.000000" x2="28.000000" y2="158.000000"  style="stroke:black; stroke-linecap:round; stroke-width:0.25;"/>
<line x1="24.000000" y1="166.000000" x2="28.000000" y2="166.000000"  style="stroke:black; stroke-linecap:round; stroke-width:0.25;"/>
<line x1="24.000000" y1="174.000000" x2="28.000000" y2="174.000000"  style="stroke:black; stroke-linecap:round; stroke-width:0.25;"/>
<line x1="28.000000" y1="38.000000" x2="28.000000" y2="38.000000"  style="stroke:black; stroke-linecap:round; stroke-width:0.25;"/>
<line x1="28.000000" y1="38.000000" x2="38.000000" y2="38.000000"  style="stroke:black; stroke-linecap:round; stroke-width:0.25;"/>
<line x1="28.000000" y1="46.000000" x2="28.000000" y2="46.000000"  style="stroke:black; stroke-linecap:round; stroke-width:0.25;"/>
<line x1="28.000000" y1="46.000000" x2="38.000000" y2="46.000000"  style="stroke:black; stroke-linecap:round; stroke-width:0.25;"/>
<line x1="28.000000" y1="54.000000" x2="28.000000" y2="54.000000"  style="stroke:black; stroke-linecap:round; stroke-width:0.25;"/>
<line x1="28.000000" y1="54.000000" x2="38.000000" y2="54.000000"  style="stroke:black; stroke-linecap:round; stroke-width:0.25;"/>
<line x1="28.000000" y1="62.000000" x2="28.000000" y2="62.000000"  style="stroke:black; stroke-linecap:round; stroke-width:0.25;"/>
<line x1="28.000000" y1="62.000000" x2="38.000000" y2="62.000000"  style="stroke:black; stroke-linecap:round; stroke-width:0.25;"/>
<line x1="28.000000" y1="70.000000" x2="28.000000" y2="70.000000"  style="stroke:black; stroke-linecap:round; stroke-width:0.25;"/>
<line x1="28.000000" y1="70.000000" x2="38.000000" y2="70.000000"  style="stroke:black; stroke-linecap:round; stroke-width:0.25;"/>
<line x1="28.000000" y1="78.000000" x2="28.000000" y2="78.000000"  style="stroke:black; stroke-linecap:round; stroke-width:0.25;"/>
<line x1="28.000000" y1="78.000000" x2="38.000000" y2="78.000000"  style="stroke:black; stroke-linecap:round; stroke-width:0.25;"/>
<line x1="28.000000" y1="86.000000" x2="28.000000" y2="86.000000"  style="stroke:black; stroke-linecap:round; stroke-width:0.25;"/>
<line x1="28.000000" y1="86.000000" x2="38.000000" y2="86.000000"  style="stroke:black; stroke-linecap:round; stroke-width:0.25;"/>
<line x1="28.000000" y1="94.000000" x2="28.000000" y2="94.000000"  style="stroke:black; stroke-linecap:round; stroke-width:0.25;"/>
<line x1="28.000000" y1="94.000000" x2="38.000000" y2="94.000000"  style="stroke:black; stroke-linecap:round; stroke-width:0.25;"/>
<line x1="28.000000" y1="102.000000" x2="28.000000" y2="102.000000"  style="stroke:black; stroke-linecap:round; stroke-width:0.25;"/>
<line x1="28.000000" y1="102.000000" x2="38.000000" y2="102.000000"  style="stroke:black; stroke-linecap:round; stroke-width:0.25;"/>
<line x1="28.000000" y1="110.000000" x2="28.000000" y2="110.000000"  style="stroke:black; stroke-linecap:round; stroke-width:0.25;"/>
<line x1="28.000000" y1="110.000000" x2="38.000000" y2="110.000000"  style="stroke:black; stroke-linecap:round; stroke-width:0.25;"/>
<line x1="28.000000" y1="118.000000" x2="28.000000" y2="118.000000"  style="stroke:black; stroke-linecap:round; stroke-width:0.25;"/>
<line x1="28.000000" y1="118.000000" x2="38.000000" y2="118.000000"  style="stroke:black; stroke-linecap:round; stroke-width:0.25;"/>
<line x1="28.000000" y1="126.000000" x2="28.000000" y2="126.000000"  style="stroke:black; stroke-linecap:round; stroke-width:0.25;"/>
<line x1="28.000000" y1="126.000000" x2="38.000000" y2="126.000000"  style="stroke:black; stroke-linecap:round; stroke-width:0.25;"/>
<line x1="28.000000" y1="134.000000" x2="28.000000" y2="134.000000"  style="stroke:black; stroke-linecap:round; stroke-width:0.25;"/>
<line x1="28.000000" y1="134.000000" x2="38.000000" y2="134.000000"  style="stroke:black; stroke-linecap:round; stroke-width:0.25;"/>
<line x1="28.000000" y1="142.000000" x2="28.000000" y2="142.000000"  style="stroke:black; stroke-linecap:round; stroke-width:0.25;"/>
<line x1="28.000000" y1="142.000000" x2="38.000000" y2="142.000000"  style="stroke:black; stroke-linecap:round; stroke-width:0.25;"/>
<line x1="28.000000" y1="150.000000" x2="28.000000" y2="150.000000"  style="stroke:black; stroke-linecap:round; stroke-width:0.25;"/>
<line x1="28.000000" y1="150.000000" x2="38.000000" y2="150.000000"  style="stroke:black; stroke-linecap:round; stroke-width:0.25;"/>
<line x1="28.000000" y1="158.000000" x2="28.000000" y2="158.000000"  style="stroke:black; stroke-linecap:round; stroke-width:0.25;"/>
<line x1="28.000000" y1="158.000000" x2="38.000000" y2="158.000000"  style="stroke:black; stroke-linecap:round; stroke-width:0.25;"/>
<line x1="28.000000" y1="166.000000" x2="28.000000" y2="166.000000"  style="stroke:black; stroke-linecap:round; stroke-width:0.25;"/>
<line x1="28.000000" y1="166.000000" x2="38.000000" y2="166.000000"  style="stroke:black; stroke-linecap:round; stroke-width:0.25;"/>
<line x1="28.000000" y1="174.000000" x2="28.000000" y2="174.000000"  style="stroke:black; stroke-linecap:round; stroke-width:0.25;"/>
<line x1="28.000000" y1="174.000000" x2="38.000000" y2="174.000000"  style="stroke:black; stroke-linecap:round; stroke-width:0.25;"/>
<line x1="38.000000" y1="38.000000" x2="42.000000" y2="38.000000"  style="stroke:black; stroke-linecap:round; stroke-width:0.25;"/>
<line x1="38.000000" y1="46.000000" x2="42.000000" y2="46.000000"  style="stroke:black; stroke-linecap:round; stroke-width:0.25;"/>
<line x1="38.000000" y1="54.000000" x2="42.000000" y2="54.000000"  style="stroke:black; stroke-linecap:round; stroke-width:0.25;"/>
<line x1="38.000000" y1="62.000000" x2="42.000000" y2="62.000000"  style="stroke:black; stroke-linecap:round; stroke-width:0.25;"/>
<line x1="38.000000" y1="70.000000" x2="42.000000" y2="70.000000"  style="stroke:black; stroke-linecap:round; stroke-width:0.25;"/>
<line x1="38.000000" y1="78.000000" x2="42.000000" y2="78.000000"  style="stroke:black; stroke-linecap:round; stroke-width:0.25;"/>
<line x1="38.000000" y1="86.000000" x2="42.000000" y2="86.000000"  style="stroke:black; stroke-linecap:round; stroke-width:0.25;"/>
<line x1="38.000000" y1="94.000000" x2="42.000000" y2="94.000000"  style="stroke:black; stroke-linecap:round; stroke-width:0.25;"/>
<line x1="38.000000" y1="102.000000" x2="42.000000" y2="102.000000"  style="stroke:black; stroke-linecap:round; stroke-width:0.25;"/>
<line x1="38.000000" y1="110.000000" x2="42.000000" y2="110.000000"  style="stroke:black; stroke-linecap:round; stroke-width:0.25;"/>
<line x1="38.000000" y1="118.000000" x2="42.000000" y2="118.000000"  style="stroke:black; stroke-linecap:round; stroke-width:0.25;"/>
<line x1="38.000000" y1="126.000000" x2="42.000000" y2="126.000000"  style="stroke:black; stroke-linecap:round; stroke-width:0.25;"/>
<line x1="38.000000" y1="134.000000" x2="42.000000" y2="134.000000"  style="stroke:black; stroke-linecap:round; stroke-width:0.25;"/>
<line x1="38.000000" y1="142.000000" x2="42.000000" y2="142.000000"  style="stroke:black; stroke-linecap:round; stroke-width:0.25;"/>
<line x1="38.000000" y1="150.000000" x2="42.000000" y2="150.000000"  style="stroke:black; stroke-linecap:round; stroke-width:0.25;"/>
<line x1="38.000000" y1="158.000000" x2="42.000000" y2="158.000000"  style="stroke:black; stroke-linecap:round; stroke-width:0.25;"/>
<line x1="38.000000" y1="166.000000" x2="42.000000" y2="166.000000"  style="stroke:black; stroke-linecap:round; stroke-width:0.25;"/>
<line x1="38.000000" y1="174.000000" x2="42.000000" y2="174.000000"  style="stroke:black; stroke-linecap:round; stroke-width:0.25;"/>
<line x1="80.700000" y1="106.000000" x2="84.700000" y2="106.000000"  style="stroke:black; stroke-linecap:round; stroke-width:0.25;"/>
<line x1="84.700000" y1="106.000000" x2="151.700000" y2="90.000000"  style="stroke:black; stroke-linecap:round; stroke-width:0.25;"/>
<line x1="151.700000" y1="90.000000" x2="161.700000" y2="90.000000"  style="stroke:black; stroke-linecap:round; stroke-width:0.25;"/>
<line x1="161.700000" y1="90.000000" x2="178.600000" y2="90.000000"  style="stroke:black; stroke-linecap:round; stroke-width:0.25;"/>
<line x1="178.600000" y1="90.000000" x2="195.500000" y2="90.000000"  style="stroke:black; stroke-linecap:round; stroke-width:0.25;"/>
<line x1="191.500000" y1="110.000000" x2="195.500000" y2="110.000000"  style="stroke:black; stroke-linecap:round; stroke-width:0.25;"/>
<line x1="195.500000" y1="90.000000" x2="203.500000" y2="90.000000"  style="stroke:black; stroke-linecap:round; stroke-width:0.25;"/>
<line x1="195.500000" y1="110.000000" x2="203.500000" y2="110.000000"  style="stroke:black; stroke-linecap:round; stroke-width:0.25;"/>
<line x1="203.500000" y1="90.000000" x2="203.500000" y2="102.000000"  style="stroke:black; stroke-linecap:round; stroke-width:0.25;"/>
<line x1="203.500000" y1="102.000000" x2="203.500000" y2="102.000000"  style="stroke:black; stroke-linecap:round; stroke-width:0.25;"/>
<line x1="203.500000" y1="102.000000" x2="207.500000" y2="102.000000"  style="stroke:black; stroke-linecap:round; stroke-width:0.25;"/>
<line x1="203.500000" y1="110.000000" x2="207.500000" y2="110.000000"  style="stroke:black; stroke-linecap:round; stroke-width:0.25;"/>
<line x1="231.500000" y1="106.000000" x2="235.500000" y2="106.000000"  style="stroke:black; stroke-linecap:round; stroke-width:0.25;"/>
<line x1="235.500000" y1="106.000000" x2="269.500000" y2="74.000000"  style="stroke:black; stroke-linecap:round; stroke-width:0.25;"/>
<line x1="235.500000" y1="106.000000" x2="269.500000" y2="98.000000"  style="stroke:black; stroke-linecap:round; stroke-width:0.25;"/>
<line x1="235.500000" y1="106.000000" x2="269.500000" y2="106.000000"  style="stroke:black; stroke-linecap:round; stroke-width:0.25;"/>
<line x1="235.500000" y1="106.000000" x2="269.500000" y2="114.000000"  style="stroke:black; stroke-linecap:round; stroke-width:0.25;"/>
<line x1="235.500000" y1="106.000000" x2="269.500000" y2="122.000000"  style="stroke:black; stroke-linecap:round; stroke-width:0.25;"/>
<line x1="235.500000" y1="106.000000" x2="269.500000" y2="130.000000"  style="stroke:black; stroke-linecap:round; stroke-width:0.25;"/>
<line x1="235.500000" y1="106.000000" x2="269.500000" y2="138.000000"  style="stroke:black; stroke-linecap:round; stroke-width:0.25;"/>
<line x1="235.500000" y1="106.000000" x2="269.500000" y2="146.000000"  style="stroke:black; stroke-linecap:round; stroke-width:0.25;"/>
<line x1="269.500000" y1="74.000000" x2="273.500000" y2="74.000000"  style="stroke:black; stroke-linecap:round; stroke-width:0.25;"/>
<line x1="269.500000" y1="98.000000" x2="273.500000" y2="98.000000"  style="stroke:black; stroke-linecap:round; stroke-width:0.25;"/>
<line x1="269.500000" y1="106.000000" x2="273.500000" y2="106.000000"  style="stroke:black; stroke-linecap:round; stroke-width:0.25;"/>
<line x1="269.500000" y1="114.000000" x2="273.500000" y2="114.000000"  style="stroke:black; stroke-linecap:round; stroke-width:0.25;"/>
<line x1="269.500000" y1="122.000000" x2="273.500000" y2="122.000000"  style="stroke:black; stroke-linecap:round; stroke-width:0.25;"/>
<line x1="269.500000" y1="130.000000" x2="273.500000" y2="130.000000"  style="stroke:black; stroke-linecap:round; stroke-width:0.25;"/>
<line x1="269.500000" y1="138.000000" x2="273.500000" y2="138.000000"  style="stroke:black; stroke-linecap:round; stroke-width:0.25;"/>
<line x1="269.500000" y1="146.000000" x2="273.500000" y2="146.000000"  style="stroke:black; stroke-linecap:round; stroke-width:0.25;"/>
<line x1="299.300000" y1="74.000000" x2="303.300000" y2="74.000000"  style="stroke:black; stroke-linecap:round; stroke-width:0.25;"/>
<line x1="299.300000" y1="98.000000" x2="303.300000" y2="98.000000"  style="stroke:black; stroke-linecap:round; stroke-width:0.25;"/>
<line x1="299.300000" y1="106.000000" x2="303.300000" y2="106.000000"  style="stroke:black; stroke-linecap:round; stroke-width:0.25;"/>
<line x1="299.300000" y1="114.000000" x2="303.300000" y2="114.000000"  style="stroke:black; stroke-linecap:round; stroke-width:0.25;"/>
<line x1="299.300000" y1="122.000000" x2="303.300000" y2="122.000000"  style="stroke:black; stroke-linecap:round; stroke-width:0.25;"/>
<line x1="299.300000" y1="130.000000" x2="303.300000" y2="130.000000"  style="stroke:black; stroke-linecap:round; stroke-width:0.25;"/>
<line x1="299.300000" y1="138.000000" x2="303.300000" y2="138.000000"  style="stroke:black; stroke-linecap:round; stroke-width:0.25;"/>
<line x1="299.300000" y1="146.000000" x2="303.300000" y2="146.000000"  style="stroke:black; stroke-linecap:round; stroke-width:0.25;"/>
<line x1="303.300000" y1="74.000000" x2="313.300000" y2="74.000000"  style="stroke:black; stroke-linecap:round; stroke-width:0.25;"/>
<line x1="303.300000" y1="98.000000" x2="313.300000" y2="98.000000"  style="stroke:black; stroke-linecap:round; stroke-width:0.25;"/>
<line x1="303.300000" y1="106.000000" x2="313.300000" y2="106.000000"  style="stroke:black; stroke-linecap:round; stroke-width:0.25;"/>
<line x1="303.300000" y1="114.000000" x2="313.300000" y2="114.000000"  style="stroke:black; stroke-linecap:round; stroke-width:0.25;"/>
<line x1="303.300000" y1="122.000000" x2="313.300000" y2="122.000000"  style="stroke:black; stroke-linecap:round; stroke-width:0.25;"/>
<line x1="303.300000" y1="130.000000" x2="313.300000" y2="130.000000"  style="stroke:black; stroke-linecap:round; stroke-width:0.25;"/>
<line x1="303.300000" y1="138.000000" x2="313.300000" y2="138.000000"  style="stroke:black; stroke-linecap:round; stroke-width:0.25;"/>
<line x1="303.300000" y1="146.000000" x2="313.300000" y2="146.000000"  style="stroke:black; stroke-linecap:round; stroke-width:0.25;"/>
<line x1="313.300000" y1="74.000000" x2="323.300000" y2="74.000000"  style="stroke:black; stroke-linecap:round; stroke-width:0.25;"/>
<line x1="313.300000" y1="98.000000" x2="323.300000" y2="98.000000"  style="stroke:black; stroke-linecap:round; stroke-width:0.25;"/>
<line x1="313.300000" y1="106.000000" x2="323.300000" y2="106.000000"  style="stroke:black; stroke-linecap:round; stroke-width:0.25;"/>
<line x1="313.300000" y1="114.000000" x2="323.300000" y2="114.000000"  style="stroke:black; stroke-linecap:round; stroke-width:0.25;"/>
<line x1="313.300000" y1="122.000000" x2="323.300000" y2="122.000000"  style="stroke:black; stroke-linecap:round; stroke-width:0.25;"/>
<line x1="313.300000" y1="130.000000" x2="323.300000" y2="130.000000"  style="stroke:black; stroke-linecap:round; stroke-width:0.25;"/>
<line x1="313.300000" y1="138.000000" x2="323.300000" y2="138.000000"  style="stroke:black; stroke-linecap:round; stroke-width:0.25;"/>
<line x1="313.300000" y1="146.000000" x2="323.300000" y2="146.000000"  style="stroke:black; stroke-linecap:round; stroke-width:0.25;"/>
<line x1="323.300000" y1="74.000000" x2="379.300000" y2="74.000000"  style="stroke:black; stroke-linecap:round; stroke-width:0.25;"/>
<line x1="323.300000" y1="86.000000" x2="379.300000" y2="86.000000"  style="stroke:black; stroke-linecap:round; stroke-width:0.25;"/>
<line x1="323.300000" y1="98.000000" x2="323.300000" y2="86.000000"  style="stroke:black; stroke-linecap:round; stroke-width:0.25;"/>
<line x1="323.300000" y1="98.000000" x2="323.300000" y2="98.000000"  style="stroke:black; stroke-linecap:round; stroke-width:0.25;"/>
<line x1="323.300000" y1="106.000000" x2="331.300000" y2="106.000000"  style="stroke:black; stroke-linecap:round; stroke-width:0.25;"/>
<line x1="323.300000" y1="114.000000" x2="339.300000" y2="114.000000"  style="stroke:black; stroke-linecap:round; stroke-width:0.25;"/>
<line x1="323.300000" y1="122.000000" x2="347.300000" y2="122.000000"  style="stroke:black; stroke-linecap:round; stroke-width:0.25;"/>
<line x1="323.300000" y1="130.000000" x2="355.300000" y2="130.000000"  style="stroke:black; stroke-linecap:round; stroke-width:0.25;"/>
<line x1="323.300000" y1="138.000000" x2="363.300000" y2="138.000000"  style="stroke:black; stroke-linecap:round; stroke-width:0.25;"/>
<line x1="323.300000" y1="146.000000" x2="371.300000" y2="146.000000"  style="stroke:black; stroke-linecap:round; stroke-width:0.25;"/>
<line x1="331.300000" y1="94.000000" x2="379.300000" y2="94.000000"  style="stroke:black; stroke-linecap:round; stroke-width:0.25;"/>
<line x1="331.300000" y1="106.000000" x2="331.300000" y2="94.000000"  style="stroke:black; stroke-linecap:round; stroke-width:0.25;"/>
<line x1="339.300000" y1="102.000000" x2="379.300000" y2="102.000000"  style="stroke:black; stroke-linecap:round; stroke-width:0.25;"/>
<line x1="339.300000" y1="114.000000" x2="339.300000" y2="102.000000"  style="stroke:black; stroke-linecap:round; stroke-width:0.25;"/>
<line x1="347.300000" y1="110.000000" x2="379.300000" y2="110.000000"  style="stroke:black; stroke-linecap:round; stroke-width:0.25;"/>
<line x1="347.300000" y1="122.000000" x2="347.300000" y2="110.000000"  style="stroke:black; stroke-linecap:round; stroke-width:0.25;"/>
<line x1="355.300000" y1="118.000000" x2="379.300000" y2="118.000000"  style="stroke:black; stroke-linecap:round; stroke-width:0.25;"/>
<line x1="355.300000" y1="130.000000" x2="355.300000" y2="118.000000"  style="stroke:black; stroke-linecap:round; stroke-width:0.25;"/>
<line x1="363.300000" y1="126.000000" x2="379.300000" y2="126.000000"  style="stroke:black; stroke-linecap:round; stroke-width:0.25;"/>
<line x1="363.300000" y1="138.000000" x2="363.300000" y2="126.000000"  style="stroke:black; stroke-linecap:round; stroke-width:0.25;"/>
<line x1="371.300000" y1="134.000000" x2="379.300000" y2="134.000000"  style="stroke:black; stroke-linecap:round; stroke-width:0.25;"/>
<line x1="371.300000" y1="146.000000" x2="371.300000" y2="134.000000"  style="stroke:black; stroke-linecap:round; stroke-width:0.25;"/>
<line x1="379.300000" y1="78.000000" x2="383.300000" y2="78.000000"  style="stroke:black; stroke-linecap:round; stroke-width:0.25;"/>
<line x1="379.300000" y1="86.000000" x2="383.300000" y2="86.000000"  style="stroke:black; stroke-linecap:round; stroke-width:0.25;"/>
<line x1="379.300000" y1="94.000000" x2="383.300000" y2="94.000000"  style="stroke:black; stroke-linecap:round; stroke-width:0.25;"/>
<line x1="379.300000" y1="102.000000" x2="383.300000" y2="102.000000"  style="stroke:black; stroke-linecap:round; stroke-width:0.25;"/>
<line x1="379.300000" y1="110.000000" x2="383.300000" y2="110.000000"  style="stroke:black; stroke-linecap:round; stroke-width:0.25;"/>
<line x1="379.300000" y1="118.000000" x2="383.300000" y2="118.000000"  style="stroke:black; stroke-linecap:round; stroke-width:0.25;"/>
<line x1="379.300000" y1="126.000000" x2="383.300000" y2="126.000000"  style="stroke:black; stroke-linecap:round; stroke-width:0.25;"/>
<line x1="379.300000" y1="134.000000" x2="383.300000" y2="134.000000"  style="stroke:black; stroke-linecap:round; stroke-width:0.25;"/>
<line x1="379.300000" y1="74.000000" x2="379.300000" y2="78.000000"  style="stroke:black; stroke-linecap:round; stroke-width:0.25;"/>
<line x1="379.300000" y1="78.000000" x2="379.300000" y2="78.000000"  style="stroke:black; stroke-linecap:round; stroke-width:0.25;"/>
<line x1="383.300000" y1="78.000000" x2="387.300000" y2="78.000000"  style="stroke:black; stroke-linecap:round; stroke-width:0.25;"/>
<line x1="383.300000" y1="86.000000" x2="387.300000" y2="86.000000"  style="stroke:black; stroke-linecap:round; stroke-width:0.25;"/>
<line x1="383.300000" y1="94.000000" x2="387.300000" y2="94.000000"  style="stroke:black; stroke-linecap:round; stroke-width:0.25;"/>
<line x1="383.300000" y1="102.000000" x2="387.300000" y2="102.000000"  style="stroke:black; stroke-linecap:round; stroke-width:0.25;"/>
<line x1="383.300000" y1="110.000000" x2="387.300000" y2="110.000000"  style="stroke:black; stroke-linecap:round; stroke-width:0.25;"/>
<line x1="383.300000" y1="118.000000" x2="387.300000" y2="118.000000"  style="stroke:black; stroke-linecap:round; stroke-width:0.25;"/>
<line x1="383.300000" y1="126.000000" x2="387.300000" y2="126.000000"  style="stroke:black; stroke-linecap:round; stroke-width:0.25;"/>
<line x1="383.300000" y1="134.000000" x2="387.300000" y2="134.000000"  style="stroke:black; stroke-linecap:round; stroke-width:0.25;"/>
<line x1="387.300000" y1="78.000000" x2="397.300000" y2="78.000000"  style="stroke:black; stroke-linecap:round; stroke-width:0.25;"/>
<line x1="387.300000" y1="86.000000" x2="397.300000" y2="86.000000"  style="stroke:black; stroke-linecap:round; stroke-width:0.25;"/>
<line x1="387.300000" y1="94.000000" x2="397.300000" y2="94.000000"  style="stroke:black; stroke-linecap:round; stroke-width:0.25;"/>
<line x1="387.300000" y1="102.000000" x2="397.300000" y2="102.000000"  style="stroke:black; stroke-linecap:round; stroke-width:0.25;"/>
<line x1="387.300000" y1="110.000000" x2="397.300000" y2="110.000000"  style="stroke:black; stroke-linecap:round; stroke-width:0.25;"/>
<line x1="387.300000" y1="118.000000" x2="397.300000" y2="118.000000"  style="stroke:black; stroke-linecap:round; stroke-width:0.25;"/>
<line x1="387.300000" y1="126.000000" x2="397.300000" y2="126.000000"  style="stroke:black; stroke-linecap:round; stroke-width:0.25;"/>
<line x1="387.300000" y1="134.000000" x2="397.300000" y2="134.000000"  style="stroke:black; stroke-linecap:round; stroke-width:0.25;"/>
</svg>
