<?xml version="1.0"?>
<svg xmlns="http://www.w3.org/2000/svg" xmlns:xlink="http://www.w3.org/1999/xlink" viewBox="0 0 741.400000 112.000000" width="370.700000mm" height="56.000000mm" version="1.1">
<a xlink:href="inpeq-0x7fc295740920.svg">
<rect x="1.000000" y="1.000000" width="740.400000" height="111.000000" rx="0" ry="0" style="stroke:none;fill:#cccccc;"/>
<rect x="0.000000" y="0.000000" width="740.400000" height="111.000000" rx="0" ry="0" style="stroke:none;fill:#ffffff;"/>
</a>
<text x="10.000000" y="7.000000" font-family="Arial" font-size="7"></text>
<a xlink:href="eq-0x7fc28ea676f0.svg">
<rect x="342.350000" y="25.000000" width="24.000000" height="24.000000" rx="0" ry="0" style="stroke:none;fill:#cccccc;"/>
<rect x="341.350000" y="24.000000" width="24.000000" height="24.000000" rx="0" ry="0" style="stroke:none;fill:#003366;"/>
</a>
<a xlink:href="eq-0x7fc28ea676f0.svg">
<text x="353.350000" y="38.000000" font-family="Arial" font-size="7" text-anchor="middle" fill="#FFFFFF">eq</text>
</a>
<circle cx="343.350000" cy="26.000000" r="1"/>
<a xlink:href="inswitch-0x7fc28ea98420.svg">
<rect x="61.000000" y="57.000000" width="38.700000" height="24.000000" rx="0" ry="0" style="stroke:none;fill:#cccccc;"/>
<rect x="60.000000" y="56.000000" width="38.700000" height="24.000000" rx="0" ry="0" style="stroke:none;fill:#003366;"/>
</a>
<a xlink:href="inswitch-0x7fc28ea98420.svg">
<text x="79.350000" y="70.000000" font-family="Arial" font-size="7" text-anchor="middle" fill="#FFFFFF">inswitch</text>
</a>
<circle cx="62.000000" cy="58.000000" r="1"/>
<line x1="57.000000" y1="67.000000" x2="60.000000" y2="68.000000"  transform="rotate(0.000000,60.000000,68.000000)" style="stroke: black; stroke-width:0.25;"/>
<line x1="57.000000" y1="69.000000" x2="60.000000" y2="68.000000"  transform="rotate(0.000000,60.000000,68.000000)" style="stroke: black; stroke-width:0.25;"/>
<a xlink:href="low-0x7fc28eaa8c00.svg">
<rect x="107.700000" y="57.000000" width="129.000000" height="24.000000" rx="0" ry="0" style="stroke:none;fill:#cccccc;"/>
<rect x="106.700000" y="56.000000" width="129.000000" height="24.000000" rx="0" ry="0" style="stroke:none;fill:#003366;"/>
</a>
<a xlink:href="low-0x7fc28eaa8c00.svg">
<text x="171.200000" y="70.000000" font-family="Arial" font-size="7" text-anchor="middle" fill="#FFFFFF">low_shelf(vgr....999f : *))))</text>
</a>
<circle cx="108.700000" cy="58.000000" r="1"/>
<line x1="103.700000" y1="67.000000" x2="106.700000" y2="68.000000"  transform="rotate(0.000000,106.700000,68.000000)" style="stroke: black; stroke-width:0.25;"/>
<line x1="103.700000" y1="69.000000" x2="106.700000" y2="68.000000"  transform="rotate(0.000000,106.700000,68.000000)" style="stroke: black; stroke-width:0.25;"/>
<a xlink:href="peak-0x7fc28eaa8e20.svg">
<rect x="244.700000" y="57.000000" width="129.000000" height="24.000000" rx="0" ry="0" style="stroke:none;fill:#cccccc;"/>
<rect x="243.700000" y="56.000000" width="129.000000" height="24.000000" rx="0" ry="0" style="stroke:none;fill:#003366;"/>
</a>
<a xlink:href="peak-0x7fc28eaa8e20.svg">
<text x="308.200000" y="70.000000" font-family="Arial" font-size="7" text-anchor="middle" fill="#FFFFFF">peak_eq(vgrou...f : *))) : /)</text>
</a>
<circle cx="245.700000" cy="58.000000" r="1"/>
<line x1="240.700000" y1="67.000000" x2="243.700000" y2="68.000000"  transform="rotate(0.000000,243.700000,68.000000)" style="stroke: black; stroke-width:0.25;"/>
<line x1="240.700000" y1="69.000000" x2="243.700000" y2="68.000000"  transform="rotate(0.000000,243.700000,68.000000)" style="stroke: black; stroke-width:0.25;"/>
<a xlink:href="peak-0x7fc28eaa9040.svg">
<rect x="381.700000" y="57.000000" width="129.000000" height="24.000000" rx="0" ry="0" style="stroke:none;fill:#cccccc;"/>
<rect x="380.700000" y="56.000000" width="129.000000" height="24.000000" rx="0" ry="0" style="stroke:none;fill:#003366;"/>
</a>
<a xlink:href="peak-0x7fc28eaa9040.svg">
<text x="445.200000" y="70.000000" font-family="Arial" font-size="7" text-anchor="middle" fill="#FFFFFF">peak_eq(vgrou...f : *))) : /)</text>
</a>
<circle cx="382.700000" cy="58.000000" r="1"/>
<line x1="377.700000" y1="67.000000" x2="380.700000" y2="68.000000"  transform="rotate(0.000000,380.700000,68.000000)" style="stroke: black; stroke-width:0.25;"/>
<line x1="377.700000" y1="69.000000" x2="380.700000" y2="68.000000"  transform="rotate(0.000000,380.700000,68.000000)" style="stroke: black; stroke-width:0.25;"/>
<a xlink:href="high-0x7fc28eaa9be0.svg">
<rect x="518.700000" y="57.000000" width="129.000000" height="24.000000" rx="0" ry="0" style="stroke:none;fill:#cccccc;"/>
<rect x="517.700000" y="56.000000" width="129.000000" height="24.000000" rx="0" ry="0" style="stroke:none;fill:#003366;"/>
</a>
<a xlink:href="high-0x7fc28eaa9be0.svg">
<text x="582.200000" y="70.000000" font-family="Arial" font-size="7" text-anchor="middle" fill="#FFFFFF">high_shelf(vg....999f : *))))</text>
</a>
<circle cx="519.700000" cy="58.000000" r="1"/>
<line x1="514.700000" y1="67.000000" x2="517.700000" y2="68.000000"  transform="rotate(0.000000,517.700000,68.000000)" style="stroke: black; stroke-width:0.25;"/>
<line x1="514.700000" y1="69.000000" x2="517.700000" y2="68.000000"  transform="rotate(0.000000,517.700000,68.000000)" style="stroke: black; stroke-width:0.25;"/>
<rect x="671.700000" y="45.000000" width="38.700000" height="24.000000" rx="0" ry="0" style="stroke:none;fill:#cccccc;"/>
<rect x="670.700000" y="44.000000" width="38.700000" height="24.000000" rx="0" ry="0" style="stroke:none;fill:#4B71A1;"/>
<text x="690.050000" y="58.000000" font-family="Arial" font-size="7" text-anchor="middle" fill="#FFFFFF">select2</text>
<circle cx="672.700000" cy="46.000000" r="1"/>
<line x1="667.700000" y1="47.000000" x2="670.700000" y2="48.000000"  transform="rotate(0.000000,670.700000,48.000000)" style="stroke: black; stroke-width:0.25;"/>
<line x1="667.700000" y1="49.000000" x2="670.700000" y2="48.000000"  transform="rotate(0.000000,670.700000,48.000000)" style="stroke: black; stroke-width:0.25;"/>
<line x1="667.700000" y1="55.000000" x2="670.700000" y2="56.000000"  transform="rotate(0.000000,670.700000,56.000000)" style="stroke: black; stroke-width:0.25;"/>
<line x1="667.700000" y1="57.000000" x2="670.700000" y2="56.000000"  transform="rotate(0.000000,670.700000,56.000000)" style="stroke: black; stroke-width:0.25;"/>
<line x1="667.700000" y1="63.000000" x2="670.700000" y2="64.000000"  transform="rotate(0.000000,670.700000,64.000000)" style="stroke: black; stroke-width:0.25;"/>
<line x1="667.700000" y1="65.000000" x2="670.700000" y2="64.000000"  transform="rotate(0.000000,670.700000,64.000000)" style="stroke: black; stroke-width:0.25;"/>
<line x1="15.000000" y1="15.000000" x2="15.000000" y2="97.000000"  style="stroke: black; stroke-linecap:round; stroke-width:0.25; stroke-dasharray:3,3;"/>
<line x1="15.000000" y1="97.000000" x2="726.400000" y2="97.000000"  style="stroke: black; stroke-linecap:round; stroke-width:0.25; stroke-dasharray:3,3;"/>
<line x1="726.400000" y1="97.000000" x2="726.400000" y2="15.000000"  style="stroke: black; stroke-linecap:round; stroke-width:0.25; stroke-dasharray:3,3;"/>
<line x1="15.000000" y1="15.000000" x2="20.000000" y2="15.000000"  style="stroke: black; stroke-linecap:round; stroke-width:0.25; stroke-dasharray:3,3;"/>
<line x1="119.975000" y1="15.000000" x2="726.400000" y2="15.000000"  style="stroke: black; stroke-linecap:round; stroke-width:0.25; stroke-dasharray:3,3;"/>
<text x="20.000000" y="17.000000" font-family="Arial" font-size="7">bypass1(vgrou...w) : *),_:&gt;_)</text>
<line x1="728.400000" y1="55.000000" x2="731.400000" y2="56.000000"  transform="rotate(0.000000,731.400000,56.000000)" style="stroke: black; stroke-width:0.25;"/>
<line x1="728.400000" y1="57.000000" x2="731.400000" y2="56.000000"  transform="rotate(0.000000,731.400000,56.000000)" style="stroke: black; stroke-width:0.25;"/>
<line x1="10.000000" y1="56.000000" x2="20.000000" y2="56.000000"  style="stroke:black; stroke-linecap:round; stroke-width:0.25;"/>
<line x1="20.000000" y1="56.000000" x2="24.000000" y2="56.000000"  style="stroke:black; stroke-linecap:round; stroke-width:0.25;"/>
<line x1="24.000000" y1="56.000000" x2="28.000000" y2="56.000000"  style="stroke:black; stroke-linecap:round; stroke-width:0.25;"/>
<line x1="28.000000" y1="56.000000" x2="28.000000" y2="56.000000"  style="stroke:black; stroke-linecap:round; stroke-width:0.25;"/>
<line x1="28.000000" y1="56.000000" x2="32.000000" y2="56.000000"  style="stroke:black; stroke-linecap:round; stroke-width:0.25;"/>
<line x1="32.000000" y1="56.000000" x2="36.000000" y2="56.000000"  style="stroke:black; stroke-linecap:round; stroke-width:0.25;"/>
<line x1="36.000000" y1="56.000000" x2="56.000000" y2="68.000000"  style="stroke:black; stroke-linecap:round; stroke-width:0.25;"/>
<line x1="36.000000" y1="56.000000" x2="56.000000" y2="88.000000"  style="stroke:black; stroke-linecap:round; stroke-width:0.25;"/>
<line x1="56.000000" y1="68.000000" x2="60.000000" y2="68.000000"  style="stroke:black; stroke-linecap:round; stroke-width:0.25;"/>
<line x1="56.000000" y1="88.000000" x2="353.350000" y2="88.000000"  style="stroke:black; stroke-linecap:round; stroke-width:0.25;"/>
<line x1="98.700000" y1="68.000000" x2="102.700000" y2="68.000000"  style="stroke:black; stroke-linecap:round; stroke-width:0.25;"/>
<line x1="102.700000" y1="68.000000" x2="102.700000" y2="68.000000"  style="stroke:black; stroke-linecap:round; stroke-width:0.25;"/>
<line x1="102.700000" y1="68.000000" x2="106.700000" y2="68.000000"  style="stroke:black; stroke-linecap:round; stroke-width:0.25;"/>
<line x1="235.700000" y1="68.000000" x2="239.700000" y2="68.000000"  style="stroke:black; stroke-linecap:round; stroke-width:0.25;"/>
<line x1="239.700000" y1="68.000000" x2="239.700000" y2="68.000000"  style="stroke:black; stroke-linecap:round; stroke-width:0.25;"/>
<line x1="239.700000" y1="68.000000" x2="243.700000" y2="68.000000"  style="stroke:black; stroke-linecap:round; stroke-width:0.25;"/>
<line x1="353.350000" y1="88.000000" x2="650.700000" y2="88.000000"  style="stroke:black; stroke-linecap:round; stroke-width:0.25;"/>
<line x1="365.350000" y1="36.000000" x2="369.350000" y2="36.000000"  style="stroke:black; stroke-linecap:round; stroke-width:0.25;"/>
<line x1="369.350000" y1="36.000000" x2="650.700000" y2="36.000000"  style="stroke:black; stroke-linecap:round; stroke-width:0.25;"/>
<line x1="372.700000" y1="68.000000" x2="376.700000" y2="68.000000"  style="stroke:black; stroke-linecap:round; stroke-width:0.25;"/>
<line x1="376.700000" y1="68.000000" x2="376.700000" y2="68.000000"  style="stroke:black; stroke-linecap:round; stroke-width:0.25;"/>
<line x1="376.700000" y1="68.000000" x2="380.700000" y2="68.000000"  style="stroke:black; stroke-linecap:round; stroke-width:0.25;"/>
<line x1="509.700000" y1="68.000000" x2="513.700000" y2="68.000000"  style="stroke:black; stroke-linecap:round; stroke-width:0.25;"/>
<line x1="513.700000" y1="68.000000" x2="513.700000" y2="68.000000"  style="stroke:black; stroke-linecap:round; stroke-width:0.25;"/>
<line x1="513.700000" y1="68.000000" x2="517.700000" y2="68.000000"  style="stroke:black; stroke-linecap:round; stroke-width:0.25;"/>
<line x1="646.700000" y1="68.000000" x2="650.700000" y2="68.000000"  style="stroke:black; stroke-linecap:round; stroke-width:0.25;"/>
<line x1="650.700000" y1="36.000000" x2="666.700000" y2="36.000000"  style="stroke:black; stroke-linecap:round; stroke-width:0.25;"/>
<line x1="650.700000" y1="56.000000" x2="666.700000" y2="56.000000"  style="stroke:black; stroke-linecap:round; stroke-width:0.25;"/>
<line x1="650.700000" y1="68.000000" x2="650.700000" y2="56.000000"  style="stroke:black; stroke-linecap:round; stroke-width:0.25;"/>
<line x1="650.700000" y1="68.000000" x2="650.700000" y2="68.000000"  style="stroke:black; stroke-linecap:round; stroke-width:0.25;"/>
<line x1="650.700000" y1="88.000000" x2="658.700000" y2="88.000000"  style="stroke:black; stroke-linecap:round; stroke-width:0.25;"/>
<line x1="658.700000" y1="64.000000" x2="666.700000" y2="64.000000"  style="stroke:black; stroke-linecap:round; stroke-width:0.25;"/>
<line x1="658.700000" y1="88.000000" x2="658.700000" y2="64.000000"  style="stroke:black; stroke-linecap:round; stroke-width:0.25;"/>
<line x1="666.700000" y1="36.000000" x2="666.700000" y2="48.000000"  style="stroke:black; stroke-linecap:round; stroke-width:0.25;"/>
<line x1="666.700000" y1="48.000000" x2="666.700000" y2="48.000000"  style="stroke:black; stroke-linecap:round; stroke-width:0.25;"/>
<line x1="666.700000" y1="48.000000" x2="670.700000" y2="48.000000"  style="stroke:black; stroke-linecap:round; stroke-width:0.25;"/>
<line x1="666.700000" y1="56.000000" x2="670.700000" y2="56.000000"  style="stroke:black; stroke-linecap:round; stroke-width:0.25;"/>
<line x1="666.700000" y1="64.000000" x2="670.700000" y2="64.000000"  style="stroke:black; stroke-linecap:round; stroke-width:0.25;"/>
<line x1="709.400000" y1="56.000000" x2="713.400000" y2="56.000000"  style="stroke:black; stroke-linecap:round; stroke-width:0.25;"/>
<line x1="713.400000" y1="56.000000" x2="713.400000" y2="56.000000"  style="stroke:black; stroke-linecap:round; stroke-width:0.25;"/>
<line x1="713.400000" y1="56.000000" x2="717.400000" y2="56.000000"  style="stroke:black; stroke-linecap:round; stroke-width:0.25;"/>
<line x1="717.400000" y1="56.000000" x2="721.400000" y2="56.000000"  style="stroke:black; stroke-linecap:round; stroke-width:0.25;"/>
<line x1="721.400000" y1="56.000000" x2="731.400000" y2="56.000000"  style="stroke:black; stroke-linecap:round; stroke-width:0.25;"/>
</svg>
