<?xml version="1.0"?>
<svg xmlns="http://www.w3.org/2000/svg" xmlns:xlink="http://www.w3.org/1999/xlink" viewBox="0 0 330.400000 112.000000" width="165.200000mm" height="56.000000mm" version="1.1">
<a xlink:href="pregroup-0x7f9ad9f6da60.svg">
<rect x="1.000000" y="1.000000" width="329.400000" height="111.000000" rx="0" ry="0" style="stroke:none;fill:#cccccc;"/>
<rect x="0.000000" y="0.000000" width="329.400000" height="111.000000" rx="0" ry="0" style="stroke:none;fill:#ffffff;"/>
</a>
<text x="10.000000" y="7.000000" font-family="Arial" font-size="7"></text>
<a xlink:href="hip-0x7f9ad0508240.svg">
<rect x="136.850000" y="25.000000" width="24.000000" height="24.000000" rx="0" ry="0" style="stroke:none;fill:#cccccc;"/>
<rect x="135.850000" y="24.000000" width="24.000000" height="24.000000" rx="0" ry="0" style="stroke:none;fill:#003366;"/>
</a>
<a xlink:href="hip-0x7f9ad0508240.svg">
<text x="147.850000" y="38.000000" font-family="Arial" font-size="7" text-anchor="middle" fill="#FFFFFF">hip</text>
</a>
<circle cx="137.850000" cy="26.000000" r="1"/>
<a xlink:href="inswitch-0x7f9ad2aa0520.svg">
<rect x="61.000000" y="57.000000" width="38.700000" height="24.000000" rx="0" ry="0" style="stroke:none;fill:#cccccc;"/>
<rect x="60.000000" y="56.000000" width="38.700000" height="24.000000" rx="0" ry="0" style="stroke:none;fill:#003366;"/>
</a>
<a xlink:href="inswitch-0x7f9ad2aa0520.svg">
<text x="79.350000" y="70.000000" font-family="Arial" font-size="7" text-anchor="middle" fill="#FFFFFF">inswitch</text>
</a>
<circle cx="62.000000" cy="58.000000" r="1"/>
<line x1="57.000000" y1="67.000000" x2="60.000000" y2="68.000000"  transform="rotate(0.000000,60.000000,68.000000)" style="stroke: black; stroke-width:0.25;"/>
<line x1="57.000000" y1="69.000000" x2="60.000000" y2="68.000000"  transform="rotate(0.000000,60.000000,68.000000)" style="stroke: black; stroke-width:0.25;"/>
<a xlink:href="highpass-0x7f9ad9f6d3e0.svg">
<rect x="107.700000" y="57.000000" width="129.000000" height="24.000000" rx="0" ry="0" style="stroke:none;fill:#cccccc;"/>
<rect x="106.700000" y="56.000000" width="129.000000" height="24.000000" rx="0" ry="0" style="stroke:none;fill:#003366;"/>
</a>
<a xlink:href="highpass-0x7f9ad9f6d3e0.svg">
<text x="171.200000" y="70.000000" font-family="Arial" font-size="7" text-anchor="middle" fill="#FFFFFF">highpass(2)(h...,0.999f : *))</text>
</a>
<circle cx="108.700000" cy="58.000000" r="1"/>
<line x1="103.700000" y1="67.000000" x2="106.700000" y2="68.000000"  transform="rotate(0.000000,106.700000,68.000000)" style="stroke: black; stroke-width:0.25;"/>
<line x1="103.700000" y1="69.000000" x2="106.700000" y2="68.000000"  transform="rotate(0.000000,106.700000,68.000000)" style="stroke: black; stroke-width:0.25;"/>
<rect x="260.700000" y="45.000000" width="38.700000" height="24.000000" rx="0" ry="0" style="stroke:none;fill:#cccccc;"/>
<rect x="259.700000" y="44.000000" width="38.700000" height="24.000000" rx="0" ry="0" style="stroke:none;fill:#4B71A1;"/>
<text x="279.050000" y="58.000000" font-family="Arial" font-size="7" text-anchor="middle" fill="#FFFFFF">select2</text>
<circle cx="261.700000" cy="46.000000" r="1"/>
<line x1="256.700000" y1="47.000000" x2="259.700000" y2="48.000000"  transform="rotate(0.000000,259.700000,48.000000)" style="stroke: black; stroke-width:0.25;"/>
<line x1="256.700000" y1="49.000000" x2="259.700000" y2="48.000000"  transform="rotate(0.000000,259.700000,48.000000)" style="stroke: black; stroke-width:0.25;"/>
<line x1="256.700000" y1="55.000000" x2="259.700000" y2="56.000000"  transform="rotate(0.000000,259.700000,56.000000)" style="stroke: black; stroke-width:0.25;"/>
<line x1="256.700000" y1="57.000000" x2="259.700000" y2="56.000000"  transform="rotate(0.000000,259.700000,56.000000)" style="stroke: black; stroke-width:0.25;"/>
<line x1="256.700000" y1="63.000000" x2="259.700000" y2="64.000000"  transform="rotate(0.000000,259.700000,64.000000)" style="stroke: black; stroke-width:0.25;"/>
<line x1="256.700000" y1="65.000000" x2="259.700000" y2="64.000000"  transform="rotate(0.000000,259.700000,64.000000)" style="stroke: black; stroke-width:0.25;"/>
<line x1="15.000000" y1="15.000000" x2="15.000000" y2="97.000000"  style="stroke: black; stroke-linecap:round; stroke-width:0.25; stroke-dasharray:3,3;"/>
<line x1="15.000000" y1="97.000000" x2="315.400000" y2="97.000000"  style="stroke: black; stroke-linecap:round; stroke-width:0.25; stroke-dasharray:3,3;"/>
<line x1="315.400000" y1="97.000000" x2="315.400000" y2="15.000000"  style="stroke: black; stroke-linecap:round; stroke-width:0.25; stroke-dasharray:3,3;"/>
<line x1="15.000000" y1="15.000000" x2="20.000000" y2="15.000000"  style="stroke: black; stroke-linecap:round; stroke-width:0.25; stroke-dasharray:3,3;"/>
<line x1="119.975000" y1="15.000000" x2="315.400000" y2="15.000000"  style="stroke: black; stroke-linecap:round; stroke-width:0.25; stroke-dasharray:3,3;"/>
<text x="20.000000" y="17.000000" font-family="Arial" font-size="7">bypass1(1,che...: /) : *):&gt;_)</text>
<line x1="317.400000" y1="55.000000" x2="320.400000" y2="56.000000"  transform="rotate(0.000000,320.400000,56.000000)" style="stroke: black; stroke-width:0.25;"/>
<line x1="317.400000" y1="57.000000" x2="320.400000" y2="56.000000"  transform="rotate(0.000000,320.400000,56.000000)" style="stroke: black; stroke-width:0.25;"/>
<line x1="10.000000" y1="56.000000" x2="20.000000" y2="56.000000"  style="stroke:black; stroke-linecap:round; stroke-width:0.25;"/>
<line x1="20.000000" y1="56.000000" x2="24.000000" y2="56.000000"  style="stroke:black; stroke-linecap:round; stroke-width:0.25;"/>
<line x1="24.000000" y1="56.000000" x2="28.000000" y2="56.000000"  style="stroke:black; stroke-linecap:round; stroke-width:0.25;"/>
<line x1="28.000000" y1="56.000000" x2="28.000000" y2="56.000000"  style="stroke:black; stroke-linecap:round; stroke-width:0.25;"/>
<line x1="28.000000" y1="56.000000" x2="32.000000" y2="56.000000"  style="stroke:black; stroke-linecap:round; stroke-width:0.25;"/>
<line x1="32.000000" y1="56.000000" x2="36.000000" y2="56.000000"  style="stroke:black; stroke-linecap:round; stroke-width:0.25;"/>
<line x1="36.000000" y1="56.000000" x2="56.000000" y2="68.000000"  style="stroke:black; stroke-linecap:round; stroke-width:0.25;"/>
<line x1="36.000000" y1="56.000000" x2="56.000000" y2="88.000000"  style="stroke:black; stroke-linecap:round; stroke-width:0.25;"/>
<line x1="56.000000" y1="68.000000" x2="60.000000" y2="68.000000"  style="stroke:black; stroke-linecap:round; stroke-width:0.25;"/>
<line x1="56.000000" y1="88.000000" x2="147.850000" y2="88.000000"  style="stroke:black; stroke-linecap:round; stroke-width:0.25;"/>
<line x1="98.700000" y1="68.000000" x2="102.700000" y2="68.000000"  style="stroke:black; stroke-linecap:round; stroke-width:0.25;"/>
<line x1="102.700000" y1="68.000000" x2="102.700000" y2="68.000000"  style="stroke:black; stroke-linecap:round; stroke-width:0.25;"/>
<line x1="102.700000" y1="68.000000" x2="106.700000" y2="68.000000"  style="stroke:black; stroke-linecap:round; stroke-width:0.25;"/>
<line x1="147.850000" y1="88.000000" x2="239.700000" y2="88.000000"  style="stroke:black; stroke-linecap:round; stroke-width:0.25;"/>
<line x1="159.850000" y1="36.000000" x2="163.850000" y2="36.000000"  style="stroke:black; stroke-linecap:round; stroke-width:0.25;"/>
<line x1="163.850000" y1="36.000000" x2="239.700000" y2="36.000000"  style="stroke:black; stroke-linecap:round; stroke-width:0.25;"/>
<line x1="235.700000" y1="68.000000" x2="239.700000" y2="68.000000"  style="stroke:black; stroke-linecap:round; stroke-width:0.25;"/>
<line x1="239.700000" y1="36.000000" x2="255.700000" y2="36.000000"  style="stroke:black; stroke-linecap:round; stroke-width:0.25;"/>
<line x1="239.700000" y1="56.000000" x2="255.700000" y2="56.000000"  style="stroke:black; stroke-linecap:round; stroke-width:0.25;"/>
<line x1="239.700000" y1="68.000000" x2="239.700000" y2="56.000000"  style="stroke:black; stroke-linecap:round; stroke-width:0.25;"/>
<line x1="239.700000" y1="68.000000" x2="239.700000" y2="68.000000"  style="stroke:black; stroke-linecap:round; stroke-width:0.25;"/>
<line x1="239.700000" y1="88.000000" x2="247.700000" y2="88.000000"  style="stroke:black; stroke-linecap:round; stroke-width:0.25;"/>
<line x1="247.700000" y1="64.000000" x2="255.700000" y2="64.000000"  style="stroke:black; stroke-linecap:round; stroke-width:0.25;"/>
<line x1="247.700000" y1="88.000000" x2="247.700000" y2="64.000000"  style="stroke:black; stroke-linecap:round; stroke-width:0.25;"/>
<line x1="255.700000" y1="36.000000" x2="255.700000" y2="48.000000"  style="stroke:black; stroke-linecap:round; stroke-width:0.25;"/>
<line x1="255.700000" y1="48.000000" x2="255.700000" y2="48.000000"  style="stroke:black; stroke-linecap:round; stroke-width:0.25;"/>
<line x1="255.700000" y1="48.000000" x2="259.700000" y2="48.000000"  style="stroke:black; stroke-linecap:round; stroke-width:0.25;"/>
<line x1="255.700000" y1="56.000000" x2="259.700000" y2="56.000000"  style="stroke:black; stroke-linecap:round; stroke-width:0.25;"/>
<line x1="255.700000" y1="64.000000" x2="259.700000" y2="64.000000"  style="stroke:black; stroke-linecap:round; stroke-width:0.25;"/>
<line x1="298.400000" y1="56.000000" x2="302.400000" y2="56.000000"  style="stroke:black; stroke-linecap:round; stroke-width:0.25;"/>
<line x1="302.400000" y1="56.000000" x2="302.400000" y2="56.000000"  style="stroke:black; stroke-linecap:round; stroke-width:0.25;"/>
<line x1="302.400000" y1="56.000000" x2="306.400000" y2="56.000000"  style="stroke:black; stroke-linecap:round; stroke-width:0.25;"/>
<line x1="306.400000" y1="56.000000" x2="310.400000" y2="56.000000"  style="stroke:black; stroke-linecap:round; stroke-width:0.25;"/>
<line x1="310.400000" y1="56.000000" x2="320.400000" y2="56.000000"  style="stroke:black; stroke-linecap:round; stroke-width:0.25;"/>
</svg>
