<?xml version="1.0"?>
<svg xmlns="http://www.w3.org/2000/svg" xmlns:xlink="http://www.w3.org/1999/xlink" viewBox="0 0 155.600000 192.000000" width="77.800000mm" height="96.000000mm" version="1.1">
<a xlink:href="crota-0x7fc7c0131080.svg">
<rect x="1.000000" y="1.000000" width="154.600000" height="191.000000" rx="0" ry="0" style="stroke:none;fill:#cccccc;"/>
<rect x="0.000000" y="0.000000" width="154.600000" height="191.000000" rx="0" ry="0" style="stroke:none;fill:#ffffff;"/>
</a>
<text x="10.000000" y="7.000000" font-family="Arial" font-size="7"></text>
<a xlink:href="insel-0x7fc7c011f8b0.svg">
<rect x="33.000000" y="25.000000" width="25.800000" height="144.000000" rx="0" ry="0" style="stroke:none;fill:#cccccc;"/>
<rect x="32.000000" y="24.000000" width="25.800000" height="144.000000" rx="0" ry="0" style="stroke:none;fill:#003366;"/>
</a>
<a xlink:href="insel-0x7fc7c011f8b0.svg">
<text x="44.900000" y="98.000000" font-family="Arial" font-size="7" text-anchor="middle" fill="#FFFFFF">insel</text>
</a>
<circle cx="34.000000" cy="26.000000" r="1"/>
<line x1="29.000000" y1="27.000000" x2="32.000000" y2="28.000000"  transform="rotate(0.000000,32.000000,28.000000)" style="stroke: black; stroke-width:0.25;"/>
<line x1="29.000000" y1="29.000000" x2="32.000000" y2="28.000000"  transform="rotate(0.000000,32.000000,28.000000)" style="stroke: black; stroke-width:0.25;"/>
<line x1="29.000000" y1="35.000000" x2="32.000000" y2="36.000000"  transform="rotate(0.000000,32.000000,36.000000)" style="stroke: black; stroke-width:0.25;"/>
<line x1="29.000000" y1="37.000000" x2="32.000000" y2="36.000000"  transform="rotate(0.000000,32.000000,36.000000)" style="stroke: black; stroke-width:0.25;"/>
<line x1="29.000000" y1="43.000000" x2="32.000000" y2="44.000000"  transform="rotate(0.000000,32.000000,44.000000)" style="stroke: black; stroke-width:0.25;"/>
<line x1="29.000000" y1="45.000000" x2="32.000000" y2="44.000000"  transform="rotate(0.000000,32.000000,44.000000)" style="stroke: black; stroke-width:0.25;"/>
<line x1="29.000000" y1="51.000000" x2="32.000000" y2="52.000000"  transform="rotate(0.000000,32.000000,52.000000)" style="stroke: black; stroke-width:0.25;"/>
<line x1="29.000000" y1="53.000000" x2="32.000000" y2="52.000000"  transform="rotate(0.000000,32.000000,52.000000)" style="stroke: black; stroke-width:0.25;"/>
<line x1="29.000000" y1="59.000000" x2="32.000000" y2="60.000000"  transform="rotate(0.000000,32.000000,60.000000)" style="stroke: black; stroke-width:0.25;"/>
<line x1="29.000000" y1="61.000000" x2="32.000000" y2="60.000000"  transform="rotate(0.000000,32.000000,60.000000)" style="stroke: black; stroke-width:0.25;"/>
<line x1="29.000000" y1="67.000000" x2="32.000000" y2="68.000000"  transform="rotate(0.000000,32.000000,68.000000)" style="stroke: black; stroke-width:0.25;"/>
<line x1="29.000000" y1="69.000000" x2="32.000000" y2="68.000000"  transform="rotate(0.000000,32.000000,68.000000)" style="stroke: black; stroke-width:0.25;"/>
<line x1="29.000000" y1="75.000000" x2="32.000000" y2="76.000000"  transform="rotate(0.000000,32.000000,76.000000)" style="stroke: black; stroke-width:0.25;"/>
<line x1="29.000000" y1="77.000000" x2="32.000000" y2="76.000000"  transform="rotate(0.000000,32.000000,76.000000)" style="stroke: black; stroke-width:0.25;"/>
<line x1="29.000000" y1="83.000000" x2="32.000000" y2="84.000000"  transform="rotate(0.000000,32.000000,84.000000)" style="stroke: black; stroke-width:0.25;"/>
<line x1="29.000000" y1="85.000000" x2="32.000000" y2="84.000000"  transform="rotate(0.000000,32.000000,84.000000)" style="stroke: black; stroke-width:0.25;"/>
<line x1="29.000000" y1="91.000000" x2="32.000000" y2="92.000000"  transform="rotate(0.000000,32.000000,92.000000)" style="stroke: black; stroke-width:0.25;"/>
<line x1="29.000000" y1="93.000000" x2="32.000000" y2="92.000000"  transform="rotate(0.000000,32.000000,92.000000)" style="stroke: black; stroke-width:0.25;"/>
<line x1="29.000000" y1="99.000000" x2="32.000000" y2="100.000000"  transform="rotate(0.000000,32.000000,100.000000)" style="stroke: black; stroke-width:0.25;"/>
<line x1="29.000000" y1="101.000000" x2="32.000000" y2="100.000000"  transform="rotate(0.000000,32.000000,100.000000)" style="stroke: black; stroke-width:0.25;"/>
<line x1="29.000000" y1="107.000000" x2="32.000000" y2="108.000000"  transform="rotate(0.000000,32.000000,108.000000)" style="stroke: black; stroke-width:0.25;"/>
<line x1="29.000000" y1="109.000000" x2="32.000000" y2="108.000000"  transform="rotate(0.000000,32.000000,108.000000)" style="stroke: black; stroke-width:0.25;"/>
<line x1="29.000000" y1="115.000000" x2="32.000000" y2="116.000000"  transform="rotate(0.000000,32.000000,116.000000)" style="stroke: black; stroke-width:0.25;"/>
<line x1="29.000000" y1="117.000000" x2="32.000000" y2="116.000000"  transform="rotate(0.000000,32.000000,116.000000)" style="stroke: black; stroke-width:0.25;"/>
<line x1="29.000000" y1="123.000000" x2="32.000000" y2="124.000000"  transform="rotate(0.000000,32.000000,124.000000)" style="stroke: black; stroke-width:0.25;"/>
<line x1="29.000000" y1="125.000000" x2="32.000000" y2="124.000000"  transform="rotate(0.000000,32.000000,124.000000)" style="stroke: black; stroke-width:0.25;"/>
<line x1="29.000000" y1="131.000000" x2="32.000000" y2="132.000000"  transform="rotate(0.000000,32.000000,132.000000)" style="stroke: black; stroke-width:0.25;"/>
<line x1="29.000000" y1="133.000000" x2="32.000000" y2="132.000000"  transform="rotate(0.000000,32.000000,132.000000)" style="stroke: black; stroke-width:0.25;"/>
<line x1="29.000000" y1="139.000000" x2="32.000000" y2="140.000000"  transform="rotate(0.000000,32.000000,140.000000)" style="stroke: black; stroke-width:0.25;"/>
<line x1="29.000000" y1="141.000000" x2="32.000000" y2="140.000000"  transform="rotate(0.000000,32.000000,140.000000)" style="stroke: black; stroke-width:0.25;"/>
<line x1="29.000000" y1="147.000000" x2="32.000000" y2="148.000000"  transform="rotate(0.000000,32.000000,148.000000)" style="stroke: black; stroke-width:0.25;"/>
<line x1="29.000000" y1="149.000000" x2="32.000000" y2="148.000000"  transform="rotate(0.000000,32.000000,148.000000)" style="stroke: black; stroke-width:0.25;"/>
<line x1="29.000000" y1="155.000000" x2="32.000000" y2="156.000000"  transform="rotate(0.000000,32.000000,156.000000)" style="stroke: black; stroke-width:0.25;"/>
<line x1="29.000000" y1="157.000000" x2="32.000000" y2="156.000000"  transform="rotate(0.000000,32.000000,156.000000)" style="stroke: black; stroke-width:0.25;"/>
<line x1="29.000000" y1="163.000000" x2="32.000000" y2="164.000000"  transform="rotate(0.000000,32.000000,164.000000)" style="stroke: black; stroke-width:0.25;"/>
<line x1="29.000000" y1="165.000000" x2="32.000000" y2="164.000000"  transform="rotate(0.000000,32.000000,164.000000)" style="stroke: black; stroke-width:0.25;"/>
<a xlink:href="presec-0x7fc7c0123980.svg">
<rect x="66.800000" y="85.000000" width="25.800000" height="24.000000" rx="0" ry="0" style="stroke:none;fill:#cccccc;"/>
<rect x="65.800000" y="84.000000" width="25.800000" height="24.000000" rx="0" ry="0" style="stroke:none;fill:#003366;"/>
</a>
<a xlink:href="presec-0x7fc7c0123980.svg">
<text x="78.700000" y="98.000000" font-family="Arial" font-size="7" text-anchor="middle" fill="#FFFFFF">presec</text>
</a>
<circle cx="67.800000" cy="86.000000" r="1"/>
<line x1="62.800000" y1="95.000000" x2="65.800000" y2="96.000000"  transform="rotate(0.000000,65.800000,96.000000)" style="stroke: black; stroke-width:0.25;"/>
<line x1="62.800000" y1="97.000000" x2="65.800000" y2="96.000000"  transform="rotate(0.000000,65.800000,96.000000)" style="stroke: black; stroke-width:0.25;"/>
<a xlink:href="peq-0x7fc7c012aa70.svg">
<rect x="100.600000" y="85.000000" width="24.000000" height="24.000000" rx="0" ry="0" style="stroke:none;fill:#cccccc;"/>
<rect x="99.600000" y="84.000000" width="24.000000" height="24.000000" rx="0" ry="0" style="stroke:none;fill:#003366;"/>
</a>
<a xlink:href="peq-0x7fc7c012aa70.svg">
<text x="111.600000" y="98.000000" font-family="Arial" font-size="7" text-anchor="middle" fill="#FFFFFF">peq</text>
</a>
<circle cx="101.600000" cy="86.000000" r="1"/>
<line x1="96.600000" y1="95.000000" x2="99.600000" y2="96.000000"  transform="rotate(0.000000,99.600000,96.000000)" style="stroke: black; stroke-width:0.25;"/>
<line x1="96.600000" y1="97.000000" x2="99.600000" y2="96.000000"  transform="rotate(0.000000,99.600000,96.000000)" style="stroke: black; stroke-width:0.25;"/>
<line x1="15.000000" y1="15.000000" x2="15.000000" y2="177.000000"  style="stroke: black; stroke-linecap:round; stroke-width:0.25; stroke-dasharray:3,3;"/>
<line x1="15.000000" y1="177.000000" x2="140.600000" y2="177.000000"  style="stroke: black; stroke-linecap:round; stroke-width:0.25; stroke-dasharray:3,3;"/>
<line x1="140.600000" y1="177.000000" x2="140.600000" y2="15.000000"  style="stroke: black; stroke-linecap:round; stroke-width:0.25; stroke-dasharray:3,3;"/>
<line x1="15.000000" y1="15.000000" x2="20.000000" y2="15.000000"  style="stroke: black; stroke-linecap:round; stroke-width:0.25; stroke-dasharray:3,3;"/>
<line x1="49.025000" y1="15.000000" x2="140.600000" y2="15.000000"  style="stroke: black; stroke-linecap:round; stroke-width:0.25; stroke-dasharray:3,3;"/>
<text x="20.000000" y="17.000000" font-family="Arial" font-size="7">chstrip</text>
<line x1="142.600000" y1="95.000000" x2="145.600000" y2="96.000000"  transform="rotate(0.000000,145.600000,96.000000)" style="stroke: black; stroke-width:0.25;"/>
<line x1="142.600000" y1="97.000000" x2="145.600000" y2="96.000000"  transform="rotate(0.000000,145.600000,96.000000)" style="stroke: black; stroke-width:0.25;"/>
<line x1="10.000000" y1="28.000000" x2="20.000000" y2="28.000000"  style="stroke:black; stroke-linecap:round; stroke-width:0.25;"/>
<line x1="10.000000" y1="36.000000" x2="20.000000" y2="36.000000"  style="stroke:black; stroke-linecap:round; stroke-width:0.25;"/>
<line x1="10.000000" y1="44.000000" x2="20.000000" y2="44.000000"  style="stroke:black; stroke-linecap:round; stroke-width:0.25;"/>
<line x1="10.000000" y1="52.000000" x2="20.000000" y2="52.000000"  style="stroke:black; stroke-linecap:round; stroke-width:0.25;"/>
<line x1="10.000000" y1="60.000000" x2="20.000000" y2="60.000000"  style="stroke:black; stroke-linecap:round; stroke-width:0.25;"/>
<line x1="10.000000" y1="68.000000" x2="20.000000" y2="68.000000"  style="stroke:black; stroke-linecap:round; stroke-width:0.25;"/>
<line x1="10.000000" y1="76.000000" x2="20.000000" y2="76.000000"  style="stroke:black; stroke-linecap:round; stroke-width:0.25;"/>
<line x1="10.000000" y1="84.000000" x2="20.000000" y2="84.000000"  style="stroke:black; stroke-linecap:round; stroke-width:0.25;"/>
<line x1="10.000000" y1="92.000000" x2="20.000000" y2="92.000000"  style="stroke:black; stroke-linecap:round; stroke-width:0.25;"/>
<line x1="10.000000" y1="100.000000" x2="20.000000" y2="100.000000"  style="stroke:black; stroke-linecap:round; stroke-width:0.25;"/>
<line x1="10.000000" y1="108.000000" x2="20.000000" y2="108.000000"  style="stroke:black; stroke-linecap:round; stroke-width:0.25;"/>
<line x1="10.000000" y1="116.000000" x2="20.000000" y2="116.000000"  style="stroke:black; stroke-linecap:round; stroke-width:0.25;"/>
<line x1="10.000000" y1="124.000000" x2="20.000000" y2="124.000000"  style="stroke:black; stroke-linecap:round; stroke-width:0.25;"/>
<line x1="10.000000" y1="132.000000" x2="20.000000" y2="132.000000"  style="stroke:black; stroke-linecap:round; stroke-width:0.25;"/>
<line x1="10.000000" y1="140.000000" x2="20.000000" y2="140.000000"  style="stroke:black; stroke-linecap:round; stroke-width:0.25;"/>
<line x1="10.000000" y1="148.000000" x2="20.000000" y2="148.000000"  style="stroke:black; stroke-linecap:round; stroke-width:0.25;"/>
<line x1="10.000000" y1="156.000000" x2="20.000000" y2="156.000000"  style="stroke:black; stroke-linecap:round; stroke-width:0.25;"/>
<line x1="10.000000" y1="164.000000" x2="20.000000" y2="164.000000"  style="stroke:black; stroke-linecap:round; stroke-width:0.25;"/>
<line x1="20.000000" y1="28.000000" x2="24.000000" y2="28.000000"  style="stroke:black; stroke-linecap:round; stroke-width:0.25;"/>
<line x1="20.000000" y1="36.000000" x2="24.000000" y2="36.000000"  style="stroke:black; stroke-linecap:round; stroke-width:0.25;"/>
<line x1="20.000000" y1="44.000000" x2="24.000000" y2="44.000000"  style="stroke:black; stroke-linecap:round; stroke-width:0.25;"/>
<line x1="20.000000" y1="52.000000" x2="24.000000" y2="52.000000"  style="stroke:black; stroke-linecap:round; stroke-width:0.25;"/>
<line x1="20.000000" y1="60.000000" x2="24.000000" y2="60.000000"  style="stroke:black; stroke-linecap:round; stroke-width:0.25;"/>
<line x1="20.000000" y1="68.000000" x2="24.000000" y2="68.000000"  style="stroke:black; stroke-linecap:round; stroke-width:0.25;"/>
<line x1="20.000000" y1="76.000000" x2="24.000000" y2="76.000000"  style="stroke:black; stroke-linecap:round; stroke-width:0.25;"/>
<line x1="20.000000" y1="84.000000" x2="24.000000" y2="84.000000"  style="stroke:black; stroke-linecap:round; stroke-width:0.25;"/>
<line x1="20.000000" y1="92.000000" x2="24.000000" y2="92.000000"  style="stroke:black; stroke-linecap:round; stroke-width:0.25;"/>
<line x1="20.000000" y1="100.000000" x2="24.000000" y2="100.000000"  style="stroke:black; stroke-linecap:round; stroke-width:0.25;"/>
<line x1="20.000000" y1="108.000000" x2="24.000000" y2="108.000000"  style="stroke:black; stroke-linecap:round; stroke-width:0.25;"/>
<line x1="20.000000" y1="116.000000" x2="24.000000" y2="116.000000"  style="stroke:black; stroke-linecap:round; stroke-width:0.25;"/>
<line x1="20.000000" y1="124.000000" x2="24.000000" y2="124.000000"  style="stroke:black; stroke-linecap:round; stroke-width:0.25;"/>
<line x1="20.000000" y1="132.000000" x2="24.000000" y2="132.000000"  style="stroke:black; stroke-linecap:round; stroke-width:0.25;"/>
<line x1="20.000000" y1="140.000000" x2="24.000000" y2="140.000000"  style="stroke:black; stroke-linecap:round; stroke-width:0.25;"/>
<line x1="20.000000" y1="148.000000" x2="24.000000" y2="148.000000"  style="stroke:black; stroke-linecap:round; stroke-width:0.25;"/>
<line x1="20.000000" y1="156.000000" x2="24.000000" y2="156.000000"  style="stroke:black; stroke-linecap:round; stroke-width:0.25;"/>
<line x1="20.000000" y1="164.000000" x2="24.000000" y2="164.000000"  style="stroke:black; stroke-linecap:round; stroke-width:0.25;"/>
<line x1="24.000000" y1="28.000000" x2="28.000000" y2="28.000000"  style="stroke:black; stroke-linecap:round; stroke-width:0.25;"/>
<line x1="24.000000" y1="36.000000" x2="28.000000" y2="36.000000"  style="stroke:black; stroke-linecap:round; stroke-width:0.25;"/>
<line x1="24.000000" y1="44.000000" x2="28.000000" y2="44.000000"  style="stroke:black; stroke-linecap:round; stroke-width:0.25;"/>
<line x1="24.000000" y1="52.000000" x2="28.000000" y2="52.000000"  style="stroke:black; stroke-linecap:round; stroke-width:0.25;"/>
<line x1="24.000000" y1="60.000000" x2="28.000000" y2="60.000000"  style="stroke:black; stroke-linecap:round; stroke-width:0.25;"/>
<line x1="24.000000" y1="68.000000" x2="28.000000" y2="68.000000"  style="stroke:black; stroke-linecap:round; stroke-width:0.25;"/>
<line x1="24.000000" y1="76.000000" x2="28.000000" y2="76.000000"  style="stroke:black; stroke-linecap:round; stroke-width:0.25;"/>
<line x1="24.000000" y1="84.000000" x2="28.000000" y2="84.000000"  style="stroke:black; stroke-linecap:round; stroke-width:0.25;"/>
<line x1="24.000000" y1="92.000000" x2="28.000000" y2="92.000000"  style="stroke:black; stroke-linecap:round; stroke-width:0.25;"/>
<line x1="24.000000" y1="100.000000" x2="28.000000" y2="100.000000"  style="stroke:black; stroke-linecap:round; stroke-width:0.25;"/>
<line x1="24.000000" y1="108.000000" x2="28.000000" y2="108.000000"  style="stroke:black; stroke-linecap:round; stroke-width:0.25;"/>
<line x1="24.000000" y1="116.000000" x2="28.000000" y2="116.000000"  style="stroke:black; stroke-linecap:round; stroke-width:0.25;"/>
<line x1="24.000000" y1="124.000000" x2="28.000000" y2="124.000000"  style="stroke:black; stroke-linecap:round; stroke-width:0.25;"/>
<line x1="24.000000" y1="132.000000" x2="28.000000" y2="132.000000"  style="stroke:black; stroke-linecap:round; stroke-width:0.25;"/>
<line x1="24.000000" y1="140.000000" x2="28.000000" y2="140.000000"  style="stroke:black; stroke-linecap:round; stroke-width:0.25;"/>
<line x1="24.000000" y1="148.000000" x2="28.000000" y2="148.000000"  style="stroke:black; stroke-linecap:round; stroke-width:0.25;"/>
<line x1="24.000000" y1="156.000000" x2="28.000000" y2="156.000000"  style="stroke:black; stroke-linecap:round; stroke-width:0.25;"/>
<line x1="24.000000" y1="164.000000" x2="28.000000" y2="164.000000"  style="stroke:black; stroke-linecap:round; stroke-width:0.25;"/>
<line x1="28.000000" y1="28.000000" x2="28.000000" y2="28.000000"  style="stroke:black; stroke-linecap:round; stroke-width:0.25;"/>
<line x1="28.000000" y1="28.000000" x2="32.000000" y2="28.000000"  style="stroke:black; stroke-linecap:round; stroke-width:0.25;"/>
<line x1="28.000000" y1="36.000000" x2="28.000000" y2="36.000000"  style="stroke:black; stroke-linecap:round; stroke-width:0.25;"/>
<line x1="28.000000" y1="36.000000" x2="32.000000" y2="36.000000"  style="stroke:black; stroke-linecap:round; stroke-width:0.25;"/>
<line x1="28.000000" y1="44.000000" x2="28.000000" y2="44.000000"  style="stroke:black; stroke-linecap:round; stroke-width:0.25;"/>
<line x1="28.000000" y1="44.000000" x2="32.000000" y2="44.000000"  style="stroke:black; stroke-linecap:round; stroke-width:0.25;"/>
<line x1="28.000000" y1="52.000000" x2="28.000000" y2="52.000000"  style="stroke:black; stroke-linecap:round; stroke-width:0.25;"/>
<line x1="28.000000" y1="52.000000" x2="32.000000" y2="52.000000"  style="stroke:black; stroke-linecap:round; stroke-width:0.25;"/>
<line x1="28.000000" y1="60.000000" x2="28.000000" y2="60.000000"  style="stroke:black; stroke-linecap:round; stroke-width:0.25;"/>
<line x1="28.000000" y1="60.000000" x2="32.000000" y2="60.000000"  style="stroke:black; stroke-linecap:round; stroke-width:0.25;"/>
<line x1="28.000000" y1="68.000000" x2="28.000000" y2="68.000000"  style="stroke:black; stroke-linecap:round; stroke-width:0.25;"/>
<line x1="28.000000" y1="68.000000" x2="32.000000" y2="68.000000"  style="stroke:black; stroke-linecap:round; stroke-width:0.25;"/>
<line x1="28.000000" y1="76.000000" x2="28.000000" y2="76.000000"  style="stroke:black; stroke-linecap:round; stroke-width:0.25;"/>
<line x1="28.000000" y1="76.000000" x2="32.000000" y2="76.000000"  style="stroke:black; stroke-linecap:round; stroke-width:0.25;"/>
<line x1="28.000000" y1="84.000000" x2="28.000000" y2="84.000000"  style="stroke:black; stroke-linecap:round; stroke-width:0.25;"/>
<line x1="28.000000" y1="84.000000" x2="32.000000" y2="84.000000"  style="stroke:black; stroke-linecap:round; stroke-width:0.25;"/>
<line x1="28.000000" y1="92.000000" x2="28.000000" y2="92.000000"  style="stroke:black; stroke-linecap:round; stroke-width:0.25;"/>
<line x1="28.000000" y1="92.000000" x2="32.000000" y2="92.000000"  style="stroke:black; stroke-linecap:round; stroke-width:0.25;"/>
<line x1="28.000000" y1="100.000000" x2="28.000000" y2="100.000000"  style="stroke:black; stroke-linecap:round; stroke-width:0.25;"/>
<line x1="28.000000" y1="100.000000" x2="32.000000" y2="100.000000"  style="stroke:black; stroke-linecap:round; stroke-width:0.25;"/>
<line x1="28.000000" y1="108.000000" x2="28.000000" y2="108.000000"  style="stroke:black; stroke-linecap:round; stroke-width:0.25;"/>
<line x1="28.000000" y1="108.000000" x2="32.000000" y2="108.000000"  style="stroke:black; stroke-linecap:round; stroke-width:0.25;"/>
<line x1="28.000000" y1="116.000000" x2="28.000000" y2="116.000000"  style="stroke:black; stroke-linecap:round; stroke-width:0.25;"/>
<line x1="28.000000" y1="116.000000" x2="32.000000" y2="116.000000"  style="stroke:black; stroke-linecap:round; stroke-width:0.25;"/>
<line x1="28.000000" y1="124.000000" x2="28.000000" y2="124.000000"  style="stroke:black; stroke-linecap:round; stroke-width:0.25;"/>
<line x1="28.000000" y1="124.000000" x2="32.000000" y2="124.000000"  style="stroke:black; stroke-linecap:round; stroke-width:0.25;"/>
<line x1="28.000000" y1="132.000000" x2="28.000000" y2="132.000000"  style="stroke:black; stroke-linecap:round; stroke-width:0.25;"/>
<line x1="28.000000" y1="132.000000" x2="32.000000" y2="132.000000"  style="stroke:black; stroke-linecap:round; stroke-width:0.25;"/>
<line x1="28.000000" y1="140.000000" x2="28.000000" y2="140.000000"  style="stroke:black; stroke-linecap:round; stroke-width:0.25;"/>
<line x1="28.000000" y1="140.000000" x2="32.000000" y2="140.000000"  style="stroke:black; stroke-linecap:round; stroke-width:0.25;"/>
<line x1="28.000000" y1="148.000000" x2="28.000000" y2="148.000000"  style="stroke:black; stroke-linecap:round; stroke-width:0.25;"/>
<line x1="28.000000" y1="148.000000" x2="32.000000" y2="148.000000"  style="stroke:black; stroke-linecap:round; stroke-width:0.25;"/>
<line x1="28.000000" y1="156.000000" x2="28.000000" y2="156.000000"  style="stroke:black; stroke-linecap:round; stroke-width:0.25;"/>
<line x1="28.000000" y1="156.000000" x2="32.000000" y2="156.000000"  style="stroke:black; stroke-linecap:round; stroke-width:0.25;"/>
<line x1="28.000000" y1="164.000000" x2="28.000000" y2="164.000000"  style="stroke:black; stroke-linecap:round; stroke-width:0.25;"/>
<line x1="28.000000" y1="164.000000" x2="32.000000" y2="164.000000"  style="stroke:black; stroke-linecap:round; stroke-width:0.25;"/>
<line x1="57.800000" y1="96.000000" x2="61.800000" y2="96.000000"  style="stroke:black; stroke-linecap:round; stroke-width:0.25;"/>
<line x1="61.800000" y1="96.000000" x2="61.800000" y2="96.000000"  style="stroke:black; stroke-linecap:round; stroke-width:0.25;"/>
<line x1="61.800000" y1="96.000000" x2="65.800000" y2="96.000000"  style="stroke:black; stroke-linecap:round; stroke-width:0.25;"/>
<line x1="91.600000" y1="96.000000" x2="95.600000" y2="96.000000"  style="stroke:black; stroke-linecap:round; stroke-width:0.25;"/>
<line x1="95.600000" y1="96.000000" x2="95.600000" y2="96.000000"  style="stroke:black; stroke-linecap:round; stroke-width:0.25;"/>
<line x1="95.600000" y1="96.000000" x2="99.600000" y2="96.000000"  style="stroke:black; stroke-linecap:round; stroke-width:0.25;"/>
<line x1="123.600000" y1="96.000000" x2="127.600000" y2="96.000000"  style="stroke:black; stroke-linecap:round; stroke-width:0.25;"/>
<line x1="127.600000" y1="96.000000" x2="127.600000" y2="96.000000"  style="stroke:black; stroke-linecap:round; stroke-width:0.25;"/>
<line x1="127.600000" y1="96.000000" x2="131.600000" y2="96.000000"  style="stroke:black; stroke-linecap:round; stroke-width:0.25;"/>
<line x1="131.600000" y1="96.000000" x2="135.600000" y2="96.000000"  style="stroke:black; stroke-linecap:round; stroke-width:0.25;"/>
<line x1="135.600000" y1="96.000000" x2="145.600000" y2="96.000000"  style="stroke:black; stroke-linecap:round; stroke-width:0.25;"/>
</svg>
