<?xml version="1.0"?>
<svg xmlns="http://www.w3.org/2000/svg" xmlns:xlink="http://www.w3.org/1999/xlink" viewBox="0 0 494.000000 212.000000" width="247.000000mm" height="106.000000mm" version="1.1">
<a xlink:href="instruments-0x7f9ad9f795f0.svg">
<rect x="1.000000" y="1.000000" width="493.000000" height="211.000000" rx="0" ry="0" style="stroke:none;fill:#cccccc;"/>
<rect x="0.000000" y="0.000000" width="493.000000" height="211.000000" rx="0" ry="0" style="stroke:none;fill:#ffffff;"/>
</a>
<text x="10.000000" y="7.000000" font-family="Arial" font-size="7"></text>
<a xlink:href="insel-0x7f9ad9f5d610.svg">
<rect x="43.000000" y="35.000000" width="25.800000" height="144.000000" rx="0" ry="0" style="stroke:none;fill:#cccccc;"/>
<rect x="42.000000" y="34.000000" width="25.800000" height="144.000000" rx="0" ry="0" style="stroke:none;fill:#003366;"/>
</a>
<a xlink:href="insel-0x7f9ad9f5d610.svg">
<text x="54.900000" y="108.000000" font-family="Arial" font-size="7" text-anchor="middle" fill="#FFFFFF">insel</text>
</a>
<circle cx="44.000000" cy="36.000000" r="1"/>
<line x1="39.000000" y1="37.000000" x2="42.000000" y2="38.000000"  transform="rotate(0.000000,42.000000,38.000000)" style="stroke: black; stroke-width:0.25;"/>
<line x1="39.000000" y1="39.000000" x2="42.000000" y2="38.000000"  transform="rotate(0.000000,42.000000,38.000000)" style="stroke: black; stroke-width:0.25;"/>
<line x1="39.000000" y1="45.000000" x2="42.000000" y2="46.000000"  transform="rotate(0.000000,42.000000,46.000000)" style="stroke: black; stroke-width:0.25;"/>
<line x1="39.000000" y1="47.000000" x2="42.000000" y2="46.000000"  transform="rotate(0.000000,42.000000,46.000000)" style="stroke: black; stroke-width:0.25;"/>
<line x1="39.000000" y1="53.000000" x2="42.000000" y2="54.000000"  transform="rotate(0.000000,42.000000,54.000000)" style="stroke: black; stroke-width:0.25;"/>
<line x1="39.000000" y1="55.000000" x2="42.000000" y2="54.000000"  transform="rotate(0.000000,42.000000,54.000000)" style="stroke: black; stroke-width:0.25;"/>
<line x1="39.000000" y1="61.000000" x2="42.000000" y2="62.000000"  transform="rotate(0.000000,42.000000,62.000000)" style="stroke: black; stroke-width:0.25;"/>
<line x1="39.000000" y1="63.000000" x2="42.000000" y2="62.000000"  transform="rotate(0.000000,42.000000,62.000000)" style="stroke: black; stroke-width:0.25;"/>
<line x1="39.000000" y1="69.000000" x2="42.000000" y2="70.000000"  transform="rotate(0.000000,42.000000,70.000000)" style="stroke: black; stroke-width:0.25;"/>
<line x1="39.000000" y1="71.000000" x2="42.000000" y2="70.000000"  transform="rotate(0.000000,42.000000,70.000000)" style="stroke: black; stroke-width:0.25;"/>
<line x1="39.000000" y1="77.000000" x2="42.000000" y2="78.000000"  transform="rotate(0.000000,42.000000,78.000000)" style="stroke: black; stroke-width:0.25;"/>
<line x1="39.000000" y1="79.000000" x2="42.000000" y2="78.000000"  transform="rotate(0.000000,42.000000,78.000000)" style="stroke: black; stroke-width:0.25;"/>
<line x1="39.000000" y1="85.000000" x2="42.000000" y2="86.000000"  transform="rotate(0.000000,42.000000,86.000000)" style="stroke: black; stroke-width:0.25;"/>
<line x1="39.000000" y1="87.000000" x2="42.000000" y2="86.000000"  transform="rotate(0.000000,42.000000,86.000000)" style="stroke: black; stroke-width:0.25;"/>
<line x1="39.000000" y1="93.000000" x2="42.000000" y2="94.000000"  transform="rotate(0.000000,42.000000,94.000000)" style="stroke: black; stroke-width:0.25;"/>
<line x1="39.000000" y1="95.000000" x2="42.000000" y2="94.000000"  transform="rotate(0.000000,42.000000,94.000000)" style="stroke: black; stroke-width:0.25;"/>
<line x1="39.000000" y1="101.000000" x2="42.000000" y2="102.000000"  transform="rotate(0.000000,42.000000,102.000000)" style="stroke: black; stroke-width:0.25;"/>
<line x1="39.000000" y1="103.000000" x2="42.000000" y2="102.000000"  transform="rotate(0.000000,42.000000,102.000000)" style="stroke: black; stroke-width:0.25;"/>
<line x1="39.000000" y1="109.000000" x2="42.000000" y2="110.000000"  transform="rotate(0.000000,42.000000,110.000000)" style="stroke: black; stroke-width:0.25;"/>
<line x1="39.000000" y1="111.000000" x2="42.000000" y2="110.000000"  transform="rotate(0.000000,42.000000,110.000000)" style="stroke: black; stroke-width:0.25;"/>
<line x1="39.000000" y1="117.000000" x2="42.000000" y2="118.000000"  transform="rotate(0.000000,42.000000,118.000000)" style="stroke: black; stroke-width:0.25;"/>
<line x1="39.000000" y1="119.000000" x2="42.000000" y2="118.000000"  transform="rotate(0.000000,42.000000,118.000000)" style="stroke: black; stroke-width:0.25;"/>
<line x1="39.000000" y1="125.000000" x2="42.000000" y2="126.000000"  transform="rotate(0.000000,42.000000,126.000000)" style="stroke: black; stroke-width:0.25;"/>
<line x1="39.000000" y1="127.000000" x2="42.000000" y2="126.000000"  transform="rotate(0.000000,42.000000,126.000000)" style="stroke: black; stroke-width:0.25;"/>
<line x1="39.000000" y1="133.000000" x2="42.000000" y2="134.000000"  transform="rotate(0.000000,42.000000,134.000000)" style="stroke: black; stroke-width:0.25;"/>
<line x1="39.000000" y1="135.000000" x2="42.000000" y2="134.000000"  transform="rotate(0.000000,42.000000,134.000000)" style="stroke: black; stroke-width:0.25;"/>
<line x1="39.000000" y1="141.000000" x2="42.000000" y2="142.000000"  transform="rotate(0.000000,42.000000,142.000000)" style="stroke: black; stroke-width:0.25;"/>
<line x1="39.000000" y1="143.000000" x2="42.000000" y2="142.000000"  transform="rotate(0.000000,42.000000,142.000000)" style="stroke: black; stroke-width:0.25;"/>
<line x1="39.000000" y1="149.000000" x2="42.000000" y2="150.000000"  transform="rotate(0.000000,42.000000,150.000000)" style="stroke: black; stroke-width:0.25;"/>
<line x1="39.000000" y1="151.000000" x2="42.000000" y2="150.000000"  transform="rotate(0.000000,42.000000,150.000000)" style="stroke: black; stroke-width:0.25;"/>
<line x1="39.000000" y1="157.000000" x2="42.000000" y2="158.000000"  transform="rotate(0.000000,42.000000,158.000000)" style="stroke: black; stroke-width:0.25;"/>
<line x1="39.000000" y1="159.000000" x2="42.000000" y2="158.000000"  transform="rotate(0.000000,42.000000,158.000000)" style="stroke: black; stroke-width:0.25;"/>
<line x1="39.000000" y1="165.000000" x2="42.000000" y2="166.000000"  transform="rotate(0.000000,42.000000,166.000000)" style="stroke: black; stroke-width:0.25;"/>
<line x1="39.000000" y1="167.000000" x2="42.000000" y2="166.000000"  transform="rotate(0.000000,42.000000,166.000000)" style="stroke: black; stroke-width:0.25;"/>
<line x1="39.000000" y1="173.000000" x2="42.000000" y2="174.000000"  transform="rotate(0.000000,42.000000,174.000000)" style="stroke: black; stroke-width:0.25;"/>
<line x1="39.000000" y1="175.000000" x2="42.000000" y2="174.000000"  transform="rotate(0.000000,42.000000,174.000000)" style="stroke: black; stroke-width:0.25;"/>
<a xlink:href="hmeter-0x7f9ad9f6a070.svg">
<rect x="76.800000" y="95.000000" width="25.800000" height="24.000000" rx="0" ry="0" style="stroke:none;fill:#cccccc;"/>
<rect x="75.800000" y="94.000000" width="25.800000" height="24.000000" rx="0" ry="0" style="stroke:none;fill:#003366;"/>
</a>
<a xlink:href="hmeter-0x7f9ad9f6a070.svg">
<text x="88.700000" y="108.000000" font-family="Arial" font-size="7" text-anchor="middle" fill="#FFFFFF">hmeter</text>
</a>
<circle cx="77.800000" cy="96.000000" r="1"/>
<line x1="72.800000" y1="105.000000" x2="75.800000" y2="106.000000"  transform="rotate(0.000000,75.800000,106.000000)" style="stroke: black; stroke-width:0.25;"/>
<line x1="72.800000" y1="107.000000" x2="75.800000" y2="106.000000"  transform="rotate(0.000000,75.800000,106.000000)" style="stroke: black; stroke-width:0.25;"/>
<a xlink:href="presec-0x7f9ad9f6dfd0.svg">
<rect x="110.600000" y="95.000000" width="25.800000" height="24.000000" rx="0" ry="0" style="stroke:none;fill:#cccccc;"/>
<rect x="109.600000" y="94.000000" width="25.800000" height="24.000000" rx="0" ry="0" style="stroke:none;fill:#003366;"/>
</a>
<a xlink:href="presec-0x7f9ad9f6dfd0.svg">
<text x="122.500000" y="108.000000" font-family="Arial" font-size="7" text-anchor="middle" fill="#FFFFFF">presec</text>
</a>
<circle cx="111.600000" cy="96.000000" r="1"/>
<line x1="106.600000" y1="105.000000" x2="109.600000" y2="106.000000"  transform="rotate(0.000000,109.600000,106.000000)" style="stroke: black; stroke-width:0.25;"/>
<line x1="106.600000" y1="107.000000" x2="109.600000" y2="106.000000"  transform="rotate(0.000000,109.600000,106.000000)" style="stroke: black; stroke-width:0.25;"/>
<a xlink:href="peq-0x7f9ad9f75090.svg">
<rect x="144.400000" y="95.000000" width="24.000000" height="24.000000" rx="0" ry="0" style="stroke:none;fill:#cccccc;"/>
<rect x="143.400000" y="94.000000" width="24.000000" height="24.000000" rx="0" ry="0" style="stroke:none;fill:#003366;"/>
</a>
<a xlink:href="peq-0x7f9ad9f75090.svg">
<text x="155.400000" y="108.000000" font-family="Arial" font-size="7" text-anchor="middle" fill="#FFFFFF">peq</text>
</a>
<circle cx="145.400000" cy="96.000000" r="1"/>
<line x1="140.400000" y1="105.000000" x2="143.400000" y2="106.000000"  transform="rotate(0.000000,143.400000,106.000000)" style="stroke: black; stroke-width:0.25;"/>
<line x1="140.400000" y1="107.000000" x2="143.400000" y2="106.000000"  transform="rotate(0.000000,143.400000,106.000000)" style="stroke: black; stroke-width:0.25;"/>
<a xlink:href="fader-0x7f9ad2ec31e0.svg">
<rect x="253.400000" y="99.000000" width="25.800000" height="24.000000" rx="0" ry="0" style="stroke:none;fill:#cccccc;"/>
<rect x="252.400000" y="98.000000" width="25.800000" height="24.000000" rx="0" ry="0" style="stroke:none;fill:#003366;"/>
</a>
<a xlink:href="fader-0x7f9ad2ec31e0.svg">
<text x="265.300000" y="112.000000" font-family="Arial" font-size="7" text-anchor="middle" fill="#FFFFFF">fader</text>
</a>
<circle cx="254.400000" cy="100.000000" r="1"/>
<rect x="295.200000" y="95.000000" width="24.000000" height="24.000000" rx="0" ry="0" style="stroke:none;fill:#cccccc;"/>
<rect x="294.200000" y="94.000000" width="24.000000" height="24.000000" rx="0" ry="0" style="stroke:none;fill:#4B71A1;"/>
<text x="306.200000" y="108.000000" font-family="Arial" font-size="7" text-anchor="middle" fill="#FFFFFF">*</text>
<circle cx="296.200000" cy="96.000000" r="1"/>
<line x1="291.200000" y1="101.000000" x2="294.200000" y2="102.000000"  transform="rotate(0.000000,294.200000,102.000000)" style="stroke: black; stroke-width:0.25;"/>
<line x1="291.200000" y1="103.000000" x2="294.200000" y2="102.000000"  transform="rotate(0.000000,294.200000,102.000000)" style="stroke: black; stroke-width:0.25;"/>
<line x1="291.200000" y1="109.000000" x2="294.200000" y2="110.000000"  transform="rotate(0.000000,294.200000,110.000000)" style="stroke: black; stroke-width:0.25;"/>
<line x1="291.200000" y1="111.000000" x2="294.200000" y2="110.000000"  transform="rotate(0.000000,294.200000,110.000000)" style="stroke: black; stroke-width:0.25;"/>
<a xlink:href="vmeter-0x7f9ad9f774e0.svg">
<rect x="361.200000" y="63.000000" width="25.800000" height="24.000000" rx="0" ry="0" style="stroke:none;fill:#cccccc;"/>
<rect x="360.200000" y="62.000000" width="25.800000" height="24.000000" rx="0" ry="0" style="stroke:none;fill:#003366;"/>
</a>
<a xlink:href="vmeter-0x7f9ad9f774e0.svg">
<text x="373.100000" y="76.000000" font-family="Arial" font-size="7" text-anchor="middle" fill="#FFFFFF">vmeter</text>
</a>
<circle cx="362.200000" cy="64.000000" r="1"/>
<line x1="357.200000" y1="73.000000" x2="360.200000" y2="74.000000"  transform="rotate(0.000000,360.200000,74.000000)" style="stroke: black; stroke-width:0.25;"/>
<line x1="357.200000" y1="75.000000" x2="360.200000" y2="74.000000"  transform="rotate(0.000000,360.200000,74.000000)" style="stroke: black; stroke-width:0.25;"/>
<a xlink:href="sends-0x7f9ad2eca8c0.svg">
<rect x="361.200000" y="95.000000" width="25.800000" height="56.000000" rx="0" ry="0" style="stroke:none;fill:#cccccc;"/>
<rect x="360.200000" y="94.000000" width="25.800000" height="56.000000" rx="0" ry="0" style="stroke:none;fill:#003366;"/>
</a>
<a xlink:href="sends-0x7f9ad2eca8c0.svg">
<text x="373.100000" y="124.000000" font-family="Arial" font-size="7" text-anchor="middle" fill="#FFFFFF">sends</text>
</a>
<circle cx="362.200000" cy="96.000000" r="1"/>
<line x1="357.200000" y1="97.000000" x2="360.200000" y2="98.000000"  transform="rotate(0.000000,360.200000,98.000000)" style="stroke: black; stroke-width:0.25;"/>
<line x1="357.200000" y1="99.000000" x2="360.200000" y2="98.000000"  transform="rotate(0.000000,360.200000,98.000000)" style="stroke: black; stroke-width:0.25;"/>
<line x1="357.200000" y1="105.000000" x2="360.200000" y2="106.000000"  transform="rotate(0.000000,360.200000,106.000000)" style="stroke: black; stroke-width:0.25;"/>
<line x1="357.200000" y1="107.000000" x2="360.200000" y2="106.000000"  transform="rotate(0.000000,360.200000,106.000000)" style="stroke: black; stroke-width:0.25;"/>
<line x1="357.200000" y1="113.000000" x2="360.200000" y2="114.000000"  transform="rotate(0.000000,360.200000,114.000000)" style="stroke: black; stroke-width:0.25;"/>
<line x1="357.200000" y1="115.000000" x2="360.200000" y2="114.000000"  transform="rotate(0.000000,360.200000,114.000000)" style="stroke: black; stroke-width:0.25;"/>
<line x1="357.200000" y1="121.000000" x2="360.200000" y2="122.000000"  transform="rotate(0.000000,360.200000,122.000000)" style="stroke: black; stroke-width:0.25;"/>
<line x1="357.200000" y1="123.000000" x2="360.200000" y2="122.000000"  transform="rotate(0.000000,360.200000,122.000000)" style="stroke: black; stroke-width:0.25;"/>
<line x1="357.200000" y1="129.000000" x2="360.200000" y2="130.000000"  transform="rotate(0.000000,360.200000,130.000000)" style="stroke: black; stroke-width:0.25;"/>
<line x1="357.200000" y1="131.000000" x2="360.200000" y2="130.000000"  transform="rotate(0.000000,360.200000,130.000000)" style="stroke: black; stroke-width:0.25;"/>
<line x1="357.200000" y1="137.000000" x2="360.200000" y2="138.000000"  transform="rotate(0.000000,360.200000,138.000000)" style="stroke: black; stroke-width:0.25;"/>
<line x1="357.200000" y1="139.000000" x2="360.200000" y2="138.000000"  transform="rotate(0.000000,360.200000,138.000000)" style="stroke: black; stroke-width:0.25;"/>
<line x1="357.200000" y1="145.000000" x2="360.200000" y2="146.000000"  transform="rotate(0.000000,360.200000,146.000000)" style="stroke: black; stroke-width:0.25;"/>
<line x1="357.200000" y1="147.000000" x2="360.200000" y2="146.000000"  transform="rotate(0.000000,360.200000,146.000000)" style="stroke: black; stroke-width:0.25;"/>
<line x1="243.400000" y1="53.000000" x2="243.400000" y2="159.000000"  style="stroke: black; stroke-linecap:round; stroke-width:0.25; stroke-dasharray:3,3;"/>
<line x1="243.400000" y1="159.000000" x2="395.000000" y2="159.000000"  style="stroke: black; stroke-linecap:round; stroke-width:0.25; stroke-dasharray:3,3;"/>
<line x1="395.000000" y1="159.000000" x2="395.000000" y2="53.000000"  style="stroke: black; stroke-linecap:round; stroke-width:0.25; stroke-dasharray:3,3;"/>
<line x1="243.400000" y1="53.000000" x2="248.400000" y2="53.000000"  style="stroke: black; stroke-linecap:round; stroke-width:0.25; stroke-dasharray:3,3;"/>
<line x1="322.575000" y1="53.000000" x2="395.000000" y2="53.000000"  style="stroke: black; stroke-linecap:round; stroke-width:0.25; stroke-dasharray:3,3;"/>
<text x="248.400000" y="55.000000" font-family="Arial" font-size="7">hgroup(CAMPANE SARDE)</text>
<line x1="33.000000" y1="25.000000" x2="33.000000" y2="187.000000"  style="stroke: black; stroke-linecap:round; stroke-width:0.25; stroke-dasharray:3,3;"/>
<line x1="33.000000" y1="187.000000" x2="405.000000" y2="187.000000"  style="stroke: black; stroke-linecap:round; stroke-width:0.25; stroke-dasharray:3,3;"/>
<line x1="405.000000" y1="187.000000" x2="405.000000" y2="25.000000"  style="stroke: black; stroke-linecap:round; stroke-width:0.25; stroke-dasharray:3,3;"/>
<line x1="33.000000" y1="25.000000" x2="38.000000" y2="25.000000"  style="stroke: black; stroke-linecap:round; stroke-width:0.25; stroke-dasharray:3,3;"/>
<line x1="112.175000" y1="25.000000" x2="405.000000" y2="25.000000"  style="stroke: black; stroke-linecap:round; stroke-width:0.25; stroke-dasharray:3,3;"/>
<text x="38.000000" y="27.000000" font-family="Arial" font-size="7">vgroup(CAMPANE SARDE)</text>
<line x1="15.000000" y1="15.000000" x2="15.000000" y2="197.000000"  style="stroke: black; stroke-linecap:round; stroke-width:0.25; stroke-dasharray:3,3;"/>
<line x1="15.000000" y1="197.000000" x2="479.000000" y2="197.000000"  style="stroke: black; stroke-linecap:round; stroke-width:0.25; stroke-dasharray:3,3;"/>
<line x1="479.000000" y1="197.000000" x2="479.000000" y2="15.000000"  style="stroke: black; stroke-linecap:round; stroke-width:0.25; stroke-dasharray:3,3;"/>
<line x1="15.000000" y1="15.000000" x2="20.000000" y2="15.000000"  style="stroke: black; stroke-linecap:round; stroke-width:0.25; stroke-dasharray:3,3;"/>
<line x1="42.575000" y1="15.000000" x2="479.000000" y2="15.000000"  style="stroke: black; stroke-linecap:round; stroke-width:0.25; stroke-dasharray:3,3;"/>
<text x="20.000000" y="17.000000" font-family="Arial" font-size="7">csard</text>
<line x1="481.000000" y1="77.000000" x2="484.000000" y2="78.000000"  transform="rotate(0.000000,484.000000,78.000000)" style="stroke: black; stroke-width:0.25;"/>
<line x1="481.000000" y1="79.000000" x2="484.000000" y2="78.000000"  transform="rotate(0.000000,484.000000,78.000000)" style="stroke: black; stroke-width:0.25;"/>
<line x1="481.000000" y1="85.000000" x2="484.000000" y2="86.000000"  transform="rotate(0.000000,484.000000,86.000000)" style="stroke: black; stroke-width:0.25;"/>
<line x1="481.000000" y1="87.000000" x2="484.000000" y2="86.000000"  transform="rotate(0.000000,484.000000,86.000000)" style="stroke: black; stroke-width:0.25;"/>
<line x1="481.000000" y1="93.000000" x2="484.000000" y2="94.000000"  transform="rotate(0.000000,484.000000,94.000000)" style="stroke: black; stroke-width:0.25;"/>
<line x1="481.000000" y1="95.000000" x2="484.000000" y2="94.000000"  transform="rotate(0.000000,484.000000,94.000000)" style="stroke: black; stroke-width:0.25;"/>
<line x1="481.000000" y1="101.000000" x2="484.000000" y2="102.000000"  transform="rotate(0.000000,484.000000,102.000000)" style="stroke: black; stroke-width:0.25;"/>
<line x1="481.000000" y1="103.000000" x2="484.000000" y2="102.000000"  transform="rotate(0.000000,484.000000,102.000000)" style="stroke: black; stroke-width:0.25;"/>
<line x1="481.000000" y1="109.000000" x2="484.000000" y2="110.000000"  transform="rotate(0.000000,484.000000,110.000000)" style="stroke: black; stroke-width:0.25;"/>
<line x1="481.000000" y1="111.000000" x2="484.000000" y2="110.000000"  transform="rotate(0.000000,484.000000,110.000000)" style="stroke: black; stroke-width:0.25;"/>
<line x1="481.000000" y1="117.000000" x2="484.000000" y2="118.000000"  transform="rotate(0.000000,484.000000,118.000000)" style="stroke: black; stroke-width:0.25;"/>
<line x1="481.000000" y1="119.000000" x2="484.000000" y2="118.000000"  transform="rotate(0.000000,484.000000,118.000000)" style="stroke: black; stroke-width:0.25;"/>
<line x1="481.000000" y1="125.000000" x2="484.000000" y2="126.000000"  transform="rotate(0.000000,484.000000,126.000000)" style="stroke: black; stroke-width:0.25;"/>
<line x1="481.000000" y1="127.000000" x2="484.000000" y2="126.000000"  transform="rotate(0.000000,484.000000,126.000000)" style="stroke: black; stroke-width:0.25;"/>
<line x1="481.000000" y1="133.000000" x2="484.000000" y2="134.000000"  transform="rotate(0.000000,484.000000,134.000000)" style="stroke: black; stroke-width:0.25;"/>
<line x1="481.000000" y1="135.000000" x2="484.000000" y2="134.000000"  transform="rotate(0.000000,484.000000,134.000000)" style="stroke: black; stroke-width:0.25;"/>
<line x1="10.000000" y1="38.000000" x2="20.000000" y2="38.000000"  style="stroke:black; stroke-linecap:round; stroke-width:0.25;"/>
<line x1="10.000000" y1="46.000000" x2="20.000000" y2="46.000000"  style="stroke:black; stroke-linecap:round; stroke-width:0.25;"/>
<line x1="10.000000" y1="54.000000" x2="20.000000" y2="54.000000"  style="stroke:black; stroke-linecap:round; stroke-width:0.25;"/>
<line x1="10.000000" y1="62.000000" x2="20.000000" y2="62.000000"  style="stroke:black; stroke-linecap:round; stroke-width:0.25;"/>
<line x1="10.000000" y1="70.000000" x2="20.000000" y2="70.000000"  style="stroke:black; stroke-linecap:round; stroke-width:0.25;"/>
<line x1="10.000000" y1="78.000000" x2="20.000000" y2="78.000000"  style="stroke:black; stroke-linecap:round; stroke-width:0.25;"/>
<line x1="10.000000" y1="86.000000" x2="20.000000" y2="86.000000"  style="stroke:black; stroke-linecap:round; stroke-width:0.25;"/>
<line x1="10.000000" y1="94.000000" x2="20.000000" y2="94.000000"  style="stroke:black; stroke-linecap:round; stroke-width:0.25;"/>
<line x1="10.000000" y1="102.000000" x2="20.000000" y2="102.000000"  style="stroke:black; stroke-linecap:round; stroke-width:0.25;"/>
<line x1="10.000000" y1="110.000000" x2="20.000000" y2="110.000000"  style="stroke:black; stroke-linecap:round; stroke-width:0.25;"/>
<line x1="10.000000" y1="118.000000" x2="20.000000" y2="118.000000"  style="stroke:black; stroke-linecap:round; stroke-width:0.25;"/>
<line x1="10.000000" y1="126.000000" x2="20.000000" y2="126.000000"  style="stroke:black; stroke-linecap:round; stroke-width:0.25;"/>
<line x1="10.000000" y1="134.000000" x2="20.000000" y2="134.000000"  style="stroke:black; stroke-linecap:round; stroke-width:0.25;"/>
<line x1="10.000000" y1="142.000000" x2="20.000000" y2="142.000000"  style="stroke:black; stroke-linecap:round; stroke-width:0.25;"/>
<line x1="10.000000" y1="150.000000" x2="20.000000" y2="150.000000"  style="stroke:black; stroke-linecap:round; stroke-width:0.25;"/>
<line x1="10.000000" y1="158.000000" x2="20.000000" y2="158.000000"  style="stroke:black; stroke-linecap:round; stroke-width:0.25;"/>
<line x1="10.000000" y1="166.000000" x2="20.000000" y2="166.000000"  style="stroke:black; stroke-linecap:round; stroke-width:0.25;"/>
<line x1="10.000000" y1="174.000000" x2="20.000000" y2="174.000000"  style="stroke:black; stroke-linecap:round; stroke-width:0.25;"/>
<line x1="20.000000" y1="38.000000" x2="24.000000" y2="38.000000"  style="stroke:black; stroke-linecap:round; stroke-width:0.25;"/>
<line x1="20.000000" y1="46.000000" x2="24.000000" y2="46.000000"  style="stroke:black; stroke-linecap:round; stroke-width:0.25;"/>
<line x1="20.000000" y1="54.000000" x2="24.000000" y2="54.000000"  style="stroke:black; stroke-linecap:round; stroke-width:0.25;"/>
<line x1="20.000000" y1="62.000000" x2="24.000000" y2="62.000000"  style="stroke:black; stroke-linecap:round; stroke-width:0.25;"/>
<line x1="20.000000" y1="70.000000" x2="24.000000" y2="70.000000"  style="stroke:black; stroke-linecap:round; stroke-width:0.25;"/>
<line x1="20.000000" y1="78.000000" x2="24.000000" y2="78.000000"  style="stroke:black; stroke-linecap:round; stroke-width:0.25;"/>
<line x1="20.000000" y1="86.000000" x2="24.000000" y2="86.000000"  style="stroke:black; stroke-linecap:round; stroke-width:0.25;"/>
<line x1="20.000000" y1="94.000000" x2="24.000000" y2="94.000000"  style="stroke:black; stroke-linecap:round; stroke-width:0.25;"/>
<line x1="20.000000" y1="102.000000" x2="24.000000" y2="102.000000"  style="stroke:black; stroke-linecap:round; stroke-width:0.25;"/>
<line x1="20.000000" y1="110.000000" x2="24.000000" y2="110.000000"  style="stroke:black; stroke-linecap:round; stroke-width:0.25;"/>
<line x1="20.000000" y1="118.000000" x2="24.000000" y2="118.000000"  style="stroke:black; stroke-linecap:round; stroke-width:0.25;"/>
<line x1="20.000000" y1="126.000000" x2="24.000000" y2="126.000000"  style="stroke:black; stroke-linecap:round; stroke-width:0.25;"/>
<line x1="20.000000" y1="134.000000" x2="24.000000" y2="134.000000"  style="stroke:black; stroke-linecap:round; stroke-width:0.25;"/>
<line x1="20.000000" y1="142.000000" x2="24.000000" y2="142.000000"  style="stroke:black; stroke-linecap:round; stroke-width:0.25;"/>
<line x1="20.000000" y1="150.000000" x2="24.000000" y2="150.000000"  style="stroke:black; stroke-linecap:round; stroke-width:0.25;"/>
<line x1="20.000000" y1="158.000000" x2="24.000000" y2="158.000000"  style="stroke:black; stroke-linecap:round; stroke-width:0.25;"/>
<line x1="20.000000" y1="166.000000" x2="24.000000" y2="166.000000"  style="stroke:black; stroke-linecap:round; stroke-width:0.25;"/>
<line x1="20.000000" y1="174.000000" x2="24.000000" y2="174.000000"  style="stroke:black; stroke-linecap:round; stroke-width:0.25;"/>
<line x1="24.000000" y1="38.000000" x2="28.000000" y2="38.000000"  style="stroke:black; stroke-linecap:round; stroke-width:0.25;"/>
<line x1="24.000000" y1="46.000000" x2="28.000000" y2="46.000000"  style="stroke:black; stroke-linecap:round; stroke-width:0.25;"/>
<line x1="24.000000" y1="54.000000" x2="28.000000" y2="54.000000"  style="stroke:black; stroke-linecap:round; stroke-width:0.25;"/>
<line x1="24.000000" y1="62.000000" x2="28.000000" y2="62.000000"  style="stroke:black; stroke-linecap:round; stroke-width:0.25;"/>
<line x1="24.000000" y1="70.000000" x2="28.000000" y2="70.000000"  style="stroke:black; stroke-linecap:round; stroke-width:0.25;"/>
<line x1="24.000000" y1="78.000000" x2="28.000000" y2="78.000000"  style="stroke:black; stroke-linecap:round; stroke-width:0.25;"/>
<line x1="24.000000" y1="86.000000" x2="28.000000" y2="86.000000"  style="stroke:black; stroke-linecap:round; stroke-width:0.25;"/>
<line x1="24.000000" y1="94.000000" x2="28.000000" y2="94.000000"  style="stroke:black; stroke-linecap:round; stroke-width:0.25;"/>
<line x1="24.000000" y1="102.000000" x2="28.000000" y2="102.000000"  style="stroke:black; stroke-linecap:round; stroke-width:0.25;"/>
<line x1="24.000000" y1="110.000000" x2="28.000000" y2="110.000000"  style="stroke:black; stroke-linecap:round; stroke-width:0.25;"/>
<line x1="24.000000" y1="118.000000" x2="28.000000" y2="118.000000"  style="stroke:black; stroke-linecap:round; stroke-width:0.25;"/>
<line x1="24.000000" y1="126.000000" x2="28.000000" y2="126.000000"  style="stroke:black; stroke-linecap:round; stroke-width:0.25;"/>
<line x1="24.000000" y1="134.000000" x2="28.000000" y2="134.000000"  style="stroke:black; stroke-linecap:round; stroke-width:0.25;"/>
<line x1="24.000000" y1="142.000000" x2="28.000000" y2="142.000000"  style="stroke:black; stroke-linecap:round; stroke-width:0.25;"/>
<line x1="24.000000" y1="150.000000" x2="28.000000" y2="150.000000"  style="stroke:black; stroke-linecap:round; stroke-width:0.25;"/>
<line x1="24.000000" y1="158.000000" x2="28.000000" y2="158.000000"  style="stroke:black; stroke-linecap:round; stroke-width:0.25;"/>
<line x1="24.000000" y1="166.000000" x2="28.000000" y2="166.000000"  style="stroke:black; stroke-linecap:round; stroke-width:0.25;"/>
<line x1="24.000000" y1="174.000000" x2="28.000000" y2="174.000000"  style="stroke:black; stroke-linecap:round; stroke-width:0.25;"/>
<line x1="28.000000" y1="38.000000" x2="28.000000" y2="38.000000"  style="stroke:black; stroke-linecap:round; stroke-width:0.25;"/>
<line x1="28.000000" y1="38.000000" x2="38.000000" y2="38.000000"  style="stroke:black; stroke-linecap:round; stroke-width:0.25;"/>
<line x1="28.000000" y1="46.000000" x2="28.000000" y2="46.000000"  style="stroke:black; stroke-linecap:round; stroke-width:0.25;"/>
<line x1="28.000000" y1="46.000000" x2="38.000000" y2="46.000000"  style="stroke:black; stroke-linecap:round; stroke-width:0.25;"/>
<line x1="28.000000" y1="54.000000" x2="28.000000" y2="54.000000"  style="stroke:black; stroke-linecap:round; stroke-width:0.25;"/>
<line x1="28.000000" y1="54.000000" x2="38.000000" y2="54.000000"  style="stroke:black; stroke-linecap:round; stroke-width:0.25;"/>
<line x1="28.000000" y1="62.000000" x2="28.000000" y2="62.000000"  style="stroke:black; stroke-linecap:round; stroke-width:0.25;"/>
<line x1="28.000000" y1="62.000000" x2="38.000000" y2="62.000000"  style="stroke:black; stroke-linecap:round; stroke-width:0.25;"/>
<line x1="28.000000" y1="70.000000" x2="28.000000" y2="70.000000"  style="stroke:black; stroke-linecap:round; stroke-width:0.25;"/>
<line x1="28.000000" y1="70.000000" x2="38.000000" y2="70.000000"  style="stroke:black; stroke-linecap:round; stroke-width:0.25;"/>
<line x1="28.000000" y1="78.000000" x2="28.000000" y2="78.000000"  style="stroke:black; stroke-linecap:round; stroke-width:0.25;"/>
<line x1="28.000000" y1="78.000000" x2="38.000000" y2="78.000000"  style="stroke:black; stroke-linecap:round; stroke-width:0.25;"/>
<line x1="28.000000" y1="86.000000" x2="28.000000" y2="86.000000"  style="stroke:black; stroke-linecap:round; stroke-width:0.25;"/>
<line x1="28.000000" y1="86.000000" x2="38.000000" y2="86.000000"  style="stroke:black; stroke-linecap:round; stroke-width:0.25;"/>
<line x1="28.000000" y1="94.000000" x2="28.000000" y2="94.000000"  style="stroke:black; stroke-linecap:round; stroke-width:0.25;"/>
<line x1="28.000000" y1="94.000000" x2="38.000000" y2="94.000000"  style="stroke:black; stroke-linecap:round; stroke-width:0.25;"/>
<line x1="28.000000" y1="102.000000" x2="28.000000" y2="102.000000"  style="stroke:black; stroke-linecap:round; stroke-width:0.25;"/>
<line x1="28.000000" y1="102.000000" x2="38.000000" y2="102.000000"  style="stroke:black; stroke-linecap:round; stroke-width:0.25;"/>
<line x1="28.000000" y1="110.000000" x2="28.000000" y2="110.000000"  style="stroke:black; stroke-linecap:round; stroke-width:0.25;"/>
<line x1="28.000000" y1="110.000000" x2="38.000000" y2="110.000000"  style="stroke:black; stroke-linecap:round; stroke-width:0.25;"/>
<line x1="28.000000" y1="118.000000" x2="28.000000" y2="118.000000"  style="stroke:black; stroke-linecap:round; stroke-width:0.25;"/>
<line x1="28.000000" y1="118.000000" x2="38.000000" y2="118.000000"  style="stroke:black; stroke-linecap:round; stroke-width:0.25;"/>
<line x1="28.000000" y1="126.000000" x2="28.000000" y2="126.000000"  style="stroke:black; stroke-linecap:round; stroke-width:0.25;"/>
<line x1="28.000000" y1="126.000000" x2="38.000000" y2="126.000000"  style="stroke:black; stroke-linecap:round; stroke-width:0.25;"/>
<line x1="28.000000" y1="134.000000" x2="28.000000" y2="134.000000"  style="stroke:black; stroke-linecap:round; stroke-width:0.25;"/>
<line x1="28.000000" y1="134.000000" x2="38.000000" y2="134.000000"  style="stroke:black; stroke-linecap:round; stroke-width:0.25;"/>
<line x1="28.000000" y1="142.000000" x2="28.000000" y2="142.000000"  style="stroke:black; stroke-linecap:round; stroke-width:0.25;"/>
<line x1="28.000000" y1="142.000000" x2="38.000000" y2="142.000000"  style="stroke:black; stroke-linecap:round; stroke-width:0.25;"/>
<line x1="28.000000" y1="150.000000" x2="28.000000" y2="150.000000"  style="stroke:black; stroke-linecap:round; stroke-width:0.25;"/>
<line x1="28.000000" y1="150.000000" x2="38.000000" y2="150.000000"  style="stroke:black; stroke-linecap:round; stroke-width:0.25;"/>
<line x1="28.000000" y1="158.000000" x2="28.000000" y2="158.000000"  style="stroke:black; stroke-linecap:round; stroke-width:0.25;"/>
<line x1="28.000000" y1="158.000000" x2="38.000000" y2="158.000000"  style="stroke:black; stroke-linecap:round; stroke-width:0.25;"/>
<line x1="28.000000" y1="166.000000" x2="28.000000" y2="166.000000"  style="stroke:black; stroke-linecap:round; stroke-width:0.25;"/>
<line x1="28.000000" y1="166.000000" x2="38.000000" y2="166.000000"  style="stroke:black; stroke-linecap:round; stroke-width:0.25;"/>
<line x1="28.000000" y1="174.000000" x2="28.000000" y2="174.000000"  style="stroke:black; stroke-linecap:round; stroke-width:0.25;"/>
<line x1="28.000000" y1="174.000000" x2="38.000000" y2="174.000000"  style="stroke:black; stroke-linecap:round; stroke-width:0.25;"/>
<line x1="38.000000" y1="38.000000" x2="42.000000" y2="38.000000"  style="stroke:black; stroke-linecap:round; stroke-width:0.25;"/>
<line x1="38.000000" y1="46.000000" x2="42.000000" y2="46.000000"  style="stroke:black; stroke-linecap:round; stroke-width:0.25;"/>
<line x1="38.000000" y1="54.000000" x2="42.000000" y2="54.000000"  style="stroke:black; stroke-linecap:round; stroke-width:0.25;"/>
<line x1="38.000000" y1="62.000000" x2="42.000000" y2="62.000000"  style="stroke:black; stroke-linecap:round; stroke-width:0.25;"/>
<line x1="38.000000" y1="70.000000" x2="42.000000" y2="70.000000"  style="stroke:black; stroke-linecap:round; stroke-width:0.25;"/>
<line x1="38.000000" y1="78.000000" x2="42.000000" y2="78.000000"  style="stroke:black; stroke-linecap:round; stroke-width:0.25;"/>
<line x1="38.000000" y1="86.000000" x2="42.000000" y2="86.000000"  style="stroke:black; stroke-linecap:round; stroke-width:0.25;"/>
<line x1="38.000000" y1="94.000000" x2="42.000000" y2="94.000000"  style="stroke:black; stroke-linecap:round; stroke-width:0.25;"/>
<line x1="38.000000" y1="102.000000" x2="42.000000" y2="102.000000"  style="stroke:black; stroke-linecap:round; stroke-width:0.25;"/>
<line x1="38.000000" y1="110.000000" x2="42.000000" y2="110.000000"  style="stroke:black; stroke-linecap:round; stroke-width:0.25;"/>
<line x1="38.000000" y1="118.000000" x2="42.000000" y2="118.000000"  style="stroke:black; stroke-linecap:round; stroke-width:0.25;"/>
<line x1="38.000000" y1="126.000000" x2="42.000000" y2="126.000000"  style="stroke:black; stroke-linecap:round; stroke-width:0.25;"/>
<line x1="38.000000" y1="134.000000" x2="42.000000" y2="134.000000"  style="stroke:black; stroke-linecap:round; stroke-width:0.25;"/>
<line x1="38.000000" y1="142.000000" x2="42.000000" y2="142.000000"  style="stroke:black; stroke-linecap:round; stroke-width:0.25;"/>
<line x1="38.000000" y1="150.000000" x2="42.000000" y2="150.000000"  style="stroke:black; stroke-linecap:round; stroke-width:0.25;"/>
<line x1="38.000000" y1="158.000000" x2="42.000000" y2="158.000000"  style="stroke:black; stroke-linecap:round; stroke-width:0.25;"/>
<line x1="38.000000" y1="166.000000" x2="42.000000" y2="166.000000"  style="stroke:black; stroke-linecap:round; stroke-width:0.25;"/>
<line x1="38.000000" y1="174.000000" x2="42.000000" y2="174.000000"  style="stroke:black; stroke-linecap:round; stroke-width:0.25;"/>
<line x1="67.800000" y1="106.000000" x2="71.800000" y2="106.000000"  style="stroke:black; stroke-linecap:round; stroke-width:0.25;"/>
<line x1="71.800000" y1="106.000000" x2="71.800000" y2="106.000000"  style="stroke:black; stroke-linecap:round; stroke-width:0.25;"/>
<line x1="71.800000" y1="106.000000" x2="75.800000" y2="106.000000"  style="stroke:black; stroke-linecap:round; stroke-width:0.25;"/>
<line x1="101.600000" y1="106.000000" x2="105.600000" y2="106.000000"  style="stroke:black; stroke-linecap:round; stroke-width:0.25;"/>
<line x1="105.600000" y1="106.000000" x2="105.600000" y2="106.000000"  style="stroke:black; stroke-linecap:round; stroke-width:0.25;"/>
<line x1="105.600000" y1="106.000000" x2="109.600000" y2="106.000000"  style="stroke:black; stroke-linecap:round; stroke-width:0.25;"/>
<line x1="135.400000" y1="106.000000" x2="139.400000" y2="106.000000"  style="stroke:black; stroke-linecap:round; stroke-width:0.25;"/>
<line x1="139.400000" y1="106.000000" x2="139.400000" y2="106.000000"  style="stroke:black; stroke-linecap:round; stroke-width:0.25;"/>
<line x1="139.400000" y1="106.000000" x2="143.400000" y2="106.000000"  style="stroke:black; stroke-linecap:round; stroke-width:0.25;"/>
<line x1="167.400000" y1="106.000000" x2="171.400000" y2="106.000000"  style="stroke:black; stroke-linecap:round; stroke-width:0.25;"/>
<line x1="171.400000" y1="106.000000" x2="238.400000" y2="90.000000"  style="stroke:black; stroke-linecap:round; stroke-width:0.25;"/>
<line x1="238.400000" y1="90.000000" x2="248.400000" y2="90.000000"  style="stroke:black; stroke-linecap:round; stroke-width:0.25;"/>
<line x1="248.400000" y1="90.000000" x2="265.300000" y2="90.000000"  style="stroke:black; stroke-linecap:round; stroke-width:0.25;"/>
<line x1="265.300000" y1="90.000000" x2="282.200000" y2="90.000000"  style="stroke:black; stroke-linecap:round; stroke-width:0.25;"/>
<line x1="278.200000" y1="110.000000" x2="282.200000" y2="110.000000"  style="stroke:black; stroke-linecap:round; stroke-width:0.25;"/>
<line x1="282.200000" y1="90.000000" x2="290.200000" y2="90.000000"  style="stroke:black; stroke-linecap:round; stroke-width:0.25;"/>
<line x1="282.200000" y1="110.000000" x2="290.200000" y2="110.000000"  style="stroke:black; stroke-linecap:round; stroke-width:0.25;"/>
<line x1="290.200000" y1="90.000000" x2="290.200000" y2="102.000000"  style="stroke:black; stroke-linecap:round; stroke-width:0.25;"/>
<line x1="290.200000" y1="102.000000" x2="290.200000" y2="102.000000"  style="stroke:black; stroke-linecap:round; stroke-width:0.25;"/>
<line x1="290.200000" y1="102.000000" x2="294.200000" y2="102.000000"  style="stroke:black; stroke-linecap:round; stroke-width:0.25;"/>
<line x1="290.200000" y1="110.000000" x2="294.200000" y2="110.000000"  style="stroke:black; stroke-linecap:round; stroke-width:0.25;"/>
<line x1="318.200000" y1="106.000000" x2="322.200000" y2="106.000000"  style="stroke:black; stroke-linecap:round; stroke-width:0.25;"/>
<line x1="322.200000" y1="106.000000" x2="356.200000" y2="74.000000"  style="stroke:black; stroke-linecap:round; stroke-width:0.25;"/>
<line x1="322.200000" y1="106.000000" x2="356.200000" y2="98.000000"  style="stroke:black; stroke-linecap:round; stroke-width:0.25;"/>
<line x1="322.200000" y1="106.000000" x2="356.200000" y2="106.000000"  style="stroke:black; stroke-linecap:round; stroke-width:0.25;"/>
<line x1="322.200000" y1="106.000000" x2="356.200000" y2="114.000000"  style="stroke:black; stroke-linecap:round; stroke-width:0.25;"/>
<line x1="322.200000" y1="106.000000" x2="356.200000" y2="122.000000"  style="stroke:black; stroke-linecap:round; stroke-width:0.25;"/>
<line x1="322.200000" y1="106.000000" x2="356.200000" y2="130.000000"  style="stroke:black; stroke-linecap:round; stroke-width:0.25;"/>
<line x1="322.200000" y1="106.000000" x2="356.200000" y2="138.000000"  style="stroke:black; stroke-linecap:round; stroke-width:0.25;"/>
<line x1="322.200000" y1="106.000000" x2="356.200000" y2="146.000000"  style="stroke:black; stroke-linecap:round; stroke-width:0.25;"/>
<line x1="356.200000" y1="74.000000" x2="360.200000" y2="74.000000"  style="stroke:black; stroke-linecap:round; stroke-width:0.25;"/>
<line x1="356.200000" y1="98.000000" x2="360.200000" y2="98.000000"  style="stroke:black; stroke-linecap:round; stroke-width:0.25;"/>
<line x1="356.200000" y1="106.000000" x2="360.200000" y2="106.000000"  style="stroke:black; stroke-linecap:round; stroke-width:0.25;"/>
<line x1="356.200000" y1="114.000000" x2="360.200000" y2="114.000000"  style="stroke:black; stroke-linecap:round; stroke-width:0.25;"/>
<line x1="356.200000" y1="122.000000" x2="360.200000" y2="122.000000"  style="stroke:black; stroke-linecap:round; stroke-width:0.25;"/>
<line x1="356.200000" y1="130.000000" x2="360.200000" y2="130.000000"  style="stroke:black; stroke-linecap:round; stroke-width:0.25;"/>
<line x1="356.200000" y1="138.000000" x2="360.200000" y2="138.000000"  style="stroke:black; stroke-linecap:round; stroke-width:0.25;"/>
<line x1="356.200000" y1="146.000000" x2="360.200000" y2="146.000000"  style="stroke:black; stroke-linecap:round; stroke-width:0.25;"/>
<line x1="386.000000" y1="74.000000" x2="390.000000" y2="74.000000"  style="stroke:black; stroke-linecap:round; stroke-width:0.25;"/>
<line x1="386.000000" y1="98.000000" x2="390.000000" y2="98.000000"  style="stroke:black; stroke-linecap:round; stroke-width:0.25;"/>
<line x1="386.000000" y1="106.000000" x2="390.000000" y2="106.000000"  style="stroke:black; stroke-linecap:round; stroke-width:0.25;"/>
<line x1="386.000000" y1="114.000000" x2="390.000000" y2="114.000000"  style="stroke:black; stroke-linecap:round; stroke-width:0.25;"/>
<line x1="386.000000" y1="122.000000" x2="390.000000" y2="122.000000"  style="stroke:black; stroke-linecap:round; stroke-width:0.25;"/>
<line x1="386.000000" y1="130.000000" x2="390.000000" y2="130.000000"  style="stroke:black; stroke-linecap:round; stroke-width:0.25;"/>
<line x1="386.000000" y1="138.000000" x2="390.000000" y2="138.000000"  style="stroke:black; stroke-linecap:round; stroke-width:0.25;"/>
<line x1="386.000000" y1="146.000000" x2="390.000000" y2="146.000000"  style="stroke:black; stroke-linecap:round; stroke-width:0.25;"/>
<line x1="390.000000" y1="74.000000" x2="400.000000" y2="74.000000"  style="stroke:black; stroke-linecap:round; stroke-width:0.25;"/>
<line x1="390.000000" y1="98.000000" x2="400.000000" y2="98.000000"  style="stroke:black; stroke-linecap:round; stroke-width:0.25;"/>
<line x1="390.000000" y1="106.000000" x2="400.000000" y2="106.000000"  style="stroke:black; stroke-linecap:round; stroke-width:0.25;"/>
<line x1="390.000000" y1="114.000000" x2="400.000000" y2="114.000000"  style="stroke:black; stroke-linecap:round; stroke-width:0.25;"/>
<line x1="390.000000" y1="122.000000" x2="400.000000" y2="122.000000"  style="stroke:black; stroke-linecap:round; stroke-width:0.25;"/>
<line x1="390.000000" y1="130.000000" x2="400.000000" y2="130.000000"  style="stroke:black; stroke-linecap:round; stroke-width:0.25;"/>
<line x1="390.000000" y1="138.000000" x2="400.000000" y2="138.000000"  style="stroke:black; stroke-linecap:round; stroke-width:0.25;"/>
<line x1="390.000000" y1="146.000000" x2="400.000000" y2="146.000000"  style="stroke:black; stroke-linecap:round; stroke-width:0.25;"/>
<line x1="400.000000" y1="74.000000" x2="410.000000" y2="74.000000"  style="stroke:black; stroke-linecap:round; stroke-width:0.25;"/>
<line x1="400.000000" y1="98.000000" x2="410.000000" y2="98.000000"  style="stroke:black; stroke-linecap:round; stroke-width:0.25;"/>
<line x1="400.000000" y1="106.000000" x2="410.000000" y2="106.000000"  style="stroke:black; stroke-linecap:round; stroke-width:0.25;"/>
<line x1="400.000000" y1="114.000000" x2="410.000000" y2="114.000000"  style="stroke:black; stroke-linecap:round; stroke-width:0.25;"/>
<line x1="400.000000" y1="122.000000" x2="410.000000" y2="122.000000"  style="stroke:black; stroke-linecap:round; stroke-width:0.25;"/>
<line x1="400.000000" y1="130.000000" x2="410.000000" y2="130.000000"  style="stroke:black; stroke-linecap:round; stroke-width:0.25;"/>
<line x1="400.000000" y1="138.000000" x2="410.000000" y2="138.000000"  style="stroke:black; stroke-linecap:round; stroke-width:0.25;"/>
<line x1="400.000000" y1="146.000000" x2="410.000000" y2="146.000000"  style="stroke:black; stroke-linecap:round; stroke-width:0.25;"/>
<line x1="410.000000" y1="74.000000" x2="466.000000" y2="74.000000"  style="stroke:black; stroke-linecap:round; stroke-width:0.25;"/>
<line x1="410.000000" y1="86.000000" x2="466.000000" y2="86.000000"  style="stroke:black; stroke-linecap:round; stroke-width:0.25;"/>
<line x1="410.000000" y1="98.000000" x2="410.000000" y2="86.000000"  style="stroke:black; stroke-linecap:round; stroke-width:0.25;"/>
<line x1="410.000000" y1="98.000000" x2="410.000000" y2="98.000000"  style="stroke:black; stroke-linecap:round; stroke-width:0.25;"/>
<line x1="410.000000" y1="106.000000" x2="418.000000" y2="106.000000"  style="stroke:black; stroke-linecap:round; stroke-width:0.25;"/>
<line x1="410.000000" y1="114.000000" x2="426.000000" y2="114.000000"  style="stroke:black; stroke-linecap:round; stroke-width:0.25;"/>
<line x1="410.000000" y1="122.000000" x2="434.000000" y2="122.000000"  style="stroke:black; stroke-linecap:round; stroke-width:0.25;"/>
<line x1="410.000000" y1="130.000000" x2="442.000000" y2="130.000000"  style="stroke:black; stroke-linecap:round; stroke-width:0.25;"/>
<line x1="410.000000" y1="138.000000" x2="450.000000" y2="138.000000"  style="stroke:black; stroke-linecap:round; stroke-width:0.25;"/>
<line x1="410.000000" y1="146.000000" x2="458.000000" y2="146.000000"  style="stroke:black; stroke-linecap:round; stroke-width:0.25;"/>
<line x1="418.000000" y1="94.000000" x2="466.000000" y2="94.000000"  style="stroke:black; stroke-linecap:round; stroke-width:0.25;"/>
<line x1="418.000000" y1="106.000000" x2="418.000000" y2="94.000000"  style="stroke:black; stroke-linecap:round; stroke-width:0.25;"/>
<line x1="426.000000" y1="102.000000" x2="466.000000" y2="102.000000"  style="stroke:black; stroke-linecap:round; stroke-width:0.25;"/>
<line x1="426.000000" y1="114.000000" x2="426.000000" y2="102.000000"  style="stroke:black; stroke-linecap:round; stroke-width:0.25;"/>
<line x1="434.000000" y1="110.000000" x2="466.000000" y2="110.000000"  style="stroke:black; stroke-linecap:round; stroke-width:0.25;"/>
<line x1="434.000000" y1="122.000000" x2="434.000000" y2="110.000000"  style="stroke:black; stroke-linecap:round; stroke-width:0.25;"/>
<line x1="442.000000" y1="118.000000" x2="466.000000" y2="118.000000"  style="stroke:black; stroke-linecap:round; stroke-width:0.25;"/>
<line x1="442.000000" y1="130.000000" x2="442.000000" y2="118.000000"  style="stroke:black; stroke-linecap:round; stroke-width:0.25;"/>
<line x1="450.000000" y1="126.000000" x2="466.000000" y2="126.000000"  style="stroke:black; stroke-linecap:round; stroke-width:0.25;"/>
<line x1="450.000000" y1="138.000000" x2="450.000000" y2="126.000000"  style="stroke:black; stroke-linecap:round; stroke-width:0.25;"/>
<line x1="458.000000" y1="134.000000" x2="466.000000" y2="134.000000"  style="stroke:black; stroke-linecap:round; stroke-width:0.25;"/>
<line x1="458.000000" y1="146.000000" x2="458.000000" y2="134.000000"  style="stroke:black; stroke-linecap:round; stroke-width:0.25;"/>
<line x1="466.000000" y1="74.000000" x2="466.000000" y2="78.000000"  style="stroke:black; stroke-linecap:round; stroke-width:0.25;"/>
<line x1="466.000000" y1="78.000000" x2="466.000000" y2="78.000000"  style="stroke:black; stroke-linecap:round; stroke-width:0.25;"/>
<line x1="466.000000" y1="78.000000" x2="470.000000" y2="78.000000"  style="stroke:black; stroke-linecap:round; stroke-width:0.25;"/>
<line x1="466.000000" y1="86.000000" x2="470.000000" y2="86.000000"  style="stroke:black; stroke-linecap:round; stroke-width:0.25;"/>
<line x1="466.000000" y1="94.000000" x2="470.000000" y2="94.000000"  style="stroke:black; stroke-linecap:round; stroke-width:0.25;"/>
<line x1="466.000000" y1="102.000000" x2="470.000000" y2="102.000000"  style="stroke:black; stroke-linecap:round; stroke-width:0.25;"/>
<line x1="466.000000" y1="110.000000" x2="470.000000" y2="110.000000"  style="stroke:black; stroke-linecap:round; stroke-width:0.25;"/>
<line x1="466.000000" y1="118.000000" x2="470.000000" y2="118.000000"  style="stroke:black; stroke-linecap:round; stroke-width:0.25;"/>
<line x1="466.000000" y1="126.000000" x2="470.000000" y2="126.000000"  style="stroke:black; stroke-linecap:round; stroke-width:0.25;"/>
<line x1="466.000000" y1="134.000000" x2="470.000000" y2="134.000000"  style="stroke:black; stroke-linecap:round; stroke-width:0.25;"/>
<line x1="470.000000" y1="78.000000" x2="474.000000" y2="78.000000"  style="stroke:black; stroke-linecap:round; stroke-width:0.25;"/>
<line x1="470.000000" y1="86.000000" x2="474.000000" y2="86.000000"  style="stroke:black; stroke-linecap:round; stroke-width:0.25;"/>
<line x1="470.000000" y1="94.000000" x2="474.000000" y2="94.000000"  style="stroke:black; stroke-linecap:round; stroke-width:0.25;"/>
<line x1="470.000000" y1="102.000000" x2="474.000000" y2="102.000000"  style="stroke:black; stroke-linecap:round; stroke-width:0.25;"/>
<line x1="470.000000" y1="110.000000" x2="474.000000" y2="110.000000"  style="stroke:black; stroke-linecap:round; stroke-width:0.25;"/>
<line x1="470.000000" y1="118.000000" x2="474.000000" y2="118.000000"  style="stroke:black; stroke-linecap:round; stroke-width:0.25;"/>
<line x1="470.000000" y1="126.000000" x2="474.000000" y2="126.000000"  style="stroke:black; stroke-linecap:round; stroke-width:0.25;"/>
<line x1="470.000000" y1="134.000000" x2="474.000000" y2="134.000000"  style="stroke:black; stroke-linecap:round; stroke-width:0.25;"/>
<line x1="474.000000" y1="78.000000" x2="484.000000" y2="78.000000"  style="stroke:black; stroke-linecap:round; stroke-width:0.25;"/>
<line x1="474.000000" y1="86.000000" x2="484.000000" y2="86.000000"  style="stroke:black; stroke-linecap:round; stroke-width:0.25;"/>
<line x1="474.000000" y1="94.000000" x2="484.000000" y2="94.000000"  style="stroke:black; stroke-linecap:round; stroke-width:0.25;"/>
<line x1="474.000000" y1="102.000000" x2="484.000000" y2="102.000000"  style="stroke:black; stroke-linecap:round; stroke-width:0.25;"/>
<line x1="474.000000" y1="110.000000" x2="484.000000" y2="110.000000"  style="stroke:black; stroke-linecap:round; stroke-width:0.25;"/>
<line x1="474.000000" y1="118.000000" x2="484.000000" y2="118.000000"  style="stroke:black; stroke-linecap:round; stroke-width:0.25;"/>
<line x1="474.000000" y1="126.000000" x2="484.000000" y2="126.000000"  style="stroke:black; stroke-linecap:round; stroke-width:0.25;"/>
<line x1="474.000000" y1="134.000000" x2="484.000000" y2="134.000000"  style="stroke:black; stroke-linecap:round; stroke-width:0.25;"/>
</svg>
