<?xml version="1.0"?>
<svg xmlns="http://www.w3.org/2000/svg" xmlns:xlink="http://www.w3.org/1999/xlink" viewBox="0 0 460.200000 212.000000" width="230.100000mm" height="106.000000mm" version="1.1">
<a xlink:href="instruments-0x7fb5bf03d930.svg">
<rect x="1.000000" y="1.000000" width="459.200000" height="211.000000" rx="0" ry="0" style="stroke:none;fill:#cccccc;"/>
<rect x="0.000000" y="0.000000" width="459.200000" height="211.000000" rx="0" ry="0" style="stroke:none;fill:#ffffff;"/>
</a>
<text x="10.000000" y="7.000000" font-family="Arial" font-size="7"></text>
<a xlink:href="insel-0x7fb5bf02bdc0.svg">
<rect x="43.000000" y="35.000000" width="25.800000" height="144.000000" rx="0" ry="0" style="stroke:none;fill:#cccccc;"/>
<rect x="42.000000" y="34.000000" width="25.800000" height="144.000000" rx="0" ry="0" style="stroke:none;fill:#003366;"/>
</a>
<a xlink:href="insel-0x7fb5bf02bdc0.svg">
<text x="54.900000" y="108.000000" font-family="Arial" font-size="7" text-anchor="middle" fill="#FFFFFF">insel</text>
</a>
<circle cx="44.000000" cy="36.000000" r="1"/>
<line x1="39.000000" y1="37.000000" x2="42.000000" y2="38.000000"  transform="rotate(0.000000,42.000000,38.000000)" style="stroke: black; stroke-width:0.25;"/>
<line x1="39.000000" y1="39.000000" x2="42.000000" y2="38.000000"  transform="rotate(0.000000,42.000000,38.000000)" style="stroke: black; stroke-width:0.25;"/>
<line x1="39.000000" y1="45.000000" x2="42.000000" y2="46.000000"  transform="rotate(0.000000,42.000000,46.000000)" style="stroke: black; stroke-width:0.25;"/>
<line x1="39.000000" y1="47.000000" x2="42.000000" y2="46.000000"  transform="rotate(0.000000,42.000000,46.000000)" style="stroke: black; stroke-width:0.25;"/>
<line x1="39.000000" y1="53.000000" x2="42.000000" y2="54.000000"  transform="rotate(0.000000,42.000000,54.000000)" style="stroke: black; stroke-width:0.25;"/>
<line x1="39.000000" y1="55.000000" x2="42.000000" y2="54.000000"  transform="rotate(0.000000,42.000000,54.000000)" style="stroke: black; stroke-width:0.25;"/>
<line x1="39.000000" y1="61.000000" x2="42.000000" y2="62.000000"  transform="rotate(0.000000,42.000000,62.000000)" style="stroke: black; stroke-width:0.25;"/>
<line x1="39.000000" y1="63.000000" x2="42.000000" y2="62.000000"  transform="rotate(0.000000,42.000000,62.000000)" style="stroke: black; stroke-width:0.25;"/>
<line x1="39.000000" y1="69.000000" x2="42.000000" y2="70.000000"  transform="rotate(0.000000,42.000000,70.000000)" style="stroke: black; stroke-width:0.25;"/>
<line x1="39.000000" y1="71.000000" x2="42.000000" y2="70.000000"  transform="rotate(0.000000,42.000000,70.000000)" style="stroke: black; stroke-width:0.25;"/>
<line x1="39.000000" y1="77.000000" x2="42.000000" y2="78.000000"  transform="rotate(0.000000,42.000000,78.000000)" style="stroke: black; stroke-width:0.25;"/>
<line x1="39.000000" y1="79.000000" x2="42.000000" y2="78.000000"  transform="rotate(0.000000,42.000000,78.000000)" style="stroke: black; stroke-width:0.25;"/>
<line x1="39.000000" y1="85.000000" x2="42.000000" y2="86.000000"  transform="rotate(0.000000,42.000000,86.000000)" style="stroke: black; stroke-width:0.25;"/>
<line x1="39.000000" y1="87.000000" x2="42.000000" y2="86.000000"  transform="rotate(0.000000,42.000000,86.000000)" style="stroke: black; stroke-width:0.25;"/>
<line x1="39.000000" y1="93.000000" x2="42.000000" y2="94.000000"  transform="rotate(0.000000,42.000000,94.000000)" style="stroke: black; stroke-width:0.25;"/>
<line x1="39.000000" y1="95.000000" x2="42.000000" y2="94.000000"  transform="rotate(0.000000,42.000000,94.000000)" style="stroke: black; stroke-width:0.25;"/>
<line x1="39.000000" y1="101.000000" x2="42.000000" y2="102.000000"  transform="rotate(0.000000,42.000000,102.000000)" style="stroke: black; stroke-width:0.25;"/>
<line x1="39.000000" y1="103.000000" x2="42.000000" y2="102.000000"  transform="rotate(0.000000,42.000000,102.000000)" style="stroke: black; stroke-width:0.25;"/>
<line x1="39.000000" y1="109.000000" x2="42.000000" y2="110.000000"  transform="rotate(0.000000,42.000000,110.000000)" style="stroke: black; stroke-width:0.25;"/>
<line x1="39.000000" y1="111.000000" x2="42.000000" y2="110.000000"  transform="rotate(0.000000,42.000000,110.000000)" style="stroke: black; stroke-width:0.25;"/>
<line x1="39.000000" y1="117.000000" x2="42.000000" y2="118.000000"  transform="rotate(0.000000,42.000000,118.000000)" style="stroke: black; stroke-width:0.25;"/>
<line x1="39.000000" y1="119.000000" x2="42.000000" y2="118.000000"  transform="rotate(0.000000,42.000000,118.000000)" style="stroke: black; stroke-width:0.25;"/>
<line x1="39.000000" y1="125.000000" x2="42.000000" y2="126.000000"  transform="rotate(0.000000,42.000000,126.000000)" style="stroke: black; stroke-width:0.25;"/>
<line x1="39.000000" y1="127.000000" x2="42.000000" y2="126.000000"  transform="rotate(0.000000,42.000000,126.000000)" style="stroke: black; stroke-width:0.25;"/>
<line x1="39.000000" y1="133.000000" x2="42.000000" y2="134.000000"  transform="rotate(0.000000,42.000000,134.000000)" style="stroke: black; stroke-width:0.25;"/>
<line x1="39.000000" y1="135.000000" x2="42.000000" y2="134.000000"  transform="rotate(0.000000,42.000000,134.000000)" style="stroke: black; stroke-width:0.25;"/>
<line x1="39.000000" y1="141.000000" x2="42.000000" y2="142.000000"  transform="rotate(0.000000,42.000000,142.000000)" style="stroke: black; stroke-width:0.25;"/>
<line x1="39.000000" y1="143.000000" x2="42.000000" y2="142.000000"  transform="rotate(0.000000,42.000000,142.000000)" style="stroke: black; stroke-width:0.25;"/>
<line x1="39.000000" y1="149.000000" x2="42.000000" y2="150.000000"  transform="rotate(0.000000,42.000000,150.000000)" style="stroke: black; stroke-width:0.25;"/>
<line x1="39.000000" y1="151.000000" x2="42.000000" y2="150.000000"  transform="rotate(0.000000,42.000000,150.000000)" style="stroke: black; stroke-width:0.25;"/>
<line x1="39.000000" y1="157.000000" x2="42.000000" y2="158.000000"  transform="rotate(0.000000,42.000000,158.000000)" style="stroke: black; stroke-width:0.25;"/>
<line x1="39.000000" y1="159.000000" x2="42.000000" y2="158.000000"  transform="rotate(0.000000,42.000000,158.000000)" style="stroke: black; stroke-width:0.25;"/>
<line x1="39.000000" y1="165.000000" x2="42.000000" y2="166.000000"  transform="rotate(0.000000,42.000000,166.000000)" style="stroke: black; stroke-width:0.25;"/>
<line x1="39.000000" y1="167.000000" x2="42.000000" y2="166.000000"  transform="rotate(0.000000,42.000000,166.000000)" style="stroke: black; stroke-width:0.25;"/>
<line x1="39.000000" y1="173.000000" x2="42.000000" y2="174.000000"  transform="rotate(0.000000,42.000000,174.000000)" style="stroke: black; stroke-width:0.25;"/>
<line x1="39.000000" y1="175.000000" x2="42.000000" y2="174.000000"  transform="rotate(0.000000,42.000000,174.000000)" style="stroke: black; stroke-width:0.25;"/>
<a xlink:href="presec-0x7fb5bf02fd10.svg">
<rect x="76.800000" y="95.000000" width="25.800000" height="24.000000" rx="0" ry="0" style="stroke:none;fill:#cccccc;"/>
<rect x="75.800000" y="94.000000" width="25.800000" height="24.000000" rx="0" ry="0" style="stroke:none;fill:#003366;"/>
</a>
<a xlink:href="presec-0x7fb5bf02fd10.svg">
<text x="88.700000" y="108.000000" font-family="Arial" font-size="7" text-anchor="middle" fill="#FFFFFF">presec</text>
</a>
<circle cx="77.800000" cy="96.000000" r="1"/>
<line x1="72.800000" y1="105.000000" x2="75.800000" y2="106.000000"  transform="rotate(0.000000,75.800000,106.000000)" style="stroke: black; stroke-width:0.25;"/>
<line x1="72.800000" y1="107.000000" x2="75.800000" y2="106.000000"  transform="rotate(0.000000,75.800000,106.000000)" style="stroke: black; stroke-width:0.25;"/>
<a xlink:href="peq-0x7fb5bf036e00.svg">
<rect x="110.600000" y="95.000000" width="24.000000" height="24.000000" rx="0" ry="0" style="stroke:none;fill:#cccccc;"/>
<rect x="109.600000" y="94.000000" width="24.000000" height="24.000000" rx="0" ry="0" style="stroke:none;fill:#003366;"/>
</a>
<a xlink:href="peq-0x7fb5bf036e00.svg">
<text x="121.600000" y="108.000000" font-family="Arial" font-size="7" text-anchor="middle" fill="#FFFFFF">peq</text>
</a>
<circle cx="111.600000" cy="96.000000" r="1"/>
<line x1="106.600000" y1="105.000000" x2="109.600000" y2="106.000000"  transform="rotate(0.000000,109.600000,106.000000)" style="stroke: black; stroke-width:0.25;"/>
<line x1="106.600000" y1="107.000000" x2="109.600000" y2="106.000000"  transform="rotate(0.000000,109.600000,106.000000)" style="stroke: black; stroke-width:0.25;"/>
<a xlink:href="fader-0x7fb5b570c0d0.svg">
<rect x="219.600000" y="99.000000" width="25.800000" height="24.000000" rx="0" ry="0" style="stroke:none;fill:#cccccc;"/>
<rect x="218.600000" y="98.000000" width="25.800000" height="24.000000" rx="0" ry="0" style="stroke:none;fill:#003366;"/>
</a>
<a xlink:href="fader-0x7fb5b570c0d0.svg">
<text x="231.500000" y="112.000000" font-family="Arial" font-size="7" text-anchor="middle" fill="#FFFFFF">fader</text>
</a>
<circle cx="220.600000" cy="100.000000" r="1"/>
<rect x="261.400000" y="95.000000" width="24.000000" height="24.000000" rx="0" ry="0" style="stroke:none;fill:#cccccc;"/>
<rect x="260.400000" y="94.000000" width="24.000000" height="24.000000" rx="0" ry="0" style="stroke:none;fill:#4B71A1;"/>
<text x="272.400000" y="108.000000" font-family="Arial" font-size="7" text-anchor="middle" fill="#FFFFFF">*</text>
<circle cx="262.400000" cy="96.000000" r="1"/>
<line x1="257.400000" y1="101.000000" x2="260.400000" y2="102.000000"  transform="rotate(0.000000,260.400000,102.000000)" style="stroke: black; stroke-width:0.25;"/>
<line x1="257.400000" y1="103.000000" x2="260.400000" y2="102.000000"  transform="rotate(0.000000,260.400000,102.000000)" style="stroke: black; stroke-width:0.25;"/>
<line x1="257.400000" y1="109.000000" x2="260.400000" y2="110.000000"  transform="rotate(0.000000,260.400000,110.000000)" style="stroke: black; stroke-width:0.25;"/>
<line x1="257.400000" y1="111.000000" x2="260.400000" y2="110.000000"  transform="rotate(0.000000,260.400000,110.000000)" style="stroke: black; stroke-width:0.25;"/>
<a xlink:href="vmeter-0x7fb5bf03b820.svg">
<rect x="327.400000" y="63.000000" width="25.800000" height="24.000000" rx="0" ry="0" style="stroke:none;fill:#cccccc;"/>
<rect x="326.400000" y="62.000000" width="25.800000" height="24.000000" rx="0" ry="0" style="stroke:none;fill:#003366;"/>
</a>
<a xlink:href="vmeter-0x7fb5bf03b820.svg">
<text x="339.300000" y="76.000000" font-family="Arial" font-size="7" text-anchor="middle" fill="#FFFFFF">vmeter</text>
</a>
<circle cx="328.400000" cy="64.000000" r="1"/>
<line x1="323.400000" y1="73.000000" x2="326.400000" y2="74.000000"  transform="rotate(0.000000,326.400000,74.000000)" style="stroke: black; stroke-width:0.25;"/>
<line x1="323.400000" y1="75.000000" x2="326.400000" y2="74.000000"  transform="rotate(0.000000,326.400000,74.000000)" style="stroke: black; stroke-width:0.25;"/>
<a xlink:href="sends-0x7fb5b57137b0.svg">
<rect x="327.400000" y="95.000000" width="25.800000" height="56.000000" rx="0" ry="0" style="stroke:none;fill:#cccccc;"/>
<rect x="326.400000" y="94.000000" width="25.800000" height="56.000000" rx="0" ry="0" style="stroke:none;fill:#003366;"/>
</a>
<a xlink:href="sends-0x7fb5b57137b0.svg">
<text x="339.300000" y="124.000000" font-family="Arial" font-size="7" text-anchor="middle" fill="#FFFFFF">sends</text>
</a>
<circle cx="328.400000" cy="96.000000" r="1"/>
<line x1="323.400000" y1="97.000000" x2="326.400000" y2="98.000000"  transform="rotate(0.000000,326.400000,98.000000)" style="stroke: black; stroke-width:0.25;"/>
<line x1="323.400000" y1="99.000000" x2="326.400000" y2="98.000000"  transform="rotate(0.000000,326.400000,98.000000)" style="stroke: black; stroke-width:0.25;"/>
<line x1="323.400000" y1="105.000000" x2="326.400000" y2="106.000000"  transform="rotate(0.000000,326.400000,106.000000)" style="stroke: black; stroke-width:0.25;"/>
<line x1="323.400000" y1="107.000000" x2="326.400000" y2="106.000000"  transform="rotate(0.000000,326.400000,106.000000)" style="stroke: black; stroke-width:0.25;"/>
<line x1="323.400000" y1="113.000000" x2="326.400000" y2="114.000000"  transform="rotate(0.000000,326.400000,114.000000)" style="stroke: black; stroke-width:0.25;"/>
<line x1="323.400000" y1="115.000000" x2="326.400000" y2="114.000000"  transform="rotate(0.000000,326.400000,114.000000)" style="stroke: black; stroke-width:0.25;"/>
<line x1="323.400000" y1="121.000000" x2="326.400000" y2="122.000000"  transform="rotate(0.000000,326.400000,122.000000)" style="stroke: black; stroke-width:0.25;"/>
<line x1="323.400000" y1="123.000000" x2="326.400000" y2="122.000000"  transform="rotate(0.000000,326.400000,122.000000)" style="stroke: black; stroke-width:0.25;"/>
<line x1="323.400000" y1="129.000000" x2="326.400000" y2="130.000000"  transform="rotate(0.000000,326.400000,130.000000)" style="stroke: black; stroke-width:0.25;"/>
<line x1="323.400000" y1="131.000000" x2="326.400000" y2="130.000000"  transform="rotate(0.000000,326.400000,130.000000)" style="stroke: black; stroke-width:0.25;"/>
<line x1="323.400000" y1="137.000000" x2="326.400000" y2="138.000000"  transform="rotate(0.000000,326.400000,138.000000)" style="stroke: black; stroke-width:0.25;"/>
<line x1="323.400000" y1="139.000000" x2="326.400000" y2="138.000000"  transform="rotate(0.000000,326.400000,138.000000)" style="stroke: black; stroke-width:0.25;"/>
<line x1="323.400000" y1="145.000000" x2="326.400000" y2="146.000000"  transform="rotate(0.000000,326.400000,146.000000)" style="stroke: black; stroke-width:0.25;"/>
<line x1="323.400000" y1="147.000000" x2="326.400000" y2="146.000000"  transform="rotate(0.000000,326.400000,146.000000)" style="stroke: black; stroke-width:0.25;"/>
<line x1="209.600000" y1="53.000000" x2="209.600000" y2="159.000000"  style="stroke: black; stroke-linecap:round; stroke-width:0.25; stroke-dasharray:3,3;"/>
<line x1="209.600000" y1="159.000000" x2="361.200000" y2="159.000000"  style="stroke: black; stroke-linecap:round; stroke-width:0.25; stroke-dasharray:3,3;"/>
<line x1="361.200000" y1="159.000000" x2="361.200000" y2="53.000000"  style="stroke: black; stroke-linecap:round; stroke-width:0.25; stroke-dasharray:3,3;"/>
<line x1="209.600000" y1="53.000000" x2="214.600000" y2="53.000000"  style="stroke: black; stroke-linecap:round; stroke-width:0.25; stroke-dasharray:3,3;"/>
<line x1="288.775000" y1="53.000000" x2="361.200000" y2="53.000000"  style="stroke: black; stroke-linecap:round; stroke-width:0.25; stroke-dasharray:3,3;"/>
<text x="214.600000" y="55.000000" font-family="Arial" font-size="7">hgroup(CAMPANE SARDE)</text>
<line x1="33.000000" y1="25.000000" x2="33.000000" y2="187.000000"  style="stroke: black; stroke-linecap:round; stroke-width:0.25; stroke-dasharray:3,3;"/>
<line x1="33.000000" y1="187.000000" x2="371.200000" y2="187.000000"  style="stroke: black; stroke-linecap:round; stroke-width:0.25; stroke-dasharray:3,3;"/>
<line x1="371.200000" y1="187.000000" x2="371.200000" y2="25.000000"  style="stroke: black; stroke-linecap:round; stroke-width:0.25; stroke-dasharray:3,3;"/>
<line x1="33.000000" y1="25.000000" x2="38.000000" y2="25.000000"  style="stroke: black; stroke-linecap:round; stroke-width:0.25; stroke-dasharray:3,3;"/>
<line x1="112.175000" y1="25.000000" x2="371.200000" y2="25.000000"  style="stroke: black; stroke-linecap:round; stroke-width:0.25; stroke-dasharray:3,3;"/>
<text x="38.000000" y="27.000000" font-family="Arial" font-size="7">vgroup(CAMPANE SARDE)</text>
<line x1="15.000000" y1="15.000000" x2="15.000000" y2="197.000000"  style="stroke: black; stroke-linecap:round; stroke-width:0.25; stroke-dasharray:3,3;"/>
<line x1="15.000000" y1="197.000000" x2="445.200000" y2="197.000000"  style="stroke: black; stroke-linecap:round; stroke-width:0.25; stroke-dasharray:3,3;"/>
<line x1="445.200000" y1="197.000000" x2="445.200000" y2="15.000000"  style="stroke: black; stroke-linecap:round; stroke-width:0.25; stroke-dasharray:3,3;"/>
<line x1="15.000000" y1="15.000000" x2="20.000000" y2="15.000000"  style="stroke: black; stroke-linecap:round; stroke-width:0.25; stroke-dasharray:3,3;"/>
<line x1="42.575000" y1="15.000000" x2="445.200000" y2="15.000000"  style="stroke: black; stroke-linecap:round; stroke-width:0.25; stroke-dasharray:3,3;"/>
<text x="20.000000" y="17.000000" font-family="Arial" font-size="7">csard</text>
<line x1="447.200000" y1="77.000000" x2="450.200000" y2="78.000000"  transform="rotate(0.000000,450.200000,78.000000)" style="stroke: black; stroke-width:0.25;"/>
<line x1="447.200000" y1="79.000000" x2="450.200000" y2="78.000000"  transform="rotate(0.000000,450.200000,78.000000)" style="stroke: black; stroke-width:0.25;"/>
<line x1="447.200000" y1="85.000000" x2="450.200000" y2="86.000000"  transform="rotate(0.000000,450.200000,86.000000)" style="stroke: black; stroke-width:0.25;"/>
<line x1="447.200000" y1="87.000000" x2="450.200000" y2="86.000000"  transform="rotate(0.000000,450.200000,86.000000)" style="stroke: black; stroke-width:0.25;"/>
<line x1="447.200000" y1="93.000000" x2="450.200000" y2="94.000000"  transform="rotate(0.000000,450.200000,94.000000)" style="stroke: black; stroke-width:0.25;"/>
<line x1="447.200000" y1="95.000000" x2="450.200000" y2="94.000000"  transform="rotate(0.000000,450.200000,94.000000)" style="stroke: black; stroke-width:0.25;"/>
<line x1="447.200000" y1="101.000000" x2="450.200000" y2="102.000000"  transform="rotate(0.000000,450.200000,102.000000)" style="stroke: black; stroke-width:0.25;"/>
<line x1="447.200000" y1="103.000000" x2="450.200000" y2="102.000000"  transform="rotate(0.000000,450.200000,102.000000)" style="stroke: black; stroke-width:0.25;"/>
<line x1="447.200000" y1="109.000000" x2="450.200000" y2="110.000000"  transform="rotate(0.000000,450.200000,110.000000)" style="stroke: black; stroke-width:0.25;"/>
<line x1="447.200000" y1="111.000000" x2="450.200000" y2="110.000000"  transform="rotate(0.000000,450.200000,110.000000)" style="stroke: black; stroke-width:0.25;"/>
<line x1="447.200000" y1="117.000000" x2="450.200000" y2="118.000000"  transform="rotate(0.000000,450.200000,118.000000)" style="stroke: black; stroke-width:0.25;"/>
<line x1="447.200000" y1="119.000000" x2="450.200000" y2="118.000000"  transform="rotate(0.000000,450.200000,118.000000)" style="stroke: black; stroke-width:0.25;"/>
<line x1="447.200000" y1="125.000000" x2="450.200000" y2="126.000000"  transform="rotate(0.000000,450.200000,126.000000)" style="stroke: black; stroke-width:0.25;"/>
<line x1="447.200000" y1="127.000000" x2="450.200000" y2="126.000000"  transform="rotate(0.000000,450.200000,126.000000)" style="stroke: black; stroke-width:0.25;"/>
<line x1="447.200000" y1="133.000000" x2="450.200000" y2="134.000000"  transform="rotate(0.000000,450.200000,134.000000)" style="stroke: black; stroke-width:0.25;"/>
<line x1="447.200000" y1="135.000000" x2="450.200000" y2="134.000000"  transform="rotate(0.000000,450.200000,134.000000)" style="stroke: black; stroke-width:0.25;"/>
<line x1="10.000000" y1="38.000000" x2="20.000000" y2="38.000000"  style="stroke:black; stroke-linecap:round; stroke-width:0.25;"/>
<line x1="10.000000" y1="46.000000" x2="20.000000" y2="46.000000"  style="stroke:black; stroke-linecap:round; stroke-width:0.25;"/>
<line x1="10.000000" y1="54.000000" x2="20.000000" y2="54.000000"  style="stroke:black; stroke-linecap:round; stroke-width:0.25;"/>
<line x1="10.000000" y1="62.000000" x2="20.000000" y2="62.000000"  style="stroke:black; stroke-linecap:round; stroke-width:0.25;"/>
<line x1="10.000000" y1="70.000000" x2="20.000000" y2="70.000000"  style="stroke:black; stroke-linecap:round; stroke-width:0.25;"/>
<line x1="10.000000" y1="78.000000" x2="20.000000" y2="78.000000"  style="stroke:black; stroke-linecap:round; stroke-width:0.25;"/>
<line x1="10.000000" y1="86.000000" x2="20.000000" y2="86.000000"  style="stroke:black; stroke-linecap:round; stroke-width:0.25;"/>
<line x1="10.000000" y1="94.000000" x2="20.000000" y2="94.000000"  style="stroke:black; stroke-linecap:round; stroke-width:0.25;"/>
<line x1="10.000000" y1="102.000000" x2="20.000000" y2="102.000000"  style="stroke:black; stroke-linecap:round; stroke-width:0.25;"/>
<line x1="10.000000" y1="110.000000" x2="20.000000" y2="110.000000"  style="stroke:black; stroke-linecap:round; stroke-width:0.25;"/>
<line x1="10.000000" y1="118.000000" x2="20.000000" y2="118.000000"  style="stroke:black; stroke-linecap:round; stroke-width:0.25;"/>
<line x1="10.000000" y1="126.000000" x2="20.000000" y2="126.000000"  style="stroke:black; stroke-linecap:round; stroke-width:0.25;"/>
<line x1="10.000000" y1="134.000000" x2="20.000000" y2="134.000000"  style="stroke:black; stroke-linecap:round; stroke-width:0.25;"/>
<line x1="10.000000" y1="142.000000" x2="20.000000" y2="142.000000"  style="stroke:black; stroke-linecap:round; stroke-width:0.25;"/>
<line x1="10.000000" y1="150.000000" x2="20.000000" y2="150.000000"  style="stroke:black; stroke-linecap:round; stroke-width:0.25;"/>
<line x1="10.000000" y1="158.000000" x2="20.000000" y2="158.000000"  style="stroke:black; stroke-linecap:round; stroke-width:0.25;"/>
<line x1="10.000000" y1="166.000000" x2="20.000000" y2="166.000000"  style="stroke:black; stroke-linecap:round; stroke-width:0.25;"/>
<line x1="10.000000" y1="174.000000" x2="20.000000" y2="174.000000"  style="stroke:black; stroke-linecap:round; stroke-width:0.25;"/>
<line x1="20.000000" y1="38.000000" x2="24.000000" y2="38.000000"  style="stroke:black; stroke-linecap:round; stroke-width:0.25;"/>
<line x1="20.000000" y1="46.000000" x2="24.000000" y2="46.000000"  style="stroke:black; stroke-linecap:round; stroke-width:0.25;"/>
<line x1="20.000000" y1="54.000000" x2="24.000000" y2="54.000000"  style="stroke:black; stroke-linecap:round; stroke-width:0.25;"/>
<line x1="20.000000" y1="62.000000" x2="24.000000" y2="62.000000"  style="stroke:black; stroke-linecap:round; stroke-width:0.25;"/>
<line x1="20.000000" y1="70.000000" x2="24.000000" y2="70.000000"  style="stroke:black; stroke-linecap:round; stroke-width:0.25;"/>
<line x1="20.000000" y1="78.000000" x2="24.000000" y2="78.000000"  style="stroke:black; stroke-linecap:round; stroke-width:0.25;"/>
<line x1="20.000000" y1="86.000000" x2="24.000000" y2="86.000000"  style="stroke:black; stroke-linecap:round; stroke-width:0.25;"/>
<line x1="20.000000" y1="94.000000" x2="24.000000" y2="94.000000"  style="stroke:black; stroke-linecap:round; stroke-width:0.25;"/>
<line x1="20.000000" y1="102.000000" x2="24.000000" y2="102.000000"  style="stroke:black; stroke-linecap:round; stroke-width:0.25;"/>
<line x1="20.000000" y1="110.000000" x2="24.000000" y2="110.000000"  style="stroke:black; stroke-linecap:round; stroke-width:0.25;"/>
<line x1="20.000000" y1="118.000000" x2="24.000000" y2="118.000000"  style="stroke:black; stroke-linecap:round; stroke-width:0.25;"/>
<line x1="20.000000" y1="126.000000" x2="24.000000" y2="126.000000"  style="stroke:black; stroke-linecap:round; stroke-width:0.25;"/>
<line x1="20.000000" y1="134.000000" x2="24.000000" y2="134.000000"  style="stroke:black; stroke-linecap:round; stroke-width:0.25;"/>
<line x1="20.000000" y1="142.000000" x2="24.000000" y2="142.000000"  style="stroke:black; stroke-linecap:round; stroke-width:0.25;"/>
<line x1="20.000000" y1="150.000000" x2="24.000000" y2="150.000000"  style="stroke:black; stroke-linecap:round; stroke-width:0.25;"/>
<line x1="20.000000" y1="158.000000" x2="24.000000" y2="158.000000"  style="stroke:black; stroke-linecap:round; stroke-width:0.25;"/>
<line x1="20.000000" y1="166.000000" x2="24.000000" y2="166.000000"  style="stroke:black; stroke-linecap:round; stroke-width:0.25;"/>
<line x1="20.000000" y1="174.000000" x2="24.000000" y2="174.000000"  style="stroke:black; stroke-linecap:round; stroke-width:0.25;"/>
<line x1="24.000000" y1="38.000000" x2="28.000000" y2="38.000000"  style="stroke:black; stroke-linecap:round; stroke-width:0.25;"/>
<line x1="24.000000" y1="46.000000" x2="28.000000" y2="46.000000"  style="stroke:black; stroke-linecap:round; stroke-width:0.25;"/>
<line x1="24.000000" y1="54.000000" x2="28.000000" y2="54.000000"  style="stroke:black; stroke-linecap:round; stroke-width:0.25;"/>
<line x1="24.000000" y1="62.000000" x2="28.000000" y2="62.000000"  style="stroke:black; stroke-linecap:round; stroke-width:0.25;"/>
<line x1="24.000000" y1="70.000000" x2="28.000000" y2="70.000000"  style="stroke:black; stroke-linecap:round; stroke-width:0.25;"/>
<line x1="24.000000" y1="78.000000" x2="28.000000" y2="78.000000"  style="stroke:black; stroke-linecap:round; stroke-width:0.25;"/>
<line x1="24.000000" y1="86.000000" x2="28.000000" y2="86.000000"  style="stroke:black; stroke-linecap:round; stroke-width:0.25;"/>
<line x1="24.000000" y1="94.000000" x2="28.000000" y2="94.000000"  style="stroke:black; stroke-linecap:round; stroke-width:0.25;"/>
<line x1="24.000000" y1="102.000000" x2="28.000000" y2="102.000000"  style="stroke:black; stroke-linecap:round; stroke-width:0.25;"/>
<line x1="24.000000" y1="110.000000" x2="28.000000" y2="110.000000"  style="stroke:black; stroke-linecap:round; stroke-width:0.25;"/>
<line x1="24.000000" y1="118.000000" x2="28.000000" y2="118.000000"  style="stroke:black; stroke-linecap:round; stroke-width:0.25;"/>
<line x1="24.000000" y1="126.000000" x2="28.000000" y2="126.000000"  style="stroke:black; stroke-linecap:round; stroke-width:0.25;"/>
<line x1="24.000000" y1="134.000000" x2="28.000000" y2="134.000000"  style="stroke:black; stroke-linecap:round; stroke-width:0.25;"/>
<line x1="24.000000" y1="142.000000" x2="28.000000" y2="142.000000"  style="stroke:black; stroke-linecap:round; stroke-width:0.25;"/>
<line x1="24.000000" y1="150.000000" x2="28.000000" y2="150.000000"  style="stroke:black; stroke-linecap:round; stroke-width:0.25;"/>
<line x1="24.000000" y1="158.000000" x2="28.000000" y2="158.000000"  style="stroke:black; stroke-linecap:round; stroke-width:0.25;"/>
<line x1="24.000000" y1="166.000000" x2="28.000000" y2="166.000000"  style="stroke:black; stroke-linecap:round; stroke-width:0.25;"/>
<line x1="24.000000" y1="174.000000" x2="28.000000" y2="174.000000"  style="stroke:black; stroke-linecap:round; stroke-width:0.25;"/>
<line x1="28.000000" y1="38.000000" x2="28.000000" y2="38.000000"  style="stroke:black; stroke-linecap:round; stroke-width:0.25;"/>
<line x1="28.000000" y1="38.000000" x2="38.000000" y2="38.000000"  style="stroke:black; stroke-linecap:round; stroke-width:0.25;"/>
<line x1="28.000000" y1="46.000000" x2="28.000000" y2="46.000000"  style="stroke:black; stroke-linecap:round; stroke-width:0.25;"/>
<line x1="28.000000" y1="46.000000" x2="38.000000" y2="46.000000"  style="stroke:black; stroke-linecap:round; stroke-width:0.25;"/>
<line x1="28.000000" y1="54.000000" x2="28.000000" y2="54.000000"  style="stroke:black; stroke-linecap:round; stroke-width:0.25;"/>
<line x1="28.000000" y1="54.000000" x2="38.000000" y2="54.000000"  style="stroke:black; stroke-linecap:round; stroke-width:0.25;"/>
<line x1="28.000000" y1="62.000000" x2="28.000000" y2="62.000000"  style="stroke:black; stroke-linecap:round; stroke-width:0.25;"/>
<line x1="28.000000" y1="62.000000" x2="38.000000" y2="62.000000"  style="stroke:black; stroke-linecap:round; stroke-width:0.25;"/>
<line x1="28.000000" y1="70.000000" x2="28.000000" y2="70.000000"  style="stroke:black; stroke-linecap:round; stroke-width:0.25;"/>
<line x1="28.000000" y1="70.000000" x2="38.000000" y2="70.000000"  style="stroke:black; stroke-linecap:round; stroke-width:0.25;"/>
<line x1="28.000000" y1="78.000000" x2="28.000000" y2="78.000000"  style="stroke:black; stroke-linecap:round; stroke-width:0.25;"/>
<line x1="28.000000" y1="78.000000" x2="38.000000" y2="78.000000"  style="stroke:black; stroke-linecap:round; stroke-width:0.25;"/>
<line x1="28.000000" y1="86.000000" x2="28.000000" y2="86.000000"  style="stroke:black; stroke-linecap:round; stroke-width:0.25;"/>
<line x1="28.000000" y1="86.000000" x2="38.000000" y2="86.000000"  style="stroke:black; stroke-linecap:round; stroke-width:0.25;"/>
<line x1="28.000000" y1="94.000000" x2="28.000000" y2="94.000000"  style="stroke:black; stroke-linecap:round; stroke-width:0.25;"/>
<line x1="28.000000" y1="94.000000" x2="38.000000" y2="94.000000"  style="stroke:black; stroke-linecap:round; stroke-width:0.25;"/>
<line x1="28.000000" y1="102.000000" x2="28.000000" y2="102.000000"  style="stroke:black; stroke-linecap:round; stroke-width:0.25;"/>
<line x1="28.000000" y1="102.000000" x2="38.000000" y2="102.000000"  style="stroke:black; stroke-linecap:round; stroke-width:0.25;"/>
<line x1="28.000000" y1="110.000000" x2="28.000000" y2="110.000000"  style="stroke:black; stroke-linecap:round; stroke-width:0.25;"/>
<line x1="28.000000" y1="110.000000" x2="38.000000" y2="110.000000"  style="stroke:black; stroke-linecap:round; stroke-width:0.25;"/>
<line x1="28.000000" y1="118.000000" x2="28.000000" y2="118.000000"  style="stroke:black; stroke-linecap:round; stroke-width:0.25;"/>
<line x1="28.000000" y1="118.000000" x2="38.000000" y2="118.000000"  style="stroke:black; stroke-linecap:round; stroke-width:0.25;"/>
<line x1="28.000000" y1="126.000000" x2="28.000000" y2="126.000000"  style="stroke:black; stroke-linecap:round; stroke-width:0.25;"/>
<line x1="28.000000" y1="126.000000" x2="38.000000" y2="126.000000"  style="stroke:black; stroke-linecap:round; stroke-width:0.25;"/>
<line x1="28.000000" y1="134.000000" x2="28.000000" y2="134.000000"  style="stroke:black; stroke-linecap:round; stroke-width:0.25;"/>
<line x1="28.000000" y1="134.000000" x2="38.000000" y2="134.000000"  style="stroke:black; stroke-linecap:round; stroke-width:0.25;"/>
<line x1="28.000000" y1="142.000000" x2="28.000000" y2="142.000000"  style="stroke:black; stroke-linecap:round; stroke-width:0.25;"/>
<line x1="28.000000" y1="142.000000" x2="38.000000" y2="142.000000"  style="stroke:black; stroke-linecap:round; stroke-width:0.25;"/>
<line x1="28.000000" y1="150.000000" x2="28.000000" y2="150.000000"  style="stroke:black; stroke-linecap:round; stroke-width:0.25;"/>
<line x1="28.000000" y1="150.000000" x2="38.000000" y2="150.000000"  style="stroke:black; stroke-linecap:round; stroke-width:0.25;"/>
<line x1="28.000000" y1="158.000000" x2="28.000000" y2="158.000000"  style="stroke:black; stroke-linecap:round; stroke-width:0.25;"/>
<line x1="28.000000" y1="158.000000" x2="38.000000" y2="158.000000"  style="stroke:black; stroke-linecap:round; stroke-width:0.25;"/>
<line x1="28.000000" y1="166.000000" x2="28.000000" y2="166.000000"  style="stroke:black; stroke-linecap:round; stroke-width:0.25;"/>
<line x1="28.000000" y1="166.000000" x2="38.000000" y2="166.000000"  style="stroke:black; stroke-linecap:round; stroke-width:0.25;"/>
<line x1="28.000000" y1="174.000000" x2="28.000000" y2="174.000000"  style="stroke:black; stroke-linecap:round; stroke-width:0.25;"/>
<line x1="28.000000" y1="174.000000" x2="38.000000" y2="174.000000"  style="stroke:black; stroke-linecap:round; stroke-width:0.25;"/>
<line x1="38.000000" y1="38.000000" x2="42.000000" y2="38.000000"  style="stroke:black; stroke-linecap:round; stroke-width:0.25;"/>
<line x1="38.000000" y1="46.000000" x2="42.000000" y2="46.000000"  style="stroke:black; stroke-linecap:round; stroke-width:0.25;"/>
<line x1="38.000000" y1="54.000000" x2="42.000000" y2="54.000000"  style="stroke:black; stroke-linecap:round; stroke-width:0.25;"/>
<line x1="38.000000" y1="62.000000" x2="42.000000" y2="62.000000"  style="stroke:black; stroke-linecap:round; stroke-width:0.25;"/>
<line x1="38.000000" y1="70.000000" x2="42.000000" y2="70.000000"  style="stroke:black; stroke-linecap:round; stroke-width:0.25;"/>
<line x1="38.000000" y1="78.000000" x2="42.000000" y2="78.000000"  style="stroke:black; stroke-linecap:round; stroke-width:0.25;"/>
<line x1="38.000000" y1="86.000000" x2="42.000000" y2="86.000000"  style="stroke:black; stroke-linecap:round; stroke-width:0.25;"/>
<line x1="38.000000" y1="94.000000" x2="42.000000" y2="94.000000"  style="stroke:black; stroke-linecap:round; stroke-width:0.25;"/>
<line x1="38.000000" y1="102.000000" x2="42.000000" y2="102.000000"  style="stroke:black; stroke-linecap:round; stroke-width:0.25;"/>
<line x1="38.000000" y1="110.000000" x2="42.000000" y2="110.000000"  style="stroke:black; stroke-linecap:round; stroke-width:0.25;"/>
<line x1="38.000000" y1="118.000000" x2="42.000000" y2="118.000000"  style="stroke:black; stroke-linecap:round; stroke-width:0.25;"/>
<line x1="38.000000" y1="126.000000" x2="42.000000" y2="126.000000"  style="stroke:black; stroke-linecap:round; stroke-width:0.25;"/>
<line x1="38.000000" y1="134.000000" x2="42.000000" y2="134.000000"  style="stroke:black; stroke-linecap:round; stroke-width:0.25;"/>
<line x1="38.000000" y1="142.000000" x2="42.000000" y2="142.000000"  style="stroke:black; stroke-linecap:round; stroke-width:0.25;"/>
<line x1="38.000000" y1="150.000000" x2="42.000000" y2="150.000000"  style="stroke:black; stroke-linecap:round; stroke-width:0.25;"/>
<line x1="38.000000" y1="158.000000" x2="42.000000" y2="158.000000"  style="stroke:black; stroke-linecap:round; stroke-width:0.25;"/>
<line x1="38.000000" y1="166.000000" x2="42.000000" y2="166.000000"  style="stroke:black; stroke-linecap:round; stroke-width:0.25;"/>
<line x1="38.000000" y1="174.000000" x2="42.000000" y2="174.000000"  style="stroke:black; stroke-linecap:round; stroke-width:0.25;"/>
<line x1="67.800000" y1="106.000000" x2="71.800000" y2="106.000000"  style="stroke:black; stroke-linecap:round; stroke-width:0.25;"/>
<line x1="71.800000" y1="106.000000" x2="71.800000" y2="106.000000"  style="stroke:black; stroke-linecap:round; stroke-width:0.25;"/>
<line x1="71.800000" y1="106.000000" x2="75.800000" y2="106.000000"  style="stroke:black; stroke-linecap:round; stroke-width:0.25;"/>
<line x1="101.600000" y1="106.000000" x2="105.600000" y2="106.000000"  style="stroke:black; stroke-linecap:round; stroke-width:0.25;"/>
<line x1="105.600000" y1="106.000000" x2="105.600000" y2="106.000000"  style="stroke:black; stroke-linecap:round; stroke-width:0.25;"/>
<line x1="105.600000" y1="106.000000" x2="109.600000" y2="106.000000"  style="stroke:black; stroke-linecap:round; stroke-width:0.25;"/>
<line x1="133.600000" y1="106.000000" x2="137.600000" y2="106.000000"  style="stroke:black; stroke-linecap:round; stroke-width:0.25;"/>
<line x1="137.600000" y1="106.000000" x2="204.600000" y2="90.000000"  style="stroke:black; stroke-linecap:round; stroke-width:0.25;"/>
<line x1="204.600000" y1="90.000000" x2="214.600000" y2="90.000000"  style="stroke:black; stroke-linecap:round; stroke-width:0.25;"/>
<line x1="214.600000" y1="90.000000" x2="231.500000" y2="90.000000"  style="stroke:black; stroke-linecap:round; stroke-width:0.25;"/>
<line x1="231.500000" y1="90.000000" x2="248.400000" y2="90.000000"  style="stroke:black; stroke-linecap:round; stroke-width:0.25;"/>
<line x1="244.400000" y1="110.000000" x2="248.400000" y2="110.000000"  style="stroke:black; stroke-linecap:round; stroke-width:0.25;"/>
<line x1="248.400000" y1="110.000000" x2="256.400000" y2="110.000000"  style="stroke:black; stroke-linecap:round; stroke-width:0.25;"/>
<line x1="248.400000" y1="90.000000" x2="256.400000" y2="90.000000"  style="stroke:black; stroke-linecap:round; stroke-width:0.25;"/>
<line x1="256.400000" y1="90.000000" x2="256.400000" y2="102.000000"  style="stroke:black; stroke-linecap:round; stroke-width:0.25;"/>
<line x1="256.400000" y1="102.000000" x2="256.400000" y2="102.000000"  style="stroke:black; stroke-linecap:round; stroke-width:0.25;"/>
<line x1="256.400000" y1="102.000000" x2="260.400000" y2="102.000000"  style="stroke:black; stroke-linecap:round; stroke-width:0.25;"/>
<line x1="256.400000" y1="110.000000" x2="260.400000" y2="110.000000"  style="stroke:black; stroke-linecap:round; stroke-width:0.25;"/>
<line x1="284.400000" y1="106.000000" x2="288.400000" y2="106.000000"  style="stroke:black; stroke-linecap:round; stroke-width:0.25;"/>
<line x1="288.400000" y1="106.000000" x2="322.400000" y2="74.000000"  style="stroke:black; stroke-linecap:round; stroke-width:0.25;"/>
<line x1="288.400000" y1="106.000000" x2="322.400000" y2="98.000000"  style="stroke:black; stroke-linecap:round; stroke-width:0.25;"/>
<line x1="288.400000" y1="106.000000" x2="322.400000" y2="106.000000"  style="stroke:black; stroke-linecap:round; stroke-width:0.25;"/>
<line x1="288.400000" y1="106.000000" x2="322.400000" y2="114.000000"  style="stroke:black; stroke-linecap:round; stroke-width:0.25;"/>
<line x1="288.400000" y1="106.000000" x2="322.400000" y2="122.000000"  style="stroke:black; stroke-linecap:round; stroke-width:0.25;"/>
<line x1="288.400000" y1="106.000000" x2="322.400000" y2="130.000000"  style="stroke:black; stroke-linecap:round; stroke-width:0.25;"/>
<line x1="288.400000" y1="106.000000" x2="322.400000" y2="138.000000"  style="stroke:black; stroke-linecap:round; stroke-width:0.25;"/>
<line x1="288.400000" y1="106.000000" x2="322.400000" y2="146.000000"  style="stroke:black; stroke-linecap:round; stroke-width:0.25;"/>
<line x1="322.400000" y1="74.000000" x2="326.400000" y2="74.000000"  style="stroke:black; stroke-linecap:round; stroke-width:0.25;"/>
<line x1="322.400000" y1="98.000000" x2="326.400000" y2="98.000000"  style="stroke:black; stroke-linecap:round; stroke-width:0.25;"/>
<line x1="322.400000" y1="106.000000" x2="326.400000" y2="106.000000"  style="stroke:black; stroke-linecap:round; stroke-width:0.25;"/>
<line x1="322.400000" y1="114.000000" x2="326.400000" y2="114.000000"  style="stroke:black; stroke-linecap:round; stroke-width:0.25;"/>
<line x1="322.400000" y1="122.000000" x2="326.400000" y2="122.000000"  style="stroke:black; stroke-linecap:round; stroke-width:0.25;"/>
<line x1="322.400000" y1="130.000000" x2="326.400000" y2="130.000000"  style="stroke:black; stroke-linecap:round; stroke-width:0.25;"/>
<line x1="322.400000" y1="138.000000" x2="326.400000" y2="138.000000"  style="stroke:black; stroke-linecap:round; stroke-width:0.25;"/>
<line x1="322.400000" y1="146.000000" x2="326.400000" y2="146.000000"  style="stroke:black; stroke-linecap:round; stroke-width:0.25;"/>
<line x1="352.200000" y1="74.000000" x2="356.200000" y2="74.000000"  style="stroke:black; stroke-linecap:round; stroke-width:0.25;"/>
<line x1="352.200000" y1="98.000000" x2="356.200000" y2="98.000000"  style="stroke:black; stroke-linecap:round; stroke-width:0.25;"/>
<line x1="352.200000" y1="106.000000" x2="356.200000" y2="106.000000"  style="stroke:black; stroke-linecap:round; stroke-width:0.25;"/>
<line x1="352.200000" y1="114.000000" x2="356.200000" y2="114.000000"  style="stroke:black; stroke-linecap:round; stroke-width:0.25;"/>
<line x1="352.200000" y1="122.000000" x2="356.200000" y2="122.000000"  style="stroke:black; stroke-linecap:round; stroke-width:0.25;"/>
<line x1="352.200000" y1="130.000000" x2="356.200000" y2="130.000000"  style="stroke:black; stroke-linecap:round; stroke-width:0.25;"/>
<line x1="352.200000" y1="138.000000" x2="356.200000" y2="138.000000"  style="stroke:black; stroke-linecap:round; stroke-width:0.25;"/>
<line x1="352.200000" y1="146.000000" x2="356.200000" y2="146.000000"  style="stroke:black; stroke-linecap:round; stroke-width:0.25;"/>
<line x1="356.200000" y1="74.000000" x2="366.200000" y2="74.000000"  style="stroke:black; stroke-linecap:round; stroke-width:0.25;"/>
<line x1="356.200000" y1="98.000000" x2="366.200000" y2="98.000000"  style="stroke:black; stroke-linecap:round; stroke-width:0.25;"/>
<line x1="356.200000" y1="106.000000" x2="366.200000" y2="106.000000"  style="stroke:black; stroke-linecap:round; stroke-width:0.25;"/>
<line x1="356.200000" y1="114.000000" x2="366.200000" y2="114.000000"  style="stroke:black; stroke-linecap:round; stroke-width:0.25;"/>
<line x1="356.200000" y1="122.000000" x2="366.200000" y2="122.000000"  style="stroke:black; stroke-linecap:round; stroke-width:0.25;"/>
<line x1="356.200000" y1="130.000000" x2="366.200000" y2="130.000000"  style="stroke:black; stroke-linecap:round; stroke-width:0.25;"/>
<line x1="356.200000" y1="138.000000" x2="366.200000" y2="138.000000"  style="stroke:black; stroke-linecap:round; stroke-width:0.25;"/>
<line x1="356.200000" y1="146.000000" x2="366.200000" y2="146.000000"  style="stroke:black; stroke-linecap:round; stroke-width:0.25;"/>
<line x1="366.200000" y1="74.000000" x2="376.200000" y2="74.000000"  style="stroke:black; stroke-linecap:round; stroke-width:0.25;"/>
<line x1="366.200000" y1="98.000000" x2="376.200000" y2="98.000000"  style="stroke:black; stroke-linecap:round; stroke-width:0.25;"/>
<line x1="366.200000" y1="106.000000" x2="376.200000" y2="106.000000"  style="stroke:black; stroke-linecap:round; stroke-width:0.25;"/>
<line x1="366.200000" y1="114.000000" x2="376.200000" y2="114.000000"  style="stroke:black; stroke-linecap:round; stroke-width:0.25;"/>
<line x1="366.200000" y1="122.000000" x2="376.200000" y2="122.000000"  style="stroke:black; stroke-linecap:round; stroke-width:0.25;"/>
<line x1="366.200000" y1="130.000000" x2="376.200000" y2="130.000000"  style="stroke:black; stroke-linecap:round; stroke-width:0.25;"/>
<line x1="366.200000" y1="138.000000" x2="376.200000" y2="138.000000"  style="stroke:black; stroke-linecap:round; stroke-width:0.25;"/>
<line x1="366.200000" y1="146.000000" x2="376.200000" y2="146.000000"  style="stroke:black; stroke-linecap:round; stroke-width:0.25;"/>
<line x1="376.200000" y1="74.000000" x2="432.200000" y2="74.000000"  style="stroke:black; stroke-linecap:round; stroke-width:0.25;"/>
<line x1="376.200000" y1="86.000000" x2="432.200000" y2="86.000000"  style="stroke:black; stroke-linecap:round; stroke-width:0.25;"/>
<line x1="376.200000" y1="98.000000" x2="376.200000" y2="86.000000"  style="stroke:black; stroke-linecap:round; stroke-width:0.25;"/>
<line x1="376.200000" y1="98.000000" x2="376.200000" y2="98.000000"  style="stroke:black; stroke-linecap:round; stroke-width:0.25;"/>
<line x1="376.200000" y1="106.000000" x2="384.200000" y2="106.000000"  style="stroke:black; stroke-linecap:round; stroke-width:0.25;"/>
<line x1="376.200000" y1="114.000000" x2="392.200000" y2="114.000000"  style="stroke:black; stroke-linecap:round; stroke-width:0.25;"/>
<line x1="376.200000" y1="122.000000" x2="400.200000" y2="122.000000"  style="stroke:black; stroke-linecap:round; stroke-width:0.25;"/>
<line x1="376.200000" y1="130.000000" x2="408.200000" y2="130.000000"  style="stroke:black; stroke-linecap:round; stroke-width:0.25;"/>
<line x1="376.200000" y1="138.000000" x2="416.200000" y2="138.000000"  style="stroke:black; stroke-linecap:round; stroke-width:0.25;"/>
<line x1="376.200000" y1="146.000000" x2="424.200000" y2="146.000000"  style="stroke:black; stroke-linecap:round; stroke-width:0.25;"/>
<line x1="384.200000" y1="94.000000" x2="432.200000" y2="94.000000"  style="stroke:black; stroke-linecap:round; stroke-width:0.25;"/>
<line x1="384.200000" y1="106.000000" x2="384.200000" y2="94.000000"  style="stroke:black; stroke-linecap:round; stroke-width:0.25;"/>
<line x1="392.200000" y1="102.000000" x2="432.200000" y2="102.000000"  style="stroke:black; stroke-linecap:round; stroke-width:0.25;"/>
<line x1="392.200000" y1="114.000000" x2="392.200000" y2="102.000000"  style="stroke:black; stroke-linecap:round; stroke-width:0.25;"/>
<line x1="400.200000" y1="110.000000" x2="432.200000" y2="110.000000"  style="stroke:black; stroke-linecap:round; stroke-width:0.25;"/>
<line x1="400.200000" y1="122.000000" x2="400.200000" y2="110.000000"  style="stroke:black; stroke-linecap:round; stroke-width:0.25;"/>
<line x1="408.200000" y1="118.000000" x2="432.200000" y2="118.000000"  style="stroke:black; stroke-linecap:round; stroke-width:0.25;"/>
<line x1="408.200000" y1="130.000000" x2="408.200000" y2="118.000000"  style="stroke:black; stroke-linecap:round; stroke-width:0.25;"/>
<line x1="416.200000" y1="126.000000" x2="432.200000" y2="126.000000"  style="stroke:black; stroke-linecap:round; stroke-width:0.25;"/>
<line x1="416.200000" y1="138.000000" x2="416.200000" y2="126.000000"  style="stroke:black; stroke-linecap:round; stroke-width:0.25;"/>
<line x1="424.200000" y1="134.000000" x2="432.200000" y2="134.000000"  style="stroke:black; stroke-linecap:round; stroke-width:0.25;"/>
<line x1="424.200000" y1="146.000000" x2="424.200000" y2="134.000000"  style="stroke:black; stroke-linecap:round; stroke-width:0.25;"/>
<line x1="432.200000" y1="74.000000" x2="432.200000" y2="78.000000"  style="stroke:black; stroke-linecap:round; stroke-width:0.25;"/>
<line x1="432.200000" y1="78.000000" x2="432.200000" y2="78.000000"  style="stroke:black; stroke-linecap:round; stroke-width:0.25;"/>
<line x1="432.200000" y1="78.000000" x2="436.200000" y2="78.000000"  style="stroke:black; stroke-linecap:round; stroke-width:0.25;"/>
<line x1="432.200000" y1="86.000000" x2="436.200000" y2="86.000000"  style="stroke:black; stroke-linecap:round; stroke-width:0.25;"/>
<line x1="432.200000" y1="94.000000" x2="436.200000" y2="94.000000"  style="stroke:black; stroke-linecap:round; stroke-width:0.25;"/>
<line x1="432.200000" y1="102.000000" x2="436.200000" y2="102.000000"  style="stroke:black; stroke-linecap:round; stroke-width:0.25;"/>
<line x1="432.200000" y1="110.000000" x2="436.200000" y2="110.000000"  style="stroke:black; stroke-linecap:round; stroke-width:0.25;"/>
<line x1="432.200000" y1="118.000000" x2="436.200000" y2="118.000000"  style="stroke:black; stroke-linecap:round; stroke-width:0.25;"/>
<line x1="432.200000" y1="126.000000" x2="436.200000" y2="126.000000"  style="stroke:black; stroke-linecap:round; stroke-width:0.25;"/>
<line x1="432.200000" y1="134.000000" x2="436.200000" y2="134.000000"  style="stroke:black; stroke-linecap:round; stroke-width:0.25;"/>
<line x1="436.200000" y1="78.000000" x2="440.200000" y2="78.000000"  style="stroke:black; stroke-linecap:round; stroke-width:0.25;"/>
<line x1="436.200000" y1="86.000000" x2="440.200000" y2="86.000000"  style="stroke:black; stroke-linecap:round; stroke-width:0.25;"/>
<line x1="436.200000" y1="94.000000" x2="440.200000" y2="94.000000"  style="stroke:black; stroke-linecap:round; stroke-width:0.25;"/>
<line x1="436.200000" y1="102.000000" x2="440.200000" y2="102.000000"  style="stroke:black; stroke-linecap:round; stroke-width:0.25;"/>
<line x1="436.200000" y1="110.000000" x2="440.200000" y2="110.000000"  style="stroke:black; stroke-linecap:round; stroke-width:0.25;"/>
<line x1="436.200000" y1="118.000000" x2="440.200000" y2="118.000000"  style="stroke:black; stroke-linecap:round; stroke-width:0.25;"/>
<line x1="436.200000" y1="126.000000" x2="440.200000" y2="126.000000"  style="stroke:black; stroke-linecap:round; stroke-width:0.25;"/>
<line x1="436.200000" y1="134.000000" x2="440.200000" y2="134.000000"  style="stroke:black; stroke-linecap:round; stroke-width:0.25;"/>
<line x1="440.200000" y1="78.000000" x2="450.200000" y2="78.000000"  style="stroke:black; stroke-linecap:round; stroke-width:0.25;"/>
<line x1="440.200000" y1="86.000000" x2="450.200000" y2="86.000000"  style="stroke:black; stroke-linecap:round; stroke-width:0.25;"/>
<line x1="440.200000" y1="94.000000" x2="450.200000" y2="94.000000"  style="stroke:black; stroke-linecap:round; stroke-width:0.25;"/>
<line x1="440.200000" y1="102.000000" x2="450.200000" y2="102.000000"  style="stroke:black; stroke-linecap:round; stroke-width:0.25;"/>
<line x1="440.200000" y1="110.000000" x2="450.200000" y2="110.000000"  style="stroke:black; stroke-linecap:round; stroke-width:0.25;"/>
<line x1="440.200000" y1="118.000000" x2="450.200000" y2="118.000000"  style="stroke:black; stroke-linecap:round; stroke-width:0.25;"/>
<line x1="440.200000" y1="126.000000" x2="450.200000" y2="126.000000"  style="stroke:black; stroke-linecap:round; stroke-width:0.25;"/>
<line x1="440.200000" y1="134.000000" x2="450.200000" y2="134.000000"  style="stroke:black; stroke-linecap:round; stroke-width:0.25;"/>
</svg>
