<?xml version="1.0"?>
<svg xmlns="http://www.w3.org/2000/svg" xmlns:xlink="http://www.w3.org/1999/xlink" viewBox="0 0 553.100000 272.000000" width="276.550000mm" height="136.000000mm" version="1.1">
<a xlink:href="fdelay-0x7f863d84ef10.svg">
<rect x="1.000000" y="1.000000" width="552.100000" height="271.000000" rx="0" ry="0" style="stroke:none;fill:#cccccc;"/>
<rect x="0.000000" y="0.000000" width="552.100000" height="271.000000" rx="0" ry="0" style="stroke:none;fill:#ffffff;"/>
</a>
<text x="10.000000" y="7.000000" font-family="Arial" font-size="7"></text>
<rect x="241.550000" y="25.000000" width="24.000000" height="24.000000" rx="0" ry="0" style="stroke:none;fill:#cccccc;"/>
<rect x="240.550000" y="24.000000" width="24.000000" height="24.000000" rx="0" ry="0" style="stroke:none;fill:#47945E;"/>
<text x="252.550000" y="38.000000" font-family="Arial" font-size="7" text-anchor="middle" fill="#FFFFFF">sig</text>
<circle cx="242.550000" cy="26.000000" r="1"/>
<rect x="210.650000" y="57.000000" width="25.800000" height="24.000000" rx="0" ry="0" style="stroke:none;fill:#cccccc;"/>
<rect x="209.650000" y="56.000000" width="25.800000" height="24.000000" rx="0" ry="0" style="stroke:none;fill:#f44800;"/>
<text x="222.550000" y="70.000000" font-family="Arial" font-size="7" text-anchor="middle" fill="#FFFFFF">65537</text>
<circle cx="211.650000" cy="58.000000" r="1"/>
<rect x="191.550000" y="99.000000" width="24.000000" height="24.000000" rx="0" ry="0" style="stroke:none;fill:#cccccc;"/>
<rect x="190.550000" y="98.000000" width="24.000000" height="24.000000" rx="0" ry="0" style="stroke:none;fill:#f44800;"/>
<text x="202.550000" y="112.000000" font-family="Arial" font-size="7" text-anchor="middle" fill="#FFFFFF">0</text>
<circle cx="192.550000" cy="100.000000" r="1"/>
<line x1="181.550000" y1="89.000000" x2="181.550000" y2="131.000000"  style="stroke: black; stroke-linecap:round; stroke-width:0.25; stroke-dasharray:3,3;"/>
<line x1="181.550000" y1="131.000000" x2="223.550000" y2="131.000000"  style="stroke: black; stroke-linecap:round; stroke-width:0.25; stroke-dasharray:3,3;"/>
<line x1="223.550000" y1="131.000000" x2="223.550000" y2="89.000000"  style="stroke: black; stroke-linecap:round; stroke-width:0.25; stroke-dasharray:3,3;"/>
<line x1="181.550000" y1="89.000000" x2="186.550000" y2="89.000000"  style="stroke: black; stroke-linecap:round; stroke-width:0.25; stroke-dasharray:3,3;"/>
<line x1="212.350000" y1="89.000000" x2="223.550000" y2="89.000000"  style="stroke: black; stroke-linecap:round; stroke-width:0.25; stroke-dasharray:3,3;"/>
<text x="186.550000" y="91.000000" font-family="Arial" font-size="7">parity</text>
<a xlink:href="d-0x7f863d8160d0.svg">
<rect x="135.550000" y="141.000000" width="24.000000" height="24.000000" rx="0" ry="0" style="stroke:none;fill:#cccccc;"/>
<rect x="134.550000" y="140.000000" width="24.000000" height="24.000000" rx="0" ry="0" style="stroke:none;fill:#003366;"/>
</a>
<a xlink:href="d-0x7f863d8160d0.svg">
<text x="146.550000" y="154.000000" font-family="Arial" font-size="7" text-anchor="middle" fill="#FFFFFF">d</text>
</a>
<circle cx="136.550000" cy="142.000000" r="1"/>
<rect x="25.000000" y="173.000000" width="245.100000" height="24.000000" rx="0" ry="0" style="stroke:none;fill:#cccccc;"/>
<rect x="24.000000" y="172.000000" width="245.100000" height="24.000000" rx="0" ry="0" style="stroke:none;fill:#477881;"/>
<text x="146.550000" y="186.000000" font-family="Arial" font-size="7" text-anchor="middle" fill="#FFFFFF">hslider(window (samples), 1000.0f, 50.0f, 10000.0f, 1.0f)</text>
<circle cx="26.000000" cy="174.000000" r="1"/>
<rect x="286.100000" y="157.000000" width="24.000000" height="24.000000" rx="0" ry="0" style="stroke:none;fill:#cccccc;"/>
<rect x="285.100000" y="156.000000" width="24.000000" height="24.000000" rx="0" ry="0" style="stroke:none;fill:#4B71A1;"/>
<text x="297.100000" y="170.000000" font-family="Arial" font-size="7" text-anchor="middle" fill="#FFFFFF">+</text>
<circle cx="287.100000" cy="158.000000" r="1"/>
<line x1="282.100000" y1="163.000000" x2="285.100000" y2="164.000000"  transform="rotate(0.000000,285.100000,164.000000)" style="stroke: black; stroke-width:0.25;"/>
<line x1="282.100000" y1="165.000000" x2="285.100000" y2="164.000000"  transform="rotate(0.000000,285.100000,164.000000)" style="stroke: black; stroke-width:0.25;"/>
<line x1="282.100000" y1="171.000000" x2="285.100000" y2="172.000000"  transform="rotate(0.000000,285.100000,172.000000)" style="stroke: black; stroke-width:0.25;"/>
<line x1="282.100000" y1="173.000000" x2="285.100000" y2="172.000000"  transform="rotate(0.000000,285.100000,172.000000)" style="stroke: black; stroke-width:0.25;"/>
<rect x="318.100000" y="157.000000" width="24.000000" height="24.000000" rx="0" ry="0" style="stroke:none;fill:#cccccc;"/>
<rect x="317.100000" y="156.000000" width="24.000000" height="24.000000" rx="0" ry="0" style="stroke:none;fill:#4B71A1;"/>
<text x="329.100000" y="170.000000" font-family="Arial" font-size="7" text-anchor="middle" fill="#FFFFFF">int</text>
<circle cx="319.100000" cy="158.000000" r="1"/>
<line x1="314.100000" y1="167.000000" x2="317.100000" y2="168.000000"  transform="rotate(0.000000,317.100000,168.000000)" style="stroke: black; stroke-width:0.25;"/>
<line x1="314.100000" y1="169.000000" x2="317.100000" y2="168.000000"  transform="rotate(0.000000,317.100000,168.000000)" style="stroke: black; stroke-width:0.25;"/>
<rect x="171.550000" y="215.000000" width="24.000000" height="24.000000" rx="0" ry="0" style="stroke:none;fill:#cccccc;"/>
<rect x="170.550000" y="214.000000" width="24.000000" height="24.000000" rx="0" ry="0" style="stroke:none;fill:#f44800;"/>
<text x="182.550000" y="228.000000" font-family="Arial" font-size="7" text-anchor="middle" fill="#FFFFFF">1</text>
<circle cx="172.550000" cy="216.000000" r="1"/>
<line x1="161.550000" y1="205.000000" x2="161.550000" y2="247.000000"  style="stroke: black; stroke-linecap:round; stroke-width:0.25; stroke-dasharray:3,3;"/>
<line x1="161.550000" y1="247.000000" x2="203.550000" y2="247.000000"  style="stroke: black; stroke-linecap:round; stroke-width:0.25; stroke-dasharray:3,3;"/>
<line x1="203.550000" y1="247.000000" x2="203.550000" y2="205.000000"  style="stroke: black; stroke-linecap:round; stroke-width:0.25; stroke-dasharray:3,3;"/>
<line x1="161.550000" y1="205.000000" x2="166.550000" y2="205.000000"  style="stroke: black; stroke-linecap:round; stroke-width:0.25; stroke-dasharray:3,3;"/>
<line x1="176.225000" y1="205.000000" x2="203.550000" y2="205.000000"  style="stroke: black; stroke-linecap:round; stroke-width:0.25; stroke-dasharray:3,3;"/>
<text x="166.550000" y="207.000000" font-family="Arial" font-size="7">S</text>
<rect x="358.100000" y="183.000000" width="24.000000" height="24.000000" rx="0" ry="0" style="stroke:none;fill:#cccccc;"/>
<rect x="357.100000" y="182.000000" width="24.000000" height="24.000000" rx="0" ry="0" style="stroke:none;fill:#4B71A1;"/>
<text x="369.100000" y="196.000000" font-family="Arial" font-size="7" text-anchor="middle" fill="#FFFFFF">+</text>
<circle cx="359.100000" cy="184.000000" r="1"/>
<line x1="354.100000" y1="189.000000" x2="357.100000" y2="190.000000"  transform="rotate(0.000000,357.100000,190.000000)" style="stroke: black; stroke-width:0.25;"/>
<line x1="354.100000" y1="191.000000" x2="357.100000" y2="190.000000"  transform="rotate(0.000000,357.100000,190.000000)" style="stroke: black; stroke-width:0.25;"/>
<line x1="354.100000" y1="197.000000" x2="357.100000" y2="198.000000"  transform="rotate(0.000000,357.100000,198.000000)" style="stroke: black; stroke-width:0.25;"/>
<line x1="354.100000" y1="199.000000" x2="357.100000" y2="198.000000"  transform="rotate(0.000000,357.100000,198.000000)" style="stroke: black; stroke-width:0.25;"/>
<rect x="398.100000" y="157.000000" width="24.000000" height="24.000000" rx="0" ry="0" style="stroke:none;fill:#cccccc;"/>
<rect x="397.100000" y="156.000000" width="24.000000" height="24.000000" rx="0" ry="0" style="stroke:none;fill:#4B71A1;"/>
<text x="409.100000" y="170.000000" font-family="Arial" font-size="7" text-anchor="middle" fill="#FFFFFF">max</text>
<circle cx="399.100000" cy="158.000000" r="1"/>
<line x1="394.100000" y1="163.000000" x2="397.100000" y2="164.000000"  transform="rotate(0.000000,397.100000,164.000000)" style="stroke: black; stroke-width:0.25;"/>
<line x1="394.100000" y1="165.000000" x2="397.100000" y2="164.000000"  transform="rotate(0.000000,397.100000,164.000000)" style="stroke: black; stroke-width:0.25;"/>
<line x1="394.100000" y1="171.000000" x2="397.100000" y2="172.000000"  transform="rotate(0.000000,397.100000,172.000000)" style="stroke: black; stroke-width:0.25;"/>
<line x1="394.100000" y1="173.000000" x2="397.100000" y2="172.000000"  transform="rotate(0.000000,397.100000,172.000000)" style="stroke: black; stroke-width:0.25;"/>
<rect x="448.100000" y="141.000000" width="24.000000" height="24.000000" rx="0" ry="0" style="stroke:none;fill:#cccccc;"/>
<rect x="447.100000" y="140.000000" width="24.000000" height="24.000000" rx="0" ry="0" style="stroke:none;fill:#4B71A1;"/>
<text x="459.100000" y="154.000000" font-family="Arial" font-size="7" text-anchor="middle" fill="#FFFFFF">min</text>
<circle cx="449.100000" cy="142.000000" r="1"/>
<line x1="444.100000" y1="147.000000" x2="447.100000" y2="148.000000"  transform="rotate(0.000000,447.100000,148.000000)" style="stroke: black; stroke-width:0.25;"/>
<line x1="444.100000" y1="149.000000" x2="447.100000" y2="148.000000"  transform="rotate(0.000000,447.100000,148.000000)" style="stroke: black; stroke-width:0.25;"/>
<line x1="444.100000" y1="155.000000" x2="447.100000" y2="156.000000"  transform="rotate(0.000000,447.100000,156.000000)" style="stroke: black; stroke-width:0.25;"/>
<line x1="444.100000" y1="157.000000" x2="447.100000" y2="156.000000"  transform="rotate(0.000000,447.100000,156.000000)" style="stroke: black; stroke-width:0.25;"/>
<line x1="438.100000" y1="131.000000" x2="438.100000" y2="173.000000"  style="stroke: black; stroke-linecap:round; stroke-width:0.25; stroke-dasharray:3,3;"/>
<line x1="438.100000" y1="173.000000" x2="480.100000" y2="173.000000"  style="stroke: black; stroke-linecap:round; stroke-width:0.25; stroke-dasharray:3,3;"/>
<line x1="480.100000" y1="173.000000" x2="480.100000" y2="131.000000"  style="stroke: black; stroke-linecap:round; stroke-width:0.25; stroke-dasharray:3,3;"/>
<line x1="438.100000" y1="131.000000" x2="443.100000" y2="131.000000"  style="stroke: black; stroke-linecap:round; stroke-width:0.25; stroke-dasharray:3,3;"/>
<line x1="462.450000" y1="131.000000" x2="480.100000" y2="131.000000"  style="stroke: black; stroke-linecap:round; stroke-width:0.25; stroke-dasharray:3,3;"/>
<text x="443.100000" y="133.000000" font-family="Arial" font-size="7">fmin</text>
<rect x="498.100000" y="125.000000" width="24.000000" height="24.000000" rx="0" ry="0" style="stroke:none;fill:#cccccc;"/>
<rect x="497.100000" y="124.000000" width="24.000000" height="24.000000" rx="0" ry="0" style="stroke:none;fill:#4B71A1;"/>
<text x="509.100000" y="138.000000" font-family="Arial" font-size="7" text-anchor="middle" fill="#FFFFFF">@</text>
<circle cx="499.100000" cy="126.000000" r="1"/>
<line x1="494.100000" y1="131.000000" x2="497.100000" y2="132.000000"  transform="rotate(0.000000,497.100000,132.000000)" style="stroke: black; stroke-width:0.25;"/>
<line x1="494.100000" y1="133.000000" x2="497.100000" y2="132.000000"  transform="rotate(0.000000,497.100000,132.000000)" style="stroke: black; stroke-width:0.25;"/>
<line x1="494.100000" y1="139.000000" x2="497.100000" y2="140.000000"  transform="rotate(0.000000,497.100000,140.000000)" style="stroke: black; stroke-width:0.25;"/>
<line x1="494.100000" y1="141.000000" x2="497.100000" y2="140.000000"  transform="rotate(0.000000,497.100000,140.000000)" style="stroke: black; stroke-width:0.25;"/>
<line x1="15.000000" y1="15.000000" x2="15.000000" y2="257.000000"  style="stroke: black; stroke-linecap:round; stroke-width:0.25; stroke-dasharray:3,3;"/>
<line x1="15.000000" y1="257.000000" x2="538.100000" y2="257.000000"  style="stroke: black; stroke-linecap:round; stroke-width:0.25; stroke-dasharray:3,3;"/>
<line x1="538.100000" y1="257.000000" x2="538.100000" y2="15.000000"  style="stroke: black; stroke-linecap:round; stroke-width:0.25; stroke-dasharray:3,3;"/>
<line x1="15.000000" y1="15.000000" x2="20.000000" y2="15.000000"  style="stroke: black; stroke-linecap:round; stroke-width:0.25; stroke-dasharray:3,3;"/>
<line x1="139.325000" y1="15.000000" x2="538.100000" y2="15.000000"  style="stroke: black; stroke-linecap:round; stroke-width:0.25; stroke-dasharray:3,3;"/>
<text x="20.000000" y="17.000000" font-family="Arial" font-size="7">delay(65537)(...: int),1 : +)(x124)</text>
<line x1="540.100000" y1="135.000000" x2="543.100000" y2="136.000000"  transform="rotate(0.000000,543.100000,136.000000)" style="stroke: black; stroke-width:0.25;"/>
<line x1="540.100000" y1="137.000000" x2="543.100000" y2="136.000000"  transform="rotate(0.000000,543.100000,136.000000)" style="stroke: black; stroke-width:0.25;"/>
<line x1="158.550000" y1="152.000000" x2="162.550000" y2="152.000000"  style="stroke:black; stroke-linecap:round; stroke-width:0.25;"/>
<line x1="162.550000" y1="152.000000" x2="273.100000" y2="152.000000"  style="stroke:black; stroke-linecap:round; stroke-width:0.25;"/>
<line x1="194.550000" y1="226.000000" x2="198.550000" y2="226.000000"  style="stroke:black; stroke-linecap:round; stroke-width:0.25;"/>
<line x1="198.550000" y1="226.000000" x2="208.550000" y2="226.000000"  style="stroke:black; stroke-linecap:round; stroke-width:0.25;"/>
<line x1="208.550000" y1="226.000000" x2="345.100000" y2="226.000000"  style="stroke:black; stroke-linecap:round; stroke-width:0.25;"/>
<line x1="214.550000" y1="110.000000" x2="218.550000" y2="110.000000"  style="stroke:black; stroke-linecap:round; stroke-width:0.25;"/>
<line x1="218.550000" y1="110.000000" x2="228.550000" y2="110.000000"  style="stroke:black; stroke-linecap:round; stroke-width:0.25;"/>
<line x1="228.550000" y1="110.000000" x2="385.100000" y2="110.000000"  style="stroke:black; stroke-linecap:round; stroke-width:0.25;"/>
<line x1="235.450000" y1="68.000000" x2="239.450000" y2="68.000000"  style="stroke:black; stroke-linecap:round; stroke-width:0.25;"/>
<line x1="239.450000" y1="68.000000" x2="425.100000" y2="68.000000"  style="stroke:black; stroke-linecap:round; stroke-width:0.25;"/>
<line x1="264.550000" y1="36.000000" x2="268.550000" y2="36.000000"  style="stroke:black; stroke-linecap:round; stroke-width:0.25;"/>
<line x1="268.550000" y1="36.000000" x2="485.100000" y2="36.000000"  style="stroke:black; stroke-linecap:round; stroke-width:0.25;"/>
<line x1="269.100000" y1="184.000000" x2="273.100000" y2="184.000000"  style="stroke:black; stroke-linecap:round; stroke-width:0.25;"/>
<line x1="273.100000" y1="152.000000" x2="281.100000" y2="152.000000"  style="stroke:black; stroke-linecap:round; stroke-width:0.25;"/>
<line x1="273.100000" y1="172.000000" x2="281.100000" y2="172.000000"  style="stroke:black; stroke-linecap:round; stroke-width:0.25;"/>
<line x1="273.100000" y1="184.000000" x2="273.100000" y2="172.000000"  style="stroke:black; stroke-linecap:round; stroke-width:0.25;"/>
<line x1="273.100000" y1="184.000000" x2="273.100000" y2="184.000000"  style="stroke:black; stroke-linecap:round; stroke-width:0.25;"/>
<line x1="281.100000" y1="152.000000" x2="281.100000" y2="164.000000"  style="stroke:black; stroke-linecap:round; stroke-width:0.25;"/>
<line x1="281.100000" y1="164.000000" x2="281.100000" y2="164.000000"  style="stroke:black; stroke-linecap:round; stroke-width:0.25;"/>
<line x1="281.100000" y1="164.000000" x2="285.100000" y2="164.000000"  style="stroke:black; stroke-linecap:round; stroke-width:0.25;"/>
<line x1="281.100000" y1="172.000000" x2="285.100000" y2="172.000000"  style="stroke:black; stroke-linecap:round; stroke-width:0.25;"/>
<line x1="309.100000" y1="168.000000" x2="313.100000" y2="168.000000"  style="stroke:black; stroke-linecap:round; stroke-width:0.25;"/>
<line x1="313.100000" y1="168.000000" x2="313.100000" y2="168.000000"  style="stroke:black; stroke-linecap:round; stroke-width:0.25;"/>
<line x1="313.100000" y1="168.000000" x2="317.100000" y2="168.000000"  style="stroke:black; stroke-linecap:round; stroke-width:0.25;"/>
<line x1="341.100000" y1="168.000000" x2="345.100000" y2="168.000000"  style="stroke:black; stroke-linecap:round; stroke-width:0.25;"/>
<line x1="345.100000" y1="168.000000" x2="353.100000" y2="168.000000"  style="stroke:black; stroke-linecap:round; stroke-width:0.25;"/>
<line x1="345.100000" y1="198.000000" x2="353.100000" y2="198.000000"  style="stroke:black; stroke-linecap:round; stroke-width:0.25;"/>
<line x1="345.100000" y1="226.000000" x2="345.100000" y2="198.000000"  style="stroke:black; stroke-linecap:round; stroke-width:0.25;"/>
<line x1="345.100000" y1="226.000000" x2="345.100000" y2="226.000000"  style="stroke:black; stroke-linecap:round; stroke-width:0.25;"/>
<line x1="353.100000" y1="168.000000" x2="353.100000" y2="190.000000"  style="stroke:black; stroke-linecap:round; stroke-width:0.25;"/>
<line x1="353.100000" y1="190.000000" x2="353.100000" y2="190.000000"  style="stroke:black; stroke-linecap:round; stroke-width:0.25;"/>
<line x1="353.100000" y1="190.000000" x2="357.100000" y2="190.000000"  style="stroke:black; stroke-linecap:round; stroke-width:0.25;"/>
<line x1="353.100000" y1="198.000000" x2="357.100000" y2="198.000000"  style="stroke:black; stroke-linecap:round; stroke-width:0.25;"/>
<line x1="381.100000" y1="194.000000" x2="385.100000" y2="194.000000"  style="stroke:black; stroke-linecap:round; stroke-width:0.25;"/>
<line x1="385.100000" y1="110.000000" x2="393.100000" y2="110.000000"  style="stroke:black; stroke-linecap:round; stroke-width:0.25;"/>
<line x1="385.100000" y1="172.000000" x2="393.100000" y2="172.000000"  style="stroke:black; stroke-linecap:round; stroke-width:0.25;"/>
<line x1="385.100000" y1="194.000000" x2="385.100000" y2="172.000000"  style="stroke:black; stroke-linecap:round; stroke-width:0.25;"/>
<line x1="385.100000" y1="194.000000" x2="385.100000" y2="194.000000"  style="stroke:black; stroke-linecap:round; stroke-width:0.25;"/>
<line x1="393.100000" y1="110.000000" x2="393.100000" y2="164.000000"  style="stroke:black; stroke-linecap:round; stroke-width:0.25;"/>
<line x1="393.100000" y1="164.000000" x2="393.100000" y2="164.000000"  style="stroke:black; stroke-linecap:round; stroke-width:0.25;"/>
<line x1="393.100000" y1="164.000000" x2="397.100000" y2="164.000000"  style="stroke:black; stroke-linecap:round; stroke-width:0.25;"/>
<line x1="393.100000" y1="172.000000" x2="397.100000" y2="172.000000"  style="stroke:black; stroke-linecap:round; stroke-width:0.25;"/>
<line x1="421.100000" y1="168.000000" x2="425.100000" y2="168.000000"  style="stroke:black; stroke-linecap:round; stroke-width:0.25;"/>
<line x1="425.100000" y1="68.000000" x2="433.100000" y2="68.000000"  style="stroke:black; stroke-linecap:round; stroke-width:0.25;"/>
<line x1="425.100000" y1="156.000000" x2="433.100000" y2="156.000000"  style="stroke:black; stroke-linecap:round; stroke-width:0.25;"/>
<line x1="425.100000" y1="168.000000" x2="425.100000" y2="156.000000"  style="stroke:black; stroke-linecap:round; stroke-width:0.25;"/>
<line x1="425.100000" y1="168.000000" x2="425.100000" y2="168.000000"  style="stroke:black; stroke-linecap:round; stroke-width:0.25;"/>
<line x1="433.100000" y1="68.000000" x2="433.100000" y2="148.000000"  style="stroke:black; stroke-linecap:round; stroke-width:0.25;"/>
<line x1="433.100000" y1="148.000000" x2="433.100000" y2="148.000000"  style="stroke:black; stroke-linecap:round; stroke-width:0.25;"/>
<line x1="433.100000" y1="148.000000" x2="443.100000" y2="148.000000"  style="stroke:black; stroke-linecap:round; stroke-width:0.25;"/>
<line x1="433.100000" y1="156.000000" x2="443.100000" y2="156.000000"  style="stroke:black; stroke-linecap:round; stroke-width:0.25;"/>
<line x1="443.100000" y1="148.000000" x2="447.100000" y2="148.000000"  style="stroke:black; stroke-linecap:round; stroke-width:0.25;"/>
<line x1="443.100000" y1="156.000000" x2="447.100000" y2="156.000000"  style="stroke:black; stroke-linecap:round; stroke-width:0.25;"/>
<line x1="471.100000" y1="152.000000" x2="475.100000" y2="152.000000"  style="stroke:black; stroke-linecap:round; stroke-width:0.25;"/>
<line x1="475.100000" y1="152.000000" x2="485.100000" y2="152.000000"  style="stroke:black; stroke-linecap:round; stroke-width:0.25;"/>
<line x1="485.100000" y1="36.000000" x2="493.100000" y2="36.000000"  style="stroke:black; stroke-linecap:round; stroke-width:0.25;"/>
<line x1="485.100000" y1="140.000000" x2="493.100000" y2="140.000000"  style="stroke:black; stroke-linecap:round; stroke-width:0.25;"/>
<line x1="485.100000" y1="152.000000" x2="485.100000" y2="140.000000"  style="stroke:black; stroke-linecap:round; stroke-width:0.25;"/>
<line x1="485.100000" y1="152.000000" x2="485.100000" y2="152.000000"  style="stroke:black; stroke-linecap:round; stroke-width:0.25;"/>
<line x1="493.100000" y1="36.000000" x2="493.100000" y2="132.000000"  style="stroke:black; stroke-linecap:round; stroke-width:0.25;"/>
<line x1="493.100000" y1="132.000000" x2="493.100000" y2="132.000000"  style="stroke:black; stroke-linecap:round; stroke-width:0.25;"/>
<line x1="493.100000" y1="132.000000" x2="497.100000" y2="132.000000"  style="stroke:black; stroke-linecap:round; stroke-width:0.25;"/>
<line x1="493.100000" y1="140.000000" x2="497.100000" y2="140.000000"  style="stroke:black; stroke-linecap:round; stroke-width:0.25;"/>
<line x1="521.100000" y1="136.000000" x2="525.100000" y2="136.000000"  style="stroke:black; stroke-linecap:round; stroke-width:0.25;"/>
<line x1="525.100000" y1="136.000000" x2="525.100000" y2="136.000000"  style="stroke:black; stroke-linecap:round; stroke-width:0.25;"/>
<line x1="525.100000" y1="136.000000" x2="529.100000" y2="136.000000"  style="stroke:black; stroke-linecap:round; stroke-width:0.25;"/>
<line x1="529.100000" y1="136.000000" x2="533.100000" y2="136.000000"  style="stroke:black; stroke-linecap:round; stroke-width:0.25;"/>
<line x1="533.100000" y1="136.000000" x2="543.100000" y2="136.000000"  style="stroke:black; stroke-linecap:round; stroke-width:0.25;"/>
</svg>
