<?xml version="1.0"?>
<svg xmlns="http://www.w3.org/2000/svg" xmlns:xlink="http://www.w3.org/1999/xlink" viewBox="0 0 306.700000 188.000000" width="153.350000mm" height="94.000000mm" version="1.1">
<a xlink:href="delbank-0x7fd9fcfd8940.svg">
<rect x="1.000000" y="1.000000" width="305.700000" height="187.000000" rx="0" ry="0" style="stroke:none;fill:#cccccc;"/>
<rect x="0.000000" y="0.000000" width="305.700000" height="187.000000" rx="0" ry="0" style="stroke:none;fill:#ffffff;"/>
</a>
<text x="10.000000" y="7.000000" font-family="Arial" font-size="7"></text>
<rect x="33.000000" y="83.000000" width="24.000000" height="24.000000" rx="0" ry="0" style="stroke:none;fill:#cccccc;"/>
<rect x="32.000000" y="82.000000" width="24.000000" height="24.000000" rx="0" ry="0" style="stroke:none;fill:#47945E;"/>
<text x="44.000000" y="96.000000" font-family="Arial" font-size="7" text-anchor="middle" fill="#FFFFFF">x</text>
<circle cx="34.000000" cy="84.000000" r="1"/>
<line x1="29.000000" y1="93.000000" x2="32.000000" y2="94.000000"  transform="rotate(0.000000,32.000000,94.000000)" style="stroke: black; stroke-width:0.25;"/>
<line x1="29.000000" y1="95.000000" x2="32.000000" y2="94.000000"  transform="rotate(0.000000,32.000000,94.000000)" style="stroke: black; stroke-width:0.25;"/>
<rect x="138.350000" y="25.000000" width="24.000000" height="24.000000" rx="0" ry="0" style="stroke:none;fill:#cccccc;"/>
<rect x="137.350000" y="24.000000" width="24.000000" height="24.000000" rx="0" ry="0" style="stroke:none;fill:#47945E;"/>
<text x="149.350000" y="38.000000" font-family="Arial" font-size="7" text-anchor="middle" fill="#FFFFFF">x</text>
<circle cx="139.350000" cy="26.000000" r="1"/>
<rect x="85.000000" y="57.000000" width="24.000000" height="24.000000" rx="0" ry="0" style="stroke:none;fill:#cccccc;"/>
<rect x="84.000000" y="56.000000" width="24.000000" height="24.000000" rx="0" ry="0" style="stroke:none;fill:#f44800;"/>
<text x="96.000000" y="70.000000" font-family="Arial" font-size="7" text-anchor="middle" fill="#FFFFFF">9.1</text>
<circle cx="86.000000" cy="58.000000" r="1"/>
<a xlink:href="sec2samp-0x7fd9f570c8a0.svg">
<rect x="117.000000" y="57.000000" width="38.700000" height="24.000000" rx="0" ry="0" style="stroke:none;fill:#cccccc;"/>
<rect x="116.000000" y="56.000000" width="38.700000" height="24.000000" rx="0" ry="0" style="stroke:none;fill:#003366;"/>
</a>
<a xlink:href="sec2samp-0x7fd9f570c8a0.svg">
<text x="135.350000" y="70.000000" font-family="Arial" font-size="7" text-anchor="middle" fill="#FFFFFF">sec2samp</text>
</a>
<circle cx="118.000000" cy="58.000000" r="1"/>
<line x1="113.000000" y1="67.000000" x2="116.000000" y2="68.000000"  transform="rotate(0.000000,116.000000,68.000000)" style="stroke: black; stroke-width:0.25;"/>
<line x1="113.000000" y1="69.000000" x2="116.000000" y2="68.000000"  transform="rotate(0.000000,116.000000,68.000000)" style="stroke: black; stroke-width:0.25;"/>
<rect x="88.350000" y="99.000000" width="24.000000" height="24.000000" rx="0" ry="0" style="stroke:none;fill:#cccccc;"/>
<rect x="87.350000" y="98.000000" width="24.000000" height="24.000000" rx="0" ry="0" style="stroke:none;fill:#f44800;"/>
<text x="99.350000" y="112.000000" font-family="Arial" font-size="7" text-anchor="middle" fill="#FFFFFF">0</text>
<circle cx="89.350000" cy="100.000000" r="1"/>
<line x1="78.350000" y1="89.000000" x2="78.350000" y2="131.000000"  style="stroke: black; stroke-linecap:round; stroke-width:0.25; stroke-dasharray:3,3;"/>
<line x1="78.350000" y1="131.000000" x2="120.350000" y2="131.000000"  style="stroke: black; stroke-linecap:round; stroke-width:0.25; stroke-dasharray:3,3;"/>
<line x1="120.350000" y1="131.000000" x2="120.350000" y2="89.000000"  style="stroke: black; stroke-linecap:round; stroke-width:0.25; stroke-dasharray:3,3;"/>
<line x1="78.350000" y1="89.000000" x2="83.350000" y2="89.000000"  style="stroke: black; stroke-linecap:round; stroke-width:0.25; stroke-dasharray:3,3;"/>
<line x1="109.150000" y1="89.000000" x2="120.350000" y2="89.000000"  style="stroke: black; stroke-linecap:round; stroke-width:0.25; stroke-dasharray:3,3;"/>
<text x="83.350000" y="91.000000" font-family="Arial" font-size="7">parity</text>
<rect x="65.000000" y="141.000000" width="24.000000" height="24.000000" rx="0" ry="0" style="stroke:none;fill:#cccccc;"/>
<rect x="64.000000" y="140.000000" width="24.000000" height="24.000000" rx="0" ry="0" style="stroke:none;fill:#f44800;"/>
<text x="76.000000" y="154.000000" font-family="Arial" font-size="7" text-anchor="middle" fill="#FFFFFF">9.1</text>
<circle cx="66.000000" cy="142.000000" r="1"/>
<a xlink:href="sec2samp-0x7fd9f570c8a0.svg">
<rect x="97.000000" y="141.000000" width="38.700000" height="24.000000" rx="0" ry="0" style="stroke:none;fill:#cccccc;"/>
<rect x="96.000000" y="140.000000" width="38.700000" height="24.000000" rx="0" ry="0" style="stroke:none;fill:#003366;"/>
</a>
<a xlink:href="sec2samp-0x7fd9f570c8a0.svg">
<text x="115.350000" y="154.000000" font-family="Arial" font-size="7" text-anchor="middle" fill="#FFFFFF">sec2samp</text>
</a>
<circle cx="98.000000" cy="142.000000" r="1"/>
<line x1="93.000000" y1="151.000000" x2="96.000000" y2="152.000000"  transform="rotate(0.000000,96.000000,152.000000)" style="stroke: black; stroke-width:0.25;"/>
<line x1="93.000000" y1="153.000000" x2="96.000000" y2="152.000000"  transform="rotate(0.000000,96.000000,152.000000)" style="stroke: black; stroke-width:0.25;"/>
<rect x="151.700000" y="115.000000" width="24.000000" height="24.000000" rx="0" ry="0" style="stroke:none;fill:#cccccc;"/>
<rect x="150.700000" y="114.000000" width="24.000000" height="24.000000" rx="0" ry="0" style="stroke:none;fill:#4B71A1;"/>
<text x="162.700000" y="128.000000" font-family="Arial" font-size="7" text-anchor="middle" fill="#FFFFFF">max</text>
<circle cx="152.700000" cy="116.000000" r="1"/>
<line x1="147.700000" y1="121.000000" x2="150.700000" y2="122.000000"  transform="rotate(0.000000,150.700000,122.000000)" style="stroke: black; stroke-width:0.25;"/>
<line x1="147.700000" y1="123.000000" x2="150.700000" y2="122.000000"  transform="rotate(0.000000,150.700000,122.000000)" style="stroke: black; stroke-width:0.25;"/>
<line x1="147.700000" y1="129.000000" x2="150.700000" y2="130.000000"  transform="rotate(0.000000,150.700000,130.000000)" style="stroke: black; stroke-width:0.25;"/>
<line x1="147.700000" y1="131.000000" x2="150.700000" y2="130.000000"  transform="rotate(0.000000,150.700000,130.000000)" style="stroke: black; stroke-width:0.25;"/>
<rect x="201.700000" y="99.000000" width="24.000000" height="24.000000" rx="0" ry="0" style="stroke:none;fill:#cccccc;"/>
<rect x="200.700000" y="98.000000" width="24.000000" height="24.000000" rx="0" ry="0" style="stroke:none;fill:#4B71A1;"/>
<text x="212.700000" y="112.000000" font-family="Arial" font-size="7" text-anchor="middle" fill="#FFFFFF">min</text>
<circle cx="202.700000" cy="100.000000" r="1"/>
<line x1="197.700000" y1="105.000000" x2="200.700000" y2="106.000000"  transform="rotate(0.000000,200.700000,106.000000)" style="stroke: black; stroke-width:0.25;"/>
<line x1="197.700000" y1="107.000000" x2="200.700000" y2="106.000000"  transform="rotate(0.000000,200.700000,106.000000)" style="stroke: black; stroke-width:0.25;"/>
<line x1="197.700000" y1="113.000000" x2="200.700000" y2="114.000000"  transform="rotate(0.000000,200.700000,114.000000)" style="stroke: black; stroke-width:0.25;"/>
<line x1="197.700000" y1="115.000000" x2="200.700000" y2="114.000000"  transform="rotate(0.000000,200.700000,114.000000)" style="stroke: black; stroke-width:0.25;"/>
<line x1="191.700000" y1="89.000000" x2="191.700000" y2="131.000000"  style="stroke: black; stroke-linecap:round; stroke-width:0.25; stroke-dasharray:3,3;"/>
<line x1="191.700000" y1="131.000000" x2="233.700000" y2="131.000000"  style="stroke: black; stroke-linecap:round; stroke-width:0.25; stroke-dasharray:3,3;"/>
<line x1="233.700000" y1="131.000000" x2="233.700000" y2="89.000000"  style="stroke: black; stroke-linecap:round; stroke-width:0.25; stroke-dasharray:3,3;"/>
<line x1="191.700000" y1="89.000000" x2="196.700000" y2="89.000000"  style="stroke: black; stroke-linecap:round; stroke-width:0.25; stroke-dasharray:3,3;"/>
<line x1="216.050000" y1="89.000000" x2="233.700000" y2="89.000000"  style="stroke: black; stroke-linecap:round; stroke-width:0.25; stroke-dasharray:3,3;"/>
<text x="196.700000" y="91.000000" font-family="Arial" font-size="7">fmin</text>
<rect x="251.700000" y="83.000000" width="24.000000" height="24.000000" rx="0" ry="0" style="stroke:none;fill:#cccccc;"/>
<rect x="250.700000" y="82.000000" width="24.000000" height="24.000000" rx="0" ry="0" style="stroke:none;fill:#4B71A1;"/>
<text x="262.700000" y="96.000000" font-family="Arial" font-size="7" text-anchor="middle" fill="#FFFFFF">@</text>
<circle cx="252.700000" cy="84.000000" r="1"/>
<line x1="247.700000" y1="89.000000" x2="250.700000" y2="90.000000"  transform="rotate(0.000000,250.700000,90.000000)" style="stroke: black; stroke-width:0.25;"/>
<line x1="247.700000" y1="91.000000" x2="250.700000" y2="90.000000"  transform="rotate(0.000000,250.700000,90.000000)" style="stroke: black; stroke-width:0.25;"/>
<line x1="247.700000" y1="97.000000" x2="250.700000" y2="98.000000"  transform="rotate(0.000000,250.700000,98.000000)" style="stroke: black; stroke-width:0.25;"/>
<line x1="247.700000" y1="99.000000" x2="250.700000" y2="98.000000"  transform="rotate(0.000000,250.700000,98.000000)" style="stroke: black; stroke-width:0.25;"/>
<line x1="15.000000" y1="15.000000" x2="15.000000" y2="173.000000"  style="stroke: black; stroke-linecap:round; stroke-width:0.25; stroke-dasharray:3,3;"/>
<line x1="15.000000" y1="173.000000" x2="291.700000" y2="173.000000"  style="stroke: black; stroke-linecap:round; stroke-width:0.25; stroke-dasharray:3,3;"/>
<line x1="291.700000" y1="173.000000" x2="291.700000" y2="15.000000"  style="stroke: black; stroke-linecap:round; stroke-width:0.25; stroke-dasharray:3,3;"/>
<line x1="15.000000" y1="15.000000" x2="20.000000" y2="15.000000"  style="stroke: black; stroke-linecap:round; stroke-width:0.25; stroke-dasharray:3,3;"/>
<line x1="119.975000" y1="15.000000" x2="291.700000" y2="15.000000"  style="stroke: black; stroke-linecap:round; stroke-width:0.25; stroke-dasharray:3,3;"/>
<text x="20.000000" y="17.000000" font-family="Arial" font-size="7">delay(9.09999...) : min) : *)</text>
<line x1="293.700000" y1="93.000000" x2="296.700000" y2="94.000000"  transform="rotate(0.000000,296.700000,94.000000)" style="stroke: black; stroke-width:0.25;"/>
<line x1="293.700000" y1="95.000000" x2="296.700000" y2="94.000000"  transform="rotate(0.000000,296.700000,94.000000)" style="stroke: black; stroke-width:0.25;"/>
<line x1="10.000000" y1="94.000000" x2="20.000000" y2="94.000000"  style="stroke:black; stroke-linecap:round; stroke-width:0.25;"/>
<line x1="20.000000" y1="94.000000" x2="24.000000" y2="94.000000"  style="stroke:black; stroke-linecap:round; stroke-width:0.25;"/>
<line x1="24.000000" y1="94.000000" x2="28.000000" y2="94.000000"  style="stroke:black; stroke-linecap:round; stroke-width:0.25;"/>
<line x1="28.000000" y1="94.000000" x2="28.000000" y2="94.000000"  style="stroke:black; stroke-linecap:round; stroke-width:0.25;"/>
<line x1="28.000000" y1="94.000000" x2="32.000000" y2="94.000000"  style="stroke:black; stroke-linecap:round; stroke-width:0.25;"/>
<line x1="88.000000" y1="152.000000" x2="92.000000" y2="152.000000"  style="stroke:black; stroke-linecap:round; stroke-width:0.25;"/>
<line x1="92.000000" y1="152.000000" x2="92.000000" y2="152.000000"  style="stroke:black; stroke-linecap:round; stroke-width:0.25;"/>
<line x1="92.000000" y1="152.000000" x2="96.000000" y2="152.000000"  style="stroke:black; stroke-linecap:round; stroke-width:0.25;"/>
<line x1="108.000000" y1="68.000000" x2="112.000000" y2="68.000000"  style="stroke:black; stroke-linecap:round; stroke-width:0.25;"/>
<line x1="111.350000" y1="110.000000" x2="115.350000" y2="110.000000"  style="stroke:black; stroke-linecap:round; stroke-width:0.25;"/>
<line x1="112.000000" y1="68.000000" x2="112.000000" y2="68.000000"  style="stroke:black; stroke-linecap:round; stroke-width:0.25;"/>
<line x1="112.000000" y1="68.000000" x2="116.000000" y2="68.000000"  style="stroke:black; stroke-linecap:round; stroke-width:0.25;"/>
<line x1="115.350000" y1="110.000000" x2="125.350000" y2="110.000000"  style="stroke:black; stroke-linecap:round; stroke-width:0.25;"/>
<line x1="125.350000" y1="110.000000" x2="138.700000" y2="110.000000"  style="stroke:black; stroke-linecap:round; stroke-width:0.25;"/>
<line x1="134.700000" y1="152.000000" x2="138.700000" y2="152.000000"  style="stroke:black; stroke-linecap:round; stroke-width:0.25;"/>
<line x1="138.700000" y1="110.000000" x2="146.700000" y2="110.000000"  style="stroke:black; stroke-linecap:round; stroke-width:0.25;"/>
<line x1="138.700000" y1="130.000000" x2="146.700000" y2="130.000000"  style="stroke:black; stroke-linecap:round; stroke-width:0.25;"/>
<line x1="138.700000" y1="152.000000" x2="138.700000" y2="130.000000"  style="stroke:black; stroke-linecap:round; stroke-width:0.25;"/>
<line x1="138.700000" y1="152.000000" x2="138.700000" y2="152.000000"  style="stroke:black; stroke-linecap:round; stroke-width:0.25;"/>
<line x1="146.700000" y1="110.000000" x2="146.700000" y2="122.000000"  style="stroke:black; stroke-linecap:round; stroke-width:0.25;"/>
<line x1="146.700000" y1="122.000000" x2="146.700000" y2="122.000000"  style="stroke:black; stroke-linecap:round; stroke-width:0.25;"/>
<line x1="146.700000" y1="122.000000" x2="150.700000" y2="122.000000"  style="stroke:black; stroke-linecap:round; stroke-width:0.25;"/>
<line x1="146.700000" y1="130.000000" x2="150.700000" y2="130.000000"  style="stroke:black; stroke-linecap:round; stroke-width:0.25;"/>
<line x1="154.700000" y1="68.000000" x2="158.700000" y2="68.000000"  style="stroke:black; stroke-linecap:round; stroke-width:0.25;"/>
<line x1="158.700000" y1="68.000000" x2="178.700000" y2="68.000000"  style="stroke:black; stroke-linecap:round; stroke-width:0.25;"/>
<line x1="161.350000" y1="36.000000" x2="165.350000" y2="36.000000"  style="stroke:black; stroke-linecap:round; stroke-width:0.25;"/>
<line x1="165.350000" y1="36.000000" x2="238.700000" y2="36.000000"  style="stroke:black; stroke-linecap:round; stroke-width:0.25;"/>
<line x1="174.700000" y1="126.000000" x2="178.700000" y2="126.000000"  style="stroke:black; stroke-linecap:round; stroke-width:0.25;"/>
<line x1="178.700000" y1="68.000000" x2="186.700000" y2="68.000000"  style="stroke:black; stroke-linecap:round; stroke-width:0.25;"/>
<line x1="178.700000" y1="114.000000" x2="186.700000" y2="114.000000"  style="stroke:black; stroke-linecap:round; stroke-width:0.25;"/>
<line x1="178.700000" y1="126.000000" x2="178.700000" y2="114.000000"  style="stroke:black; stroke-linecap:round; stroke-width:0.25;"/>
<line x1="178.700000" y1="126.000000" x2="178.700000" y2="126.000000"  style="stroke:black; stroke-linecap:round; stroke-width:0.25;"/>
<line x1="186.700000" y1="68.000000" x2="186.700000" y2="106.000000"  style="stroke:black; stroke-linecap:round; stroke-width:0.25;"/>
<line x1="186.700000" y1="106.000000" x2="186.700000" y2="106.000000"  style="stroke:black; stroke-linecap:round; stroke-width:0.25;"/>
<line x1="186.700000" y1="106.000000" x2="196.700000" y2="106.000000"  style="stroke:black; stroke-linecap:round; stroke-width:0.25;"/>
<line x1="186.700000" y1="114.000000" x2="196.700000" y2="114.000000"  style="stroke:black; stroke-linecap:round; stroke-width:0.25;"/>
<line x1="196.700000" y1="106.000000" x2="200.700000" y2="106.000000"  style="stroke:black; stroke-linecap:round; stroke-width:0.25;"/>
<line x1="196.700000" y1="114.000000" x2="200.700000" y2="114.000000"  style="stroke:black; stroke-linecap:round; stroke-width:0.25;"/>
<line x1="224.700000" y1="110.000000" x2="228.700000" y2="110.000000"  style="stroke:black; stroke-linecap:round; stroke-width:0.25;"/>
<line x1="228.700000" y1="110.000000" x2="238.700000" y2="110.000000"  style="stroke:black; stroke-linecap:round; stroke-width:0.25;"/>
<line x1="238.700000" y1="36.000000" x2="246.700000" y2="36.000000"  style="stroke:black; stroke-linecap:round; stroke-width:0.25;"/>
<line x1="238.700000" y1="98.000000" x2="246.700000" y2="98.000000"  style="stroke:black; stroke-linecap:round; stroke-width:0.25;"/>
<line x1="238.700000" y1="110.000000" x2="238.700000" y2="98.000000"  style="stroke:black; stroke-linecap:round; stroke-width:0.25;"/>
<line x1="238.700000" y1="110.000000" x2="238.700000" y2="110.000000"  style="stroke:black; stroke-linecap:round; stroke-width:0.25;"/>
<line x1="246.700000" y1="36.000000" x2="246.700000" y2="90.000000"  style="stroke:black; stroke-linecap:round; stroke-width:0.25;"/>
<line x1="246.700000" y1="90.000000" x2="246.700000" y2="90.000000"  style="stroke:black; stroke-linecap:round; stroke-width:0.25;"/>
<line x1="246.700000" y1="90.000000" x2="250.700000" y2="90.000000"  style="stroke:black; stroke-linecap:round; stroke-width:0.25;"/>
<line x1="246.700000" y1="98.000000" x2="250.700000" y2="98.000000"  style="stroke:black; stroke-linecap:round; stroke-width:0.25;"/>
<line x1="274.700000" y1="94.000000" x2="278.700000" y2="94.000000"  style="stroke:black; stroke-linecap:round; stroke-width:0.25;"/>
<line x1="278.700000" y1="94.000000" x2="278.700000" y2="94.000000"  style="stroke:black; stroke-linecap:round; stroke-width:0.25;"/>
<line x1="278.700000" y1="94.000000" x2="282.700000" y2="94.000000"  style="stroke:black; stroke-linecap:round; stroke-width:0.25;"/>
<line x1="282.700000" y1="94.000000" x2="286.700000" y2="94.000000"  style="stroke:black; stroke-linecap:round; stroke-width:0.25;"/>
<line x1="286.700000" y1="94.000000" x2="296.700000" y2="94.000000"  style="stroke:black; stroke-linecap:round; stroke-width:0.25;"/>
</svg>
