<?xml version="1.0"?>
<svg xmlns="http://www.w3.org/2000/svg" xmlns:xlink="http://www.w3.org/1999/xlink" viewBox="0 0 513.100000 220.000000" width="256.550000mm" height="110.000000mm" version="1.1">
<a xlink:href="fdelay-0x7fac7c013b30.svg">
<rect x="1.000000" y="1.000000" width="512.100000" height="219.000000" rx="0" ry="0" style="stroke:none;fill:#cccccc;"/>
<rect x="0.000000" y="0.000000" width="512.100000" height="219.000000" rx="0" ry="0" style="stroke:none;fill:#ffffff;"/>
</a>
<text x="10.000000" y="7.000000" font-family="Arial" font-size="7"></text>
<rect x="221.550000" y="25.000000" width="24.000000" height="24.000000" rx="0" ry="0" style="stroke:none;fill:#cccccc;"/>
<rect x="220.550000" y="24.000000" width="24.000000" height="24.000000" rx="0" ry="0" style="stroke:none;fill:#47945E;"/>
<text x="232.550000" y="38.000000" font-family="Arial" font-size="7" text-anchor="middle" fill="#FFFFFF">sig</text>
<circle cx="222.550000" cy="26.000000" r="1"/>
<rect x="190.650000" y="57.000000" width="25.800000" height="24.000000" rx="0" ry="0" style="stroke:none;fill:#cccccc;"/>
<rect x="189.650000" y="56.000000" width="25.800000" height="24.000000" rx="0" ry="0" style="stroke:none;fill:#f44800;"/>
<text x="202.550000" y="70.000000" font-family="Arial" font-size="7" text-anchor="middle" fill="#FFFFFF">65537</text>
<circle cx="191.650000" cy="58.000000" r="1"/>
<rect x="171.550000" y="99.000000" width="24.000000" height="24.000000" rx="0" ry="0" style="stroke:none;fill:#cccccc;"/>
<rect x="170.550000" y="98.000000" width="24.000000" height="24.000000" rx="0" ry="0" style="stroke:none;fill:#f44800;"/>
<text x="182.550000" y="112.000000" font-family="Arial" font-size="7" text-anchor="middle" fill="#FFFFFF">0</text>
<circle cx="172.550000" cy="100.000000" r="1"/>
<line x1="161.550000" y1="89.000000" x2="161.550000" y2="131.000000"  style="stroke: black; stroke-linecap:round; stroke-width:0.25; stroke-dasharray:3,3;"/>
<line x1="161.550000" y1="131.000000" x2="203.550000" y2="131.000000"  style="stroke: black; stroke-linecap:round; stroke-width:0.25; stroke-dasharray:3,3;"/>
<line x1="203.550000" y1="131.000000" x2="203.550000" y2="89.000000"  style="stroke: black; stroke-linecap:round; stroke-width:0.25; stroke-dasharray:3,3;"/>
<line x1="161.550000" y1="89.000000" x2="166.550000" y2="89.000000"  style="stroke: black; stroke-linecap:round; stroke-width:0.25; stroke-dasharray:3,3;"/>
<line x1="192.350000" y1="89.000000" x2="203.550000" y2="89.000000"  style="stroke: black; stroke-linecap:round; stroke-width:0.25; stroke-dasharray:3,3;"/>
<text x="166.550000" y="91.000000" font-family="Arial" font-size="7">parity</text>
<a xlink:href="d-0x7fac7bfd6c70.svg">
<rect x="135.550000" y="141.000000" width="24.000000" height="24.000000" rx="0" ry="0" style="stroke:none;fill:#cccccc;"/>
<rect x="134.550000" y="140.000000" width="24.000000" height="24.000000" rx="0" ry="0" style="stroke:none;fill:#003366;"/>
</a>
<a xlink:href="d-0x7fac7bfd6c70.svg">
<text x="146.550000" y="154.000000" font-family="Arial" font-size="7" text-anchor="middle" fill="#FFFFFF">d</text>
</a>
<circle cx="136.550000" cy="142.000000" r="1"/>
<rect x="25.000000" y="173.000000" width="245.100000" height="24.000000" rx="0" ry="0" style="stroke:none;fill:#cccccc;"/>
<rect x="24.000000" y="172.000000" width="245.100000" height="24.000000" rx="0" ry="0" style="stroke:none;fill:#477881;"/>
<text x="146.550000" y="186.000000" font-family="Arial" font-size="7" text-anchor="middle" fill="#FFFFFF">hslider(window (samples), 1000.0f, 50.0f, 10000.0f, 1.0f)</text>
<circle cx="26.000000" cy="174.000000" r="1"/>
<rect x="286.100000" y="157.000000" width="24.000000" height="24.000000" rx="0" ry="0" style="stroke:none;fill:#cccccc;"/>
<rect x="285.100000" y="156.000000" width="24.000000" height="24.000000" rx="0" ry="0" style="stroke:none;fill:#4B71A1;"/>
<text x="297.100000" y="170.000000" font-family="Arial" font-size="7" text-anchor="middle" fill="#FFFFFF">+</text>
<circle cx="287.100000" cy="158.000000" r="1"/>
<line x1="282.100000" y1="163.000000" x2="285.100000" y2="164.000000"  transform="rotate(0.000000,285.100000,164.000000)" style="stroke: black; stroke-width:0.25;"/>
<line x1="282.100000" y1="165.000000" x2="285.100000" y2="164.000000"  transform="rotate(0.000000,285.100000,164.000000)" style="stroke: black; stroke-width:0.25;"/>
<line x1="282.100000" y1="171.000000" x2="285.100000" y2="172.000000"  transform="rotate(0.000000,285.100000,172.000000)" style="stroke: black; stroke-width:0.25;"/>
<line x1="282.100000" y1="173.000000" x2="285.100000" y2="172.000000"  transform="rotate(0.000000,285.100000,172.000000)" style="stroke: black; stroke-width:0.25;"/>
<rect x="318.100000" y="157.000000" width="24.000000" height="24.000000" rx="0" ry="0" style="stroke:none;fill:#cccccc;"/>
<rect x="317.100000" y="156.000000" width="24.000000" height="24.000000" rx="0" ry="0" style="stroke:none;fill:#4B71A1;"/>
<text x="329.100000" y="170.000000" font-family="Arial" font-size="7" text-anchor="middle" fill="#FFFFFF">int</text>
<circle cx="319.100000" cy="158.000000" r="1"/>
<line x1="314.100000" y1="167.000000" x2="317.100000" y2="168.000000"  transform="rotate(0.000000,317.100000,168.000000)" style="stroke: black; stroke-width:0.25;"/>
<line x1="314.100000" y1="169.000000" x2="317.100000" y2="168.000000"  transform="rotate(0.000000,317.100000,168.000000)" style="stroke: black; stroke-width:0.25;"/>
<rect x="358.100000" y="131.000000" width="24.000000" height="24.000000" rx="0" ry="0" style="stroke:none;fill:#cccccc;"/>
<rect x="357.100000" y="130.000000" width="24.000000" height="24.000000" rx="0" ry="0" style="stroke:none;fill:#4B71A1;"/>
<text x="369.100000" y="144.000000" font-family="Arial" font-size="7" text-anchor="middle" fill="#FFFFFF">max</text>
<circle cx="359.100000" cy="132.000000" r="1"/>
<line x1="354.100000" y1="137.000000" x2="357.100000" y2="138.000000"  transform="rotate(0.000000,357.100000,138.000000)" style="stroke: black; stroke-width:0.25;"/>
<line x1="354.100000" y1="139.000000" x2="357.100000" y2="138.000000"  transform="rotate(0.000000,357.100000,138.000000)" style="stroke: black; stroke-width:0.25;"/>
<line x1="354.100000" y1="145.000000" x2="357.100000" y2="146.000000"  transform="rotate(0.000000,357.100000,146.000000)" style="stroke: black; stroke-width:0.25;"/>
<line x1="354.100000" y1="147.000000" x2="357.100000" y2="146.000000"  transform="rotate(0.000000,357.100000,146.000000)" style="stroke: black; stroke-width:0.25;"/>
<rect x="408.100000" y="115.000000" width="24.000000" height="24.000000" rx="0" ry="0" style="stroke:none;fill:#cccccc;"/>
<rect x="407.100000" y="114.000000" width="24.000000" height="24.000000" rx="0" ry="0" style="stroke:none;fill:#4B71A1;"/>
<text x="419.100000" y="128.000000" font-family="Arial" font-size="7" text-anchor="middle" fill="#FFFFFF">min</text>
<circle cx="409.100000" cy="116.000000" r="1"/>
<line x1="404.100000" y1="121.000000" x2="407.100000" y2="122.000000"  transform="rotate(0.000000,407.100000,122.000000)" style="stroke: black; stroke-width:0.25;"/>
<line x1="404.100000" y1="123.000000" x2="407.100000" y2="122.000000"  transform="rotate(0.000000,407.100000,122.000000)" style="stroke: black; stroke-width:0.25;"/>
<line x1="404.100000" y1="129.000000" x2="407.100000" y2="130.000000"  transform="rotate(0.000000,407.100000,130.000000)" style="stroke: black; stroke-width:0.25;"/>
<line x1="404.100000" y1="131.000000" x2="407.100000" y2="130.000000"  transform="rotate(0.000000,407.100000,130.000000)" style="stroke: black; stroke-width:0.25;"/>
<line x1="398.100000" y1="105.000000" x2="398.100000" y2="147.000000"  style="stroke: black; stroke-linecap:round; stroke-width:0.25; stroke-dasharray:3,3;"/>
<line x1="398.100000" y1="147.000000" x2="440.100000" y2="147.000000"  style="stroke: black; stroke-linecap:round; stroke-width:0.25; stroke-dasharray:3,3;"/>
<line x1="440.100000" y1="147.000000" x2="440.100000" y2="105.000000"  style="stroke: black; stroke-linecap:round; stroke-width:0.25; stroke-dasharray:3,3;"/>
<line x1="398.100000" y1="105.000000" x2="403.100000" y2="105.000000"  style="stroke: black; stroke-linecap:round; stroke-width:0.25; stroke-dasharray:3,3;"/>
<line x1="422.450000" y1="105.000000" x2="440.100000" y2="105.000000"  style="stroke: black; stroke-linecap:round; stroke-width:0.25; stroke-dasharray:3,3;"/>
<text x="403.100000" y="107.000000" font-family="Arial" font-size="7">fmin</text>
<rect x="458.100000" y="99.000000" width="24.000000" height="24.000000" rx="0" ry="0" style="stroke:none;fill:#cccccc;"/>
<rect x="457.100000" y="98.000000" width="24.000000" height="24.000000" rx="0" ry="0" style="stroke:none;fill:#4B71A1;"/>
<text x="469.100000" y="112.000000" font-family="Arial" font-size="7" text-anchor="middle" fill="#FFFFFF">@</text>
<circle cx="459.100000" cy="100.000000" r="1"/>
<line x1="454.100000" y1="105.000000" x2="457.100000" y2="106.000000"  transform="rotate(0.000000,457.100000,106.000000)" style="stroke: black; stroke-width:0.25;"/>
<line x1="454.100000" y1="107.000000" x2="457.100000" y2="106.000000"  transform="rotate(0.000000,457.100000,106.000000)" style="stroke: black; stroke-width:0.25;"/>
<line x1="454.100000" y1="113.000000" x2="457.100000" y2="114.000000"  transform="rotate(0.000000,457.100000,114.000000)" style="stroke: black; stroke-width:0.25;"/>
<line x1="454.100000" y1="115.000000" x2="457.100000" y2="114.000000"  transform="rotate(0.000000,457.100000,114.000000)" style="stroke: black; stroke-width:0.25;"/>
<line x1="15.000000" y1="15.000000" x2="15.000000" y2="205.000000"  style="stroke: black; stroke-linecap:round; stroke-width:0.25; stroke-dasharray:3,3;"/>
<line x1="15.000000" y1="205.000000" x2="498.100000" y2="205.000000"  style="stroke: black; stroke-linecap:round; stroke-width:0.25; stroke-dasharray:3,3;"/>
<line x1="498.100000" y1="205.000000" x2="498.100000" y2="15.000000"  style="stroke: black; stroke-linecap:round; stroke-width:0.25; stroke-dasharray:3,3;"/>
<line x1="15.000000" y1="15.000000" x2="20.000000" y2="15.000000"  style="stroke: black; stroke-linecap:round; stroke-width:0.25; stroke-dasharray:3,3;"/>
<line x1="139.325000" y1="15.000000" x2="498.100000" y2="15.000000"  style="stroke: black; stroke-linecap:round; stroke-width:0.25; stroke-dasharray:3,3;"/>
<text x="20.000000" y="17.000000" font-family="Arial" font-size="7">delay(65537)(...f) : + : int)(x124)</text>
<line x1="500.100000" y1="109.000000" x2="503.100000" y2="110.000000"  transform="rotate(0.000000,503.100000,110.000000)" style="stroke: black; stroke-width:0.25;"/>
<line x1="500.100000" y1="111.000000" x2="503.100000" y2="110.000000"  transform="rotate(0.000000,503.100000,110.000000)" style="stroke: black; stroke-width:0.25;"/>
<line x1="158.550000" y1="152.000000" x2="162.550000" y2="152.000000"  style="stroke:black; stroke-linecap:round; stroke-width:0.25;"/>
<line x1="162.550000" y1="152.000000" x2="273.100000" y2="152.000000"  style="stroke:black; stroke-linecap:round; stroke-width:0.25;"/>
<line x1="194.550000" y1="110.000000" x2="198.550000" y2="110.000000"  style="stroke:black; stroke-linecap:round; stroke-width:0.25;"/>
<line x1="198.550000" y1="110.000000" x2="208.550000" y2="110.000000"  style="stroke:black; stroke-linecap:round; stroke-width:0.25;"/>
<line x1="208.550000" y1="110.000000" x2="345.100000" y2="110.000000"  style="stroke:black; stroke-linecap:round; stroke-width:0.25;"/>
<line x1="215.450000" y1="68.000000" x2="219.450000" y2="68.000000"  style="stroke:black; stroke-linecap:round; stroke-width:0.25;"/>
<line x1="219.450000" y1="68.000000" x2="385.100000" y2="68.000000"  style="stroke:black; stroke-linecap:round; stroke-width:0.25;"/>
<line x1="244.550000" y1="36.000000" x2="248.550000" y2="36.000000"  style="stroke:black; stroke-linecap:round; stroke-width:0.25;"/>
<line x1="248.550000" y1="36.000000" x2="445.100000" y2="36.000000"  style="stroke:black; stroke-linecap:round; stroke-width:0.25;"/>
<line x1="269.100000" y1="184.000000" x2="273.100000" y2="184.000000"  style="stroke:black; stroke-linecap:round; stroke-width:0.25;"/>
<line x1="273.100000" y1="152.000000" x2="281.100000" y2="152.000000"  style="stroke:black; stroke-linecap:round; stroke-width:0.25;"/>
<line x1="273.100000" y1="172.000000" x2="281.100000" y2="172.000000"  style="stroke:black; stroke-linecap:round; stroke-width:0.25;"/>
<line x1="273.100000" y1="184.000000" x2="273.100000" y2="172.000000"  style="stroke:black; stroke-linecap:round; stroke-width:0.25;"/>
<line x1="273.100000" y1="184.000000" x2="273.100000" y2="184.000000"  style="stroke:black; stroke-linecap:round; stroke-width:0.25;"/>
<line x1="281.100000" y1="152.000000" x2="281.100000" y2="164.000000"  style="stroke:black; stroke-linecap:round; stroke-width:0.25;"/>
<line x1="281.100000" y1="164.000000" x2="281.100000" y2="164.000000"  style="stroke:black; stroke-linecap:round; stroke-width:0.25;"/>
<line x1="281.100000" y1="164.000000" x2="285.100000" y2="164.000000"  style="stroke:black; stroke-linecap:round; stroke-width:0.25;"/>
<line x1="281.100000" y1="172.000000" x2="285.100000" y2="172.000000"  style="stroke:black; stroke-linecap:round; stroke-width:0.25;"/>
<line x1="309.100000" y1="168.000000" x2="313.100000" y2="168.000000"  style="stroke:black; stroke-linecap:round; stroke-width:0.25;"/>
<line x1="313.100000" y1="168.000000" x2="313.100000" y2="168.000000"  style="stroke:black; stroke-linecap:round; stroke-width:0.25;"/>
<line x1="313.100000" y1="168.000000" x2="317.100000" y2="168.000000"  style="stroke:black; stroke-linecap:round; stroke-width:0.25;"/>
<line x1="341.100000" y1="168.000000" x2="345.100000" y2="168.000000"  style="stroke:black; stroke-linecap:round; stroke-width:0.25;"/>
<line x1="345.100000" y1="110.000000" x2="353.100000" y2="110.000000"  style="stroke:black; stroke-linecap:round; stroke-width:0.25;"/>
<line x1="345.100000" y1="146.000000" x2="353.100000" y2="146.000000"  style="stroke:black; stroke-linecap:round; stroke-width:0.25;"/>
<line x1="345.100000" y1="168.000000" x2="345.100000" y2="146.000000"  style="stroke:black; stroke-linecap:round; stroke-width:0.25;"/>
<line x1="345.100000" y1="168.000000" x2="345.100000" y2="168.000000"  style="stroke:black; stroke-linecap:round; stroke-width:0.25;"/>
<line x1="353.100000" y1="110.000000" x2="353.100000" y2="138.000000"  style="stroke:black; stroke-linecap:round; stroke-width:0.25;"/>
<line x1="353.100000" y1="138.000000" x2="353.100000" y2="138.000000"  style="stroke:black; stroke-linecap:round; stroke-width:0.25;"/>
<line x1="353.100000" y1="138.000000" x2="357.100000" y2="138.000000"  style="stroke:black; stroke-linecap:round; stroke-width:0.25;"/>
<line x1="353.100000" y1="146.000000" x2="357.100000" y2="146.000000"  style="stroke:black; stroke-linecap:round; stroke-width:0.25;"/>
<line x1="381.100000" y1="142.000000" x2="385.100000" y2="142.000000"  style="stroke:black; stroke-linecap:round; stroke-width:0.25;"/>
<line x1="385.100000" y1="68.000000" x2="393.100000" y2="68.000000"  style="stroke:black; stroke-linecap:round; stroke-width:0.25;"/>
<line x1="385.100000" y1="130.000000" x2="393.100000" y2="130.000000"  style="stroke:black; stroke-linecap:round; stroke-width:0.25;"/>
<line x1="385.100000" y1="142.000000" x2="385.100000" y2="130.000000"  style="stroke:black; stroke-linecap:round; stroke-width:0.25;"/>
<line x1="385.100000" y1="142.000000" x2="385.100000" y2="142.000000"  style="stroke:black; stroke-linecap:round; stroke-width:0.25;"/>
<line x1="393.100000" y1="68.000000" x2="393.100000" y2="122.000000"  style="stroke:black; stroke-linecap:round; stroke-width:0.25;"/>
<line x1="393.100000" y1="122.000000" x2="393.100000" y2="122.000000"  style="stroke:black; stroke-linecap:round; stroke-width:0.25;"/>
<line x1="393.100000" y1="122.000000" x2="403.100000" y2="122.000000"  style="stroke:black; stroke-linecap:round; stroke-width:0.25;"/>
<line x1="393.100000" y1="130.000000" x2="403.100000" y2="130.000000"  style="stroke:black; stroke-linecap:round; stroke-width:0.25;"/>
<line x1="403.100000" y1="122.000000" x2="407.100000" y2="122.000000"  style="stroke:black; stroke-linecap:round; stroke-width:0.25;"/>
<line x1="403.100000" y1="130.000000" x2="407.100000" y2="130.000000"  style="stroke:black; stroke-linecap:round; stroke-width:0.25;"/>
<line x1="431.100000" y1="126.000000" x2="435.100000" y2="126.000000"  style="stroke:black; stroke-linecap:round; stroke-width:0.25;"/>
<line x1="435.100000" y1="126.000000" x2="445.100000" y2="126.000000"  style="stroke:black; stroke-linecap:round; stroke-width:0.25;"/>
<line x1="445.100000" y1="36.000000" x2="453.100000" y2="36.000000"  style="stroke:black; stroke-linecap:round; stroke-width:0.25;"/>
<line x1="445.100000" y1="114.000000" x2="453.100000" y2="114.000000"  style="stroke:black; stroke-linecap:round; stroke-width:0.25;"/>
<line x1="445.100000" y1="126.000000" x2="445.100000" y2="114.000000"  style="stroke:black; stroke-linecap:round; stroke-width:0.25;"/>
<line x1="445.100000" y1="126.000000" x2="445.100000" y2="126.000000"  style="stroke:black; stroke-linecap:round; stroke-width:0.25;"/>
<line x1="453.100000" y1="36.000000" x2="453.100000" y2="106.000000"  style="stroke:black; stroke-linecap:round; stroke-width:0.25;"/>
<line x1="453.100000" y1="106.000000" x2="453.100000" y2="106.000000"  style="stroke:black; stroke-linecap:round; stroke-width:0.25;"/>
<line x1="453.100000" y1="106.000000" x2="457.100000" y2="106.000000"  style="stroke:black; stroke-linecap:round; stroke-width:0.25;"/>
<line x1="453.100000" y1="114.000000" x2="457.100000" y2="114.000000"  style="stroke:black; stroke-linecap:round; stroke-width:0.25;"/>
<line x1="481.100000" y1="110.000000" x2="485.100000" y2="110.000000"  style="stroke:black; stroke-linecap:round; stroke-width:0.25;"/>
<line x1="485.100000" y1="110.000000" x2="485.100000" y2="110.000000"  style="stroke:black; stroke-linecap:round; stroke-width:0.25;"/>
<line x1="485.100000" y1="110.000000" x2="489.100000" y2="110.000000"  style="stroke:black; stroke-linecap:round; stroke-width:0.25;"/>
<line x1="489.100000" y1="110.000000" x2="493.100000" y2="110.000000"  style="stroke:black; stroke-linecap:round; stroke-width:0.25;"/>
<line x1="493.100000" y1="110.000000" x2="503.100000" y2="110.000000"  style="stroke:black; stroke-linecap:round; stroke-width:0.25;"/>
</svg>
