<?xml version="1.0"?>
<svg xmlns="http://www.w3.org/2000/svg" xmlns:xlink="http://www.w3.org/1999/xlink" viewBox="0 0 263.600000 244.000000" width="131.800000mm" height="122.000000mm" version="1.1">
<a xlink:href="process.svg">
<rect x="1.000000" y="1.000000" width="262.600000" height="243.000000" rx="0" ry="0" style="stroke:none;fill:#cccccc;"/>
<rect x="0.000000" y="0.000000" width="262.600000" height="243.000000" rx="0" ry="0" style="stroke:none;fill:#ffffff;"/>
</a>
<text x="10.000000" y="7.000000" font-family="Arial" font-size="7"></text>
<a xlink:href="ch1a8-0x7fb5bf0568f0.svg">
<rect x="95.900000" y="43.000000" width="25.800000" height="64.000000" rx="0" ry="0" style="stroke:none;fill:#cccccc;"/>
<rect x="94.900000" y="42.000000" width="25.800000" height="64.000000" rx="0" ry="0" style="stroke:none;fill:#003366;"/>
</a>
<a xlink:href="ch1a8-0x7fb5bf0568f0.svg">
<text x="107.800000" y="76.000000" font-family="Arial" font-size="7" text-anchor="middle" fill="#FFFFFF">ch1a8</text>
</a>
<circle cx="96.900000" cy="44.000000" r="1"/>
<line x1="91.900000" y1="69.000000" x2="94.900000" y2="70.000000"  transform="rotate(0.000000,94.900000,70.000000)" style="stroke: black; stroke-width:0.25;"/>
<line x1="91.900000" y1="71.000000" x2="94.900000" y2="70.000000"  transform="rotate(0.000000,94.900000,70.000000)" style="stroke: black; stroke-width:0.25;"/>
<line x1="91.900000" y1="77.000000" x2="94.900000" y2="78.000000"  transform="rotate(0.000000,94.900000,78.000000)" style="stroke: black; stroke-width:0.25;"/>
<line x1="91.900000" y1="79.000000" x2="94.900000" y2="78.000000"  transform="rotate(0.000000,94.900000,78.000000)" style="stroke: black; stroke-width:0.25;"/>
<a xlink:href="rev4-0x7fb5bf09c8c0.svg">
<rect x="95.900000" y="115.000000" width="25.800000" height="24.000000" rx="0" ry="0" style="stroke:none;fill:#cccccc;"/>
<rect x="94.900000" y="114.000000" width="25.800000" height="24.000000" rx="0" ry="0" style="stroke:none;fill:#003366;"/>
</a>
<a xlink:href="rev4-0x7fb5bf09c8c0.svg">
<text x="107.800000" y="128.000000" font-family="Arial" font-size="7" text-anchor="middle" fill="#FFFFFF">rev4</text>
</a>
<circle cx="96.900000" cy="116.000000" r="1"/>
<line x1="91.900000" y1="125.000000" x2="94.900000" y2="126.000000"  transform="rotate(0.000000,94.900000,126.000000)" style="stroke: black; stroke-width:0.25;"/>
<line x1="91.900000" y1="127.000000" x2="94.900000" y2="126.000000"  transform="rotate(0.000000,94.900000,126.000000)" style="stroke: black; stroke-width:0.25;"/>
<a xlink:href="harmonizer-0x7fb5be74fc90.svg">
<rect x="83.000000" y="147.000000" width="51.600000" height="24.000000" rx="0" ry="0" style="stroke:none;fill:#cccccc;"/>
<rect x="82.000000" y="146.000000" width="51.600000" height="24.000000" rx="0" ry="0" style="stroke:none;fill:#003366;"/>
</a>
<a xlink:href="harmonizer-0x7fb5be74fc90.svg">
<text x="107.800000" y="160.000000" font-family="Arial" font-size="7" text-anchor="middle" fill="#FFFFFF">harmonizer</text>
</a>
<circle cx="84.000000" cy="148.000000" r="1"/>
<line x1="79.000000" y1="157.000000" x2="82.000000" y2="158.000000"  transform="rotate(0.000000,82.000000,158.000000)" style="stroke: black; stroke-width:0.25;"/>
<line x1="79.000000" y1="159.000000" x2="82.000000" y2="158.000000"  transform="rotate(0.000000,82.000000,158.000000)" style="stroke: black; stroke-width:0.25;"/>
<a xlink:href="halaphones-0x7fb5be753580.svg">
<rect x="83.000000" y="179.000000" width="51.600000" height="32.000000" rx="0" ry="0" style="stroke:none;fill:#cccccc;"/>
<rect x="82.000000" y="178.000000" width="51.600000" height="32.000000" rx="0" ry="0" style="stroke:none;fill:#003366;"/>
</a>
<a xlink:href="halaphones-0x7fb5be753580.svg">
<text x="107.800000" y="196.000000" font-family="Arial" font-size="7" text-anchor="middle" fill="#FFFFFF">halaphones</text>
</a>
<circle cx="84.000000" cy="180.000000" r="1"/>
<line x1="79.000000" y1="185.000000" x2="82.000000" y2="186.000000"  transform="rotate(0.000000,82.000000,186.000000)" style="stroke: black; stroke-width:0.25;"/>
<line x1="79.000000" y1="187.000000" x2="82.000000" y2="186.000000"  transform="rotate(0.000000,82.000000,186.000000)" style="stroke: black; stroke-width:0.25;"/>
<line x1="79.000000" y1="193.000000" x2="82.000000" y2="194.000000"  transform="rotate(0.000000,82.000000,194.000000)" style="stroke: black; stroke-width:0.25;"/>
<line x1="79.000000" y1="195.000000" x2="82.000000" y2="194.000000"  transform="rotate(0.000000,82.000000,194.000000)" style="stroke: black; stroke-width:0.25;"/>
<line x1="79.000000" y1="201.000000" x2="82.000000" y2="202.000000"  transform="rotate(0.000000,82.000000,202.000000)" style="stroke: black; stroke-width:0.25;"/>
<line x1="79.000000" y1="203.000000" x2="82.000000" y2="202.000000"  transform="rotate(0.000000,82.000000,202.000000)" style="stroke: black; stroke-width:0.25;"/>
<line x1="73.000000" y1="25.000000" x2="73.000000" y2="219.000000"  style="stroke: black; stroke-linecap:round; stroke-width:0.25; stroke-dasharray:3,3;"/>
<line x1="73.000000" y1="219.000000" x2="142.600000" y2="219.000000"  style="stroke: black; stroke-linecap:round; stroke-width:0.25; stroke-dasharray:3,3;"/>
<line x1="142.600000" y1="219.000000" x2="142.600000" y2="25.000000"  style="stroke: black; stroke-linecap:round; stroke-width:0.25; stroke-dasharray:3,3;"/>
<line x1="73.000000" y1="25.000000" x2="78.000000" y2="25.000000"  style="stroke: black; stroke-linecap:round; stroke-width:0.25; stroke-dasharray:3,3;"/>
<line x1="142.600000" y1="25.000000" x2="142.600000" y2="25.000000"  style="stroke: black; stroke-linecap:round; stroke-width:0.25; stroke-dasharray:3,3;"/>
<text x="78.000000" y="27.000000" font-family="Arial" font-size="7">vgroup(ELECTRONICS)</text>
<line x1="15.000000" y1="15.000000" x2="15.000000" y2="229.000000"  style="stroke: black; stroke-linecap:round; stroke-width:0.25; stroke-dasharray:3,3;"/>
<line x1="15.000000" y1="229.000000" x2="248.600000" y2="229.000000"  style="stroke: black; stroke-linecap:round; stroke-width:0.25; stroke-dasharray:3,3;"/>
<line x1="248.600000" y1="229.000000" x2="248.600000" y2="15.000000"  style="stroke: black; stroke-linecap:round; stroke-width:0.25; stroke-dasharray:3,3;"/>
<line x1="15.000000" y1="15.000000" x2="20.000000" y2="15.000000"  style="stroke: black; stroke-linecap:round; stroke-width:0.25; stroke-dasharray:3,3;"/>
<line x1="61.925000" y1="15.000000" x2="248.600000" y2="15.000000"  style="stroke: black; stroke-linecap:round; stroke-width:0.25; stroke-dasharray:3,3;"/>
<text x="20.000000" y="17.000000" font-family="Arial" font-size="7">electronics</text>
<line x1="250.600000" y1="61.000000" x2="253.600000" y2="62.000000"  transform="rotate(0.000000,253.600000,62.000000)" style="stroke: black; stroke-width:0.25;"/>
<line x1="250.600000" y1="63.000000" x2="253.600000" y2="62.000000"  transform="rotate(0.000000,253.600000,62.000000)" style="stroke: black; stroke-width:0.25;"/>
<line x1="250.600000" y1="69.000000" x2="253.600000" y2="70.000000"  transform="rotate(0.000000,253.600000,70.000000)" style="stroke: black; stroke-width:0.25;"/>
<line x1="250.600000" y1="71.000000" x2="253.600000" y2="70.000000"  transform="rotate(0.000000,253.600000,70.000000)" style="stroke: black; stroke-width:0.25;"/>
<line x1="250.600000" y1="77.000000" x2="253.600000" y2="78.000000"  transform="rotate(0.000000,253.600000,78.000000)" style="stroke: black; stroke-width:0.25;"/>
<line x1="250.600000" y1="79.000000" x2="253.600000" y2="78.000000"  transform="rotate(0.000000,253.600000,78.000000)" style="stroke: black; stroke-width:0.25;"/>
<line x1="250.600000" y1="85.000000" x2="253.600000" y2="86.000000"  transform="rotate(0.000000,253.600000,86.000000)" style="stroke: black; stroke-width:0.25;"/>
<line x1="250.600000" y1="87.000000" x2="253.600000" y2="86.000000"  transform="rotate(0.000000,253.600000,86.000000)" style="stroke: black; stroke-width:0.25;"/>
<line x1="250.600000" y1="93.000000" x2="253.600000" y2="94.000000"  transform="rotate(0.000000,253.600000,94.000000)" style="stroke: black; stroke-width:0.25;"/>
<line x1="250.600000" y1="95.000000" x2="253.600000" y2="94.000000"  transform="rotate(0.000000,253.600000,94.000000)" style="stroke: black; stroke-width:0.25;"/>
<line x1="250.600000" y1="101.000000" x2="253.600000" y2="102.000000"  transform="rotate(0.000000,253.600000,102.000000)" style="stroke: black; stroke-width:0.25;"/>
<line x1="250.600000" y1="103.000000" x2="253.600000" y2="102.000000"  transform="rotate(0.000000,253.600000,102.000000)" style="stroke: black; stroke-width:0.25;"/>
<line x1="250.600000" y1="109.000000" x2="253.600000" y2="110.000000"  transform="rotate(0.000000,253.600000,110.000000)" style="stroke: black; stroke-width:0.25;"/>
<line x1="250.600000" y1="111.000000" x2="253.600000" y2="110.000000"  transform="rotate(0.000000,253.600000,110.000000)" style="stroke: black; stroke-width:0.25;"/>
<line x1="250.600000" y1="117.000000" x2="253.600000" y2="118.000000"  transform="rotate(0.000000,253.600000,118.000000)" style="stroke: black; stroke-width:0.25;"/>
<line x1="250.600000" y1="119.000000" x2="253.600000" y2="118.000000"  transform="rotate(0.000000,253.600000,118.000000)" style="stroke: black; stroke-width:0.25;"/>
<line x1="250.600000" y1="125.000000" x2="253.600000" y2="126.000000"  transform="rotate(0.000000,253.600000,126.000000)" style="stroke: black; stroke-width:0.25;"/>
<line x1="250.600000" y1="127.000000" x2="253.600000" y2="126.000000"  transform="rotate(0.000000,253.600000,126.000000)" style="stroke: black; stroke-width:0.25;"/>
<line x1="250.600000" y1="133.000000" x2="253.600000" y2="134.000000"  transform="rotate(0.000000,253.600000,134.000000)" style="stroke: black; stroke-width:0.25;"/>
<line x1="250.600000" y1="135.000000" x2="253.600000" y2="134.000000"  transform="rotate(0.000000,253.600000,134.000000)" style="stroke: black; stroke-width:0.25;"/>
<line x1="250.600000" y1="141.000000" x2="253.600000" y2="142.000000"  transform="rotate(0.000000,253.600000,142.000000)" style="stroke: black; stroke-width:0.25;"/>
<line x1="250.600000" y1="143.000000" x2="253.600000" y2="142.000000"  transform="rotate(0.000000,253.600000,142.000000)" style="stroke: black; stroke-width:0.25;"/>
<line x1="250.600000" y1="149.000000" x2="253.600000" y2="150.000000"  transform="rotate(0.000000,253.600000,150.000000)" style="stroke: black; stroke-width:0.25;"/>
<line x1="250.600000" y1="151.000000" x2="253.600000" y2="150.000000"  transform="rotate(0.000000,253.600000,150.000000)" style="stroke: black; stroke-width:0.25;"/>
<line x1="250.600000" y1="157.000000" x2="253.600000" y2="158.000000"  transform="rotate(0.000000,253.600000,158.000000)" style="stroke: black; stroke-width:0.25;"/>
<line x1="250.600000" y1="159.000000" x2="253.600000" y2="158.000000"  transform="rotate(0.000000,253.600000,158.000000)" style="stroke: black; stroke-width:0.25;"/>
<line x1="250.600000" y1="165.000000" x2="253.600000" y2="166.000000"  transform="rotate(0.000000,253.600000,166.000000)" style="stroke: black; stroke-width:0.25;"/>
<line x1="250.600000" y1="167.000000" x2="253.600000" y2="166.000000"  transform="rotate(0.000000,253.600000,166.000000)" style="stroke: black; stroke-width:0.25;"/>
<line x1="250.600000" y1="173.000000" x2="253.600000" y2="174.000000"  transform="rotate(0.000000,253.600000,174.000000)" style="stroke: black; stroke-width:0.25;"/>
<line x1="250.600000" y1="175.000000" x2="253.600000" y2="174.000000"  transform="rotate(0.000000,253.600000,174.000000)" style="stroke: black; stroke-width:0.25;"/>
<line x1="250.600000" y1="181.000000" x2="253.600000" y2="182.000000"  transform="rotate(0.000000,253.600000,182.000000)" style="stroke: black; stroke-width:0.25;"/>
<line x1="250.600000" y1="183.000000" x2="253.600000" y2="182.000000"  transform="rotate(0.000000,253.600000,182.000000)" style="stroke: black; stroke-width:0.25;"/>
<line x1="10.000000" y1="94.000000" x2="20.000000" y2="94.000000"  style="stroke:black; stroke-linecap:round; stroke-width:0.25;"/>
<line x1="10.000000" y1="102.000000" x2="20.000000" y2="102.000000"  style="stroke:black; stroke-linecap:round; stroke-width:0.25;"/>
<line x1="10.000000" y1="110.000000" x2="20.000000" y2="110.000000"  style="stroke:black; stroke-linecap:round; stroke-width:0.25;"/>
<line x1="10.000000" y1="118.000000" x2="20.000000" y2="118.000000"  style="stroke:black; stroke-linecap:round; stroke-width:0.25;"/>
<line x1="10.000000" y1="126.000000" x2="20.000000" y2="126.000000"  style="stroke:black; stroke-linecap:round; stroke-width:0.25;"/>
<line x1="10.000000" y1="134.000000" x2="20.000000" y2="134.000000"  style="stroke:black; stroke-linecap:round; stroke-width:0.25;"/>
<line x1="10.000000" y1="142.000000" x2="20.000000" y2="142.000000"  style="stroke:black; stroke-linecap:round; stroke-width:0.25;"/>
<line x1="10.000000" y1="150.000000" x2="20.000000" y2="150.000000"  style="stroke:black; stroke-linecap:round; stroke-width:0.25;"/>
<line x1="20.000000" y1="94.000000" x2="24.000000" y2="94.000000"  style="stroke:black; stroke-linecap:round; stroke-width:0.25;"/>
<line x1="20.000000" y1="102.000000" x2="24.000000" y2="102.000000"  style="stroke:black; stroke-linecap:round; stroke-width:0.25;"/>
<line x1="20.000000" y1="110.000000" x2="24.000000" y2="110.000000"  style="stroke:black; stroke-linecap:round; stroke-width:0.25;"/>
<line x1="20.000000" y1="118.000000" x2="24.000000" y2="118.000000"  style="stroke:black; stroke-linecap:round; stroke-width:0.25;"/>
<line x1="20.000000" y1="126.000000" x2="24.000000" y2="126.000000"  style="stroke:black; stroke-linecap:round; stroke-width:0.25;"/>
<line x1="20.000000" y1="134.000000" x2="24.000000" y2="134.000000"  style="stroke:black; stroke-linecap:round; stroke-width:0.25;"/>
<line x1="20.000000" y1="142.000000" x2="24.000000" y2="142.000000"  style="stroke:black; stroke-linecap:round; stroke-width:0.25;"/>
<line x1="20.000000" y1="150.000000" x2="24.000000" y2="150.000000"  style="stroke:black; stroke-linecap:round; stroke-width:0.25;"/>
<line x1="24.000000" y1="94.000000" x2="28.000000" y2="94.000000"  style="stroke:black; stroke-linecap:round; stroke-width:0.25;"/>
<line x1="24.000000" y1="102.000000" x2="28.000000" y2="102.000000"  style="stroke:black; stroke-linecap:round; stroke-width:0.25;"/>
<line x1="24.000000" y1="110.000000" x2="28.000000" y2="110.000000"  style="stroke:black; stroke-linecap:round; stroke-width:0.25;"/>
<line x1="24.000000" y1="118.000000" x2="28.000000" y2="118.000000"  style="stroke:black; stroke-linecap:round; stroke-width:0.25;"/>
<line x1="24.000000" y1="126.000000" x2="28.000000" y2="126.000000"  style="stroke:black; stroke-linecap:round; stroke-width:0.25;"/>
<line x1="24.000000" y1="134.000000" x2="28.000000" y2="134.000000"  style="stroke:black; stroke-linecap:round; stroke-width:0.25;"/>
<line x1="24.000000" y1="142.000000" x2="28.000000" y2="142.000000"  style="stroke:black; stroke-linecap:round; stroke-width:0.25;"/>
<line x1="24.000000" y1="150.000000" x2="28.000000" y2="150.000000"  style="stroke:black; stroke-linecap:round; stroke-width:0.25;"/>
<line x1="28.000000" y1="34.000000" x2="68.000000" y2="34.000000"  style="stroke:black; stroke-linecap:round; stroke-width:0.25;"/>
<line x1="28.000000" y1="94.000000" x2="28.000000" y2="34.000000"  style="stroke:black; stroke-linecap:round; stroke-width:0.25;"/>
<line x1="28.000000" y1="94.000000" x2="28.000000" y2="94.000000"  style="stroke:black; stroke-linecap:round; stroke-width:0.25;"/>
<line x1="28.000000" y1="102.000000" x2="36.000000" y2="102.000000"  style="stroke:black; stroke-linecap:round; stroke-width:0.25;"/>
<line x1="28.000000" y1="110.000000" x2="44.000000" y2="110.000000"  style="stroke:black; stroke-linecap:round; stroke-width:0.25;"/>
<line x1="28.000000" y1="118.000000" x2="68.000000" y2="118.000000"  style="stroke:black; stroke-linecap:round; stroke-width:0.25;"/>
<line x1="28.000000" y1="126.000000" x2="60.000000" y2="126.000000"  style="stroke:black; stroke-linecap:round; stroke-width:0.25;"/>
<line x1="28.000000" y1="134.000000" x2="52.000000" y2="134.000000"  style="stroke:black; stroke-linecap:round; stroke-width:0.25;"/>
<line x1="28.000000" y1="142.000000" x2="44.000000" y2="142.000000"  style="stroke:black; stroke-linecap:round; stroke-width:0.25;"/>
<line x1="28.000000" y1="150.000000" x2="36.000000" y2="150.000000"  style="stroke:black; stroke-linecap:round; stroke-width:0.25;"/>
<line x1="36.000000" y1="70.000000" x2="68.000000" y2="70.000000"  style="stroke:black; stroke-linecap:round; stroke-width:0.25;"/>
<line x1="36.000000" y1="102.000000" x2="36.000000" y2="70.000000"  style="stroke:black; stroke-linecap:round; stroke-width:0.25;"/>
<line x1="36.000000" y1="150.000000" x2="36.000000" y2="202.000000"  style="stroke:black; stroke-linecap:round; stroke-width:0.25;"/>
<line x1="36.000000" y1="202.000000" x2="68.000000" y2="202.000000"  style="stroke:black; stroke-linecap:round; stroke-width:0.25;"/>
<line x1="44.000000" y1="78.000000" x2="68.000000" y2="78.000000"  style="stroke:black; stroke-linecap:round; stroke-width:0.25;"/>
<line x1="44.000000" y1="110.000000" x2="44.000000" y2="78.000000"  style="stroke:black; stroke-linecap:round; stroke-width:0.25;"/>
<line x1="44.000000" y1="142.000000" x2="44.000000" y2="194.000000"  style="stroke:black; stroke-linecap:round; stroke-width:0.25;"/>
<line x1="44.000000" y1="194.000000" x2="68.000000" y2="194.000000"  style="stroke:black; stroke-linecap:round; stroke-width:0.25;"/>
<line x1="52.000000" y1="134.000000" x2="52.000000" y2="186.000000"  style="stroke:black; stroke-linecap:round; stroke-width:0.25;"/>
<line x1="52.000000" y1="186.000000" x2="68.000000" y2="186.000000"  style="stroke:black; stroke-linecap:round; stroke-width:0.25;"/>
<line x1="60.000000" y1="126.000000" x2="60.000000" y2="158.000000"  style="stroke:black; stroke-linecap:round; stroke-width:0.25;"/>
<line x1="60.000000" y1="158.000000" x2="68.000000" y2="158.000000"  style="stroke:black; stroke-linecap:round; stroke-width:0.25;"/>
<line x1="68.000000" y1="34.000000" x2="78.000000" y2="34.000000"  style="stroke:black; stroke-linecap:round; stroke-width:0.25;"/>
<line x1="68.000000" y1="70.000000" x2="78.000000" y2="70.000000"  style="stroke:black; stroke-linecap:round; stroke-width:0.25;"/>
<line x1="68.000000" y1="78.000000" x2="78.000000" y2="78.000000"  style="stroke:black; stroke-linecap:round; stroke-width:0.25;"/>
<line x1="68.000000" y1="118.000000" x2="68.000000" y2="126.000000"  style="stroke:black; stroke-linecap:round; stroke-width:0.25;"/>
<line x1="68.000000" y1="126.000000" x2="68.000000" y2="126.000000"  style="stroke:black; stroke-linecap:round; stroke-width:0.25;"/>
<line x1="68.000000" y1="126.000000" x2="78.000000" y2="126.000000"  style="stroke:black; stroke-linecap:round; stroke-width:0.25;"/>
<line x1="68.000000" y1="158.000000" x2="78.000000" y2="158.000000"  style="stroke:black; stroke-linecap:round; stroke-width:0.25;"/>
<line x1="68.000000" y1="186.000000" x2="78.000000" y2="186.000000"  style="stroke:black; stroke-linecap:round; stroke-width:0.25;"/>
<line x1="68.000000" y1="194.000000" x2="78.000000" y2="194.000000"  style="stroke:black; stroke-linecap:round; stroke-width:0.25;"/>
<line x1="68.000000" y1="202.000000" x2="78.000000" y2="202.000000"  style="stroke:black; stroke-linecap:round; stroke-width:0.25;"/>
<line x1="78.000000" y1="34.000000" x2="107.800000" y2="34.000000"  style="stroke:black; stroke-linecap:round; stroke-width:0.25;"/>
<line x1="78.000000" y1="70.000000" x2="90.900000" y2="70.000000"  style="stroke:black; stroke-linecap:round; stroke-width:0.25;"/>
<line x1="78.000000" y1="78.000000" x2="90.900000" y2="78.000000"  style="stroke:black; stroke-linecap:round; stroke-width:0.25;"/>
<line x1="78.000000" y1="126.000000" x2="90.900000" y2="126.000000"  style="stroke:black; stroke-linecap:round; stroke-width:0.25;"/>
<line x1="78.000000" y1="158.000000" x2="82.000000" y2="158.000000"  style="stroke:black; stroke-linecap:round; stroke-width:0.25;"/>
<line x1="78.000000" y1="186.000000" x2="82.000000" y2="186.000000"  style="stroke:black; stroke-linecap:round; stroke-width:0.25;"/>
<line x1="78.000000" y1="194.000000" x2="82.000000" y2="194.000000"  style="stroke:black; stroke-linecap:round; stroke-width:0.25;"/>
<line x1="78.000000" y1="202.000000" x2="82.000000" y2="202.000000"  style="stroke:black; stroke-linecap:round; stroke-width:0.25;"/>
<line x1="90.900000" y1="70.000000" x2="94.900000" y2="70.000000"  style="stroke:black; stroke-linecap:round; stroke-width:0.25;"/>
<line x1="90.900000" y1="78.000000" x2="94.900000" y2="78.000000"  style="stroke:black; stroke-linecap:round; stroke-width:0.25;"/>
<line x1="90.900000" y1="126.000000" x2="94.900000" y2="126.000000"  style="stroke:black; stroke-linecap:round; stroke-width:0.25;"/>
<line x1="107.800000" y1="34.000000" x2="137.600000" y2="34.000000"  style="stroke:black; stroke-linecap:round; stroke-width:0.25;"/>
<line x1="120.700000" y1="46.000000" x2="124.700000" y2="46.000000"  style="stroke:black; stroke-linecap:round; stroke-width:0.25;"/>
<line x1="120.700000" y1="54.000000" x2="124.700000" y2="54.000000"  style="stroke:black; stroke-linecap:round; stroke-width:0.25;"/>
<line x1="120.700000" y1="62.000000" x2="124.700000" y2="62.000000"  style="stroke:black; stroke-linecap:round; stroke-width:0.25;"/>
<line x1="120.700000" y1="70.000000" x2="124.700000" y2="70.000000"  style="stroke:black; stroke-linecap:round; stroke-width:0.25;"/>
<line x1="120.700000" y1="78.000000" x2="124.700000" y2="78.000000"  style="stroke:black; stroke-linecap:round; stroke-width:0.25;"/>
<line x1="120.700000" y1="86.000000" x2="124.700000" y2="86.000000"  style="stroke:black; stroke-linecap:round; stroke-width:0.25;"/>
<line x1="120.700000" y1="94.000000" x2="124.700000" y2="94.000000"  style="stroke:black; stroke-linecap:round; stroke-width:0.25;"/>
<line x1="120.700000" y1="102.000000" x2="124.700000" y2="102.000000"  style="stroke:black; stroke-linecap:round; stroke-width:0.25;"/>
<line x1="120.700000" y1="122.000000" x2="124.700000" y2="122.000000"  style="stroke:black; stroke-linecap:round; stroke-width:0.25;"/>
<line x1="120.700000" y1="130.000000" x2="124.700000" y2="130.000000"  style="stroke:black; stroke-linecap:round; stroke-width:0.25;"/>
<line x1="124.700000" y1="46.000000" x2="137.600000" y2="46.000000"  style="stroke:black; stroke-linecap:round; stroke-width:0.25;"/>
<line x1="124.700000" y1="54.000000" x2="137.600000" y2="54.000000"  style="stroke:black; stroke-linecap:round; stroke-width:0.25;"/>
<line x1="124.700000" y1="62.000000" x2="137.600000" y2="62.000000"  style="stroke:black; stroke-linecap:round; stroke-width:0.25;"/>
<line x1="124.700000" y1="70.000000" x2="137.600000" y2="70.000000"  style="stroke:black; stroke-linecap:round; stroke-width:0.25;"/>
<line x1="124.700000" y1="78.000000" x2="137.600000" y2="78.000000"  style="stroke:black; stroke-linecap:round; stroke-width:0.25;"/>
<line x1="124.700000" y1="86.000000" x2="137.600000" y2="86.000000"  style="stroke:black; stroke-linecap:round; stroke-width:0.25;"/>
<line x1="124.700000" y1="94.000000" x2="137.600000" y2="94.000000"  style="stroke:black; stroke-linecap:round; stroke-width:0.25;"/>
<line x1="124.700000" y1="102.000000" x2="137.600000" y2="102.000000"  style="stroke:black; stroke-linecap:round; stroke-width:0.25;"/>
<line x1="124.700000" y1="122.000000" x2="137.600000" y2="122.000000"  style="stroke:black; stroke-linecap:round; stroke-width:0.25;"/>
<line x1="124.700000" y1="130.000000" x2="137.600000" y2="130.000000"  style="stroke:black; stroke-linecap:round; stroke-width:0.25;"/>
<line x1="133.600000" y1="158.000000" x2="137.600000" y2="158.000000"  style="stroke:black; stroke-linecap:round; stroke-width:0.25;"/>
<line x1="133.600000" y1="182.000000" x2="137.600000" y2="182.000000"  style="stroke:black; stroke-linecap:round; stroke-width:0.25;"/>
<line x1="133.600000" y1="190.000000" x2="137.600000" y2="190.000000"  style="stroke:black; stroke-linecap:round; stroke-width:0.25;"/>
<line x1="133.600000" y1="198.000000" x2="137.600000" y2="198.000000"  style="stroke:black; stroke-linecap:round; stroke-width:0.25;"/>
<line x1="133.600000" y1="206.000000" x2="137.600000" y2="206.000000"  style="stroke:black; stroke-linecap:round; stroke-width:0.25;"/>
<line x1="137.600000" y1="34.000000" x2="147.600000" y2="34.000000"  style="stroke:black; stroke-linecap:round; stroke-width:0.25;"/>
<line x1="137.600000" y1="46.000000" x2="147.600000" y2="46.000000"  style="stroke:black; stroke-linecap:round; stroke-width:0.25;"/>
<line x1="137.600000" y1="54.000000" x2="147.600000" y2="54.000000"  style="stroke:black; stroke-linecap:round; stroke-width:0.25;"/>
<line x1="137.600000" y1="62.000000" x2="147.600000" y2="62.000000"  style="stroke:black; stroke-linecap:round; stroke-width:0.25;"/>
<line x1="137.600000" y1="70.000000" x2="147.600000" y2="70.000000"  style="stroke:black; stroke-linecap:round; stroke-width:0.25;"/>
<line x1="137.600000" y1="78.000000" x2="147.600000" y2="78.000000"  style="stroke:black; stroke-linecap:round; stroke-width:0.25;"/>
<line x1="137.600000" y1="86.000000" x2="147.600000" y2="86.000000"  style="stroke:black; stroke-linecap:round; stroke-width:0.25;"/>
<line x1="137.600000" y1="94.000000" x2="147.600000" y2="94.000000"  style="stroke:black; stroke-linecap:round; stroke-width:0.25;"/>
<line x1="137.600000" y1="102.000000" x2="147.600000" y2="102.000000"  style="stroke:black; stroke-linecap:round; stroke-width:0.25;"/>
<line x1="137.600000" y1="122.000000" x2="147.600000" y2="122.000000"  style="stroke:black; stroke-linecap:round; stroke-width:0.25;"/>
<line x1="137.600000" y1="130.000000" x2="147.600000" y2="130.000000"  style="stroke:black; stroke-linecap:round; stroke-width:0.25;"/>
<line x1="137.600000" y1="158.000000" x2="147.600000" y2="158.000000"  style="stroke:black; stroke-linecap:round; stroke-width:0.25;"/>
<line x1="137.600000" y1="182.000000" x2="147.600000" y2="182.000000"  style="stroke:black; stroke-linecap:round; stroke-width:0.25;"/>
<line x1="137.600000" y1="190.000000" x2="147.600000" y2="190.000000"  style="stroke:black; stroke-linecap:round; stroke-width:0.25;"/>
<line x1="137.600000" y1="198.000000" x2="147.600000" y2="198.000000"  style="stroke:black; stroke-linecap:round; stroke-width:0.25;"/>
<line x1="137.600000" y1="206.000000" x2="147.600000" y2="206.000000"  style="stroke:black; stroke-linecap:round; stroke-width:0.25;"/>
<line x1="147.600000" y1="34.000000" x2="235.600000" y2="34.000000"  style="stroke:black; stroke-linecap:round; stroke-width:0.25;"/>
<line x1="147.600000" y1="46.000000" x2="227.600000" y2="46.000000"  style="stroke:black; stroke-linecap:round; stroke-width:0.25;"/>
<line x1="147.600000" y1="54.000000" x2="219.600000" y2="54.000000"  style="stroke:black; stroke-linecap:round; stroke-width:0.25;"/>
<line x1="147.600000" y1="62.000000" x2="211.600000" y2="62.000000"  style="stroke:black; stroke-linecap:round; stroke-width:0.25;"/>
<line x1="147.600000" y1="70.000000" x2="203.600000" y2="70.000000"  style="stroke:black; stroke-linecap:round; stroke-width:0.25;"/>
<line x1="147.600000" y1="78.000000" x2="195.600000" y2="78.000000"  style="stroke:black; stroke-linecap:round; stroke-width:0.25;"/>
<line x1="147.600000" y1="86.000000" x2="187.600000" y2="86.000000"  style="stroke:black; stroke-linecap:round; stroke-width:0.25;"/>
<line x1="147.600000" y1="94.000000" x2="179.600000" y2="94.000000"  style="stroke:black; stroke-linecap:round; stroke-width:0.25;"/>
<line x1="147.600000" y1="102.000000" x2="171.600000" y2="102.000000"  style="stroke:black; stroke-linecap:round; stroke-width:0.25;"/>
<line x1="147.600000" y1="122.000000" x2="163.600000" y2="122.000000"  style="stroke:black; stroke-linecap:round; stroke-width:0.25;"/>
<line x1="147.600000" y1="130.000000" x2="155.600000" y2="130.000000"  style="stroke:black; stroke-linecap:round; stroke-width:0.25;"/>
<line x1="147.600000" y1="150.000000" x2="235.600000" y2="150.000000"  style="stroke:black; stroke-linecap:round; stroke-width:0.25;"/>
<line x1="147.600000" y1="158.000000" x2="147.600000" y2="150.000000"  style="stroke:black; stroke-linecap:round; stroke-width:0.25;"/>
<line x1="147.600000" y1="158.000000" x2="147.600000" y2="158.000000"  style="stroke:black; stroke-linecap:round; stroke-width:0.25;"/>
<line x1="147.600000" y1="182.000000" x2="155.600000" y2="182.000000"  style="stroke:black; stroke-linecap:round; stroke-width:0.25;"/>
<line x1="147.600000" y1="190.000000" x2="163.600000" y2="190.000000"  style="stroke:black; stroke-linecap:round; stroke-width:0.25;"/>
<line x1="147.600000" y1="198.000000" x2="171.600000" y2="198.000000"  style="stroke:black; stroke-linecap:round; stroke-width:0.25;"/>
<line x1="147.600000" y1="206.000000" x2="179.600000" y2="206.000000"  style="stroke:black; stroke-linecap:round; stroke-width:0.25;"/>
<line x1="155.600000" y1="130.000000" x2="155.600000" y2="142.000000"  style="stroke:black; stroke-linecap:round; stroke-width:0.25;"/>
<line x1="155.600000" y1="142.000000" x2="235.600000" y2="142.000000"  style="stroke:black; stroke-linecap:round; stroke-width:0.25;"/>
<line x1="155.600000" y1="158.000000" x2="235.600000" y2="158.000000"  style="stroke:black; stroke-linecap:round; stroke-width:0.25;"/>
<line x1="155.600000" y1="182.000000" x2="155.600000" y2="158.000000"  style="stroke:black; stroke-linecap:round; stroke-width:0.25;"/>
<line x1="163.600000" y1="122.000000" x2="163.600000" y2="134.000000"  style="stroke:black; stroke-linecap:round; stroke-width:0.25;"/>
<line x1="163.600000" y1="134.000000" x2="235.600000" y2="134.000000"  style="stroke:black; stroke-linecap:round; stroke-width:0.25;"/>
<line x1="163.600000" y1="166.000000" x2="235.600000" y2="166.000000"  style="stroke:black; stroke-linecap:round; stroke-width:0.25;"/>
<line x1="163.600000" y1="190.000000" x2="163.600000" y2="166.000000"  style="stroke:black; stroke-linecap:round; stroke-width:0.25;"/>
<line x1="171.600000" y1="102.000000" x2="171.600000" y2="126.000000"  style="stroke:black; stroke-linecap:round; stroke-width:0.25;"/>
<line x1="171.600000" y1="126.000000" x2="235.600000" y2="126.000000"  style="stroke:black; stroke-linecap:round; stroke-width:0.25;"/>
<line x1="171.600000" y1="174.000000" x2="235.600000" y2="174.000000"  style="stroke:black; stroke-linecap:round; stroke-width:0.25;"/>
<line x1="171.600000" y1="198.000000" x2="171.600000" y2="174.000000"  style="stroke:black; stroke-linecap:round; stroke-width:0.25;"/>
<line x1="179.600000" y1="94.000000" x2="179.600000" y2="118.000000"  style="stroke:black; stroke-linecap:round; stroke-width:0.25;"/>
<line x1="179.600000" y1="118.000000" x2="235.600000" y2="118.000000"  style="stroke:black; stroke-linecap:round; stroke-width:0.25;"/>
<line x1="179.600000" y1="182.000000" x2="235.600000" y2="182.000000"  style="stroke:black; stroke-linecap:round; stroke-width:0.25;"/>
<line x1="179.600000" y1="206.000000" x2="179.600000" y2="182.000000"  style="stroke:black; stroke-linecap:round; stroke-width:0.25;"/>
<line x1="187.600000" y1="86.000000" x2="187.600000" y2="110.000000"  style="stroke:black; stroke-linecap:round; stroke-width:0.25;"/>
<line x1="187.600000" y1="110.000000" x2="235.600000" y2="110.000000"  style="stroke:black; stroke-linecap:round; stroke-width:0.25;"/>
<line x1="195.600000" y1="78.000000" x2="195.600000" y2="102.000000"  style="stroke:black; stroke-linecap:round; stroke-width:0.25;"/>
<line x1="195.600000" y1="102.000000" x2="235.600000" y2="102.000000"  style="stroke:black; stroke-linecap:round; stroke-width:0.25;"/>
<line x1="203.600000" y1="70.000000" x2="203.600000" y2="94.000000"  style="stroke:black; stroke-linecap:round; stroke-width:0.25;"/>
<line x1="203.600000" y1="94.000000" x2="235.600000" y2="94.000000"  style="stroke:black; stroke-linecap:round; stroke-width:0.25;"/>
<line x1="211.600000" y1="62.000000" x2="211.600000" y2="86.000000"  style="stroke:black; stroke-linecap:round; stroke-width:0.25;"/>
<line x1="211.600000" y1="86.000000" x2="235.600000" y2="86.000000"  style="stroke:black; stroke-linecap:round; stroke-width:0.25;"/>
<line x1="219.600000" y1="54.000000" x2="219.600000" y2="78.000000"  style="stroke:black; stroke-linecap:round; stroke-width:0.25;"/>
<line x1="219.600000" y1="78.000000" x2="235.600000" y2="78.000000"  style="stroke:black; stroke-linecap:round; stroke-width:0.25;"/>
<line x1="227.600000" y1="46.000000" x2="227.600000" y2="70.000000"  style="stroke:black; stroke-linecap:round; stroke-width:0.25;"/>
<line x1="227.600000" y1="70.000000" x2="235.600000" y2="70.000000"  style="stroke:black; stroke-linecap:round; stroke-width:0.25;"/>
<line x1="235.600000" y1="34.000000" x2="235.600000" y2="62.000000"  style="stroke:black; stroke-linecap:round; stroke-width:0.25;"/>
<line x1="235.600000" y1="62.000000" x2="235.600000" y2="62.000000"  style="stroke:black; stroke-linecap:round; stroke-width:0.25;"/>
<line x1="235.600000" y1="62.000000" x2="239.600000" y2="62.000000"  style="stroke:black; stroke-linecap:round; stroke-width:0.25;"/>
<line x1="235.600000" y1="70.000000" x2="239.600000" y2="70.000000"  style="stroke:black; stroke-linecap:round; stroke-width:0.25;"/>
<line x1="235.600000" y1="78.000000" x2="239.600000" y2="78.000000"  style="stroke:black; stroke-linecap:round; stroke-width:0.25;"/>
<line x1="235.600000" y1="86.000000" x2="239.600000" y2="86.000000"  style="stroke:black; stroke-linecap:round; stroke-width:0.25;"/>
<line x1="235.600000" y1="94.000000" x2="239.600000" y2="94.000000"  style="stroke:black; stroke-linecap:round; stroke-width:0.25;"/>
<line x1="235.600000" y1="102.000000" x2="239.600000" y2="102.000000"  style="stroke:black; stroke-linecap:round; stroke-width:0.25;"/>
<line x1="235.600000" y1="110.000000" x2="239.600000" y2="110.000000"  style="stroke:black; stroke-linecap:round; stroke-width:0.25;"/>
<line x1="235.600000" y1="118.000000" x2="239.600000" y2="118.000000"  style="stroke:black; stroke-linecap:round; stroke-width:0.25;"/>
<line x1="235.600000" y1="126.000000" x2="239.600000" y2="126.000000"  style="stroke:black; stroke-linecap:round; stroke-width:0.25;"/>
<line x1="235.600000" y1="134.000000" x2="239.600000" y2="134.000000"  style="stroke:black; stroke-linecap:round; stroke-width:0.25;"/>
<line x1="235.600000" y1="142.000000" x2="239.600000" y2="142.000000"  style="stroke:black; stroke-linecap:round; stroke-width:0.25;"/>
<line x1="235.600000" y1="150.000000" x2="239.600000" y2="150.000000"  style="stroke:black; stroke-linecap:round; stroke-width:0.25;"/>
<line x1="235.600000" y1="158.000000" x2="239.600000" y2="158.000000"  style="stroke:black; stroke-linecap:round; stroke-width:0.25;"/>
<line x1="235.600000" y1="166.000000" x2="239.600000" y2="166.000000"  style="stroke:black; stroke-linecap:round; stroke-width:0.25;"/>
<line x1="235.600000" y1="174.000000" x2="239.600000" y2="174.000000"  style="stroke:black; stroke-linecap:round; stroke-width:0.25;"/>
<line x1="235.600000" y1="182.000000" x2="239.600000" y2="182.000000"  style="stroke:black; stroke-linecap:round; stroke-width:0.25;"/>
<line x1="239.600000" y1="62.000000" x2="243.600000" y2="62.000000"  style="stroke:black; stroke-linecap:round; stroke-width:0.25;"/>
<line x1="239.600000" y1="70.000000" x2="243.600000" y2="70.000000"  style="stroke:black; stroke-linecap:round; stroke-width:0.25;"/>
<line x1="239.600000" y1="78.000000" x2="243.600000" y2="78.000000"  style="stroke:black; stroke-linecap:round; stroke-width:0.25;"/>
<line x1="239.600000" y1="86.000000" x2="243.600000" y2="86.000000"  style="stroke:black; stroke-linecap:round; stroke-width:0.25;"/>
<line x1="239.600000" y1="94.000000" x2="243.600000" y2="94.000000"  style="stroke:black; stroke-linecap:round; stroke-width:0.25;"/>
<line x1="239.600000" y1="102.000000" x2="243.600000" y2="102.000000"  style="stroke:black; stroke-linecap:round; stroke-width:0.25;"/>
<line x1="239.600000" y1="110.000000" x2="243.600000" y2="110.000000"  style="stroke:black; stroke-linecap:round; stroke-width:0.25;"/>
<line x1="239.600000" y1="118.000000" x2="243.600000" y2="118.000000"  style="stroke:black; stroke-linecap:round; stroke-width:0.25;"/>
<line x1="239.600000" y1="126.000000" x2="243.600000" y2="126.000000"  style="stroke:black; stroke-linecap:round; stroke-width:0.25;"/>
<line x1="239.600000" y1="134.000000" x2="243.600000" y2="134.000000"  style="stroke:black; stroke-linecap:round; stroke-width:0.25;"/>
<line x1="239.600000" y1="142.000000" x2="243.600000" y2="142.000000"  style="stroke:black; stroke-linecap:round; stroke-width:0.25;"/>
<line x1="239.600000" y1="150.000000" x2="243.600000" y2="150.000000"  style="stroke:black; stroke-linecap:round; stroke-width:0.25;"/>
<line x1="239.600000" y1="158.000000" x2="243.600000" y2="158.000000"  style="stroke:black; stroke-linecap:round; stroke-width:0.25;"/>
<line x1="239.600000" y1="166.000000" x2="243.600000" y2="166.000000"  style="stroke:black; stroke-linecap:round; stroke-width:0.25;"/>
<line x1="239.600000" y1="174.000000" x2="243.600000" y2="174.000000"  style="stroke:black; stroke-linecap:round; stroke-width:0.25;"/>
<line x1="239.600000" y1="182.000000" x2="243.600000" y2="182.000000"  style="stroke:black; stroke-linecap:round; stroke-width:0.25;"/>
<line x1="243.600000" y1="62.000000" x2="253.600000" y2="62.000000"  style="stroke:black; stroke-linecap:round; stroke-width:0.25;"/>
<line x1="243.600000" y1="70.000000" x2="253.600000" y2="70.000000"  style="stroke:black; stroke-linecap:round; stroke-width:0.25;"/>
<line x1="243.600000" y1="78.000000" x2="253.600000" y2="78.000000"  style="stroke:black; stroke-linecap:round; stroke-width:0.25;"/>
<line x1="243.600000" y1="86.000000" x2="253.600000" y2="86.000000"  style="stroke:black; stroke-linecap:round; stroke-width:0.25;"/>
<line x1="243.600000" y1="94.000000" x2="253.600000" y2="94.000000"  style="stroke:black; stroke-linecap:round; stroke-width:0.25;"/>
<line x1="243.600000" y1="102.000000" x2="253.600000" y2="102.000000"  style="stroke:black; stroke-linecap:round; stroke-width:0.25;"/>
<line x1="243.600000" y1="110.000000" x2="253.600000" y2="110.000000"  style="stroke:black; stroke-linecap:round; stroke-width:0.25;"/>
<line x1="243.600000" y1="118.000000" x2="253.600000" y2="118.000000"  style="stroke:black; stroke-linecap:round; stroke-width:0.25;"/>
<line x1="243.600000" y1="126.000000" x2="253.600000" y2="126.000000"  style="stroke:black; stroke-linecap:round; stroke-width:0.25;"/>
<line x1="243.600000" y1="134.000000" x2="253.600000" y2="134.000000"  style="stroke:black; stroke-linecap:round; stroke-width:0.25;"/>
<line x1="243.600000" y1="142.000000" x2="253.600000" y2="142.000000"  style="stroke:black; stroke-linecap:round; stroke-width:0.25;"/>
<line x1="243.600000" y1="150.000000" x2="253.600000" y2="150.000000"  style="stroke:black; stroke-linecap:round; stroke-width:0.25;"/>
<line x1="243.600000" y1="158.000000" x2="253.600000" y2="158.000000"  style="stroke:black; stroke-linecap:round; stroke-width:0.25;"/>
<line x1="243.600000" y1="166.000000" x2="253.600000" y2="166.000000"  style="stroke:black; stroke-linecap:round; stroke-width:0.25;"/>
<line x1="243.600000" y1="174.000000" x2="253.600000" y2="174.000000"  style="stroke:black; stroke-linecap:round; stroke-width:0.25;"/>
<line x1="243.600000" y1="182.000000" x2="253.600000" y2="182.000000"  style="stroke:black; stroke-linecap:round; stroke-width:0.25;"/>
</svg>
