<?xml version="1.0"?>
<svg xmlns="http://www.w3.org/2000/svg" xmlns:xlink="http://www.w3.org/1999/xlink" viewBox="0 0 472.200000 176.000000" width="236.100000mm" height="88.000000mm" version="1.1">
<a xlink:href="rev4-0x7fe54e55bc40.svg">
<rect x="1.000000" y="1.000000" width="471.200000" height="175.000000" rx="0" ry="0" style="stroke:none;fill:#cccccc;"/>
<rect x="0.000000" y="0.000000" width="471.200000" height="175.000000" rx="0" ry="0" style="stroke:none;fill:#ffffff;"/>
</a>
<text x="10.000000" y="7.000000" font-family="Arial" font-size="7"></text>
<a xlink:href="inmeter-0x7fe54e848a40.svg">
<rect x="33.000000" y="77.000000" width="38.700000" height="24.000000" rx="0" ry="0" style="stroke:none;fill:#cccccc;"/>
<rect x="32.000000" y="76.000000" width="38.700000" height="24.000000" rx="0" ry="0" style="stroke:none;fill:#003366;"/>
</a>
<a xlink:href="inmeter-0x7fe54e848a40.svg">
<text x="51.350000" y="90.000000" font-family="Arial" font-size="7" text-anchor="middle" fill="#FFFFFF">inmeter</text>
</a>
<circle cx="34.000000" cy="78.000000" r="1"/>
<line x1="29.000000" y1="87.000000" x2="32.000000" y2="88.000000"  transform="rotate(0.000000,32.000000,88.000000)" style="stroke: black; stroke-width:0.25;"/>
<line x1="29.000000" y1="89.000000" x2="32.000000" y2="88.000000"  transform="rotate(0.000000,32.000000,88.000000)" style="stroke: black; stroke-width:0.25;"/>
<a xlink:href="fdnrev0-0x7fe54e5593b0.svg">
<rect x="121.700000" y="25.000000" width="129.000000" height="128.000000" rx="0" ry="0" style="stroke:none;fill:#cccccc;"/>
<rect x="120.700000" y="24.000000" width="129.000000" height="128.000000" rx="0" ry="0" style="stroke:none;fill:#003366;"/>
</a>
<a xlink:href="fdnrev0-0x7fe54e5593b0.svg">
<text x="185.200000" y="90.000000" font-family="Arial" font-size="7" text-anchor="middle" fill="#FFFFFF">fdnrev0(8192)..., 0.001f)))))</text>
</a>
<circle cx="122.700000" cy="26.000000" r="1"/>
<line x1="117.700000" y1="27.000000" x2="120.700000" y2="28.000000"  transform="rotate(0.000000,120.700000,28.000000)" style="stroke: black; stroke-width:0.25;"/>
<line x1="117.700000" y1="29.000000" x2="120.700000" y2="28.000000"  transform="rotate(0.000000,120.700000,28.000000)" style="stroke: black; stroke-width:0.25;"/>
<line x1="117.700000" y1="35.000000" x2="120.700000" y2="36.000000"  transform="rotate(0.000000,120.700000,36.000000)" style="stroke: black; stroke-width:0.25;"/>
<line x1="117.700000" y1="37.000000" x2="120.700000" y2="36.000000"  transform="rotate(0.000000,120.700000,36.000000)" style="stroke: black; stroke-width:0.25;"/>
<line x1="117.700000" y1="43.000000" x2="120.700000" y2="44.000000"  transform="rotate(0.000000,120.700000,44.000000)" style="stroke: black; stroke-width:0.25;"/>
<line x1="117.700000" y1="45.000000" x2="120.700000" y2="44.000000"  transform="rotate(0.000000,120.700000,44.000000)" style="stroke: black; stroke-width:0.25;"/>
<line x1="117.700000" y1="51.000000" x2="120.700000" y2="52.000000"  transform="rotate(0.000000,120.700000,52.000000)" style="stroke: black; stroke-width:0.25;"/>
<line x1="117.700000" y1="53.000000" x2="120.700000" y2="52.000000"  transform="rotate(0.000000,120.700000,52.000000)" style="stroke: black; stroke-width:0.25;"/>
<line x1="117.700000" y1="59.000000" x2="120.700000" y2="60.000000"  transform="rotate(0.000000,120.700000,60.000000)" style="stroke: black; stroke-width:0.25;"/>
<line x1="117.700000" y1="61.000000" x2="120.700000" y2="60.000000"  transform="rotate(0.000000,120.700000,60.000000)" style="stroke: black; stroke-width:0.25;"/>
<line x1="117.700000" y1="67.000000" x2="120.700000" y2="68.000000"  transform="rotate(0.000000,120.700000,68.000000)" style="stroke: black; stroke-width:0.25;"/>
<line x1="117.700000" y1="69.000000" x2="120.700000" y2="68.000000"  transform="rotate(0.000000,120.700000,68.000000)" style="stroke: black; stroke-width:0.25;"/>
<line x1="117.700000" y1="75.000000" x2="120.700000" y2="76.000000"  transform="rotate(0.000000,120.700000,76.000000)" style="stroke: black; stroke-width:0.25;"/>
<line x1="117.700000" y1="77.000000" x2="120.700000" y2="76.000000"  transform="rotate(0.000000,120.700000,76.000000)" style="stroke: black; stroke-width:0.25;"/>
<line x1="117.700000" y1="83.000000" x2="120.700000" y2="84.000000"  transform="rotate(0.000000,120.700000,84.000000)" style="stroke: black; stroke-width:0.25;"/>
<line x1="117.700000" y1="85.000000" x2="120.700000" y2="84.000000"  transform="rotate(0.000000,120.700000,84.000000)" style="stroke: black; stroke-width:0.25;"/>
<line x1="117.700000" y1="91.000000" x2="120.700000" y2="92.000000"  transform="rotate(0.000000,120.700000,92.000000)" style="stroke: black; stroke-width:0.25;"/>
<line x1="117.700000" y1="93.000000" x2="120.700000" y2="92.000000"  transform="rotate(0.000000,120.700000,92.000000)" style="stroke: black; stroke-width:0.25;"/>
<line x1="117.700000" y1="99.000000" x2="120.700000" y2="100.000000"  transform="rotate(0.000000,120.700000,100.000000)" style="stroke: black; stroke-width:0.25;"/>
<line x1="117.700000" y1="101.000000" x2="120.700000" y2="100.000000"  transform="rotate(0.000000,120.700000,100.000000)" style="stroke: black; stroke-width:0.25;"/>
<line x1="117.700000" y1="107.000000" x2="120.700000" y2="108.000000"  transform="rotate(0.000000,120.700000,108.000000)" style="stroke: black; stroke-width:0.25;"/>
<line x1="117.700000" y1="109.000000" x2="120.700000" y2="108.000000"  transform="rotate(0.000000,120.700000,108.000000)" style="stroke: black; stroke-width:0.25;"/>
<line x1="117.700000" y1="115.000000" x2="120.700000" y2="116.000000"  transform="rotate(0.000000,120.700000,116.000000)" style="stroke: black; stroke-width:0.25;"/>
<line x1="117.700000" y1="117.000000" x2="120.700000" y2="116.000000"  transform="rotate(0.000000,120.700000,116.000000)" style="stroke: black; stroke-width:0.25;"/>
<line x1="117.700000" y1="123.000000" x2="120.700000" y2="124.000000"  transform="rotate(0.000000,120.700000,124.000000)" style="stroke: black; stroke-width:0.25;"/>
<line x1="117.700000" y1="125.000000" x2="120.700000" y2="124.000000"  transform="rotate(0.000000,120.700000,124.000000)" style="stroke: black; stroke-width:0.25;"/>
<line x1="117.700000" y1="131.000000" x2="120.700000" y2="132.000000"  transform="rotate(0.000000,120.700000,132.000000)" style="stroke: black; stroke-width:0.25;"/>
<line x1="117.700000" y1="133.000000" x2="120.700000" y2="132.000000"  transform="rotate(0.000000,120.700000,132.000000)" style="stroke: black; stroke-width:0.25;"/>
<line x1="117.700000" y1="139.000000" x2="120.700000" y2="140.000000"  transform="rotate(0.000000,120.700000,140.000000)" style="stroke: black; stroke-width:0.25;"/>
<line x1="117.700000" y1="141.000000" x2="120.700000" y2="140.000000"  transform="rotate(0.000000,120.700000,140.000000)" style="stroke: black; stroke-width:0.25;"/>
<line x1="117.700000" y1="147.000000" x2="120.700000" y2="148.000000"  transform="rotate(0.000000,120.700000,148.000000)" style="stroke: black; stroke-width:0.25;"/>
<line x1="117.700000" y1="149.000000" x2="120.700000" y2="148.000000"  transform="rotate(0.000000,120.700000,148.000000)" style="stroke: black; stroke-width:0.25;"/>
<a xlink:href="gain-0x7fe54e609d20.svg">
<rect x="312.700000" y="61.000000" width="25.800000" height="24.000000" rx="0" ry="0" style="stroke:none;fill:#cccccc;"/>
<rect x="311.700000" y="60.000000" width="25.800000" height="24.000000" rx="0" ry="0" style="stroke:none;fill:#003366;"/>
</a>
<a xlink:href="gain-0x7fe54e609d20.svg">
<text x="324.600000" y="74.000000" font-family="Arial" font-size="7" text-anchor="middle" fill="#FFFFFF">gain</text>
</a>
<circle cx="313.700000" cy="62.000000" r="1"/>
<rect x="354.500000" y="57.000000" width="24.000000" height="24.000000" rx="0" ry="0" style="stroke:none;fill:#cccccc;"/>
<rect x="353.500000" y="56.000000" width="24.000000" height="24.000000" rx="0" ry="0" style="stroke:none;fill:#4B71A1;"/>
<text x="365.500000" y="70.000000" font-family="Arial" font-size="7" text-anchor="middle" fill="#FFFFFF">*</text>
<circle cx="355.500000" cy="58.000000" r="1"/>
<line x1="350.500000" y1="63.000000" x2="353.500000" y2="64.000000"  transform="rotate(0.000000,353.500000,64.000000)" style="stroke: black; stroke-width:0.25;"/>
<line x1="350.500000" y1="65.000000" x2="353.500000" y2="64.000000"  transform="rotate(0.000000,353.500000,64.000000)" style="stroke: black; stroke-width:0.25;"/>
<line x1="350.500000" y1="71.000000" x2="353.500000" y2="72.000000"  transform="rotate(0.000000,353.500000,72.000000)" style="stroke: black; stroke-width:0.25;"/>
<line x1="350.500000" y1="73.000000" x2="353.500000" y2="72.000000"  transform="rotate(0.000000,353.500000,72.000000)" style="stroke: black; stroke-width:0.25;"/>
<a xlink:href="gain-0x7fe54e609d20.svg">
<rect x="312.700000" y="101.000000" width="25.800000" height="24.000000" rx="0" ry="0" style="stroke:none;fill:#cccccc;"/>
<rect x="311.700000" y="100.000000" width="25.800000" height="24.000000" rx="0" ry="0" style="stroke:none;fill:#003366;"/>
</a>
<a xlink:href="gain-0x7fe54e609d20.svg">
<text x="324.600000" y="114.000000" font-family="Arial" font-size="7" text-anchor="middle" fill="#FFFFFF">gain</text>
</a>
<circle cx="313.700000" cy="102.000000" r="1"/>
<rect x="354.500000" y="97.000000" width="24.000000" height="24.000000" rx="0" ry="0" style="stroke:none;fill:#cccccc;"/>
<rect x="353.500000" y="96.000000" width="24.000000" height="24.000000" rx="0" ry="0" style="stroke:none;fill:#4B71A1;"/>
<text x="365.500000" y="110.000000" font-family="Arial" font-size="7" text-anchor="middle" fill="#FFFFFF">*</text>
<circle cx="355.500000" cy="98.000000" r="1"/>
<line x1="350.500000" y1="103.000000" x2="353.500000" y2="104.000000"  transform="rotate(0.000000,353.500000,104.000000)" style="stroke: black; stroke-width:0.25;"/>
<line x1="350.500000" y1="105.000000" x2="353.500000" y2="104.000000"  transform="rotate(0.000000,353.500000,104.000000)" style="stroke: black; stroke-width:0.25;"/>
<line x1="350.500000" y1="111.000000" x2="353.500000" y2="112.000000"  transform="rotate(0.000000,353.500000,112.000000)" style="stroke: black; stroke-width:0.25;"/>
<line x1="350.500000" y1="113.000000" x2="353.500000" y2="112.000000"  transform="rotate(0.000000,353.500000,112.000000)" style="stroke: black; stroke-width:0.25;"/>
<a xlink:href="outmeter-0x7fe54e55b670.svg">
<rect x="394.500000" y="61.000000" width="38.700000" height="24.000000" rx="0" ry="0" style="stroke:none;fill:#cccccc;"/>
<rect x="393.500000" y="60.000000" width="38.700000" height="24.000000" rx="0" ry="0" style="stroke:none;fill:#003366;"/>
</a>
<a xlink:href="outmeter-0x7fe54e55b670.svg">
<text x="412.850000" y="74.000000" font-family="Arial" font-size="7" text-anchor="middle" fill="#FFFFFF">outmeter</text>
</a>
<circle cx="395.500000" cy="62.000000" r="1"/>
<line x1="390.500000" y1="71.000000" x2="393.500000" y2="72.000000"  transform="rotate(0.000000,393.500000,72.000000)" style="stroke: black; stroke-width:0.25;"/>
<line x1="390.500000" y1="73.000000" x2="393.500000" y2="72.000000"  transform="rotate(0.000000,393.500000,72.000000)" style="stroke: black; stroke-width:0.25;"/>
<a xlink:href="outmeter-0x7fe54e55b670.svg">
<rect x="394.500000" y="93.000000" width="38.700000" height="24.000000" rx="0" ry="0" style="stroke:none;fill:#cccccc;"/>
<rect x="393.500000" y="92.000000" width="38.700000" height="24.000000" rx="0" ry="0" style="stroke:none;fill:#003366;"/>
</a>
<a xlink:href="outmeter-0x7fe54e55b670.svg">
<text x="412.850000" y="106.000000" font-family="Arial" font-size="7" text-anchor="middle" fill="#FFFFFF">outmeter</text>
</a>
<circle cx="395.500000" cy="94.000000" r="1"/>
<line x1="390.500000" y1="103.000000" x2="393.500000" y2="104.000000"  transform="rotate(0.000000,393.500000,104.000000)" style="stroke: black; stroke-width:0.25;"/>
<line x1="390.500000" y1="105.000000" x2="393.500000" y2="104.000000"  transform="rotate(0.000000,393.500000,104.000000)" style="stroke: black; stroke-width:0.25;"/>
<line x1="15.000000" y1="15.000000" x2="15.000000" y2="161.000000"  style="stroke: black; stroke-linecap:round; stroke-width:0.25; stroke-dasharray:3,3;"/>
<line x1="15.000000" y1="161.000000" x2="457.200000" y2="161.000000"  style="stroke: black; stroke-linecap:round; stroke-width:0.25; stroke-dasharray:3,3;"/>
<line x1="457.200000" y1="161.000000" x2="457.200000" y2="15.000000"  style="stroke: black; stroke-linecap:round; stroke-width:0.25; stroke-dasharray:3,3;"/>
<line x1="15.000000" y1="15.000000" x2="20.000000" y2="15.000000"  style="stroke: black; stroke-linecap:round; stroke-width:0.25; stroke-dasharray:3,3;"/>
<line x1="87.725000" y1="15.000000" x2="457.200000" y2="15.000000"  style="stroke: black; stroke-linecap:round; stroke-width:0.25; stroke-dasharray:3,3;"/>
<text x="20.000000" y="17.000000" font-family="Arial" font-size="7">gs_fdnrev(16)(5)(3)</text>
<line x1="459.200000" y1="83.000000" x2="462.200000" y2="84.000000"  transform="rotate(0.000000,462.200000,84.000000)" style="stroke: black; stroke-width:0.25;"/>
<line x1="459.200000" y1="85.000000" x2="462.200000" y2="84.000000"  transform="rotate(0.000000,462.200000,84.000000)" style="stroke: black; stroke-width:0.25;"/>
<line x1="459.200000" y1="91.000000" x2="462.200000" y2="92.000000"  transform="rotate(0.000000,462.200000,92.000000)" style="stroke: black; stroke-width:0.25;"/>
<line x1="459.200000" y1="93.000000" x2="462.200000" y2="92.000000"  transform="rotate(0.000000,462.200000,92.000000)" style="stroke: black; stroke-width:0.25;"/>
<line x1="10.000000" y1="88.000000" x2="20.000000" y2="88.000000"  style="stroke:black; stroke-linecap:round; stroke-width:0.25;"/>
<line x1="20.000000" y1="88.000000" x2="24.000000" y2="88.000000"  style="stroke:black; stroke-linecap:round; stroke-width:0.25;"/>
<line x1="24.000000" y1="88.000000" x2="28.000000" y2="88.000000"  style="stroke:black; stroke-linecap:round; stroke-width:0.25;"/>
<line x1="28.000000" y1="88.000000" x2="28.000000" y2="88.000000"  style="stroke:black; stroke-linecap:round; stroke-width:0.25;"/>
<line x1="28.000000" y1="88.000000" x2="32.000000" y2="88.000000"  style="stroke:black; stroke-linecap:round; stroke-width:0.25;"/>
<line x1="70.700000" y1="88.000000" x2="74.700000" y2="88.000000"  style="stroke:black; stroke-linecap:round; stroke-width:0.25;"/>
<line x1="74.700000" y1="88.000000" x2="116.700000" y2="28.000000"  style="stroke:black; stroke-linecap:round; stroke-width:0.25;"/>
<line x1="74.700000" y1="88.000000" x2="116.700000" y2="36.000000"  style="stroke:black; stroke-linecap:round; stroke-width:0.25;"/>
<line x1="74.700000" y1="88.000000" x2="116.700000" y2="44.000000"  style="stroke:black; stroke-linecap:round; stroke-width:0.25;"/>
<line x1="74.700000" y1="88.000000" x2="116.700000" y2="52.000000"  style="stroke:black; stroke-linecap:round; stroke-width:0.25;"/>
<line x1="74.700000" y1="88.000000" x2="116.700000" y2="60.000000"  style="stroke:black; stroke-linecap:round; stroke-width:0.25;"/>
<line x1="74.700000" y1="88.000000" x2="116.700000" y2="68.000000"  style="stroke:black; stroke-linecap:round; stroke-width:0.25;"/>
<line x1="74.700000" y1="88.000000" x2="116.700000" y2="76.000000"  style="stroke:black; stroke-linecap:round; stroke-width:0.25;"/>
<line x1="74.700000" y1="88.000000" x2="116.700000" y2="84.000000"  style="stroke:black; stroke-linecap:round; stroke-width:0.25;"/>
<line x1="74.700000" y1="88.000000" x2="116.700000" y2="92.000000"  style="stroke:black; stroke-linecap:round; stroke-width:0.25;"/>
<line x1="74.700000" y1="88.000000" x2="116.700000" y2="100.000000"  style="stroke:black; stroke-linecap:round; stroke-width:0.25;"/>
<line x1="74.700000" y1="88.000000" x2="116.700000" y2="108.000000"  style="stroke:black; stroke-linecap:round; stroke-width:0.25;"/>
<line x1="74.700000" y1="88.000000" x2="116.700000" y2="116.000000"  style="stroke:black; stroke-linecap:round; stroke-width:0.25;"/>
<line x1="74.700000" y1="88.000000" x2="116.700000" y2="124.000000"  style="stroke:black; stroke-linecap:round; stroke-width:0.25;"/>
<line x1="74.700000" y1="88.000000" x2="116.700000" y2="132.000000"  style="stroke:black; stroke-linecap:round; stroke-width:0.25;"/>
<line x1="74.700000" y1="88.000000" x2="116.700000" y2="140.000000"  style="stroke:black; stroke-linecap:round; stroke-width:0.25;"/>
<line x1="74.700000" y1="88.000000" x2="116.700000" y2="148.000000"  style="stroke:black; stroke-linecap:round; stroke-width:0.25;"/>
<line x1="116.700000" y1="28.000000" x2="120.700000" y2="28.000000"  style="stroke:black; stroke-linecap:round; stroke-width:0.25;"/>
<line x1="116.700000" y1="36.000000" x2="120.700000" y2="36.000000"  style="stroke:black; stroke-linecap:round; stroke-width:0.25;"/>
<line x1="116.700000" y1="44.000000" x2="120.700000" y2="44.000000"  style="stroke:black; stroke-linecap:round; stroke-width:0.25;"/>
<line x1="116.700000" y1="52.000000" x2="120.700000" y2="52.000000"  style="stroke:black; stroke-linecap:round; stroke-width:0.25;"/>
<line x1="116.700000" y1="60.000000" x2="120.700000" y2="60.000000"  style="stroke:black; stroke-linecap:round; stroke-width:0.25;"/>
<line x1="116.700000" y1="68.000000" x2="120.700000" y2="68.000000"  style="stroke:black; stroke-linecap:round; stroke-width:0.25;"/>
<line x1="116.700000" y1="76.000000" x2="120.700000" y2="76.000000"  style="stroke:black; stroke-linecap:round; stroke-width:0.25;"/>
<line x1="116.700000" y1="84.000000" x2="120.700000" y2="84.000000"  style="stroke:black; stroke-linecap:round; stroke-width:0.25;"/>
<line x1="116.700000" y1="92.000000" x2="120.700000" y2="92.000000"  style="stroke:black; stroke-linecap:round; stroke-width:0.25;"/>
<line x1="116.700000" y1="100.000000" x2="120.700000" y2="100.000000"  style="stroke:black; stroke-linecap:round; stroke-width:0.25;"/>
<line x1="116.700000" y1="108.000000" x2="120.700000" y2="108.000000"  style="stroke:black; stroke-linecap:round; stroke-width:0.25;"/>
<line x1="116.700000" y1="116.000000" x2="120.700000" y2="116.000000"  style="stroke:black; stroke-linecap:round; stroke-width:0.25;"/>
<line x1="116.700000" y1="124.000000" x2="120.700000" y2="124.000000"  style="stroke:black; stroke-linecap:round; stroke-width:0.25;"/>
<line x1="116.700000" y1="132.000000" x2="120.700000" y2="132.000000"  style="stroke:black; stroke-linecap:round; stroke-width:0.25;"/>
<line x1="116.700000" y1="140.000000" x2="120.700000" y2="140.000000"  style="stroke:black; stroke-linecap:round; stroke-width:0.25;"/>
<line x1="116.700000" y1="148.000000" x2="120.700000" y2="148.000000"  style="stroke:black; stroke-linecap:round; stroke-width:0.25;"/>
<line x1="249.700000" y1="28.000000" x2="253.700000" y2="28.000000"  style="stroke:black; stroke-linecap:round; stroke-width:0.25;"/>
<line x1="249.700000" y1="36.000000" x2="253.700000" y2="36.000000"  style="stroke:black; stroke-linecap:round; stroke-width:0.25;"/>
<line x1="249.700000" y1="44.000000" x2="253.700000" y2="44.000000"  style="stroke:black; stroke-linecap:round; stroke-width:0.25;"/>
<line x1="249.700000" y1="52.000000" x2="253.700000" y2="52.000000"  style="stroke:black; stroke-linecap:round; stroke-width:0.25;"/>
<line x1="249.700000" y1="60.000000" x2="253.700000" y2="60.000000"  style="stroke:black; stroke-linecap:round; stroke-width:0.25;"/>
<line x1="249.700000" y1="68.000000" x2="253.700000" y2="68.000000"  style="stroke:black; stroke-linecap:round; stroke-width:0.25;"/>
<line x1="249.700000" y1="76.000000" x2="253.700000" y2="76.000000"  style="stroke:black; stroke-linecap:round; stroke-width:0.25;"/>
<line x1="249.700000" y1="84.000000" x2="253.700000" y2="84.000000"  style="stroke:black; stroke-linecap:round; stroke-width:0.25;"/>
<line x1="249.700000" y1="92.000000" x2="253.700000" y2="92.000000"  style="stroke:black; stroke-linecap:round; stroke-width:0.25;"/>
<line x1="249.700000" y1="100.000000" x2="253.700000" y2="100.000000"  style="stroke:black; stroke-linecap:round; stroke-width:0.25;"/>
<line x1="249.700000" y1="108.000000" x2="253.700000" y2="108.000000"  style="stroke:black; stroke-linecap:round; stroke-width:0.25;"/>
<line x1="249.700000" y1="116.000000" x2="253.700000" y2="116.000000"  style="stroke:black; stroke-linecap:round; stroke-width:0.25;"/>
<line x1="249.700000" y1="124.000000" x2="253.700000" y2="124.000000"  style="stroke:black; stroke-linecap:round; stroke-width:0.25;"/>
<line x1="249.700000" y1="132.000000" x2="253.700000" y2="132.000000"  style="stroke:black; stroke-linecap:round; stroke-width:0.25;"/>
<line x1="249.700000" y1="140.000000" x2="253.700000" y2="140.000000"  style="stroke:black; stroke-linecap:round; stroke-width:0.25;"/>
<line x1="249.700000" y1="148.000000" x2="253.700000" y2="148.000000"  style="stroke:black; stroke-linecap:round; stroke-width:0.25;"/>
<line x1="253.700000" y1="28.000000" x2="307.700000" y2="52.000000"  style="stroke:black; stroke-linecap:round; stroke-width:0.25;"/>
<line x1="253.700000" y1="36.000000" x2="307.700000" y2="92.000000"  style="stroke:black; stroke-linecap:round; stroke-width:0.25;"/>
<line x1="253.700000" y1="44.000000" x2="307.700000" y2="52.000000"  style="stroke:black; stroke-linecap:round; stroke-width:0.25;"/>
<line x1="253.700000" y1="52.000000" x2="307.700000" y2="92.000000"  style="stroke:black; stroke-linecap:round; stroke-width:0.25;"/>
<line x1="253.700000" y1="60.000000" x2="307.700000" y2="52.000000"  style="stroke:black; stroke-linecap:round; stroke-width:0.25;"/>
<line x1="253.700000" y1="68.000000" x2="307.700000" y2="92.000000"  style="stroke:black; stroke-linecap:round; stroke-width:0.25;"/>
<line x1="253.700000" y1="76.000000" x2="307.700000" y2="52.000000"  style="stroke:black; stroke-linecap:round; stroke-width:0.25;"/>
<line x1="253.700000" y1="84.000000" x2="307.700000" y2="92.000000"  style="stroke:black; stroke-linecap:round; stroke-width:0.25;"/>
<line x1="253.700000" y1="92.000000" x2="307.700000" y2="52.000000"  style="stroke:black; stroke-linecap:round; stroke-width:0.25;"/>
<line x1="253.700000" y1="100.000000" x2="307.700000" y2="92.000000"  style="stroke:black; stroke-linecap:round; stroke-width:0.25;"/>
<line x1="253.700000" y1="108.000000" x2="307.700000" y2="52.000000"  style="stroke:black; stroke-linecap:round; stroke-width:0.25;"/>
<line x1="253.700000" y1="116.000000" x2="307.700000" y2="92.000000"  style="stroke:black; stroke-linecap:round; stroke-width:0.25;"/>
<line x1="253.700000" y1="124.000000" x2="307.700000" y2="52.000000"  style="stroke:black; stroke-linecap:round; stroke-width:0.25;"/>
<line x1="253.700000" y1="132.000000" x2="307.700000" y2="92.000000"  style="stroke:black; stroke-linecap:round; stroke-width:0.25;"/>
<line x1="253.700000" y1="140.000000" x2="307.700000" y2="52.000000"  style="stroke:black; stroke-linecap:round; stroke-width:0.25;"/>
<line x1="253.700000" y1="148.000000" x2="307.700000" y2="92.000000"  style="stroke:black; stroke-linecap:round; stroke-width:0.25;"/>
<line x1="307.700000" y1="52.000000" x2="324.600000" y2="52.000000"  style="stroke:black; stroke-linecap:round; stroke-width:0.25;"/>
<line x1="307.700000" y1="92.000000" x2="324.600000" y2="92.000000"  style="stroke:black; stroke-linecap:round; stroke-width:0.25;"/>
<line x1="324.600000" y1="52.000000" x2="341.500000" y2="52.000000"  style="stroke:black; stroke-linecap:round; stroke-width:0.25;"/>
<line x1="324.600000" y1="92.000000" x2="341.500000" y2="92.000000"  style="stroke:black; stroke-linecap:round; stroke-width:0.25;"/>
<line x1="337.500000" y1="72.000000" x2="341.500000" y2="72.000000"  style="stroke:black; stroke-linecap:round; stroke-width:0.25;"/>
<line x1="337.500000" y1="112.000000" x2="341.500000" y2="112.000000"  style="stroke:black; stroke-linecap:round; stroke-width:0.25;"/>
<line x1="341.500000" y1="52.000000" x2="349.500000" y2="52.000000"  style="stroke:black; stroke-linecap:round; stroke-width:0.25;"/>
<line x1="341.500000" y1="92.000000" x2="349.500000" y2="92.000000"  style="stroke:black; stroke-linecap:round; stroke-width:0.25;"/>
<line x1="341.500000" y1="72.000000" x2="349.500000" y2="72.000000"  style="stroke:black; stroke-linecap:round; stroke-width:0.25;"/>
<line x1="341.500000" y1="112.000000" x2="349.500000" y2="112.000000"  style="stroke:black; stroke-linecap:round; stroke-width:0.25;"/>
<line x1="349.500000" y1="52.000000" x2="349.500000" y2="64.000000"  style="stroke:black; stroke-linecap:round; stroke-width:0.25;"/>
<line x1="349.500000" y1="64.000000" x2="349.500000" y2="64.000000"  style="stroke:black; stroke-linecap:round; stroke-width:0.25;"/>
<line x1="349.500000" y1="92.000000" x2="349.500000" y2="104.000000"  style="stroke:black; stroke-linecap:round; stroke-width:0.25;"/>
<line x1="349.500000" y1="104.000000" x2="349.500000" y2="104.000000"  style="stroke:black; stroke-linecap:round; stroke-width:0.25;"/>
<line x1="349.500000" y1="64.000000" x2="353.500000" y2="64.000000"  style="stroke:black; stroke-linecap:round; stroke-width:0.25;"/>
<line x1="349.500000" y1="72.000000" x2="353.500000" y2="72.000000"  style="stroke:black; stroke-linecap:round; stroke-width:0.25;"/>
<line x1="349.500000" y1="104.000000" x2="353.500000" y2="104.000000"  style="stroke:black; stroke-linecap:round; stroke-width:0.25;"/>
<line x1="349.500000" y1="112.000000" x2="353.500000" y2="112.000000"  style="stroke:black; stroke-linecap:round; stroke-width:0.25;"/>
<line x1="377.500000" y1="68.000000" x2="381.500000" y2="68.000000"  style="stroke:black; stroke-linecap:round; stroke-width:0.25;"/>
<line x1="377.500000" y1="108.000000" x2="381.500000" y2="108.000000"  style="stroke:black; stroke-linecap:round; stroke-width:0.25;"/>
<line x1="381.500000" y1="68.000000" x2="389.500000" y2="68.000000"  style="stroke:black; stroke-linecap:round; stroke-width:0.25;"/>
<line x1="381.500000" y1="104.000000" x2="389.500000" y2="104.000000"  style="stroke:black; stroke-linecap:round; stroke-width:0.25;"/>
<line x1="381.500000" y1="108.000000" x2="381.500000" y2="104.000000"  style="stroke:black; stroke-linecap:round; stroke-width:0.25;"/>
<line x1="381.500000" y1="108.000000" x2="381.500000" y2="108.000000"  style="stroke:black; stroke-linecap:round; stroke-width:0.25;"/>
<line x1="389.500000" y1="68.000000" x2="389.500000" y2="72.000000"  style="stroke:black; stroke-linecap:round; stroke-width:0.25;"/>
<line x1="389.500000" y1="72.000000" x2="389.500000" y2="72.000000"  style="stroke:black; stroke-linecap:round; stroke-width:0.25;"/>
<line x1="389.500000" y1="72.000000" x2="393.500000" y2="72.000000"  style="stroke:black; stroke-linecap:round; stroke-width:0.25;"/>
<line x1="389.500000" y1="104.000000" x2="393.500000" y2="104.000000"  style="stroke:black; stroke-linecap:round; stroke-width:0.25;"/>
<line x1="432.200000" y1="72.000000" x2="436.200000" y2="72.000000"  style="stroke:black; stroke-linecap:round; stroke-width:0.25;"/>
<line x1="432.200000" y1="104.000000" x2="436.200000" y2="104.000000"  style="stroke:black; stroke-linecap:round; stroke-width:0.25;"/>
<line x1="436.200000" y1="72.000000" x2="444.200000" y2="72.000000"  style="stroke:black; stroke-linecap:round; stroke-width:0.25;"/>
<line x1="436.200000" y1="92.000000" x2="444.200000" y2="92.000000"  style="stroke:black; stroke-linecap:round; stroke-width:0.25;"/>
<line x1="436.200000" y1="104.000000" x2="436.200000" y2="92.000000"  style="stroke:black; stroke-linecap:round; stroke-width:0.25;"/>
<line x1="436.200000" y1="104.000000" x2="436.200000" y2="104.000000"  style="stroke:black; stroke-linecap:round; stroke-width:0.25;"/>
<line x1="444.200000" y1="72.000000" x2="444.200000" y2="84.000000"  style="stroke:black; stroke-linecap:round; stroke-width:0.25;"/>
<line x1="444.200000" y1="84.000000" x2="444.200000" y2="84.000000"  style="stroke:black; stroke-linecap:round; stroke-width:0.25;"/>
<line x1="444.200000" y1="84.000000" x2="448.200000" y2="84.000000"  style="stroke:black; stroke-linecap:round; stroke-width:0.25;"/>
<line x1="444.200000" y1="92.000000" x2="448.200000" y2="92.000000"  style="stroke:black; stroke-linecap:round; stroke-width:0.25;"/>
<line x1="448.200000" y1="84.000000" x2="452.200000" y2="84.000000"  style="stroke:black; stroke-linecap:round; stroke-width:0.25;"/>
<line x1="448.200000" y1="92.000000" x2="452.200000" y2="92.000000"  style="stroke:black; stroke-linecap:round; stroke-width:0.25;"/>
<line x1="452.200000" y1="84.000000" x2="462.200000" y2="84.000000"  style="stroke:black; stroke-linecap:round; stroke-width:0.25;"/>
<line x1="452.200000" y1="92.000000" x2="462.200000" y2="92.000000"  style="stroke:black; stroke-linecap:round; stroke-width:0.25;"/>
</svg>
