<?xml version="1.0"?>
<svg xmlns="http://www.w3.org/2000/svg" xmlns:xlink="http://www.w3.org/1999/xlink" viewBox="0 0 425.500000 176.000000" width="212.750000mm" height="88.000000mm" version="1.1">
<a xlink:href="scaler-0x7f863d725750.svg">
<rect x="1.000000" y="1.000000" width="424.500000" height="175.000000" rx="0" ry="0" style="stroke:none;fill:#cccccc;"/>
<rect x="0.000000" y="0.000000" width="424.500000" height="175.000000" rx="0" ry="0" style="stroke:none;fill:#ffffff;"/>
</a>
<text x="10.000000" y="7.000000" font-family="Arial" font-size="7"></text>
<a xlink:href="decimal-0x7f863d721080.svg">
<rect x="186.400000" y="129.000000" width="38.700000" height="24.000000" rx="0" ry="0" style="stroke:none;fill:#cccccc;"/>
<rect x="185.400000" y="128.000000" width="38.700000" height="24.000000" rx="0" ry="0" style="stroke:none;fill:#003366;"/>
</a>
<a xlink:href="decimal-0x7f863d721080.svg">
<text x="204.750000" y="142.000000" font-family="Arial" font-size="7" text-anchor="middle" fill="#FFFFFF">decimal</text>
</a>
<circle cx="187.400000" cy="130.000000" r="1"/>
<line x1="182.400000" y1="139.000000" x2="185.400000" y2="140.000000"  transform="rotate(0.000000,185.400000,140.000000)" style="stroke: black; stroke-width:0.25;"/>
<line x1="182.400000" y1="141.000000" x2="185.400000" y2="140.000000"  transform="rotate(0.000000,185.400000,140.000000)" style="stroke: black; stroke-width:0.25;"/>
<rect x="269.750000" y="89.000000" width="24.000000" height="24.000000" rx="0" ry="0" style="stroke:none;fill:#cccccc;"/>
<rect x="268.750000" y="88.000000" width="24.000000" height="24.000000" rx="0" ry="0" style="stroke:none;fill:#f44800;"/>
<text x="280.750000" y="102.000000" font-family="Arial" font-size="7" text-anchor="middle" fill="#FFFFFF">1</text>
<circle cx="290.750000" cy="110.000000" r="1"/>
<rect x="185.000000" y="57.000000" width="193.500000" height="24.000000" rx="0" ry="0" style="stroke:none;fill:#cccccc;"/>
<rect x="184.000000" y="56.000000" width="193.500000" height="24.000000" rx="0" ry="0" style="stroke:none;fill:#477881;"/>
<text x="280.750000" y="70.000000" font-family="Arial" font-size="7" text-anchor="middle" fill="#FFFFFF">hslider(h3 time, 3.0f, -23.0f, 23.0f, 0.01f)</text>
<circle cx="375.500000" cy="78.000000" r="1"/>
<rect x="145.000000" y="73.000000" width="24.000000" height="24.000000" rx="0" ry="0" style="stroke:none;fill:#cccccc;"/>
<rect x="144.000000" y="72.000000" width="24.000000" height="24.000000" rx="0" ry="0" style="stroke:none;fill:#4B71A1;"/>
<text x="156.000000" y="86.000000" font-family="Arial" font-size="7" text-anchor="middle" fill="#FFFFFF">/</text>
<circle cx="166.000000" cy="94.000000" r="1"/>
<line x1="171.000000" y1="87.000000" x2="168.000000" y2="88.000000"  transform="rotate(0.000000,168.000000,88.000000)" style="stroke: black; stroke-width:0.25;"/>
<line x1="171.000000" y1="89.000000" x2="168.000000" y2="88.000000"  transform="rotate(0.000000,168.000000,88.000000)" style="stroke: black; stroke-width:0.25;"/>
<line x1="171.000000" y1="79.000000" x2="168.000000" y2="80.000000"  transform="rotate(0.000000,168.000000,80.000000)" style="stroke: black; stroke-width:0.25;"/>
<line x1="171.000000" y1="81.000000" x2="168.000000" y2="80.000000"  transform="rotate(0.000000,168.000000,80.000000)" style="stroke: black; stroke-width:0.25;"/>
<rect x="113.000000" y="73.000000" width="24.000000" height="24.000000" rx="0" ry="0" style="stroke:none;fill:#cccccc;"/>
<rect x="112.000000" y="72.000000" width="24.000000" height="24.000000" rx="0" ry="0" style="stroke:none;fill:#4B71A1;"/>
<text x="124.000000" y="86.000000" font-family="Arial" font-size="7" text-anchor="middle" fill="#FFFFFF">mem</text>
<circle cx="134.000000" cy="94.000000" r="1"/>
<line x1="139.000000" y1="83.000000" x2="136.000000" y2="84.000000"  transform="rotate(0.000000,136.000000,84.000000)" style="stroke: black; stroke-width:0.25;"/>
<line x1="139.000000" y1="85.000000" x2="136.000000" y2="84.000000"  transform="rotate(0.000000,136.000000,84.000000)" style="stroke: black; stroke-width:0.25;"/>
<a xlink:href="SR-0x7f8634708690.svg">
<rect x="233.750000" y="25.000000" width="24.000000" height="24.000000" rx="0" ry="0" style="stroke:none;fill:#cccccc;"/>
<rect x="232.750000" y="24.000000" width="24.000000" height="24.000000" rx="0" ry="0" style="stroke:none;fill:#003366;"/>
</a>
<a xlink:href="SR-0x7f8634708690.svg">
<text x="244.750000" y="38.000000" font-family="Arial" font-size="7" text-anchor="middle" fill="#FFFFFF">SR</text>
</a>
<circle cx="254.750000" cy="46.000000" r="1"/>
<rect x="73.000000" y="57.000000" width="24.000000" height="24.000000" rx="0" ry="0" style="stroke:none;fill:#cccccc;"/>
<rect x="72.000000" y="56.000000" width="24.000000" height="24.000000" rx="0" ry="0" style="stroke:none;fill:#4B71A1;"/>
<text x="84.000000" y="70.000000" font-family="Arial" font-size="7" text-anchor="middle" fill="#FFFFFF">/</text>
<circle cx="94.000000" cy="78.000000" r="1"/>
<line x1="99.000000" y1="71.000000" x2="96.000000" y2="72.000000"  transform="rotate(0.000000,96.000000,72.000000)" style="stroke: black; stroke-width:0.25;"/>
<line x1="99.000000" y1="73.000000" x2="96.000000" y2="72.000000"  transform="rotate(0.000000,96.000000,72.000000)" style="stroke: black; stroke-width:0.25;"/>
<line x1="99.000000" y1="63.000000" x2="96.000000" y2="64.000000"  transform="rotate(0.000000,96.000000,64.000000)" style="stroke: black; stroke-width:0.25;"/>
<line x1="99.000000" y1="65.000000" x2="96.000000" y2="64.000000"  transform="rotate(0.000000,96.000000,64.000000)" style="stroke: black; stroke-width:0.25;"/>
<rect x="33.000000" y="61.000000" width="24.000000" height="24.000000" rx="0" ry="0" style="stroke:none;fill:#cccccc;"/>
<rect x="32.000000" y="60.000000" width="24.000000" height="24.000000" rx="0" ry="0" style="stroke:none;fill:#4B71A1;"/>
<text x="44.000000" y="74.000000" font-family="Arial" font-size="7" text-anchor="middle" fill="#FFFFFF">+</text>
<circle cx="54.000000" cy="82.000000" r="1"/>
<line x1="59.000000" y1="75.000000" x2="56.000000" y2="76.000000"  transform="rotate(0.000000,56.000000,76.000000)" style="stroke: black; stroke-width:0.25;"/>
<line x1="59.000000" y1="77.000000" x2="56.000000" y2="76.000000"  transform="rotate(0.000000,56.000000,76.000000)" style="stroke: black; stroke-width:0.25;"/>
<line x1="59.000000" y1="67.000000" x2="56.000000" y2="68.000000"  transform="rotate(0.000000,56.000000,68.000000)" style="stroke: black; stroke-width:0.25;"/>
<line x1="59.000000" y1="69.000000" x2="56.000000" y2="68.000000"  transform="rotate(0.000000,56.000000,68.000000)" style="stroke: black; stroke-width:0.25;"/>
<line x1="379.500000" y1="140.000000" x2="379.500000" y2="136.000000"  style="stroke:black; stroke-linecap:round; stroke-width:0.25;"/>
<line x1="379.500000" y1="136.000000" x2="383.500000" y2="136.000000"  style="stroke:black; stroke-linecap:round; stroke-width:0.25;"/>
<line x1="383.500000" y1="136.000000" x2="383.500000" y2="140.000000"  style="stroke:black; stroke-linecap:round; stroke-width:0.25;"/>
<line x1="15.000000" y1="15.000000" x2="15.000000" y2="161.000000"  style="stroke: black; stroke-linecap:round; stroke-width:0.25; stroke-dasharray:3,3;"/>
<line x1="15.000000" y1="161.000000" x2="410.500000" y2="161.000000"  style="stroke: black; stroke-linecap:round; stroke-width:0.25; stroke-dasharray:3,3;"/>
<line x1="410.500000" y1="161.000000" x2="410.500000" y2="15.000000"  style="stroke: black; stroke-linecap:round; stroke-width:0.25; stroke-dasharray:3,3;"/>
<line x1="15.000000" y1="15.000000" x2="20.000000" y2="15.000000"  style="stroke: black; stroke-linecap:round; stroke-width:0.25; stroke-dasharray:3,3;"/>
<line x1="45.800000" y1="15.000000" x2="410.500000" y2="15.000000"  style="stroke: black; stroke-linecap:round; stroke-width:0.25; stroke-dasharray:3,3;"/>
<text x="20.000000" y="17.000000" font-family="Arial" font-size="7">h3ramp</text>
<line x1="412.500000" y1="87.000000" x2="415.500000" y2="88.000000"  transform="rotate(0.000000,415.500000,88.000000)" style="stroke: black; stroke-width:0.25;"/>
<line x1="412.500000" y1="89.000000" x2="415.500000" y2="88.000000"  transform="rotate(0.000000,415.500000,88.000000)" style="stroke: black; stroke-width:0.25;"/>
<line x1="28.000000" y1="72.000000" x2="28.000000" y2="72.000000"  style="stroke:black; stroke-linecap:round; stroke-width:0.25;"/>
<line x1="28.000000" y1="72.000000" x2="28.000000" y2="140.000000"  style="stroke:black; stroke-linecap:round; stroke-width:0.25;"/>
<line x1="28.000000" y1="140.000000" x2="28.000000" y2="140.000000"  style="stroke:black; stroke-linecap:round; stroke-width:0.25;"/>
<line x1="28.000000" y1="140.000000" x2="181.400000" y2="140.000000"  style="stroke:black; stroke-linecap:round; stroke-width:0.25;"/>
<line x1="32.000000" y1="72.000000" x2="28.000000" y2="72.000000"  style="stroke:black; stroke-linecap:round; stroke-width:0.25;"/>
<line x1="60.000000" y1="68.000000" x2="56.000000" y2="68.000000"  style="stroke:black; stroke-linecap:round; stroke-width:0.25;"/>
<line x1="60.000000" y1="76.000000" x2="56.000000" y2="76.000000"  style="stroke:black; stroke-linecap:round; stroke-width:0.25;"/>
<line x1="60.000000" y1="76.000000" x2="60.000000" y2="76.000000"  style="stroke:black; stroke-linecap:round; stroke-width:0.25;"/>
<line x1="60.000000" y1="120.000000" x2="60.000000" y2="76.000000"  style="stroke:black; stroke-linecap:round; stroke-width:0.25;"/>
<line x1="68.000000" y1="68.000000" x2="60.000000" y2="68.000000"  style="stroke:black; stroke-linecap:round; stroke-width:0.25;"/>
<line x1="68.000000" y1="120.000000" x2="60.000000" y2="120.000000"  style="stroke:black; stroke-linecap:round; stroke-width:0.25;"/>
<line x1="72.000000" y1="68.000000" x2="68.000000" y2="68.000000"  style="stroke:black; stroke-linecap:round; stroke-width:0.25;"/>
<line x1="100.000000" y1="64.000000" x2="96.000000" y2="64.000000"  style="stroke:black; stroke-linecap:round; stroke-width:0.25;"/>
<line x1="100.000000" y1="72.000000" x2="96.000000" y2="72.000000"  style="stroke:black; stroke-linecap:round; stroke-width:0.25;"/>
<line x1="100.000000" y1="72.000000" x2="100.000000" y2="72.000000"  style="stroke:black; stroke-linecap:round; stroke-width:0.25;"/>
<line x1="100.000000" y1="84.000000" x2="100.000000" y2="72.000000"  style="stroke:black; stroke-linecap:round; stroke-width:0.25;"/>
<line x1="108.000000" y1="36.000000" x2="108.000000" y2="36.000000"  style="stroke:black; stroke-linecap:round; stroke-width:0.25;"/>
<line x1="108.000000" y1="36.000000" x2="108.000000" y2="64.000000"  style="stroke:black; stroke-linecap:round; stroke-width:0.25;"/>
<line x1="108.000000" y1="64.000000" x2="100.000000" y2="64.000000"  style="stroke:black; stroke-linecap:round; stroke-width:0.25;"/>
<line x1="108.000000" y1="84.000000" x2="100.000000" y2="84.000000"  style="stroke:black; stroke-linecap:round; stroke-width:0.25;"/>
<line x1="112.000000" y1="84.000000" x2="108.000000" y2="84.000000"  style="stroke:black; stroke-linecap:round; stroke-width:0.25;"/>
<line x1="140.000000" y1="84.000000" x2="136.000000" y2="84.000000"  style="stroke:black; stroke-linecap:round; stroke-width:0.25;"/>
<line x1="140.000000" y1="84.000000" x2="140.000000" y2="84.000000"  style="stroke:black; stroke-linecap:round; stroke-width:0.25;"/>
<line x1="144.000000" y1="84.000000" x2="140.000000" y2="84.000000"  style="stroke:black; stroke-linecap:round; stroke-width:0.25;"/>
<line x1="172.000000" y1="80.000000" x2="168.000000" y2="80.000000"  style="stroke:black; stroke-linecap:round; stroke-width:0.25;"/>
<line x1="172.000000" y1="88.000000" x2="168.000000" y2="88.000000"  style="stroke:black; stroke-linecap:round; stroke-width:0.25;"/>
<line x1="172.000000" y1="88.000000" x2="172.000000" y2="88.000000"  style="stroke:black; stroke-linecap:round; stroke-width:0.25;"/>
<line x1="172.000000" y1="100.000000" x2="172.000000" y2="88.000000"  style="stroke:black; stroke-linecap:round; stroke-width:0.25;"/>
<line x1="180.000000" y1="68.000000" x2="180.000000" y2="68.000000"  style="stroke:black; stroke-linecap:round; stroke-width:0.25;"/>
<line x1="180.000000" y1="68.000000" x2="180.000000" y2="80.000000"  style="stroke:black; stroke-linecap:round; stroke-width:0.25;"/>
<line x1="180.000000" y1="80.000000" x2="172.000000" y2="80.000000"  style="stroke:black; stroke-linecap:round; stroke-width:0.25;"/>
<line x1="180.000000" y1="100.000000" x2="172.000000" y2="100.000000"  style="stroke:black; stroke-linecap:round; stroke-width:0.25;"/>
<line x1="181.400000" y1="140.000000" x2="185.400000" y2="140.000000"  style="stroke:black; stroke-linecap:round; stroke-width:0.25;"/>
<line x1="184.000000" y1="68.000000" x2="180.000000" y2="68.000000"  style="stroke:black; stroke-linecap:round; stroke-width:0.25;"/>
<line x1="224.100000" y1="140.000000" x2="228.100000" y2="140.000000"  style="stroke:black; stroke-linecap:round; stroke-width:0.25;"/>
<line x1="224.750000" y1="120.000000" x2="68.000000" y2="120.000000"  style="stroke:black; stroke-linecap:round; stroke-width:0.25;"/>
<line x1="228.100000" y1="140.000000" x2="381.500000" y2="140.000000"  style="stroke:black; stroke-linecap:round; stroke-width:0.25;"/>
<line x1="228.750000" y1="36.000000" x2="108.000000" y2="36.000000"  style="stroke:black; stroke-linecap:round; stroke-width:0.25;"/>
<line x1="232.750000" y1="36.000000" x2="228.750000" y2="36.000000"  style="stroke:black; stroke-linecap:round; stroke-width:0.25;"/>
<line x1="264.750000" y1="100.000000" x2="180.000000" y2="100.000000"  style="stroke:black; stroke-linecap:round; stroke-width:0.25;"/>
<line x1="268.750000" y1="100.000000" x2="264.750000" y2="100.000000"  style="stroke:black; stroke-linecap:round; stroke-width:0.25;"/>
<line x1="381.500000" y1="120.000000" x2="224.750000" y2="120.000000"  style="stroke:black; stroke-linecap:round; stroke-width:0.25;"/>
<line x1="381.500000" y1="120.000000" x2="381.500000" y2="120.000000"  style="stroke:black; stroke-linecap:round; stroke-width:0.25;"/>
<line x1="381.500000" y1="136.000000" x2="381.500000" y2="120.000000"  style="stroke:black; stroke-linecap:round; stroke-width:0.25;"/>
<line x1="381.500000" y1="140.000000" x2="383.500000" y2="140.000000"  style="stroke:black; stroke-linecap:round; stroke-width:0.25;"/>
<line x1="383.500000" y1="140.000000" x2="389.500000" y2="140.000000"  style="stroke:black; stroke-linecap:round; stroke-width:0.25;"/>
<line x1="389.500000" y1="88.000000" x2="397.500000" y2="88.000000"  style="stroke:black; stroke-linecap:round; stroke-width:0.25;"/>
<line x1="389.500000" y1="140.000000" x2="389.500000" y2="88.000000"  style="stroke:black; stroke-linecap:round; stroke-width:0.25;"/>
<line x1="389.500000" y1="140.000000" x2="389.500000" y2="140.000000"  style="stroke:black; stroke-linecap:round; stroke-width:0.25;"/>
<line x1="397.500000" y1="88.000000" x2="401.500000" y2="88.000000"  style="stroke:black; stroke-linecap:round; stroke-width:0.25;"/>
<line x1="401.500000" y1="88.000000" x2="405.500000" y2="88.000000"  style="stroke:black; stroke-linecap:round; stroke-width:0.25;"/>
<line x1="405.500000" y1="88.000000" x2="415.500000" y2="88.000000"  style="stroke:black; stroke-linecap:round; stroke-width:0.25;"/>
</svg>
