<?xml version="1.0"?>
<svg xmlns="http://www.w3.org/2000/svg" xmlns:xlink="http://www.w3.org/1999/xlink" viewBox="0 0 259.700000 100.000000" width="129.850000mm" height="50.000000mm" version="1.1">
<a xlink:href="halaphones-0x7fc2957f2e20.svg">
<rect x="1.000000" y="1.000000" width="258.700000" height="99.000000" rx="0" ry="0" style="stroke:none;fill:#cccccc;"/>
<rect x="0.000000" y="0.000000" width="258.700000" height="99.000000" rx="0" ry="0" style="stroke:none;fill:#ffffff;"/>
</a>
<text x="10.000000" y="7.000000" font-family="Arial" font-size="7"></text>
<a xlink:href="spat-0x7fc2957f0110.svg">
<rect x="43.000000" y="35.000000" width="129.000000" height="32.000000" rx="0" ry="0" style="stroke:none;fill:#cccccc;"/>
<rect x="42.000000" y="34.000000" width="129.000000" height="32.000000" rx="0" ry="0" style="stroke:none;fill:#003366;"/>
</a>
<a xlink:href="spat-0x7fc2957f0110.svg">
<text x="106.500000" y="52.000000" font-family="Arial" font-size="7" text-anchor="middle" fill="#FFFFFF">spat(4)(closu...1.0f, 0.01f))</text>
</a>
<circle cx="44.000000" cy="36.000000" r="1"/>
<line x1="39.000000" y1="49.000000" x2="42.000000" y2="50.000000"  transform="rotate(0.000000,42.000000,50.000000)" style="stroke: black; stroke-width:0.25;"/>
<line x1="39.000000" y1="51.000000" x2="42.000000" y2="50.000000"  transform="rotate(0.000000,42.000000,50.000000)" style="stroke: black; stroke-width:0.25;"/>
<a xlink:href="h1meters-0x7fc2957f0a70.svg">
<rect x="180.000000" y="35.000000" width="38.700000" height="32.000000" rx="0" ry="0" style="stroke:none;fill:#cccccc;"/>
<rect x="179.000000" y="34.000000" width="38.700000" height="32.000000" rx="0" ry="0" style="stroke:none;fill:#003366;"/>
</a>
<a xlink:href="h1meters-0x7fc2957f0a70.svg">
<text x="198.350000" y="52.000000" font-family="Arial" font-size="7" text-anchor="middle" fill="#FFFFFF">h1meters</text>
</a>
<circle cx="181.000000" cy="36.000000" r="1"/>
<line x1="176.000000" y1="37.000000" x2="179.000000" y2="38.000000"  transform="rotate(0.000000,179.000000,38.000000)" style="stroke: black; stroke-width:0.25;"/>
<line x1="176.000000" y1="39.000000" x2="179.000000" y2="38.000000"  transform="rotate(0.000000,179.000000,38.000000)" style="stroke: black; stroke-width:0.25;"/>
<line x1="176.000000" y1="45.000000" x2="179.000000" y2="46.000000"  transform="rotate(0.000000,179.000000,46.000000)" style="stroke: black; stroke-width:0.25;"/>
<line x1="176.000000" y1="47.000000" x2="179.000000" y2="46.000000"  transform="rotate(0.000000,179.000000,46.000000)" style="stroke: black; stroke-width:0.25;"/>
<line x1="176.000000" y1="53.000000" x2="179.000000" y2="54.000000"  transform="rotate(0.000000,179.000000,54.000000)" style="stroke: black; stroke-width:0.25;"/>
<line x1="176.000000" y1="55.000000" x2="179.000000" y2="54.000000"  transform="rotate(0.000000,179.000000,54.000000)" style="stroke: black; stroke-width:0.25;"/>
<line x1="176.000000" y1="61.000000" x2="179.000000" y2="62.000000"  transform="rotate(0.000000,179.000000,62.000000)" style="stroke: black; stroke-width:0.25;"/>
<line x1="176.000000" y1="63.000000" x2="179.000000" y2="62.000000"  transform="rotate(0.000000,179.000000,62.000000)" style="stroke: black; stroke-width:0.25;"/>
<line x1="33.000000" y1="25.000000" x2="33.000000" y2="75.000000"  style="stroke: black; stroke-linecap:round; stroke-width:0.25; stroke-dasharray:3,3;"/>
<line x1="33.000000" y1="75.000000" x2="226.700000" y2="75.000000"  style="stroke: black; stroke-linecap:round; stroke-width:0.25; stroke-dasharray:3,3;"/>
<line x1="226.700000" y1="75.000000" x2="226.700000" y2="25.000000"  style="stroke: black; stroke-linecap:round; stroke-width:0.25; stroke-dasharray:3,3;"/>
<line x1="33.000000" y1="25.000000" x2="38.000000" y2="25.000000"  style="stroke: black; stroke-linecap:round; stroke-width:0.25; stroke-dasharray:3,3;"/>
<line x1="76.700000" y1="25.000000" x2="226.700000" y2="25.000000"  style="stroke: black; stroke-linecap:round; stroke-width:0.25; stroke-dasharray:3,3;"/>
<text x="38.000000" y="27.000000" font-family="Arial" font-size="7">vgroup(h1)</text>
<line x1="15.000000" y1="15.000000" x2="15.000000" y2="85.000000"  style="stroke: black; stroke-linecap:round; stroke-width:0.25; stroke-dasharray:3,3;"/>
<line x1="15.000000" y1="85.000000" x2="244.700000" y2="85.000000"  style="stroke: black; stroke-linecap:round; stroke-width:0.25; stroke-dasharray:3,3;"/>
<line x1="244.700000" y1="85.000000" x2="244.700000" y2="15.000000"  style="stroke: black; stroke-linecap:round; stroke-width:0.25; stroke-dasharray:3,3;"/>
<line x1="15.000000" y1="15.000000" x2="20.000000" y2="15.000000"  style="stroke: black; stroke-linecap:round; stroke-width:0.25; stroke-dasharray:3,3;"/>
<line x1="39.350000" y1="15.000000" x2="244.700000" y2="15.000000"  style="stroke: black; stroke-linecap:round; stroke-width:0.25; stroke-dasharray:3,3;"/>
<text x="20.000000" y="17.000000" font-family="Arial" font-size="7">hal1</text>
<line x1="246.700000" y1="37.000000" x2="249.700000" y2="38.000000"  transform="rotate(0.000000,249.700000,38.000000)" style="stroke: black; stroke-width:0.25;"/>
<line x1="246.700000" y1="39.000000" x2="249.700000" y2="38.000000"  transform="rotate(0.000000,249.700000,38.000000)" style="stroke: black; stroke-width:0.25;"/>
<line x1="246.700000" y1="45.000000" x2="249.700000" y2="46.000000"  transform="rotate(0.000000,249.700000,46.000000)" style="stroke: black; stroke-width:0.25;"/>
<line x1="246.700000" y1="47.000000" x2="249.700000" y2="46.000000"  transform="rotate(0.000000,249.700000,46.000000)" style="stroke: black; stroke-width:0.25;"/>
<line x1="246.700000" y1="53.000000" x2="249.700000" y2="54.000000"  transform="rotate(0.000000,249.700000,54.000000)" style="stroke: black; stroke-width:0.25;"/>
<line x1="246.700000" y1="55.000000" x2="249.700000" y2="54.000000"  transform="rotate(0.000000,249.700000,54.000000)" style="stroke: black; stroke-width:0.25;"/>
<line x1="246.700000" y1="61.000000" x2="249.700000" y2="62.000000"  transform="rotate(0.000000,249.700000,62.000000)" style="stroke: black; stroke-width:0.25;"/>
<line x1="246.700000" y1="63.000000" x2="249.700000" y2="62.000000"  transform="rotate(0.000000,249.700000,62.000000)" style="stroke: black; stroke-width:0.25;"/>
<line x1="10.000000" y1="50.000000" x2="20.000000" y2="50.000000"  style="stroke:black; stroke-linecap:round; stroke-width:0.25;"/>
<line x1="20.000000" y1="50.000000" x2="24.000000" y2="50.000000"  style="stroke:black; stroke-linecap:round; stroke-width:0.25;"/>
<line x1="24.000000" y1="50.000000" x2="28.000000" y2="50.000000"  style="stroke:black; stroke-linecap:round; stroke-width:0.25;"/>
<line x1="28.000000" y1="50.000000" x2="28.000000" y2="50.000000"  style="stroke:black; stroke-linecap:round; stroke-width:0.25;"/>
<line x1="28.000000" y1="50.000000" x2="38.000000" y2="50.000000"  style="stroke:black; stroke-linecap:round; stroke-width:0.25;"/>
<line x1="38.000000" y1="50.000000" x2="42.000000" y2="50.000000"  style="stroke:black; stroke-linecap:round; stroke-width:0.25;"/>
<line x1="171.000000" y1="38.000000" x2="175.000000" y2="38.000000"  style="stroke:black; stroke-linecap:round; stroke-width:0.25;"/>
<line x1="171.000000" y1="46.000000" x2="175.000000" y2="46.000000"  style="stroke:black; stroke-linecap:round; stroke-width:0.25;"/>
<line x1="171.000000" y1="54.000000" x2="175.000000" y2="54.000000"  style="stroke:black; stroke-linecap:round; stroke-width:0.25;"/>
<line x1="171.000000" y1="62.000000" x2="175.000000" y2="62.000000"  style="stroke:black; stroke-linecap:round; stroke-width:0.25;"/>
<line x1="175.000000" y1="38.000000" x2="175.000000" y2="38.000000"  style="stroke:black; stroke-linecap:round; stroke-width:0.25;"/>
<line x1="175.000000" y1="38.000000" x2="179.000000" y2="38.000000"  style="stroke:black; stroke-linecap:round; stroke-width:0.25;"/>
<line x1="175.000000" y1="46.000000" x2="175.000000" y2="46.000000"  style="stroke:black; stroke-linecap:round; stroke-width:0.25;"/>
<line x1="175.000000" y1="46.000000" x2="179.000000" y2="46.000000"  style="stroke:black; stroke-linecap:round; stroke-width:0.25;"/>
<line x1="175.000000" y1="54.000000" x2="175.000000" y2="54.000000"  style="stroke:black; stroke-linecap:round; stroke-width:0.25;"/>
<line x1="175.000000" y1="54.000000" x2="179.000000" y2="54.000000"  style="stroke:black; stroke-linecap:round; stroke-width:0.25;"/>
<line x1="175.000000" y1="62.000000" x2="175.000000" y2="62.000000"  style="stroke:black; stroke-linecap:round; stroke-width:0.25;"/>
<line x1="175.000000" y1="62.000000" x2="179.000000" y2="62.000000"  style="stroke:black; stroke-linecap:round; stroke-width:0.25;"/>
<line x1="217.700000" y1="38.000000" x2="221.700000" y2="38.000000"  style="stroke:black; stroke-linecap:round; stroke-width:0.25;"/>
<line x1="217.700000" y1="46.000000" x2="221.700000" y2="46.000000"  style="stroke:black; stroke-linecap:round; stroke-width:0.25;"/>
<line x1="217.700000" y1="54.000000" x2="221.700000" y2="54.000000"  style="stroke:black; stroke-linecap:round; stroke-width:0.25;"/>
<line x1="217.700000" y1="62.000000" x2="221.700000" y2="62.000000"  style="stroke:black; stroke-linecap:round; stroke-width:0.25;"/>
<line x1="221.700000" y1="38.000000" x2="231.700000" y2="38.000000"  style="stroke:black; stroke-linecap:round; stroke-width:0.25;"/>
<line x1="221.700000" y1="46.000000" x2="231.700000" y2="46.000000"  style="stroke:black; stroke-linecap:round; stroke-width:0.25;"/>
<line x1="221.700000" y1="54.000000" x2="231.700000" y2="54.000000"  style="stroke:black; stroke-linecap:round; stroke-width:0.25;"/>
<line x1="221.700000" y1="62.000000" x2="231.700000" y2="62.000000"  style="stroke:black; stroke-linecap:round; stroke-width:0.25;"/>
<line x1="231.700000" y1="38.000000" x2="231.700000" y2="38.000000"  style="stroke:black; stroke-linecap:round; stroke-width:0.25;"/>
<line x1="231.700000" y1="38.000000" x2="235.700000" y2="38.000000"  style="stroke:black; stroke-linecap:round; stroke-width:0.25;"/>
<line x1="231.700000" y1="46.000000" x2="231.700000" y2="46.000000"  style="stroke:black; stroke-linecap:round; stroke-width:0.25;"/>
<line x1="231.700000" y1="46.000000" x2="235.700000" y2="46.000000"  style="stroke:black; stroke-linecap:round; stroke-width:0.25;"/>
<line x1="231.700000" y1="54.000000" x2="231.700000" y2="54.000000"  style="stroke:black; stroke-linecap:round; stroke-width:0.25;"/>
<line x1="231.700000" y1="54.000000" x2="235.700000" y2="54.000000"  style="stroke:black; stroke-linecap:round; stroke-width:0.25;"/>
<line x1="231.700000" y1="62.000000" x2="231.700000" y2="62.000000"  style="stroke:black; stroke-linecap:round; stroke-width:0.25;"/>
<line x1="231.700000" y1="62.000000" x2="235.700000" y2="62.000000"  style="stroke:black; stroke-linecap:round; stroke-width:0.25;"/>
<line x1="235.700000" y1="38.000000" x2="239.700000" y2="38.000000"  style="stroke:black; stroke-linecap:round; stroke-width:0.25;"/>
<line x1="235.700000" y1="46.000000" x2="239.700000" y2="46.000000"  style="stroke:black; stroke-linecap:round; stroke-width:0.25;"/>
<line x1="235.700000" y1="54.000000" x2="239.700000" y2="54.000000"  style="stroke:black; stroke-linecap:round; stroke-width:0.25;"/>
<line x1="235.700000" y1="62.000000" x2="239.700000" y2="62.000000"  style="stroke:black; stroke-linecap:round; stroke-width:0.25;"/>
<line x1="239.700000" y1="38.000000" x2="249.700000" y2="38.000000"  style="stroke:black; stroke-linecap:round; stroke-width:0.25;"/>
<line x1="239.700000" y1="46.000000" x2="249.700000" y2="46.000000"  style="stroke:black; stroke-linecap:round; stroke-width:0.25;"/>
<line x1="239.700000" y1="54.000000" x2="249.700000" y2="54.000000"  style="stroke:black; stroke-linecap:round; stroke-width:0.25;"/>
<line x1="239.700000" y1="62.000000" x2="249.700000" y2="62.000000"  style="stroke:black; stroke-linecap:round; stroke-width:0.25;"/>
</svg>
