<?xml version="1.0"?>
<svg xmlns="http://www.w3.org/2000/svg" xmlns:xlink="http://www.w3.org/1999/xlink" viewBox="0 0 163.800000 180.000000" width="81.900000mm" height="90.000000mm" version="1.1">
<a xlink:href="electronics-0x7f9ada01eaa0.svg">
<rect x="1.000000" y="1.000000" width="162.800000" height="179.000000" rx="0" ry="0" style="stroke:none;fill:#cccccc;"/>
<rect x="0.000000" y="0.000000" width="162.800000" height="179.000000" rx="0" ry="0" style="stroke:none;fill:#ffffff;"/>
</a>
<text x="10.000000" y="7.000000" font-family="Arial" font-size="7"></text>
<a xlink:href="hal1-0x7f9ada01c450.svg">
<rect x="51.000000" y="35.000000" width="25.800000" height="32.000000" rx="0" ry="0" style="stroke:none;fill:#cccccc;"/>
<rect x="50.000000" y="34.000000" width="25.800000" height="32.000000" rx="0" ry="0" style="stroke:none;fill:#003366;"/>
</a>
<a xlink:href="hal1-0x7f9ada01c450.svg">
<text x="62.900000" y="52.000000" font-family="Arial" font-size="7" text-anchor="middle" fill="#FFFFFF">hal1</text>
</a>
<circle cx="52.000000" cy="36.000000" r="1"/>
<line x1="47.000000" y1="49.000000" x2="50.000000" y2="50.000000"  transform="rotate(0.000000,50.000000,50.000000)" style="stroke: black; stroke-width:0.25;"/>
<line x1="47.000000" y1="51.000000" x2="50.000000" y2="50.000000"  transform="rotate(0.000000,50.000000,50.000000)" style="stroke: black; stroke-width:0.25;"/>
<a xlink:href="hal2-0x7f9ada01d360.svg">
<rect x="51.000000" y="75.000000" width="25.800000" height="32.000000" rx="0" ry="0" style="stroke:none;fill:#cccccc;"/>
<rect x="50.000000" y="74.000000" width="25.800000" height="32.000000" rx="0" ry="0" style="stroke:none;fill:#003366;"/>
</a>
<a xlink:href="hal2-0x7f9ada01d360.svg">
<text x="62.900000" y="92.000000" font-family="Arial" font-size="7" text-anchor="middle" fill="#FFFFFF">hal2</text>
</a>
<circle cx="52.000000" cy="76.000000" r="1"/>
<line x1="47.000000" y1="89.000000" x2="50.000000" y2="90.000000"  transform="rotate(0.000000,50.000000,90.000000)" style="stroke: black; stroke-width:0.25;"/>
<line x1="47.000000" y1="91.000000" x2="50.000000" y2="90.000000"  transform="rotate(0.000000,50.000000,90.000000)" style="stroke: black; stroke-width:0.25;"/>
<a xlink:href="hal3-0x7f9ada01e260.svg">
<rect x="51.000000" y="115.000000" width="25.800000" height="32.000000" rx="0" ry="0" style="stroke:none;fill:#cccccc;"/>
<rect x="50.000000" y="114.000000" width="25.800000" height="32.000000" rx="0" ry="0" style="stroke:none;fill:#003366;"/>
</a>
<a xlink:href="hal3-0x7f9ada01e260.svg">
<text x="62.900000" y="132.000000" font-family="Arial" font-size="7" text-anchor="middle" fill="#FFFFFF">hal3</text>
</a>
<circle cx="52.000000" cy="116.000000" r="1"/>
<line x1="47.000000" y1="129.000000" x2="50.000000" y2="130.000000"  transform="rotate(0.000000,50.000000,130.000000)" style="stroke: black; stroke-width:0.25;"/>
<line x1="47.000000" y1="131.000000" x2="50.000000" y2="130.000000"  transform="rotate(0.000000,50.000000,130.000000)" style="stroke: black; stroke-width:0.25;"/>
<line x1="41.000000" y1="25.000000" x2="41.000000" y2="155.000000"  style="stroke: black; stroke-linecap:round; stroke-width:0.25; stroke-dasharray:3,3;"/>
<line x1="41.000000" y1="155.000000" x2="130.800000" y2="155.000000"  style="stroke: black; stroke-linecap:round; stroke-width:0.25; stroke-dasharray:3,3;"/>
<line x1="130.800000" y1="155.000000" x2="130.800000" y2="25.000000"  style="stroke: black; stroke-linecap:round; stroke-width:0.25; stroke-dasharray:3,3;"/>
<line x1="41.000000" y1="25.000000" x2="46.000000" y2="25.000000"  style="stroke: black; stroke-linecap:round; stroke-width:0.25; stroke-dasharray:3,3;"/>
<line x1="110.500000" y1="25.000000" x2="130.800000" y2="25.000000"  style="stroke: black; stroke-linecap:round; stroke-width:0.25; stroke-dasharray:3,3;"/>
<text x="46.000000" y="27.000000" font-family="Arial" font-size="7">hgroup(HALAPHONES)</text>
<line x1="15.000000" y1="15.000000" x2="15.000000" y2="165.000000"  style="stroke: black; stroke-linecap:round; stroke-width:0.25; stroke-dasharray:3,3;"/>
<line x1="15.000000" y1="165.000000" x2="148.800000" y2="165.000000"  style="stroke: black; stroke-linecap:round; stroke-width:0.25; stroke-dasharray:3,3;"/>
<line x1="148.800000" y1="165.000000" x2="148.800000" y2="15.000000"  style="stroke: black; stroke-linecap:round; stroke-width:0.25; stroke-dasharray:3,3;"/>
<line x1="15.000000" y1="15.000000" x2="20.000000" y2="15.000000"  style="stroke: black; stroke-linecap:round; stroke-width:0.25; stroke-dasharray:3,3;"/>
<line x1="58.700000" y1="15.000000" x2="148.800000" y2="15.000000"  style="stroke: black; stroke-linecap:round; stroke-width:0.25; stroke-dasharray:3,3;"/>
<text x="20.000000" y="17.000000" font-family="Arial" font-size="7">halaphones</text>
<line x1="150.800000" y1="77.000000" x2="153.800000" y2="78.000000"  transform="rotate(0.000000,153.800000,78.000000)" style="stroke: black; stroke-width:0.25;"/>
<line x1="150.800000" y1="79.000000" x2="153.800000" y2="78.000000"  transform="rotate(0.000000,153.800000,78.000000)" style="stroke: black; stroke-width:0.25;"/>
<line x1="150.800000" y1="85.000000" x2="153.800000" y2="86.000000"  transform="rotate(0.000000,153.800000,86.000000)" style="stroke: black; stroke-width:0.25;"/>
<line x1="150.800000" y1="87.000000" x2="153.800000" y2="86.000000"  transform="rotate(0.000000,153.800000,86.000000)" style="stroke: black; stroke-width:0.25;"/>
<line x1="150.800000" y1="93.000000" x2="153.800000" y2="94.000000"  transform="rotate(0.000000,153.800000,94.000000)" style="stroke: black; stroke-width:0.25;"/>
<line x1="150.800000" y1="95.000000" x2="153.800000" y2="94.000000"  transform="rotate(0.000000,153.800000,94.000000)" style="stroke: black; stroke-width:0.25;"/>
<line x1="150.800000" y1="101.000000" x2="153.800000" y2="102.000000"  transform="rotate(0.000000,153.800000,102.000000)" style="stroke: black; stroke-width:0.25;"/>
<line x1="150.800000" y1="103.000000" x2="153.800000" y2="102.000000"  transform="rotate(0.000000,153.800000,102.000000)" style="stroke: black; stroke-width:0.25;"/>
<line x1="10.000000" y1="82.000000" x2="20.000000" y2="82.000000"  style="stroke:black; stroke-linecap:round; stroke-width:0.25;"/>
<line x1="10.000000" y1="90.000000" x2="20.000000" y2="90.000000"  style="stroke:black; stroke-linecap:round; stroke-width:0.25;"/>
<line x1="10.000000" y1="98.000000" x2="20.000000" y2="98.000000"  style="stroke:black; stroke-linecap:round; stroke-width:0.25;"/>
<line x1="20.000000" y1="82.000000" x2="24.000000" y2="82.000000"  style="stroke:black; stroke-linecap:round; stroke-width:0.25;"/>
<line x1="20.000000" y1="90.000000" x2="24.000000" y2="90.000000"  style="stroke:black; stroke-linecap:round; stroke-width:0.25;"/>
<line x1="20.000000" y1="98.000000" x2="24.000000" y2="98.000000"  style="stroke:black; stroke-linecap:round; stroke-width:0.25;"/>
<line x1="24.000000" y1="82.000000" x2="28.000000" y2="82.000000"  style="stroke:black; stroke-linecap:round; stroke-width:0.25;"/>
<line x1="24.000000" y1="90.000000" x2="28.000000" y2="90.000000"  style="stroke:black; stroke-linecap:round; stroke-width:0.25;"/>
<line x1="24.000000" y1="98.000000" x2="28.000000" y2="98.000000"  style="stroke:black; stroke-linecap:round; stroke-width:0.25;"/>
<line x1="28.000000" y1="50.000000" x2="36.000000" y2="50.000000"  style="stroke:black; stroke-linecap:round; stroke-width:0.25;"/>
<line x1="28.000000" y1="82.000000" x2="28.000000" y2="50.000000"  style="stroke:black; stroke-linecap:round; stroke-width:0.25;"/>
<line x1="28.000000" y1="82.000000" x2="28.000000" y2="82.000000"  style="stroke:black; stroke-linecap:round; stroke-width:0.25;"/>
<line x1="28.000000" y1="90.000000" x2="36.000000" y2="90.000000"  style="stroke:black; stroke-linecap:round; stroke-width:0.25;"/>
<line x1="28.000000" y1="98.000000" x2="36.000000" y2="98.000000"  style="stroke:black; stroke-linecap:round; stroke-width:0.25;"/>
<line x1="36.000000" y1="50.000000" x2="46.000000" y2="50.000000"  style="stroke:black; stroke-linecap:round; stroke-width:0.25;"/>
<line x1="36.000000" y1="90.000000" x2="46.000000" y2="90.000000"  style="stroke:black; stroke-linecap:round; stroke-width:0.25;"/>
<line x1="36.000000" y1="98.000000" x2="36.000000" y2="130.000000"  style="stroke:black; stroke-linecap:round; stroke-width:0.25;"/>
<line x1="36.000000" y1="130.000000" x2="36.000000" y2="130.000000"  style="stroke:black; stroke-linecap:round; stroke-width:0.25;"/>
<line x1="36.000000" y1="130.000000" x2="46.000000" y2="130.000000"  style="stroke:black; stroke-linecap:round; stroke-width:0.25;"/>
<line x1="46.000000" y1="50.000000" x2="50.000000" y2="50.000000"  style="stroke:black; stroke-linecap:round; stroke-width:0.25;"/>
<line x1="46.000000" y1="90.000000" x2="50.000000" y2="90.000000"  style="stroke:black; stroke-linecap:round; stroke-width:0.25;"/>
<line x1="46.000000" y1="130.000000" x2="50.000000" y2="130.000000"  style="stroke:black; stroke-linecap:round; stroke-width:0.25;"/>
<line x1="75.800000" y1="38.000000" x2="79.800000" y2="38.000000"  style="stroke:black; stroke-linecap:round; stroke-width:0.25;"/>
<line x1="75.800000" y1="46.000000" x2="79.800000" y2="46.000000"  style="stroke:black; stroke-linecap:round; stroke-width:0.25;"/>
<line x1="75.800000" y1="54.000000" x2="79.800000" y2="54.000000"  style="stroke:black; stroke-linecap:round; stroke-width:0.25;"/>
<line x1="75.800000" y1="62.000000" x2="79.800000" y2="62.000000"  style="stroke:black; stroke-linecap:round; stroke-width:0.25;"/>
<line x1="75.800000" y1="78.000000" x2="79.800000" y2="78.000000"  style="stroke:black; stroke-linecap:round; stroke-width:0.25;"/>
<line x1="75.800000" y1="86.000000" x2="79.800000" y2="86.000000"  style="stroke:black; stroke-linecap:round; stroke-width:0.25;"/>
<line x1="75.800000" y1="94.000000" x2="79.800000" y2="94.000000"  style="stroke:black; stroke-linecap:round; stroke-width:0.25;"/>
<line x1="75.800000" y1="102.000000" x2="79.800000" y2="102.000000"  style="stroke:black; stroke-linecap:round; stroke-width:0.25;"/>
<line x1="75.800000" y1="118.000000" x2="79.800000" y2="118.000000"  style="stroke:black; stroke-linecap:round; stroke-width:0.25;"/>
<line x1="75.800000" y1="126.000000" x2="79.800000" y2="126.000000"  style="stroke:black; stroke-linecap:round; stroke-width:0.25;"/>
<line x1="75.800000" y1="134.000000" x2="79.800000" y2="134.000000"  style="stroke:black; stroke-linecap:round; stroke-width:0.25;"/>
<line x1="75.800000" y1="142.000000" x2="79.800000" y2="142.000000"  style="stroke:black; stroke-linecap:round; stroke-width:0.25;"/>
<line x1="79.800000" y1="38.000000" x2="117.800000" y2="78.000000"  style="stroke:black; stroke-linecap:round; stroke-width:0.25;"/>
<line x1="79.800000" y1="46.000000" x2="117.800000" y2="86.000000"  style="stroke:black; stroke-linecap:round; stroke-width:0.25;"/>
<line x1="79.800000" y1="54.000000" x2="117.800000" y2="94.000000"  style="stroke:black; stroke-linecap:round; stroke-width:0.25;"/>
<line x1="79.800000" y1="62.000000" x2="117.800000" y2="102.000000"  style="stroke:black; stroke-linecap:round; stroke-width:0.25;"/>
<line x1="79.800000" y1="78.000000" x2="117.800000" y2="78.000000"  style="stroke:black; stroke-linecap:round; stroke-width:0.25;"/>
<line x1="79.800000" y1="86.000000" x2="117.800000" y2="86.000000"  style="stroke:black; stroke-linecap:round; stroke-width:0.25;"/>
<line x1="79.800000" y1="94.000000" x2="117.800000" y2="94.000000"  style="stroke:black; stroke-linecap:round; stroke-width:0.25;"/>
<line x1="79.800000" y1="102.000000" x2="117.800000" y2="102.000000"  style="stroke:black; stroke-linecap:round; stroke-width:0.25;"/>
<line x1="79.800000" y1="118.000000" x2="117.800000" y2="78.000000"  style="stroke:black; stroke-linecap:round; stroke-width:0.25;"/>
<line x1="79.800000" y1="126.000000" x2="117.800000" y2="86.000000"  style="stroke:black; stroke-linecap:round; stroke-width:0.25;"/>
<line x1="79.800000" y1="134.000000" x2="117.800000" y2="94.000000"  style="stroke:black; stroke-linecap:round; stroke-width:0.25;"/>
<line x1="79.800000" y1="142.000000" x2="117.800000" y2="102.000000"  style="stroke:black; stroke-linecap:round; stroke-width:0.25;"/>
<line x1="117.800000" y1="78.000000" x2="121.800000" y2="78.000000"  style="stroke:black; stroke-linecap:round; stroke-width:0.25;"/>
<line x1="117.800000" y1="86.000000" x2="121.800000" y2="86.000000"  style="stroke:black; stroke-linecap:round; stroke-width:0.25;"/>
<line x1="117.800000" y1="94.000000" x2="121.800000" y2="94.000000"  style="stroke:black; stroke-linecap:round; stroke-width:0.25;"/>
<line x1="117.800000" y1="102.000000" x2="121.800000" y2="102.000000"  style="stroke:black; stroke-linecap:round; stroke-width:0.25;"/>
<line x1="121.800000" y1="78.000000" x2="125.800000" y2="78.000000"  style="stroke:black; stroke-linecap:round; stroke-width:0.25;"/>
<line x1="121.800000" y1="86.000000" x2="125.800000" y2="86.000000"  style="stroke:black; stroke-linecap:round; stroke-width:0.25;"/>
<line x1="121.800000" y1="94.000000" x2="125.800000" y2="94.000000"  style="stroke:black; stroke-linecap:round; stroke-width:0.25;"/>
<line x1="121.800000" y1="102.000000" x2="125.800000" y2="102.000000"  style="stroke:black; stroke-linecap:round; stroke-width:0.25;"/>
<line x1="125.800000" y1="78.000000" x2="135.800000" y2="78.000000"  style="stroke:black; stroke-linecap:round; stroke-width:0.25;"/>
<line x1="125.800000" y1="86.000000" x2="135.800000" y2="86.000000"  style="stroke:black; stroke-linecap:round; stroke-width:0.25;"/>
<line x1="125.800000" y1="94.000000" x2="135.800000" y2="94.000000"  style="stroke:black; stroke-linecap:round; stroke-width:0.25;"/>
<line x1="125.800000" y1="102.000000" x2="135.800000" y2="102.000000"  style="stroke:black; stroke-linecap:round; stroke-width:0.25;"/>
<line x1="135.800000" y1="78.000000" x2="135.800000" y2="78.000000"  style="stroke:black; stroke-linecap:round; stroke-width:0.25;"/>
<line x1="135.800000" y1="78.000000" x2="139.800000" y2="78.000000"  style="stroke:black; stroke-linecap:round; stroke-width:0.25;"/>
<line x1="135.800000" y1="86.000000" x2="135.800000" y2="86.000000"  style="stroke:black; stroke-linecap:round; stroke-width:0.25;"/>
<line x1="135.800000" y1="86.000000" x2="139.800000" y2="86.000000"  style="stroke:black; stroke-linecap:round; stroke-width:0.25;"/>
<line x1="135.800000" y1="94.000000" x2="135.800000" y2="94.000000"  style="stroke:black; stroke-linecap:round; stroke-width:0.25;"/>
<line x1="135.800000" y1="94.000000" x2="139.800000" y2="94.000000"  style="stroke:black; stroke-linecap:round; stroke-width:0.25;"/>
<line x1="135.800000" y1="102.000000" x2="135.800000" y2="102.000000"  style="stroke:black; stroke-linecap:round; stroke-width:0.25;"/>
<line x1="135.800000" y1="102.000000" x2="139.800000" y2="102.000000"  style="stroke:black; stroke-linecap:round; stroke-width:0.25;"/>
<line x1="139.800000" y1="78.000000" x2="143.800000" y2="78.000000"  style="stroke:black; stroke-linecap:round; stroke-width:0.25;"/>
<line x1="139.800000" y1="86.000000" x2="143.800000" y2="86.000000"  style="stroke:black; stroke-linecap:round; stroke-width:0.25;"/>
<line x1="139.800000" y1="94.000000" x2="143.800000" y2="94.000000"  style="stroke:black; stroke-linecap:round; stroke-width:0.25;"/>
<line x1="139.800000" y1="102.000000" x2="143.800000" y2="102.000000"  style="stroke:black; stroke-linecap:round; stroke-width:0.25;"/>
<line x1="143.800000" y1="78.000000" x2="153.800000" y2="78.000000"  style="stroke:black; stroke-linecap:round; stroke-width:0.25;"/>
<line x1="143.800000" y1="86.000000" x2="153.800000" y2="86.000000"  style="stroke:black; stroke-linecap:round; stroke-width:0.25;"/>
<line x1="143.800000" y1="94.000000" x2="153.800000" y2="94.000000"  style="stroke:black; stroke-linecap:round; stroke-width:0.25;"/>
<line x1="143.800000" y1="102.000000" x2="153.800000" y2="102.000000"  style="stroke:black; stroke-linecap:round; stroke-width:0.25;"/>
</svg>
