<?xml version="1.0"?>
<svg xmlns="http://www.w3.org/2000/svg" xmlns:xlink="http://www.w3.org/1999/xlink" viewBox="0 0 408.200000 208.000000" width="204.100000mm" height="104.000000mm" version="1.1">
<a xlink:href="d-0x7fac7bfd6c70.svg">
<rect x="1.000000" y="1.000000" width="407.200000" height="207.000000" rx="0" ry="0" style="stroke:none;fill:#cccccc;"/>
<rect x="0.000000" y="0.000000" width="407.200000" height="207.000000" rx="0" ry="0" style="stroke:none;fill:#ffffff;"/>
</a>
<text x="10.000000" y="7.000000" font-family="Arial" font-size="7"></text>
<rect x="169.100000" y="35.000000" width="24.000000" height="24.000000" rx="0" ry="0" style="stroke:none;fill:#cccccc;"/>
<rect x="168.100000" y="34.000000" width="24.000000" height="24.000000" rx="0" ry="0" style="stroke:none;fill:#f44800;"/>
<text x="180.100000" y="48.000000" font-family="Arial" font-size="7" text-anchor="middle" fill="#FFFFFF">1</text>
<circle cx="170.100000" cy="36.000000" r="1"/>
<line x1="159.100000" y1="25.000000" x2="159.100000" y2="67.000000"  style="stroke: black; stroke-linecap:round; stroke-width:0.25; stroke-dasharray:3,3;"/>
<line x1="159.100000" y1="67.000000" x2="201.100000" y2="67.000000"  style="stroke: black; stroke-linecap:round; stroke-width:0.25; stroke-dasharray:3,3;"/>
<line x1="201.100000" y1="67.000000" x2="201.100000" y2="25.000000"  style="stroke: black; stroke-linecap:round; stroke-width:0.25; stroke-dasharray:3,3;"/>
<line x1="159.100000" y1="25.000000" x2="164.100000" y2="25.000000"  style="stroke: black; stroke-linecap:round; stroke-width:0.25; stroke-dasharray:3,3;"/>
<line x1="173.775000" y1="25.000000" x2="201.100000" y2="25.000000"  style="stroke: black; stroke-linecap:round; stroke-width:0.25; stroke-dasharray:3,3;"/>
<text x="164.100000" y="27.000000" font-family="Arial" font-size="7">S</text>
<rect x="149.100000" y="87.000000" width="24.000000" height="24.000000" rx="0" ry="0" style="stroke:none;fill:#cccccc;"/>
<rect x="148.100000" y="86.000000" width="24.000000" height="24.000000" rx="0" ry="0" style="stroke:none;fill:#f44800;"/>
<text x="160.100000" y="100.000000" font-family="Arial" font-size="7" text-anchor="middle" fill="#FFFFFF">2</text>
<circle cx="150.100000" cy="88.000000" r="1"/>
<line x1="139.100000" y1="77.000000" x2="139.100000" y2="119.000000"  style="stroke: black; stroke-linecap:round; stroke-width:0.25; stroke-dasharray:3,3;"/>
<line x1="139.100000" y1="119.000000" x2="181.100000" y2="119.000000"  style="stroke: black; stroke-linecap:round; stroke-width:0.25; stroke-dasharray:3,3;"/>
<line x1="181.100000" y1="119.000000" x2="181.100000" y2="77.000000"  style="stroke: black; stroke-linecap:round; stroke-width:0.25; stroke-dasharray:3,3;"/>
<line x1="139.100000" y1="77.000000" x2="144.100000" y2="77.000000"  style="stroke: black; stroke-linecap:round; stroke-width:0.25; stroke-dasharray:3,3;"/>
<line x1="163.450000" y1="77.000000" x2="181.100000" y2="77.000000"  style="stroke: black; stroke-linecap:round; stroke-width:0.25; stroke-dasharray:3,3;"/>
<text x="144.100000" y="79.000000" font-family="Arial" font-size="7">left</text>
<rect x="25.000000" y="129.000000" width="232.200000" height="24.000000" rx="0" ry="0" style="stroke:none;fill:#cccccc;"/>
<rect x="24.000000" y="128.000000" width="232.200000" height="24.000000" rx="0" ry="0" style="stroke:none;fill:#477881;"/>
<text x="140.100000" y="142.000000" font-family="Arial" font-size="7" text-anchor="middle" fill="#FFFFFF">hslider(shift (cents), 0.0f, -2600.0f, 100.0f, 0.01f)</text>
<circle cx="26.000000" cy="130.000000" r="1"/>
<rect x="129.100000" y="161.000000" width="24.000000" height="24.000000" rx="0" ry="0" style="stroke:none;fill:#cccccc;"/>
<rect x="128.100000" y="160.000000" width="24.000000" height="24.000000" rx="0" ry="0" style="stroke:none;fill:#f44800;"/>
<text x="140.100000" y="174.000000" font-family="Arial" font-size="7" text-anchor="middle" fill="#FFFFFF">12</text>
<circle cx="130.100000" cy="162.000000" r="1"/>
<rect x="273.200000" y="145.000000" width="24.000000" height="24.000000" rx="0" ry="0" style="stroke:none;fill:#cccccc;"/>
<rect x="272.200000" y="144.000000" width="24.000000" height="24.000000" rx="0" ry="0" style="stroke:none;fill:#4B71A1;"/>
<text x="284.200000" y="158.000000" font-family="Arial" font-size="7" text-anchor="middle" fill="#FFFFFF">/</text>
<circle cx="274.200000" cy="146.000000" r="1"/>
<line x1="269.200000" y1="151.000000" x2="272.200000" y2="152.000000"  transform="rotate(0.000000,272.200000,152.000000)" style="stroke: black; stroke-width:0.25;"/>
<line x1="269.200000" y1="153.000000" x2="272.200000" y2="152.000000"  transform="rotate(0.000000,272.200000,152.000000)" style="stroke: black; stroke-width:0.25;"/>
<line x1="269.200000" y1="159.000000" x2="272.200000" y2="160.000000"  transform="rotate(0.000000,272.200000,160.000000)" style="stroke: black; stroke-width:0.25;"/>
<line x1="269.200000" y1="161.000000" x2="272.200000" y2="160.000000"  transform="rotate(0.000000,272.200000,160.000000)" style="stroke: black; stroke-width:0.25;"/>
<rect x="313.200000" y="119.000000" width="24.000000" height="24.000000" rx="0" ry="0" style="stroke:none;fill:#cccccc;"/>
<rect x="312.200000" y="118.000000" width="24.000000" height="24.000000" rx="0" ry="0" style="stroke:none;fill:#4B71A1;"/>
<text x="324.200000" y="132.000000" font-family="Arial" font-size="7" text-anchor="middle" fill="#FFFFFF">pow</text>
<circle cx="314.200000" cy="120.000000" r="1"/>
<line x1="309.200000" y1="125.000000" x2="312.200000" y2="126.000000"  transform="rotate(0.000000,312.200000,126.000000)" style="stroke: black; stroke-width:0.25;"/>
<line x1="309.200000" y1="127.000000" x2="312.200000" y2="126.000000"  transform="rotate(0.000000,312.200000,126.000000)" style="stroke: black; stroke-width:0.25;"/>
<line x1="309.200000" y1="133.000000" x2="312.200000" y2="134.000000"  transform="rotate(0.000000,312.200000,134.000000)" style="stroke: black; stroke-width:0.25;"/>
<line x1="309.200000" y1="135.000000" x2="312.200000" y2="134.000000"  transform="rotate(0.000000,312.200000,134.000000)" style="stroke: black; stroke-width:0.25;"/>
<rect x="353.200000" y="93.000000" width="24.000000" height="24.000000" rx="0" ry="0" style="stroke:none;fill:#cccccc;"/>
<rect x="352.200000" y="92.000000" width="24.000000" height="24.000000" rx="0" ry="0" style="stroke:none;fill:#4B71A1;"/>
<text x="364.200000" y="106.000000" font-family="Arial" font-size="7" text-anchor="middle" fill="#FFFFFF">-</text>
<circle cx="354.200000" cy="94.000000" r="1"/>
<line x1="349.200000" y1="99.000000" x2="352.200000" y2="100.000000"  transform="rotate(0.000000,352.200000,100.000000)" style="stroke: black; stroke-width:0.25;"/>
<line x1="349.200000" y1="101.000000" x2="352.200000" y2="100.000000"  transform="rotate(0.000000,352.200000,100.000000)" style="stroke: black; stroke-width:0.25;"/>
<line x1="349.200000" y1="107.000000" x2="352.200000" y2="108.000000"  transform="rotate(0.000000,352.200000,108.000000)" style="stroke: black; stroke-width:0.25;"/>
<line x1="349.200000" y1="109.000000" x2="352.200000" y2="108.000000"  transform="rotate(0.000000,352.200000,108.000000)" style="stroke: black; stroke-width:0.25;"/>
<line x1="15.000000" y1="15.000000" x2="15.000000" y2="193.000000"  style="stroke: black; stroke-linecap:round; stroke-width:0.25; stroke-dasharray:3,3;"/>
<line x1="15.000000" y1="193.000000" x2="393.200000" y2="193.000000"  style="stroke: black; stroke-linecap:round; stroke-width:0.25; stroke-dasharray:3,3;"/>
<line x1="393.200000" y1="193.000000" x2="393.200000" y2="15.000000"  style="stroke: black; stroke-linecap:round; stroke-width:0.25; stroke-dasharray:3,3;"/>
<line x1="15.000000" y1="15.000000" x2="20.000000" y2="15.000000"  style="stroke: black; stroke-linecap:round; stroke-width:0.25; stroke-dasharray:3,3;"/>
<line x1="29.675000" y1="15.000000" x2="393.200000" y2="15.000000"  style="stroke: black; stroke-linecap:round; stroke-width:0.25; stroke-dasharray:3,3;"/>
<text x="20.000000" y="17.000000" font-family="Arial" font-size="7">i</text>
<line x1="395.200000" y1="103.000000" x2="398.200000" y2="104.000000"  transform="rotate(0.000000,398.200000,104.000000)" style="stroke: black; stroke-width:0.25;"/>
<line x1="395.200000" y1="105.000000" x2="398.200000" y2="104.000000"  transform="rotate(0.000000,398.200000,104.000000)" style="stroke: black; stroke-width:0.25;"/>
<line x1="152.100000" y1="172.000000" x2="156.100000" y2="172.000000"  style="stroke:black; stroke-linecap:round; stroke-width:0.25;"/>
<line x1="156.100000" y1="172.000000" x2="260.200000" y2="172.000000"  style="stroke:black; stroke-linecap:round; stroke-width:0.25;"/>
<line x1="172.100000" y1="98.000000" x2="176.100000" y2="98.000000"  style="stroke:black; stroke-linecap:round; stroke-width:0.25;"/>
<line x1="176.100000" y1="98.000000" x2="186.100000" y2="98.000000"  style="stroke:black; stroke-linecap:round; stroke-width:0.25;"/>
<line x1="186.100000" y1="98.000000" x2="300.200000" y2="98.000000"  style="stroke:black; stroke-linecap:round; stroke-width:0.25;"/>
<line x1="192.100000" y1="46.000000" x2="196.100000" y2="46.000000"  style="stroke:black; stroke-linecap:round; stroke-width:0.25;"/>
<line x1="196.100000" y1="46.000000" x2="206.100000" y2="46.000000"  style="stroke:black; stroke-linecap:round; stroke-width:0.25;"/>
<line x1="206.100000" y1="46.000000" x2="340.200000" y2="46.000000"  style="stroke:black; stroke-linecap:round; stroke-width:0.25;"/>
<line x1="256.200000" y1="140.000000" x2="260.200000" y2="140.000000"  style="stroke:black; stroke-linecap:round; stroke-width:0.25;"/>
<line x1="260.200000" y1="140.000000" x2="268.200000" y2="140.000000"  style="stroke:black; stroke-linecap:round; stroke-width:0.25;"/>
<line x1="260.200000" y1="160.000000" x2="268.200000" y2="160.000000"  style="stroke:black; stroke-linecap:round; stroke-width:0.25;"/>
<line x1="260.200000" y1="172.000000" x2="260.200000" y2="160.000000"  style="stroke:black; stroke-linecap:round; stroke-width:0.25;"/>
<line x1="260.200000" y1="172.000000" x2="260.200000" y2="172.000000"  style="stroke:black; stroke-linecap:round; stroke-width:0.25;"/>
<line x1="268.200000" y1="140.000000" x2="268.200000" y2="152.000000"  style="stroke:black; stroke-linecap:round; stroke-width:0.25;"/>
<line x1="268.200000" y1="152.000000" x2="268.200000" y2="152.000000"  style="stroke:black; stroke-linecap:round; stroke-width:0.25;"/>
<line x1="268.200000" y1="152.000000" x2="272.200000" y2="152.000000"  style="stroke:black; stroke-linecap:round; stroke-width:0.25;"/>
<line x1="268.200000" y1="160.000000" x2="272.200000" y2="160.000000"  style="stroke:black; stroke-linecap:round; stroke-width:0.25;"/>
<line x1="296.200000" y1="156.000000" x2="300.200000" y2="156.000000"  style="stroke:black; stroke-linecap:round; stroke-width:0.25;"/>
<line x1="300.200000" y1="98.000000" x2="308.200000" y2="98.000000"  style="stroke:black; stroke-linecap:round; stroke-width:0.25;"/>
<line x1="300.200000" y1="134.000000" x2="308.200000" y2="134.000000"  style="stroke:black; stroke-linecap:round; stroke-width:0.25;"/>
<line x1="300.200000" y1="156.000000" x2="300.200000" y2="134.000000"  style="stroke:black; stroke-linecap:round; stroke-width:0.25;"/>
<line x1="300.200000" y1="156.000000" x2="300.200000" y2="156.000000"  style="stroke:black; stroke-linecap:round; stroke-width:0.25;"/>
<line x1="308.200000" y1="98.000000" x2="308.200000" y2="126.000000"  style="stroke:black; stroke-linecap:round; stroke-width:0.25;"/>
<line x1="308.200000" y1="126.000000" x2="308.200000" y2="126.000000"  style="stroke:black; stroke-linecap:round; stroke-width:0.25;"/>
<line x1="308.200000" y1="126.000000" x2="312.200000" y2="126.000000"  style="stroke:black; stroke-linecap:round; stroke-width:0.25;"/>
<line x1="308.200000" y1="134.000000" x2="312.200000" y2="134.000000"  style="stroke:black; stroke-linecap:round; stroke-width:0.25;"/>
<line x1="336.200000" y1="130.000000" x2="340.200000" y2="130.000000"  style="stroke:black; stroke-linecap:round; stroke-width:0.25;"/>
<line x1="340.200000" y1="46.000000" x2="348.200000" y2="46.000000"  style="stroke:black; stroke-linecap:round; stroke-width:0.25;"/>
<line x1="340.200000" y1="108.000000" x2="348.200000" y2="108.000000"  style="stroke:black; stroke-linecap:round; stroke-width:0.25;"/>
<line x1="340.200000" y1="130.000000" x2="340.200000" y2="108.000000"  style="stroke:black; stroke-linecap:round; stroke-width:0.25;"/>
<line x1="340.200000" y1="130.000000" x2="340.200000" y2="130.000000"  style="stroke:black; stroke-linecap:round; stroke-width:0.25;"/>
<line x1="348.200000" y1="46.000000" x2="348.200000" y2="100.000000"  style="stroke:black; stroke-linecap:round; stroke-width:0.25;"/>
<line x1="348.200000" y1="100.000000" x2="348.200000" y2="100.000000"  style="stroke:black; stroke-linecap:round; stroke-width:0.25;"/>
<line x1="348.200000" y1="100.000000" x2="352.200000" y2="100.000000"  style="stroke:black; stroke-linecap:round; stroke-width:0.25;"/>
<line x1="348.200000" y1="108.000000" x2="352.200000" y2="108.000000"  style="stroke:black; stroke-linecap:round; stroke-width:0.25;"/>
<line x1="376.200000" y1="104.000000" x2="380.200000" y2="104.000000"  style="stroke:black; stroke-linecap:round; stroke-width:0.25;"/>
<line x1="380.200000" y1="104.000000" x2="380.200000" y2="104.000000"  style="stroke:black; stroke-linecap:round; stroke-width:0.25;"/>
<line x1="380.200000" y1="104.000000" x2="384.200000" y2="104.000000"  style="stroke:black; stroke-linecap:round; stroke-width:0.25;"/>
<line x1="384.200000" y1="104.000000" x2="388.200000" y2="104.000000"  style="stroke:black; stroke-linecap:round; stroke-width:0.25;"/>
<line x1="388.200000" y1="104.000000" x2="398.200000" y2="104.000000"  style="stroke:black; stroke-linecap:round; stroke-width:0.25;"/>
</svg>
