<?xml version="1.0"?>
<svg xmlns="http://www.w3.org/2000/svg" xmlns:xlink="http://www.w3.org/1999/xlink" viewBox="0 0 650.600000 100.000000" width="325.300000mm" height="50.000000mm" version="1.1">
<a xlink:href="chstrip-0x7fc295740b10.svg">
<rect x="1.000000" y="1.000000" width="649.600000" height="99.000000" rx="0" ry="0" style="stroke:none;fill:#cccccc;"/>
<rect x="0.000000" y="0.000000" width="649.600000" height="99.000000" rx="0" ry="0" style="stroke:none;fill:#ffffff;"/>
</a>
<text x="10.000000" y="7.000000" font-family="Arial" font-size="7"></text>
<a xlink:href="gain-0x7fc28e8ef830.svg">
<rect x="51.000000" y="43.000000" width="25.800000" height="24.000000" rx="0" ry="0" style="stroke:none;fill:#cccccc;"/>
<rect x="50.000000" y="42.000000" width="25.800000" height="24.000000" rx="0" ry="0" style="stroke:none;fill:#003366;"/>
</a>
<a xlink:href="gain-0x7fc28e8ef830.svg">
<text x="62.900000" y="56.000000" font-family="Arial" font-size="7" text-anchor="middle" fill="#FFFFFF">gain</text>
</a>
<circle cx="52.000000" cy="44.000000" r="1"/>
<rect x="92.800000" y="39.000000" width="24.000000" height="24.000000" rx="0" ry="0" style="stroke:none;fill:#cccccc;"/>
<rect x="91.800000" y="38.000000" width="24.000000" height="24.000000" rx="0" ry="0" style="stroke:none;fill:#4B71A1;"/>
<text x="103.800000" y="52.000000" font-family="Arial" font-size="7" text-anchor="middle" fill="#FFFFFF">*</text>
<circle cx="93.800000" cy="40.000000" r="1"/>
<line x1="88.800000" y1="45.000000" x2="91.800000" y2="46.000000"  transform="rotate(0.000000,91.800000,46.000000)" style="stroke: black; stroke-width:0.25;"/>
<line x1="88.800000" y1="47.000000" x2="91.800000" y2="46.000000"  transform="rotate(0.000000,91.800000,46.000000)" style="stroke: black; stroke-width:0.25;"/>
<line x1="88.800000" y1="53.000000" x2="91.800000" y2="54.000000"  transform="rotate(0.000000,91.800000,54.000000)" style="stroke: black; stroke-width:0.25;"/>
<line x1="88.800000" y1="55.000000" x2="91.800000" y2="54.000000"  transform="rotate(0.000000,91.800000,54.000000)" style="stroke: black; stroke-width:0.25;"/>
<a xlink:href="rpol-0x7fc28e8f5470.svg">
<rect x="132.800000" y="43.000000" width="25.800000" height="24.000000" rx="0" ry="0" style="stroke:none;fill:#cccccc;"/>
<rect x="131.800000" y="42.000000" width="25.800000" height="24.000000" rx="0" ry="0" style="stroke:none;fill:#003366;"/>
</a>
<a xlink:href="rpol-0x7fc28e8f5470.svg">
<text x="144.700000" y="56.000000" font-family="Arial" font-size="7" text-anchor="middle" fill="#FFFFFF">rpol</text>
</a>
<circle cx="133.800000" cy="44.000000" r="1"/>
<rect x="174.600000" y="39.000000" width="24.000000" height="24.000000" rx="0" ry="0" style="stroke:none;fill:#cccccc;"/>
<rect x="173.600000" y="38.000000" width="24.000000" height="24.000000" rx="0" ry="0" style="stroke:none;fill:#4B71A1;"/>
<text x="185.600000" y="52.000000" font-family="Arial" font-size="7" text-anchor="middle" fill="#FFFFFF">*</text>
<circle cx="175.600000" cy="40.000000" r="1"/>
<line x1="170.600000" y1="45.000000" x2="173.600000" y2="46.000000"  transform="rotate(0.000000,173.600000,46.000000)" style="stroke: black; stroke-width:0.25;"/>
<line x1="170.600000" y1="47.000000" x2="173.600000" y2="46.000000"  transform="rotate(0.000000,173.600000,46.000000)" style="stroke: black; stroke-width:0.25;"/>
<line x1="170.600000" y1="53.000000" x2="173.600000" y2="54.000000"  transform="rotate(0.000000,173.600000,54.000000)" style="stroke: black; stroke-width:0.25;"/>
<line x1="170.600000" y1="55.000000" x2="173.600000" y2="54.000000"  transform="rotate(0.000000,173.600000,54.000000)" style="stroke: black; stroke-width:0.25;"/>
<a xlink:href="bypass1-0x7fc29573fca0.svg">
<rect x="206.600000" y="39.000000" width="129.000000" height="24.000000" rx="0" ry="0" style="stroke:none;fill:#cccccc;"/>
<rect x="205.600000" y="38.000000" width="129.000000" height="24.000000" rx="0" ry="0" style="stroke:none;fill:#003366;"/>
</a>
<a xlink:href="bypass1-0x7fc29573fca0.svg">
<text x="270.100000" y="52.000000" font-family="Arial" font-size="7" text-anchor="middle" fill="#FFFFFF">bypass1(hgrou...: /) : *):&gt;_)</text>
</a>
<circle cx="207.600000" cy="40.000000" r="1"/>
<line x1="202.600000" y1="49.000000" x2="205.600000" y2="50.000000"  transform="rotate(0.000000,205.600000,50.000000)" style="stroke: black; stroke-width:0.25;"/>
<line x1="202.600000" y1="51.000000" x2="205.600000" y2="50.000000"  transform="rotate(0.000000,205.600000,50.000000)" style="stroke: black; stroke-width:0.25;"/>
<a xlink:href="bypass1-0x7fc2957400a0.svg">
<rect x="343.600000" y="39.000000" width="129.000000" height="24.000000" rx="0" ry="0" style="stroke:none;fill:#cccccc;"/>
<rect x="342.600000" y="38.000000" width="129.000000" height="24.000000" rx="0" ry="0" style="stroke:none;fill:#003366;"/>
</a>
<a xlink:href="bypass1-0x7fc2957400a0.svg">
<text x="407.100000" y="52.000000" font-family="Arial" font-size="7" text-anchor="middle" fill="#FFFFFF">bypass1(hgrou...: /) : *):&gt;_)</text>
</a>
<circle cx="344.600000" cy="40.000000" r="1"/>
<line x1="339.600000" y1="49.000000" x2="342.600000" y2="50.000000"  transform="rotate(0.000000,342.600000,50.000000)" style="stroke: black; stroke-width:0.25;"/>
<line x1="339.600000" y1="51.000000" x2="342.600000" y2="50.000000"  transform="rotate(0.000000,342.600000,50.000000)" style="stroke: black; stroke-width:0.25;"/>
<a xlink:href="bypass1-0x7fc295740490.svg">
<rect x="480.600000" y="39.000000" width="129.000000" height="24.000000" rx="0" ry="0" style="stroke:none;fill:#cccccc;"/>
<rect x="479.600000" y="38.000000" width="129.000000" height="24.000000" rx="0" ry="0" style="stroke:none;fill:#003366;"/>
</a>
<a xlink:href="bypass1-0x7fc295740490.svg">
<text x="544.100000" y="52.000000" font-family="Arial" font-size="7" text-anchor="middle" fill="#FFFFFF">bypass1(vgrou...w) : *),_:&gt;_)</text>
</a>
<circle cx="481.600000" cy="40.000000" r="1"/>
<line x1="476.600000" y1="49.000000" x2="479.600000" y2="50.000000"  transform="rotate(0.000000,479.600000,50.000000)" style="stroke: black; stroke-width:0.25;"/>
<line x1="476.600000" y1="51.000000" x2="479.600000" y2="50.000000"  transform="rotate(0.000000,479.600000,50.000000)" style="stroke: black; stroke-width:0.25;"/>
<line x1="41.000000" y1="25.000000" x2="41.000000" y2="75.000000"  style="stroke: black; stroke-linecap:round; stroke-width:0.25; stroke-dasharray:3,3;"/>
<line x1="41.000000" y1="75.000000" x2="617.600000" y2="75.000000"  style="stroke: black; stroke-linecap:round; stroke-width:0.25; stroke-dasharray:3,3;"/>
<line x1="617.600000" y1="75.000000" x2="617.600000" y2="25.000000"  style="stroke: black; stroke-linecap:round; stroke-width:0.25; stroke-dasharray:3,3;"/>
<line x1="41.000000" y1="25.000000" x2="46.000000" y2="25.000000"  style="stroke: black; stroke-linecap:round; stroke-width:0.25; stroke-dasharray:3,3;"/>
<line x1="104.050000" y1="25.000000" x2="617.600000" y2="25.000000"  style="stroke: black; stroke-linecap:round; stroke-width:0.25; stroke-dasharray:3,3;"/>
<text x="46.000000" y="27.000000" font-family="Arial" font-size="7">vgroup(CH SETUP)</text>
<line x1="15.000000" y1="15.000000" x2="15.000000" y2="85.000000"  style="stroke: black; stroke-linecap:round; stroke-width:0.25; stroke-dasharray:3,3;"/>
<line x1="15.000000" y1="85.000000" x2="635.600000" y2="85.000000"  style="stroke: black; stroke-linecap:round; stroke-width:0.25; stroke-dasharray:3,3;"/>
<line x1="635.600000" y1="85.000000" x2="635.600000" y2="15.000000"  style="stroke: black; stroke-linecap:round; stroke-width:0.25; stroke-dasharray:3,3;"/>
<line x1="15.000000" y1="15.000000" x2="20.000000" y2="15.000000"  style="stroke: black; stroke-linecap:round; stroke-width:0.25; stroke-dasharray:3,3;"/>
<line x1="42.575000" y1="15.000000" x2="635.600000" y2="15.000000"  style="stroke: black; stroke-linecap:round; stroke-width:0.25; stroke-dasharray:3,3;"/>
<text x="20.000000" y="17.000000" font-family="Arial" font-size="7">inpeq</text>
<line x1="637.600000" y1="49.000000" x2="640.600000" y2="50.000000"  transform="rotate(0.000000,640.600000,50.000000)" style="stroke: black; stroke-width:0.25;"/>
<line x1="637.600000" y1="51.000000" x2="640.600000" y2="50.000000"  transform="rotate(0.000000,640.600000,50.000000)" style="stroke: black; stroke-width:0.25;"/>
<line x1="10.000000" y1="50.000000" x2="20.000000" y2="50.000000"  style="stroke:black; stroke-linecap:round; stroke-width:0.25;"/>
<line x1="20.000000" y1="50.000000" x2="24.000000" y2="50.000000"  style="stroke:black; stroke-linecap:round; stroke-width:0.25;"/>
<line x1="24.000000" y1="50.000000" x2="28.000000" y2="50.000000"  style="stroke:black; stroke-linecap:round; stroke-width:0.25;"/>
<line x1="28.000000" y1="34.000000" x2="36.000000" y2="34.000000"  style="stroke:black; stroke-linecap:round; stroke-width:0.25;"/>
<line x1="28.000000" y1="50.000000" x2="28.000000" y2="34.000000"  style="stroke:black; stroke-linecap:round; stroke-width:0.25;"/>
<line x1="28.000000" y1="50.000000" x2="28.000000" y2="50.000000"  style="stroke:black; stroke-linecap:round; stroke-width:0.25;"/>
<line x1="36.000000" y1="34.000000" x2="46.000000" y2="34.000000"  style="stroke:black; stroke-linecap:round; stroke-width:0.25;"/>
<line x1="46.000000" y1="34.000000" x2="62.900000" y2="34.000000"  style="stroke:black; stroke-linecap:round; stroke-width:0.25;"/>
<line x1="62.900000" y1="34.000000" x2="79.800000" y2="34.000000"  style="stroke:black; stroke-linecap:round; stroke-width:0.25;"/>
<line x1="75.800000" y1="54.000000" x2="79.800000" y2="54.000000"  style="stroke:black; stroke-linecap:round; stroke-width:0.25;"/>
<line x1="79.800000" y1="34.000000" x2="87.800000" y2="34.000000"  style="stroke:black; stroke-linecap:round; stroke-width:0.25;"/>
<line x1="79.800000" y1="54.000000" x2="87.800000" y2="54.000000"  style="stroke:black; stroke-linecap:round; stroke-width:0.25;"/>
<line x1="87.800000" y1="34.000000" x2="87.800000" y2="46.000000"  style="stroke:black; stroke-linecap:round; stroke-width:0.25;"/>
<line x1="87.800000" y1="46.000000" x2="87.800000" y2="46.000000"  style="stroke:black; stroke-linecap:round; stroke-width:0.25;"/>
<line x1="87.800000" y1="46.000000" x2="91.800000" y2="46.000000"  style="stroke:black; stroke-linecap:round; stroke-width:0.25;"/>
<line x1="87.800000" y1="54.000000" x2="91.800000" y2="54.000000"  style="stroke:black; stroke-linecap:round; stroke-width:0.25;"/>
<line x1="115.800000" y1="50.000000" x2="119.800000" y2="50.000000"  style="stroke:black; stroke-linecap:round; stroke-width:0.25;"/>
<line x1="119.800000" y1="34.000000" x2="127.800000" y2="34.000000"  style="stroke:black; stroke-linecap:round; stroke-width:0.25;"/>
<line x1="119.800000" y1="50.000000" x2="119.800000" y2="34.000000"  style="stroke:black; stroke-linecap:round; stroke-width:0.25;"/>
<line x1="119.800000" y1="50.000000" x2="119.800000" y2="50.000000"  style="stroke:black; stroke-linecap:round; stroke-width:0.25;"/>
<line x1="127.800000" y1="34.000000" x2="144.700000" y2="34.000000"  style="stroke:black; stroke-linecap:round; stroke-width:0.25;"/>
<line x1="144.700000" y1="34.000000" x2="161.600000" y2="34.000000"  style="stroke:black; stroke-linecap:round; stroke-width:0.25;"/>
<line x1="157.600000" y1="54.000000" x2="161.600000" y2="54.000000"  style="stroke:black; stroke-linecap:round; stroke-width:0.25;"/>
<line x1="161.600000" y1="34.000000" x2="169.600000" y2="34.000000"  style="stroke:black; stroke-linecap:round; stroke-width:0.25;"/>
<line x1="161.600000" y1="54.000000" x2="169.600000" y2="54.000000"  style="stroke:black; stroke-linecap:round; stroke-width:0.25;"/>
<line x1="169.600000" y1="34.000000" x2="169.600000" y2="46.000000"  style="stroke:black; stroke-linecap:round; stroke-width:0.25;"/>
<line x1="169.600000" y1="46.000000" x2="169.600000" y2="46.000000"  style="stroke:black; stroke-linecap:round; stroke-width:0.25;"/>
<line x1="169.600000" y1="46.000000" x2="173.600000" y2="46.000000"  style="stroke:black; stroke-linecap:round; stroke-width:0.25;"/>
<line x1="169.600000" y1="54.000000" x2="173.600000" y2="54.000000"  style="stroke:black; stroke-linecap:round; stroke-width:0.25;"/>
<line x1="197.600000" y1="50.000000" x2="201.600000" y2="50.000000"  style="stroke:black; stroke-linecap:round; stroke-width:0.25;"/>
<line x1="201.600000" y1="50.000000" x2="201.600000" y2="50.000000"  style="stroke:black; stroke-linecap:round; stroke-width:0.25;"/>
<line x1="201.600000" y1="50.000000" x2="205.600000" y2="50.000000"  style="stroke:black; stroke-linecap:round; stroke-width:0.25;"/>
<line x1="334.600000" y1="50.000000" x2="338.600000" y2="50.000000"  style="stroke:black; stroke-linecap:round; stroke-width:0.25;"/>
<line x1="338.600000" y1="50.000000" x2="338.600000" y2="50.000000"  style="stroke:black; stroke-linecap:round; stroke-width:0.25;"/>
<line x1="338.600000" y1="50.000000" x2="342.600000" y2="50.000000"  style="stroke:black; stroke-linecap:round; stroke-width:0.25;"/>
<line x1="471.600000" y1="50.000000" x2="475.600000" y2="50.000000"  style="stroke:black; stroke-linecap:round; stroke-width:0.25;"/>
<line x1="475.600000" y1="50.000000" x2="475.600000" y2="50.000000"  style="stroke:black; stroke-linecap:round; stroke-width:0.25;"/>
<line x1="475.600000" y1="50.000000" x2="479.600000" y2="50.000000"  style="stroke:black; stroke-linecap:round; stroke-width:0.25;"/>
<line x1="608.600000" y1="50.000000" x2="612.600000" y2="50.000000"  style="stroke:black; stroke-linecap:round; stroke-width:0.25;"/>
<line x1="612.600000" y1="50.000000" x2="622.600000" y2="50.000000"  style="stroke:black; stroke-linecap:round; stroke-width:0.25;"/>
<line x1="622.600000" y1="50.000000" x2="622.600000" y2="50.000000"  style="stroke:black; stroke-linecap:round; stroke-width:0.25;"/>
<line x1="622.600000" y1="50.000000" x2="626.600000" y2="50.000000"  style="stroke:black; stroke-linecap:round; stroke-width:0.25;"/>
<line x1="626.600000" y1="50.000000" x2="630.600000" y2="50.000000"  style="stroke:black; stroke-linecap:round; stroke-width:0.25;"/>
<line x1="630.600000" y1="50.000000" x2="640.600000" y2="50.000000"  style="stroke:black; stroke-linecap:round; stroke-width:0.25;"/>
</svg>
