<?xml version="1.0"?>
<svg xmlns="http://www.w3.org/2000/svg" xmlns:xlink="http://www.w3.org/1999/xlink" viewBox="0 0 200.500000 164.000000" width="100.250000mm" height="82.000000mm" version="1.1">
<a xlink:href="bypass1-0x7fc29573fca0.svg">
<rect x="1.000000" y="1.000000" width="199.500000" height="163.000000" rx="0" ry="0" style="stroke:none;fill:#cccccc;"/>
<rect x="0.000000" y="0.000000" width="199.500000" height="163.000000" rx="0" ry="0" style="stroke:none;fill:#ffffff;"/>
</a>
<text x="10.000000" y="7.000000" font-family="Arial" font-size="7"></text>
<rect x="65.250000" y="55.000000" width="24.000000" height="24.000000" rx="0" ry="0" style="stroke:none;fill:#cccccc;"/>
<rect x="64.250000" y="54.000000" width="24.000000" height="24.000000" rx="0" ry="0" style="stroke:none;fill:#f44800;"/>
<text x="76.250000" y="68.000000" font-family="Arial" font-size="7" text-anchor="middle" fill="#FFFFFF">1</text>
<circle cx="66.250000" cy="56.000000" r="1"/>
<line x1="55.250000" y1="45.000000" x2="55.250000" y2="87.000000"  style="stroke: black; stroke-linecap:round; stroke-width:0.25; stroke-dasharray:3,3;"/>
<line x1="55.250000" y1="87.000000" x2="97.250000" y2="87.000000"  style="stroke: black; stroke-linecap:round; stroke-width:0.25; stroke-dasharray:3,3;"/>
<line x1="97.250000" y1="87.000000" x2="97.250000" y2="45.000000"  style="stroke: black; stroke-linecap:round; stroke-width:0.25; stroke-dasharray:3,3;"/>
<line x1="55.250000" y1="45.000000" x2="60.250000" y2="45.000000"  style="stroke: black; stroke-linecap:round; stroke-width:0.25; stroke-dasharray:3,3;"/>
<line x1="69.925000" y1="45.000000" x2="97.250000" y2="45.000000"  style="stroke: black; stroke-linecap:round; stroke-width:0.25; stroke-dasharray:3,3;"/>
<text x="60.250000" y="47.000000" font-family="Arial" font-size="7">S</text>
<rect x="45.000000" y="97.000000" width="64.500000" height="24.000000" rx="0" ry="0" style="stroke:none;fill:#cccccc;"/>
<rect x="44.000000" y="96.000000" width="64.500000" height="24.000000" rx="0" ry="0" style="stroke:none;fill:#477881;"/>
<text x="76.250000" y="110.000000" font-family="Arial" font-size="7" text-anchor="middle" fill="#FFFFFF">checkbox(HiCut)</text>
<circle cx="46.000000" cy="98.000000" r="1"/>
<rect x="125.500000" y="71.000000" width="24.000000" height="24.000000" rx="0" ry="0" style="stroke:none;fill:#cccccc;"/>
<rect x="124.500000" y="70.000000" width="24.000000" height="24.000000" rx="0" ry="0" style="stroke:none;fill:#4B71A1;"/>
<text x="136.500000" y="84.000000" font-family="Arial" font-size="7" text-anchor="middle" fill="#FFFFFF">-</text>
<circle cx="126.500000" cy="72.000000" r="1"/>
<line x1="121.500000" y1="77.000000" x2="124.500000" y2="78.000000"  transform="rotate(0.000000,124.500000,78.000000)" style="stroke: black; stroke-width:0.25;"/>
<line x1="121.500000" y1="79.000000" x2="124.500000" y2="78.000000"  transform="rotate(0.000000,124.500000,78.000000)" style="stroke: black; stroke-width:0.25;"/>
<line x1="121.500000" y1="85.000000" x2="124.500000" y2="86.000000"  transform="rotate(0.000000,124.500000,86.000000)" style="stroke: black; stroke-width:0.25;"/>
<line x1="121.500000" y1="87.000000" x2="124.500000" y2="86.000000"  transform="rotate(0.000000,124.500000,86.000000)" style="stroke: black; stroke-width:0.25;"/>
<line x1="35.000000" y1="35.000000" x2="35.000000" y2="129.000000"  style="stroke: black; stroke-linecap:round; stroke-width:0.25; stroke-dasharray:3,3;"/>
<line x1="35.000000" y1="129.000000" x2="157.500000" y2="129.000000"  style="stroke: black; stroke-linecap:round; stroke-width:0.25; stroke-dasharray:3,3;"/>
<line x1="157.500000" y1="129.000000" x2="157.500000" y2="35.000000"  style="stroke: black; stroke-linecap:round; stroke-width:0.25; stroke-dasharray:3,3;"/>
<line x1="35.000000" y1="35.000000" x2="40.000000" y2="35.000000"  style="stroke: black; stroke-linecap:round; stroke-width:0.25; stroke-dasharray:3,3;"/>
<line x1="91.600000" y1="35.000000" x2="157.500000" y2="35.000000"  style="stroke: black; stroke-linecap:round; stroke-width:0.25; stroke-dasharray:3,3;"/>
<text x="40.000000" y="37.000000" font-family="Arial" font-size="7">vgroup(HI CUT)</text>
<line x1="25.000000" y1="25.000000" x2="25.000000" y2="139.000000"  style="stroke: black; stroke-linecap:round; stroke-width:0.25; stroke-dasharray:3,3;"/>
<line x1="25.000000" y1="139.000000" x2="167.500000" y2="139.000000"  style="stroke: black; stroke-linecap:round; stroke-width:0.25; stroke-dasharray:3,3;"/>
<line x1="167.500000" y1="139.000000" x2="167.500000" y2="25.000000"  style="stroke: black; stroke-linecap:round; stroke-width:0.25; stroke-dasharray:3,3;"/>
<line x1="25.000000" y1="25.000000" x2="30.000000" y2="25.000000"  style="stroke: black; stroke-linecap:round; stroke-width:0.25; stroke-dasharray:3,3;"/>
<line x1="97.725000" y1="25.000000" x2="167.500000" y2="25.000000"  style="stroke: black; stroke-linecap:round; stroke-width:0.25; stroke-dasharray:3,3;"/>
<text x="30.000000" y="27.000000" font-family="Arial" font-size="7">hgroup(PRE SECTION)</text>
<line x1="15.000000" y1="15.000000" x2="15.000000" y2="149.000000"  style="stroke: black; stroke-linecap:round; stroke-width:0.25; stroke-dasharray:3,3;"/>
<line x1="15.000000" y1="149.000000" x2="185.500000" y2="149.000000"  style="stroke: black; stroke-linecap:round; stroke-width:0.25; stroke-dasharray:3,3;"/>
<line x1="185.500000" y1="149.000000" x2="185.500000" y2="15.000000"  style="stroke: black; stroke-linecap:round; stroke-width:0.25; stroke-dasharray:3,3;"/>
<line x1="15.000000" y1="15.000000" x2="20.000000" y2="15.000000"  style="stroke: black; stroke-linecap:round; stroke-width:0.25; stroke-dasharray:3,3;"/>
<line x1="36.125000" y1="15.000000" x2="185.500000" y2="15.000000"  style="stroke: black; stroke-linecap:round; stroke-width:0.25; stroke-dasharray:3,3;"/>
<text x="20.000000" y="17.000000" font-family="Arial" font-size="7">lop</text>
<line x1="187.500000" y1="81.000000" x2="190.500000" y2="82.000000"  transform="rotate(0.000000,190.500000,82.000000)" style="stroke: black; stroke-width:0.25;"/>
<line x1="187.500000" y1="83.000000" x2="190.500000" y2="82.000000"  transform="rotate(0.000000,190.500000,82.000000)" style="stroke: black; stroke-width:0.25;"/>
<line x1="88.250000" y1="66.000000" x2="92.250000" y2="66.000000"  style="stroke:black; stroke-linecap:round; stroke-width:0.25;"/>
<line x1="92.250000" y1="66.000000" x2="102.250000" y2="66.000000"  style="stroke:black; stroke-linecap:round; stroke-width:0.25;"/>
<line x1="102.250000" y1="66.000000" x2="112.500000" y2="66.000000"  style="stroke:black; stroke-linecap:round; stroke-width:0.25;"/>
<line x1="108.500000" y1="108.000000" x2="112.500000" y2="108.000000"  style="stroke:black; stroke-linecap:round; stroke-width:0.25;"/>
<line x1="112.500000" y1="66.000000" x2="120.500000" y2="66.000000"  style="stroke:black; stroke-linecap:round; stroke-width:0.25;"/>
<line x1="112.500000" y1="86.000000" x2="120.500000" y2="86.000000"  style="stroke:black; stroke-linecap:round; stroke-width:0.25;"/>
<line x1="112.500000" y1="108.000000" x2="112.500000" y2="86.000000"  style="stroke:black; stroke-linecap:round; stroke-width:0.25;"/>
<line x1="112.500000" y1="108.000000" x2="112.500000" y2="108.000000"  style="stroke:black; stroke-linecap:round; stroke-width:0.25;"/>
<line x1="120.500000" y1="66.000000" x2="120.500000" y2="78.000000"  style="stroke:black; stroke-linecap:round; stroke-width:0.25;"/>
<line x1="120.500000" y1="78.000000" x2="120.500000" y2="78.000000"  style="stroke:black; stroke-linecap:round; stroke-width:0.25;"/>
<line x1="120.500000" y1="78.000000" x2="124.500000" y2="78.000000"  style="stroke:black; stroke-linecap:round; stroke-width:0.25;"/>
<line x1="120.500000" y1="86.000000" x2="124.500000" y2="86.000000"  style="stroke:black; stroke-linecap:round; stroke-width:0.25;"/>
<line x1="148.500000" y1="82.000000" x2="152.500000" y2="82.000000"  style="stroke:black; stroke-linecap:round; stroke-width:0.25;"/>
<line x1="152.500000" y1="82.000000" x2="162.500000" y2="82.000000"  style="stroke:black; stroke-linecap:round; stroke-width:0.25;"/>
<line x1="162.500000" y1="82.000000" x2="172.500000" y2="82.000000"  style="stroke:black; stroke-linecap:round; stroke-width:0.25;"/>
<line x1="172.500000" y1="82.000000" x2="172.500000" y2="82.000000"  style="stroke:black; stroke-linecap:round; stroke-width:0.25;"/>
<line x1="172.500000" y1="82.000000" x2="176.500000" y2="82.000000"  style="stroke:black; stroke-linecap:round; stroke-width:0.25;"/>
<line x1="176.500000" y1="82.000000" x2="180.500000" y2="82.000000"  style="stroke:black; stroke-linecap:round; stroke-width:0.25;"/>
<line x1="180.500000" y1="82.000000" x2="190.500000" y2="82.000000"  style="stroke:black; stroke-linecap:round; stroke-width:0.25;"/>
</svg>
