<?xml version="1.0"?>
<svg xmlns="http://www.w3.org/2000/svg" xmlns:xlink="http://www.w3.org/1999/xlink" viewBox="0 0 193.800000 476.000000" width="96.900000mm" height="238.000000mm" version="1.1">
<a xlink:href="process.svg">
<rect x="1.000000" y="1.000000" width="192.800000" height="475.000000" rx="0" ry="0" style="stroke:none;fill:#cccccc;"/>
<rect x="0.000000" y="0.000000" width="192.800000" height="475.000000" rx="0" ry="0" style="stroke:none;fill:#ffffff;"/>
</a>
<text x="10.000000" y="7.000000" font-family="Arial" font-size="7"></text>
<a xlink:href="hmeter-0x7fe54e820200.svg">
<rect x="85.000000" y="45.000000" width="25.800000" height="24.000000" rx="0" ry="0" style="stroke:none;fill:#cccccc;"/>
<rect x="84.000000" y="44.000000" width="25.800000" height="24.000000" rx="0" ry="0" style="stroke:none;fill:#003366;"/>
</a>
<a xlink:href="hmeter-0x7fe54e820200.svg">
<text x="96.900000" y="58.000000" font-family="Arial" font-size="7" text-anchor="middle" fill="#FFFFFF">hmeter</text>
</a>
<circle cx="86.000000" cy="46.000000" r="1"/>
<line x1="81.000000" y1="55.000000" x2="84.000000" y2="56.000000"  transform="rotate(0.000000,84.000000,56.000000)" style="stroke: black; stroke-width:0.25;"/>
<line x1="81.000000" y1="57.000000" x2="84.000000" y2="56.000000"  transform="rotate(0.000000,84.000000,56.000000)" style="stroke: black; stroke-width:0.25;"/>
<line x1="75.000000" y1="35.000000" x2="75.000000" y2="77.000000"  style="stroke: black; stroke-linecap:round; stroke-width:0.25; stroke-dasharray:3,3;"/>
<line x1="75.000000" y1="77.000000" x2="118.800000" y2="77.000000"  style="stroke: black; stroke-linecap:round; stroke-width:0.25; stroke-dasharray:3,3;"/>
<line x1="118.800000" y1="77.000000" x2="118.800000" y2="35.000000"  style="stroke: black; stroke-linecap:round; stroke-width:0.25; stroke-dasharray:3,3;"/>
<line x1="75.000000" y1="35.000000" x2="80.000000" y2="35.000000"  style="stroke: black; stroke-linecap:round; stroke-width:0.25; stroke-dasharray:3,3;"/>
<line x1="118.800000" y1="35.000000" x2="118.800000" y2="35.000000"  style="stroke: black; stroke-linecap:round; stroke-width:0.25; stroke-dasharray:3,3;"/>
<text x="80.000000" y="37.000000" font-family="Arial" font-size="7">vgroup(DIRECT)</text>
<a xlink:href="hmeter-0x7fe54e820200.svg">
<rect x="85.000000" y="97.000000" width="25.800000" height="24.000000" rx="0" ry="0" style="stroke:none;fill:#cccccc;"/>
<rect x="84.000000" y="96.000000" width="25.800000" height="24.000000" rx="0" ry="0" style="stroke:none;fill:#003366;"/>
</a>
<a xlink:href="hmeter-0x7fe54e820200.svg">
<text x="96.900000" y="110.000000" font-family="Arial" font-size="7" text-anchor="middle" fill="#FFFFFF">hmeter</text>
</a>
<circle cx="86.000000" cy="98.000000" r="1"/>
<line x1="81.000000" y1="107.000000" x2="84.000000" y2="108.000000"  transform="rotate(0.000000,84.000000,108.000000)" style="stroke: black; stroke-width:0.25;"/>
<line x1="81.000000" y1="109.000000" x2="84.000000" y2="108.000000"  transform="rotate(0.000000,84.000000,108.000000)" style="stroke: black; stroke-width:0.25;"/>
<line x1="75.000000" y1="87.000000" x2="75.000000" y2="129.000000"  style="stroke: black; stroke-linecap:round; stroke-width:0.25; stroke-dasharray:3,3;"/>
<line x1="75.000000" y1="129.000000" x2="118.800000" y2="129.000000"  style="stroke: black; stroke-linecap:round; stroke-width:0.25; stroke-dasharray:3,3;"/>
<line x1="118.800000" y1="129.000000" x2="118.800000" y2="87.000000"  style="stroke: black; stroke-linecap:round; stroke-width:0.25; stroke-dasharray:3,3;"/>
<line x1="75.000000" y1="87.000000" x2="80.000000" y2="87.000000"  style="stroke: black; stroke-linecap:round; stroke-width:0.25; stroke-dasharray:3,3;"/>
<line x1="118.800000" y1="87.000000" x2="118.800000" y2="87.000000"  style="stroke: black; stroke-linecap:round; stroke-width:0.25; stroke-dasharray:3,3;"/>
<text x="80.000000" y="89.000000" font-family="Arial" font-size="7">vgroup(DELAY)</text>
<a xlink:href="hmeter-0x7fe54e820200.svg">
<rect x="85.000000" y="149.000000" width="25.800000" height="24.000000" rx="0" ry="0" style="stroke:none;fill:#cccccc;"/>
<rect x="84.000000" y="148.000000" width="25.800000" height="24.000000" rx="0" ry="0" style="stroke:none;fill:#003366;"/>
</a>
<a xlink:href="hmeter-0x7fe54e820200.svg">
<text x="96.900000" y="162.000000" font-family="Arial" font-size="7" text-anchor="middle" fill="#FFFFFF">hmeter</text>
</a>
<circle cx="86.000000" cy="150.000000" r="1"/>
<line x1="81.000000" y1="159.000000" x2="84.000000" y2="160.000000"  transform="rotate(0.000000,84.000000,160.000000)" style="stroke: black; stroke-width:0.25;"/>
<line x1="81.000000" y1="161.000000" x2="84.000000" y2="160.000000"  transform="rotate(0.000000,84.000000,160.000000)" style="stroke: black; stroke-width:0.25;"/>
<line x1="75.000000" y1="139.000000" x2="75.000000" y2="181.000000"  style="stroke: black; stroke-linecap:round; stroke-width:0.25; stroke-dasharray:3,3;"/>
<line x1="75.000000" y1="181.000000" x2="118.800000" y2="181.000000"  style="stroke: black; stroke-linecap:round; stroke-width:0.25; stroke-dasharray:3,3;"/>
<line x1="118.800000" y1="181.000000" x2="118.800000" y2="139.000000"  style="stroke: black; stroke-linecap:round; stroke-width:0.25; stroke-dasharray:3,3;"/>
<line x1="75.000000" y1="139.000000" x2="80.000000" y2="139.000000"  style="stroke: black; stroke-linecap:round; stroke-width:0.25; stroke-dasharray:3,3;"/>
<line x1="118.800000" y1="139.000000" x2="118.800000" y2="139.000000"  style="stroke: black; stroke-linecap:round; stroke-width:0.25; stroke-dasharray:3,3;"/>
<text x="80.000000" y="141.000000" font-family="Arial" font-size="7">vgroup(REVERB 10~80 sec)</text>
<a xlink:href="hmeter-0x7fe54e820200.svg">
<rect x="85.000000" y="201.000000" width="25.800000" height="24.000000" rx="0" ry="0" style="stroke:none;fill:#cccccc;"/>
<rect x="84.000000" y="200.000000" width="25.800000" height="24.000000" rx="0" ry="0" style="stroke:none;fill:#003366;"/>
</a>
<a xlink:href="hmeter-0x7fe54e820200.svg">
<text x="96.900000" y="214.000000" font-family="Arial" font-size="7" text-anchor="middle" fill="#FFFFFF">hmeter</text>
</a>
<circle cx="86.000000" cy="202.000000" r="1"/>
<line x1="81.000000" y1="211.000000" x2="84.000000" y2="212.000000"  transform="rotate(0.000000,84.000000,212.000000)" style="stroke: black; stroke-width:0.25;"/>
<line x1="81.000000" y1="213.000000" x2="84.000000" y2="212.000000"  transform="rotate(0.000000,84.000000,212.000000)" style="stroke: black; stroke-width:0.25;"/>
<line x1="75.000000" y1="191.000000" x2="75.000000" y2="233.000000"  style="stroke: black; stroke-linecap:round; stroke-width:0.25; stroke-dasharray:3,3;"/>
<line x1="75.000000" y1="233.000000" x2="118.800000" y2="233.000000"  style="stroke: black; stroke-linecap:round; stroke-width:0.25; stroke-dasharray:3,3;"/>
<line x1="118.800000" y1="233.000000" x2="118.800000" y2="191.000000"  style="stroke: black; stroke-linecap:round; stroke-width:0.25; stroke-dasharray:3,3;"/>
<line x1="75.000000" y1="191.000000" x2="80.000000" y2="191.000000"  style="stroke: black; stroke-linecap:round; stroke-width:0.25; stroke-dasharray:3,3;"/>
<line x1="118.800000" y1="191.000000" x2="118.800000" y2="191.000000"  style="stroke: black; stroke-linecap:round; stroke-width:0.25; stroke-dasharray:3,3;"/>
<text x="80.000000" y="193.000000" font-family="Arial" font-size="7">vgroup(REVERB 4 sec)</text>
<a xlink:href="hmeter-0x7fe54e820200.svg">
<rect x="85.000000" y="253.000000" width="25.800000" height="24.000000" rx="0" ry="0" style="stroke:none;fill:#cccccc;"/>
<rect x="84.000000" y="252.000000" width="25.800000" height="24.000000" rx="0" ry="0" style="stroke:none;fill:#003366;"/>
</a>
<a xlink:href="hmeter-0x7fe54e820200.svg">
<text x="96.900000" y="266.000000" font-family="Arial" font-size="7" text-anchor="middle" fill="#FFFFFF">hmeter</text>
</a>
<circle cx="86.000000" cy="254.000000" r="1"/>
<line x1="81.000000" y1="263.000000" x2="84.000000" y2="264.000000"  transform="rotate(0.000000,84.000000,264.000000)" style="stroke: black; stroke-width:0.25;"/>
<line x1="81.000000" y1="265.000000" x2="84.000000" y2="264.000000"  transform="rotate(0.000000,84.000000,264.000000)" style="stroke: black; stroke-width:0.25;"/>
<line x1="75.000000" y1="243.000000" x2="75.000000" y2="285.000000"  style="stroke: black; stroke-linecap:round; stroke-width:0.25; stroke-dasharray:3,3;"/>
<line x1="75.000000" y1="285.000000" x2="118.800000" y2="285.000000"  style="stroke: black; stroke-linecap:round; stroke-width:0.25; stroke-dasharray:3,3;"/>
<line x1="118.800000" y1="285.000000" x2="118.800000" y2="243.000000"  style="stroke: black; stroke-linecap:round; stroke-width:0.25; stroke-dasharray:3,3;"/>
<line x1="75.000000" y1="243.000000" x2="80.000000" y2="243.000000"  style="stroke: black; stroke-linecap:round; stroke-width:0.25; stroke-dasharray:3,3;"/>
<line x1="118.800000" y1="243.000000" x2="118.800000" y2="243.000000"  style="stroke: black; stroke-linecap:round; stroke-width:0.25; stroke-dasharray:3,3;"/>
<text x="80.000000" y="245.000000" font-family="Arial" font-size="7">vgroup(HARMONIZER)</text>
<a xlink:href="hmeter-0x7fe54e820200.svg">
<rect x="85.000000" y="305.000000" width="25.800000" height="24.000000" rx="0" ry="0" style="stroke:none;fill:#cccccc;"/>
<rect x="84.000000" y="304.000000" width="25.800000" height="24.000000" rx="0" ry="0" style="stroke:none;fill:#003366;"/>
</a>
<a xlink:href="hmeter-0x7fe54e820200.svg">
<text x="96.900000" y="318.000000" font-family="Arial" font-size="7" text-anchor="middle" fill="#FFFFFF">hmeter</text>
</a>
<circle cx="86.000000" cy="306.000000" r="1"/>
<line x1="81.000000" y1="315.000000" x2="84.000000" y2="316.000000"  transform="rotate(0.000000,84.000000,316.000000)" style="stroke: black; stroke-width:0.25;"/>
<line x1="81.000000" y1="317.000000" x2="84.000000" y2="316.000000"  transform="rotate(0.000000,84.000000,316.000000)" style="stroke: black; stroke-width:0.25;"/>
<line x1="75.000000" y1="295.000000" x2="75.000000" y2="337.000000"  style="stroke: black; stroke-linecap:round; stroke-width:0.25; stroke-dasharray:3,3;"/>
<line x1="75.000000" y1="337.000000" x2="118.800000" y2="337.000000"  style="stroke: black; stroke-linecap:round; stroke-width:0.25; stroke-dasharray:3,3;"/>
<line x1="118.800000" y1="337.000000" x2="118.800000" y2="295.000000"  style="stroke: black; stroke-linecap:round; stroke-width:0.25; stroke-dasharray:3,3;"/>
<line x1="75.000000" y1="295.000000" x2="80.000000" y2="295.000000"  style="stroke: black; stroke-linecap:round; stroke-width:0.25; stroke-dasharray:3,3;"/>
<line x1="118.800000" y1="295.000000" x2="118.800000" y2="295.000000"  style="stroke: black; stroke-linecap:round; stroke-width:0.25; stroke-dasharray:3,3;"/>
<text x="80.000000" y="297.000000" font-family="Arial" font-size="7">vgroup(HALAPHON 1)</text>
<a xlink:href="hmeter-0x7fe54e820200.svg">
<rect x="85.000000" y="357.000000" width="25.800000" height="24.000000" rx="0" ry="0" style="stroke:none;fill:#cccccc;"/>
<rect x="84.000000" y="356.000000" width="25.800000" height="24.000000" rx="0" ry="0" style="stroke:none;fill:#003366;"/>
</a>
<a xlink:href="hmeter-0x7fe54e820200.svg">
<text x="96.900000" y="370.000000" font-family="Arial" font-size="7" text-anchor="middle" fill="#FFFFFF">hmeter</text>
</a>
<circle cx="86.000000" cy="358.000000" r="1"/>
<line x1="81.000000" y1="367.000000" x2="84.000000" y2="368.000000"  transform="rotate(0.000000,84.000000,368.000000)" style="stroke: black; stroke-width:0.25;"/>
<line x1="81.000000" y1="369.000000" x2="84.000000" y2="368.000000"  transform="rotate(0.000000,84.000000,368.000000)" style="stroke: black; stroke-width:0.25;"/>
<line x1="75.000000" y1="347.000000" x2="75.000000" y2="389.000000"  style="stroke: black; stroke-linecap:round; stroke-width:0.25; stroke-dasharray:3,3;"/>
<line x1="75.000000" y1="389.000000" x2="118.800000" y2="389.000000"  style="stroke: black; stroke-linecap:round; stroke-width:0.25; stroke-dasharray:3,3;"/>
<line x1="118.800000" y1="389.000000" x2="118.800000" y2="347.000000"  style="stroke: black; stroke-linecap:round; stroke-width:0.25; stroke-dasharray:3,3;"/>
<line x1="75.000000" y1="347.000000" x2="80.000000" y2="347.000000"  style="stroke: black; stroke-linecap:round; stroke-width:0.25; stroke-dasharray:3,3;"/>
<line x1="118.800000" y1="347.000000" x2="118.800000" y2="347.000000"  style="stroke: black; stroke-linecap:round; stroke-width:0.25; stroke-dasharray:3,3;"/>
<text x="80.000000" y="349.000000" font-family="Arial" font-size="7">vgroup(HALAPHON 2)</text>
<a xlink:href="hmeter-0x7fe54e820200.svg">
<rect x="85.000000" y="409.000000" width="25.800000" height="24.000000" rx="0" ry="0" style="stroke:none;fill:#cccccc;"/>
<rect x="84.000000" y="408.000000" width="25.800000" height="24.000000" rx="0" ry="0" style="stroke:none;fill:#003366;"/>
</a>
<a xlink:href="hmeter-0x7fe54e820200.svg">
<text x="96.900000" y="422.000000" font-family="Arial" font-size="7" text-anchor="middle" fill="#FFFFFF">hmeter</text>
</a>
<circle cx="86.000000" cy="410.000000" r="1"/>
<line x1="81.000000" y1="419.000000" x2="84.000000" y2="420.000000"  transform="rotate(0.000000,84.000000,420.000000)" style="stroke: black; stroke-width:0.25;"/>
<line x1="81.000000" y1="421.000000" x2="84.000000" y2="420.000000"  transform="rotate(0.000000,84.000000,420.000000)" style="stroke: black; stroke-width:0.25;"/>
<line x1="75.000000" y1="399.000000" x2="75.000000" y2="441.000000"  style="stroke: black; stroke-linecap:round; stroke-width:0.25; stroke-dasharray:3,3;"/>
<line x1="75.000000" y1="441.000000" x2="118.800000" y2="441.000000"  style="stroke: black; stroke-linecap:round; stroke-width:0.25; stroke-dasharray:3,3;"/>
<line x1="118.800000" y1="441.000000" x2="118.800000" y2="399.000000"  style="stroke: black; stroke-linecap:round; stroke-width:0.25; stroke-dasharray:3,3;"/>
<line x1="75.000000" y1="399.000000" x2="80.000000" y2="399.000000"  style="stroke: black; stroke-linecap:round; stroke-width:0.25; stroke-dasharray:3,3;"/>
<line x1="118.800000" y1="399.000000" x2="118.800000" y2="399.000000"  style="stroke: black; stroke-linecap:round; stroke-width:0.25; stroke-dasharray:3,3;"/>
<text x="80.000000" y="401.000000" font-family="Arial" font-size="7">vgroup(HALAPHON 3)</text>
<line x1="65.000000" y1="25.000000" x2="65.000000" y2="451.000000"  style="stroke: black; stroke-linecap:round; stroke-width:0.25; stroke-dasharray:3,3;"/>
<line x1="65.000000" y1="451.000000" x2="128.800000" y2="451.000000"  style="stroke: black; stroke-linecap:round; stroke-width:0.25; stroke-dasharray:3,3;"/>
<line x1="128.800000" y1="451.000000" x2="128.800000" y2="25.000000"  style="stroke: black; stroke-linecap:round; stroke-width:0.25; stroke-dasharray:3,3;"/>
<line x1="65.000000" y1="25.000000" x2="70.000000" y2="25.000000"  style="stroke: black; stroke-linecap:round; stroke-width:0.25; stroke-dasharray:3,3;"/>
<line x1="128.800000" y1="25.000000" x2="128.800000" y2="25.000000"  style="stroke: black; stroke-linecap:round; stroke-width:0.25; stroke-dasharray:3,3;"/>
<text x="70.000000" y="27.000000" font-family="Arial" font-size="7">vgroup(METER BRIDGE)</text>
<line x1="15.000000" y1="15.000000" x2="15.000000" y2="461.000000"  style="stroke: black; stroke-linecap:round; stroke-width:0.25; stroke-dasharray:3,3;"/>
<line x1="15.000000" y1="461.000000" x2="178.800000" y2="461.000000"  style="stroke: black; stroke-linecap:round; stroke-width:0.25; stroke-dasharray:3,3;"/>
<line x1="178.800000" y1="461.000000" x2="178.800000" y2="15.000000"  style="stroke: black; stroke-linecap:round; stroke-width:0.25; stroke-dasharray:3,3;"/>
<line x1="15.000000" y1="15.000000" x2="20.000000" y2="15.000000"  style="stroke: black; stroke-linecap:round; stroke-width:0.25; stroke-dasharray:3,3;"/>
<line x1="61.925000" y1="15.000000" x2="178.800000" y2="15.000000"  style="stroke: black; stroke-linecap:round; stroke-width:0.25; stroke-dasharray:3,3;"/>
<text x="20.000000" y="17.000000" font-family="Arial" font-size="7">meterbridge</text>
<line x1="180.800000" y1="209.000000" x2="183.800000" y2="210.000000"  transform="rotate(0.000000,183.800000,210.000000)" style="stroke: black; stroke-width:0.25;"/>
<line x1="180.800000" y1="211.000000" x2="183.800000" y2="210.000000"  transform="rotate(0.000000,183.800000,210.000000)" style="stroke: black; stroke-width:0.25;"/>
<line x1="180.800000" y1="217.000000" x2="183.800000" y2="218.000000"  transform="rotate(0.000000,183.800000,218.000000)" style="stroke: black; stroke-width:0.25;"/>
<line x1="180.800000" y1="219.000000" x2="183.800000" y2="218.000000"  transform="rotate(0.000000,183.800000,218.000000)" style="stroke: black; stroke-width:0.25;"/>
<line x1="180.800000" y1="225.000000" x2="183.800000" y2="226.000000"  transform="rotate(0.000000,183.800000,226.000000)" style="stroke: black; stroke-width:0.25;"/>
<line x1="180.800000" y1="227.000000" x2="183.800000" y2="226.000000"  transform="rotate(0.000000,183.800000,226.000000)" style="stroke: black; stroke-width:0.25;"/>
<line x1="180.800000" y1="233.000000" x2="183.800000" y2="234.000000"  transform="rotate(0.000000,183.800000,234.000000)" style="stroke: black; stroke-width:0.25;"/>
<line x1="180.800000" y1="235.000000" x2="183.800000" y2="234.000000"  transform="rotate(0.000000,183.800000,234.000000)" style="stroke: black; stroke-width:0.25;"/>
<line x1="180.800000" y1="241.000000" x2="183.800000" y2="242.000000"  transform="rotate(0.000000,183.800000,242.000000)" style="stroke: black; stroke-width:0.25;"/>
<line x1="180.800000" y1="243.000000" x2="183.800000" y2="242.000000"  transform="rotate(0.000000,183.800000,242.000000)" style="stroke: black; stroke-width:0.25;"/>
<line x1="180.800000" y1="249.000000" x2="183.800000" y2="250.000000"  transform="rotate(0.000000,183.800000,250.000000)" style="stroke: black; stroke-width:0.25;"/>
<line x1="180.800000" y1="251.000000" x2="183.800000" y2="250.000000"  transform="rotate(0.000000,183.800000,250.000000)" style="stroke: black; stroke-width:0.25;"/>
<line x1="180.800000" y1="257.000000" x2="183.800000" y2="258.000000"  transform="rotate(0.000000,183.800000,258.000000)" style="stroke: black; stroke-width:0.25;"/>
<line x1="180.800000" y1="259.000000" x2="183.800000" y2="258.000000"  transform="rotate(0.000000,183.800000,258.000000)" style="stroke: black; stroke-width:0.25;"/>
<line x1="180.800000" y1="265.000000" x2="183.800000" y2="266.000000"  transform="rotate(0.000000,183.800000,266.000000)" style="stroke: black; stroke-width:0.25;"/>
<line x1="180.800000" y1="267.000000" x2="183.800000" y2="266.000000"  transform="rotate(0.000000,183.800000,266.000000)" style="stroke: black; stroke-width:0.25;"/>
<line x1="10.000000" y1="210.000000" x2="20.000000" y2="210.000000"  style="stroke:black; stroke-linecap:round; stroke-width:0.25;"/>
<line x1="10.000000" y1="218.000000" x2="20.000000" y2="218.000000"  style="stroke:black; stroke-linecap:round; stroke-width:0.25;"/>
<line x1="10.000000" y1="226.000000" x2="20.000000" y2="226.000000"  style="stroke:black; stroke-linecap:round; stroke-width:0.25;"/>
<line x1="10.000000" y1="234.000000" x2="20.000000" y2="234.000000"  style="stroke:black; stroke-linecap:round; stroke-width:0.25;"/>
<line x1="10.000000" y1="242.000000" x2="20.000000" y2="242.000000"  style="stroke:black; stroke-linecap:round; stroke-width:0.25;"/>
<line x1="10.000000" y1="250.000000" x2="20.000000" y2="250.000000"  style="stroke:black; stroke-linecap:round; stroke-width:0.25;"/>
<line x1="10.000000" y1="258.000000" x2="20.000000" y2="258.000000"  style="stroke:black; stroke-linecap:round; stroke-width:0.25;"/>
<line x1="10.000000" y1="266.000000" x2="20.000000" y2="266.000000"  style="stroke:black; stroke-linecap:round; stroke-width:0.25;"/>
<line x1="20.000000" y1="210.000000" x2="24.000000" y2="210.000000"  style="stroke:black; stroke-linecap:round; stroke-width:0.25;"/>
<line x1="20.000000" y1="218.000000" x2="24.000000" y2="218.000000"  style="stroke:black; stroke-linecap:round; stroke-width:0.25;"/>
<line x1="20.000000" y1="226.000000" x2="24.000000" y2="226.000000"  style="stroke:black; stroke-linecap:round; stroke-width:0.25;"/>
<line x1="20.000000" y1="234.000000" x2="24.000000" y2="234.000000"  style="stroke:black; stroke-linecap:round; stroke-width:0.25;"/>
<line x1="20.000000" y1="242.000000" x2="24.000000" y2="242.000000"  style="stroke:black; stroke-linecap:round; stroke-width:0.25;"/>
<line x1="20.000000" y1="250.000000" x2="24.000000" y2="250.000000"  style="stroke:black; stroke-linecap:round; stroke-width:0.25;"/>
<line x1="20.000000" y1="258.000000" x2="24.000000" y2="258.000000"  style="stroke:black; stroke-linecap:round; stroke-width:0.25;"/>
<line x1="20.000000" y1="266.000000" x2="24.000000" y2="266.000000"  style="stroke:black; stroke-linecap:round; stroke-width:0.25;"/>
<line x1="24.000000" y1="210.000000" x2="28.000000" y2="210.000000"  style="stroke:black; stroke-linecap:round; stroke-width:0.25;"/>
<line x1="24.000000" y1="218.000000" x2="28.000000" y2="218.000000"  style="stroke:black; stroke-linecap:round; stroke-width:0.25;"/>
<line x1="24.000000" y1="226.000000" x2="28.000000" y2="226.000000"  style="stroke:black; stroke-linecap:round; stroke-width:0.25;"/>
<line x1="24.000000" y1="234.000000" x2="28.000000" y2="234.000000"  style="stroke:black; stroke-linecap:round; stroke-width:0.25;"/>
<line x1="24.000000" y1="242.000000" x2="28.000000" y2="242.000000"  style="stroke:black; stroke-linecap:round; stroke-width:0.25;"/>
<line x1="24.000000" y1="250.000000" x2="28.000000" y2="250.000000"  style="stroke:black; stroke-linecap:round; stroke-width:0.25;"/>
<line x1="24.000000" y1="258.000000" x2="28.000000" y2="258.000000"  style="stroke:black; stroke-linecap:round; stroke-width:0.25;"/>
<line x1="24.000000" y1="266.000000" x2="28.000000" y2="266.000000"  style="stroke:black; stroke-linecap:round; stroke-width:0.25;"/>
<line x1="28.000000" y1="56.000000" x2="60.000000" y2="56.000000"  style="stroke:black; stroke-linecap:round; stroke-width:0.25;"/>
<line x1="28.000000" y1="210.000000" x2="28.000000" y2="56.000000"  style="stroke:black; stroke-linecap:round; stroke-width:0.25;"/>
<line x1="28.000000" y1="210.000000" x2="28.000000" y2="210.000000"  style="stroke:black; stroke-linecap:round; stroke-width:0.25;"/>
<line x1="28.000000" y1="218.000000" x2="36.000000" y2="218.000000"  style="stroke:black; stroke-linecap:round; stroke-width:0.25;"/>
<line x1="28.000000" y1="226.000000" x2="44.000000" y2="226.000000"  style="stroke:black; stroke-linecap:round; stroke-width:0.25;"/>
<line x1="28.000000" y1="234.000000" x2="52.000000" y2="234.000000"  style="stroke:black; stroke-linecap:round; stroke-width:0.25;"/>
<line x1="28.000000" y1="242.000000" x2="60.000000" y2="242.000000"  style="stroke:black; stroke-linecap:round; stroke-width:0.25;"/>
<line x1="28.000000" y1="250.000000" x2="52.000000" y2="250.000000"  style="stroke:black; stroke-linecap:round; stroke-width:0.25;"/>
<line x1="28.000000" y1="258.000000" x2="44.000000" y2="258.000000"  style="stroke:black; stroke-linecap:round; stroke-width:0.25;"/>
<line x1="28.000000" y1="266.000000" x2="36.000000" y2="266.000000"  style="stroke:black; stroke-linecap:round; stroke-width:0.25;"/>
<line x1="36.000000" y1="108.000000" x2="60.000000" y2="108.000000"  style="stroke:black; stroke-linecap:round; stroke-width:0.25;"/>
<line x1="36.000000" y1="218.000000" x2="36.000000" y2="108.000000"  style="stroke:black; stroke-linecap:round; stroke-width:0.25;"/>
<line x1="36.000000" y1="266.000000" x2="36.000000" y2="420.000000"  style="stroke:black; stroke-linecap:round; stroke-width:0.25;"/>
<line x1="36.000000" y1="420.000000" x2="60.000000" y2="420.000000"  style="stroke:black; stroke-linecap:round; stroke-width:0.25;"/>
<line x1="44.000000" y1="160.000000" x2="60.000000" y2="160.000000"  style="stroke:black; stroke-linecap:round; stroke-width:0.25;"/>
<line x1="44.000000" y1="226.000000" x2="44.000000" y2="160.000000"  style="stroke:black; stroke-linecap:round; stroke-width:0.25;"/>
<line x1="44.000000" y1="258.000000" x2="44.000000" y2="368.000000"  style="stroke:black; stroke-linecap:round; stroke-width:0.25;"/>
<line x1="44.000000" y1="368.000000" x2="60.000000" y2="368.000000"  style="stroke:black; stroke-linecap:round; stroke-width:0.25;"/>
<line x1="52.000000" y1="212.000000" x2="60.000000" y2="212.000000"  style="stroke:black; stroke-linecap:round; stroke-width:0.25;"/>
<line x1="52.000000" y1="234.000000" x2="52.000000" y2="212.000000"  style="stroke:black; stroke-linecap:round; stroke-width:0.25;"/>
<line x1="52.000000" y1="250.000000" x2="52.000000" y2="316.000000"  style="stroke:black; stroke-linecap:round; stroke-width:0.25;"/>
<line x1="52.000000" y1="316.000000" x2="60.000000" y2="316.000000"  style="stroke:black; stroke-linecap:round; stroke-width:0.25;"/>
<line x1="60.000000" y1="56.000000" x2="70.000000" y2="56.000000"  style="stroke:black; stroke-linecap:round; stroke-width:0.25;"/>
<line x1="60.000000" y1="108.000000" x2="70.000000" y2="108.000000"  style="stroke:black; stroke-linecap:round; stroke-width:0.25;"/>
<line x1="60.000000" y1="160.000000" x2="70.000000" y2="160.000000"  style="stroke:black; stroke-linecap:round; stroke-width:0.25;"/>
<line x1="60.000000" y1="212.000000" x2="70.000000" y2="212.000000"  style="stroke:black; stroke-linecap:round; stroke-width:0.25;"/>
<line x1="60.000000" y1="242.000000" x2="60.000000" y2="264.000000"  style="stroke:black; stroke-linecap:round; stroke-width:0.25;"/>
<line x1="60.000000" y1="264.000000" x2="60.000000" y2="264.000000"  style="stroke:black; stroke-linecap:round; stroke-width:0.25;"/>
<line x1="60.000000" y1="264.000000" x2="70.000000" y2="264.000000"  style="stroke:black; stroke-linecap:round; stroke-width:0.25;"/>
<line x1="60.000000" y1="316.000000" x2="70.000000" y2="316.000000"  style="stroke:black; stroke-linecap:round; stroke-width:0.25;"/>
<line x1="60.000000" y1="368.000000" x2="70.000000" y2="368.000000"  style="stroke:black; stroke-linecap:round; stroke-width:0.25;"/>
<line x1="60.000000" y1="420.000000" x2="70.000000" y2="420.000000"  style="stroke:black; stroke-linecap:round; stroke-width:0.25;"/>
<line x1="70.000000" y1="56.000000" x2="80.000000" y2="56.000000"  style="stroke:black; stroke-linecap:round; stroke-width:0.25;"/>
<line x1="70.000000" y1="108.000000" x2="80.000000" y2="108.000000"  style="stroke:black; stroke-linecap:round; stroke-width:0.25;"/>
<line x1="70.000000" y1="160.000000" x2="80.000000" y2="160.000000"  style="stroke:black; stroke-linecap:round; stroke-width:0.25;"/>
<line x1="70.000000" y1="212.000000" x2="80.000000" y2="212.000000"  style="stroke:black; stroke-linecap:round; stroke-width:0.25;"/>
<line x1="70.000000" y1="264.000000" x2="80.000000" y2="264.000000"  style="stroke:black; stroke-linecap:round; stroke-width:0.25;"/>
<line x1="70.000000" y1="316.000000" x2="80.000000" y2="316.000000"  style="stroke:black; stroke-linecap:round; stroke-width:0.25;"/>
<line x1="70.000000" y1="368.000000" x2="80.000000" y2="368.000000"  style="stroke:black; stroke-linecap:round; stroke-width:0.25;"/>
<line x1="70.000000" y1="420.000000" x2="80.000000" y2="420.000000"  style="stroke:black; stroke-linecap:round; stroke-width:0.25;"/>
<line x1="80.000000" y1="56.000000" x2="84.000000" y2="56.000000"  style="stroke:black; stroke-linecap:round; stroke-width:0.25;"/>
<line x1="80.000000" y1="108.000000" x2="84.000000" y2="108.000000"  style="stroke:black; stroke-linecap:round; stroke-width:0.25;"/>
<line x1="80.000000" y1="160.000000" x2="84.000000" y2="160.000000"  style="stroke:black; stroke-linecap:round; stroke-width:0.25;"/>
<line x1="80.000000" y1="212.000000" x2="84.000000" y2="212.000000"  style="stroke:black; stroke-linecap:round; stroke-width:0.25;"/>
<line x1="80.000000" y1="264.000000" x2="84.000000" y2="264.000000"  style="stroke:black; stroke-linecap:round; stroke-width:0.25;"/>
<line x1="80.000000" y1="316.000000" x2="84.000000" y2="316.000000"  style="stroke:black; stroke-linecap:round; stroke-width:0.25;"/>
<line x1="80.000000" y1="368.000000" x2="84.000000" y2="368.000000"  style="stroke:black; stroke-linecap:round; stroke-width:0.25;"/>
<line x1="80.000000" y1="420.000000" x2="84.000000" y2="420.000000"  style="stroke:black; stroke-linecap:round; stroke-width:0.25;"/>
<line x1="109.800000" y1="56.000000" x2="113.800000" y2="56.000000"  style="stroke:black; stroke-linecap:round; stroke-width:0.25;"/>
<line x1="109.800000" y1="108.000000" x2="113.800000" y2="108.000000"  style="stroke:black; stroke-linecap:round; stroke-width:0.25;"/>
<line x1="109.800000" y1="160.000000" x2="113.800000" y2="160.000000"  style="stroke:black; stroke-linecap:round; stroke-width:0.25;"/>
<line x1="109.800000" y1="212.000000" x2="113.800000" y2="212.000000"  style="stroke:black; stroke-linecap:round; stroke-width:0.25;"/>
<line x1="109.800000" y1="264.000000" x2="113.800000" y2="264.000000"  style="stroke:black; stroke-linecap:round; stroke-width:0.25;"/>
<line x1="109.800000" y1="316.000000" x2="113.800000" y2="316.000000"  style="stroke:black; stroke-linecap:round; stroke-width:0.25;"/>
<line x1="109.800000" y1="368.000000" x2="113.800000" y2="368.000000"  style="stroke:black; stroke-linecap:round; stroke-width:0.25;"/>
<line x1="109.800000" y1="420.000000" x2="113.800000" y2="420.000000"  style="stroke:black; stroke-linecap:round; stroke-width:0.25;"/>
<line x1="113.800000" y1="56.000000" x2="123.800000" y2="56.000000"  style="stroke:black; stroke-linecap:round; stroke-width:0.25;"/>
<line x1="113.800000" y1="108.000000" x2="123.800000" y2="108.000000"  style="stroke:black; stroke-linecap:round; stroke-width:0.25;"/>
<line x1="113.800000" y1="160.000000" x2="123.800000" y2="160.000000"  style="stroke:black; stroke-linecap:round; stroke-width:0.25;"/>
<line x1="113.800000" y1="212.000000" x2="123.800000" y2="212.000000"  style="stroke:black; stroke-linecap:round; stroke-width:0.25;"/>
<line x1="113.800000" y1="264.000000" x2="123.800000" y2="264.000000"  style="stroke:black; stroke-linecap:round; stroke-width:0.25;"/>
<line x1="113.800000" y1="316.000000" x2="123.800000" y2="316.000000"  style="stroke:black; stroke-linecap:round; stroke-width:0.25;"/>
<line x1="113.800000" y1="368.000000" x2="123.800000" y2="368.000000"  style="stroke:black; stroke-linecap:round; stroke-width:0.25;"/>
<line x1="113.800000" y1="420.000000" x2="123.800000" y2="420.000000"  style="stroke:black; stroke-linecap:round; stroke-width:0.25;"/>
<line x1="123.800000" y1="56.000000" x2="133.800000" y2="56.000000"  style="stroke:black; stroke-linecap:round; stroke-width:0.25;"/>
<line x1="123.800000" y1="108.000000" x2="133.800000" y2="108.000000"  style="stroke:black; stroke-linecap:round; stroke-width:0.25;"/>
<line x1="123.800000" y1="160.000000" x2="133.800000" y2="160.000000"  style="stroke:black; stroke-linecap:round; stroke-width:0.25;"/>
<line x1="123.800000" y1="212.000000" x2="133.800000" y2="212.000000"  style="stroke:black; stroke-linecap:round; stroke-width:0.25;"/>
<line x1="123.800000" y1="264.000000" x2="133.800000" y2="264.000000"  style="stroke:black; stroke-linecap:round; stroke-width:0.25;"/>
<line x1="123.800000" y1="316.000000" x2="133.800000" y2="316.000000"  style="stroke:black; stroke-linecap:round; stroke-width:0.25;"/>
<line x1="123.800000" y1="368.000000" x2="133.800000" y2="368.000000"  style="stroke:black; stroke-linecap:round; stroke-width:0.25;"/>
<line x1="123.800000" y1="420.000000" x2="133.800000" y2="420.000000"  style="stroke:black; stroke-linecap:round; stroke-width:0.25;"/>
<line x1="133.800000" y1="56.000000" x2="165.800000" y2="56.000000"  style="stroke:black; stroke-linecap:round; stroke-width:0.25;"/>
<line x1="133.800000" y1="108.000000" x2="157.800000" y2="108.000000"  style="stroke:black; stroke-linecap:round; stroke-width:0.25;"/>
<line x1="133.800000" y1="160.000000" x2="149.800000" y2="160.000000"  style="stroke:black; stroke-linecap:round; stroke-width:0.25;"/>
<line x1="133.800000" y1="212.000000" x2="141.800000" y2="212.000000"  style="stroke:black; stroke-linecap:round; stroke-width:0.25;"/>
<line x1="133.800000" y1="242.000000" x2="165.800000" y2="242.000000"  style="stroke:black; stroke-linecap:round; stroke-width:0.25;"/>
<line x1="133.800000" y1="264.000000" x2="133.800000" y2="242.000000"  style="stroke:black; stroke-linecap:round; stroke-width:0.25;"/>
<line x1="133.800000" y1="264.000000" x2="133.800000" y2="264.000000"  style="stroke:black; stroke-linecap:round; stroke-width:0.25;"/>
<line x1="133.800000" y1="316.000000" x2="141.800000" y2="316.000000"  style="stroke:black; stroke-linecap:round; stroke-width:0.25;"/>
<line x1="133.800000" y1="368.000000" x2="149.800000" y2="368.000000"  style="stroke:black; stroke-linecap:round; stroke-width:0.25;"/>
<line x1="133.800000" y1="420.000000" x2="157.800000" y2="420.000000"  style="stroke:black; stroke-linecap:round; stroke-width:0.25;"/>
<line x1="141.800000" y1="212.000000" x2="141.800000" y2="234.000000"  style="stroke:black; stroke-linecap:round; stroke-width:0.25;"/>
<line x1="141.800000" y1="234.000000" x2="165.800000" y2="234.000000"  style="stroke:black; stroke-linecap:round; stroke-width:0.25;"/>
<line x1="141.800000" y1="250.000000" x2="165.800000" y2="250.000000"  style="stroke:black; stroke-linecap:round; stroke-width:0.25;"/>
<line x1="141.800000" y1="316.000000" x2="141.800000" y2="250.000000"  style="stroke:black; stroke-linecap:round; stroke-width:0.25;"/>
<line x1="149.800000" y1="160.000000" x2="149.800000" y2="226.000000"  style="stroke:black; stroke-linecap:round; stroke-width:0.25;"/>
<line x1="149.800000" y1="226.000000" x2="165.800000" y2="226.000000"  style="stroke:black; stroke-linecap:round; stroke-width:0.25;"/>
<line x1="149.800000" y1="258.000000" x2="165.800000" y2="258.000000"  style="stroke:black; stroke-linecap:round; stroke-width:0.25;"/>
<line x1="149.800000" y1="368.000000" x2="149.800000" y2="258.000000"  style="stroke:black; stroke-linecap:round; stroke-width:0.25;"/>
<line x1="157.800000" y1="108.000000" x2="157.800000" y2="218.000000"  style="stroke:black; stroke-linecap:round; stroke-width:0.25;"/>
<line x1="157.800000" y1="218.000000" x2="165.800000" y2="218.000000"  style="stroke:black; stroke-linecap:round; stroke-width:0.25;"/>
<line x1="157.800000" y1="266.000000" x2="165.800000" y2="266.000000"  style="stroke:black; stroke-linecap:round; stroke-width:0.25;"/>
<line x1="157.800000" y1="420.000000" x2="157.800000" y2="266.000000"  style="stroke:black; stroke-linecap:round; stroke-width:0.25;"/>
<line x1="165.800000" y1="56.000000" x2="165.800000" y2="210.000000"  style="stroke:black; stroke-linecap:round; stroke-width:0.25;"/>
<line x1="165.800000" y1="210.000000" x2="165.800000" y2="210.000000"  style="stroke:black; stroke-linecap:round; stroke-width:0.25;"/>
<line x1="165.800000" y1="210.000000" x2="169.800000" y2="210.000000"  style="stroke:black; stroke-linecap:round; stroke-width:0.25;"/>
<line x1="165.800000" y1="218.000000" x2="169.800000" y2="218.000000"  style="stroke:black; stroke-linecap:round; stroke-width:0.25;"/>
<line x1="165.800000" y1="226.000000" x2="169.800000" y2="226.000000"  style="stroke:black; stroke-linecap:round; stroke-width:0.25;"/>
<line x1="165.800000" y1="234.000000" x2="169.800000" y2="234.000000"  style="stroke:black; stroke-linecap:round; stroke-width:0.25;"/>
<line x1="165.800000" y1="242.000000" x2="169.800000" y2="242.000000"  style="stroke:black; stroke-linecap:round; stroke-width:0.25;"/>
<line x1="165.800000" y1="250.000000" x2="169.800000" y2="250.000000"  style="stroke:black; stroke-linecap:round; stroke-width:0.25;"/>
<line x1="165.800000" y1="258.000000" x2="169.800000" y2="258.000000"  style="stroke:black; stroke-linecap:round; stroke-width:0.25;"/>
<line x1="165.800000" y1="266.000000" x2="169.800000" y2="266.000000"  style="stroke:black; stroke-linecap:round; stroke-width:0.25;"/>
<line x1="169.800000" y1="210.000000" x2="173.800000" y2="210.000000"  style="stroke:black; stroke-linecap:round; stroke-width:0.25;"/>
<line x1="169.800000" y1="218.000000" x2="173.800000" y2="218.000000"  style="stroke:black; stroke-linecap:round; stroke-width:0.25;"/>
<line x1="169.800000" y1="226.000000" x2="173.800000" y2="226.000000"  style="stroke:black; stroke-linecap:round; stroke-width:0.25;"/>
<line x1="169.800000" y1="234.000000" x2="173.800000" y2="234.000000"  style="stroke:black; stroke-linecap:round; stroke-width:0.25;"/>
<line x1="169.800000" y1="242.000000" x2="173.800000" y2="242.000000"  style="stroke:black; stroke-linecap:round; stroke-width:0.25;"/>
<line x1="169.800000" y1="250.000000" x2="173.800000" y2="250.000000"  style="stroke:black; stroke-linecap:round; stroke-width:0.25;"/>
<line x1="169.800000" y1="258.000000" x2="173.800000" y2="258.000000"  style="stroke:black; stroke-linecap:round; stroke-width:0.25;"/>
<line x1="169.800000" y1="266.000000" x2="173.800000" y2="266.000000"  style="stroke:black; stroke-linecap:round; stroke-width:0.25;"/>
<line x1="173.800000" y1="210.000000" x2="183.800000" y2="210.000000"  style="stroke:black; stroke-linecap:round; stroke-width:0.25;"/>
<line x1="173.800000" y1="218.000000" x2="183.800000" y2="218.000000"  style="stroke:black; stroke-linecap:round; stroke-width:0.25;"/>
<line x1="173.800000" y1="226.000000" x2="183.800000" y2="226.000000"  style="stroke:black; stroke-linecap:round; stroke-width:0.25;"/>
<line x1="173.800000" y1="234.000000" x2="183.800000" y2="234.000000"  style="stroke:black; stroke-linecap:round; stroke-width:0.25;"/>
<line x1="173.800000" y1="242.000000" x2="183.800000" y2="242.000000"  style="stroke:black; stroke-linecap:round; stroke-width:0.25;"/>
<line x1="173.800000" y1="250.000000" x2="183.800000" y2="250.000000"  style="stroke:black; stroke-linecap:round; stroke-width:0.25;"/>
<line x1="173.800000" y1="258.000000" x2="183.800000" y2="258.000000"  style="stroke:black; stroke-linecap:round; stroke-width:0.25;"/>
<line x1="173.800000" y1="266.000000" x2="183.800000" y2="266.000000"  style="stroke:black; stroke-linecap:round; stroke-width:0.25;"/>
</svg>
