<?xml version="1.0"?>
<svg xmlns="http://www.w3.org/2000/svg" xmlns:xlink="http://www.w3.org/1999/xlink" viewBox="0 0 332.600000 104.000000" width="166.300000mm" height="52.000000mm" version="1.1">
<a xlink:href="gs-0x7fe54e55ba30.svg">
<rect x="1.000000" y="1.000000" width="331.600000" height="103.000000" rx="0" ry="0" style="stroke:none;fill:#cccccc;"/>
<rect x="0.000000" y="0.000000" width="331.600000" height="103.000000" rx="0" ry="0" style="stroke:none;fill:#ffffff;"/>
</a>
<text x="10.000000" y="7.000000" font-family="Arial" font-size="7"></text>
<rect x="33.000000" y="41.000000" width="24.000000" height="24.000000" rx="0" ry="0" style="stroke:none;fill:#cccccc;"/>
<rect x="32.000000" y="40.000000" width="24.000000" height="24.000000" rx="0" ry="0" style="stroke:none;fill:#47945E;"/>
<text x="44.000000" y="54.000000" font-family="Arial" font-size="7" text-anchor="middle" fill="#FFFFFF">x</text>
<circle cx="34.000000" cy="42.000000" r="1"/>
<line x1="29.000000" y1="51.000000" x2="32.000000" y2="52.000000"  transform="rotate(0.000000,32.000000,52.000000)" style="stroke: black; stroke-width:0.25;"/>
<line x1="29.000000" y1="53.000000" x2="32.000000" y2="52.000000"  transform="rotate(0.000000,32.000000,52.000000)" style="stroke: black; stroke-width:0.25;"/>
<rect x="150.400000" y="25.000000" width="24.000000" height="24.000000" rx="0" ry="0" style="stroke:none;fill:#cccccc;"/>
<rect x="149.400000" y="24.000000" width="24.000000" height="24.000000" rx="0" ry="0" style="stroke:none;fill:#47945E;"/>
<text x="161.400000" y="38.000000" font-family="Arial" font-size="7" text-anchor="middle" fill="#FFFFFF">x</text>
<circle cx="151.400000" cy="26.000000" r="1"/>
<rect x="65.000000" y="57.000000" width="24.000000" height="24.000000" rx="0" ry="0" style="stroke:none;fill:#cccccc;"/>
<rect x="64.000000" y="56.000000" width="24.000000" height="24.000000" rx="0" ry="0" style="stroke:none;fill:#47945E;"/>
<text x="76.000000" y="70.000000" font-family="Arial" font-size="7" text-anchor="middle" fill="#FFFFFF">x</text>
<circle cx="66.000000" cy="58.000000" r="1"/>
<a xlink:href="envelop-0x7fe54e81ef70.svg">
<rect x="97.000000" y="57.000000" width="38.700000" height="24.000000" rx="0" ry="0" style="stroke:none;fill:#cccccc;"/>
<rect x="96.000000" y="56.000000" width="38.700000" height="24.000000" rx="0" ry="0" style="stroke:none;fill:#003366;"/>
</a>
<a xlink:href="envelop-0x7fe54e81ef70.svg">
<text x="115.350000" y="70.000000" font-family="Arial" font-size="7" text-anchor="middle" fill="#FFFFFF">envelop</text>
</a>
<circle cx="98.000000" cy="58.000000" r="1"/>
<line x1="93.000000" y1="67.000000" x2="96.000000" y2="68.000000"  transform="rotate(0.000000,96.000000,68.000000)" style="stroke: black; stroke-width:0.25;"/>
<line x1="93.000000" y1="69.000000" x2="96.000000" y2="68.000000"  transform="rotate(0.000000,96.000000,68.000000)" style="stroke: black; stroke-width:0.25;"/>
<rect x="143.700000" y="57.000000" width="116.100000" height="24.000000" rx="0" ry="0" style="stroke:none;fill:#cccccc;"/>
<rect x="142.700000" y="56.000000" width="116.100000" height="24.000000" rx="0" ry="0" style="stroke:none;fill:#477881;"/>
<text x="200.750000" y="70.000000" font-family="Arial" font-size="7" text-anchor="middle" fill="#FFFFFF">hbargraph(, -70.0f, 5.0f)</text>
<circle cx="144.700000" cy="58.000000" r="1"/>
<line x1="139.700000" y1="67.000000" x2="142.700000" y2="68.000000"  transform="rotate(0.000000,142.700000,68.000000)" style="stroke: black; stroke-width:0.25;"/>
<line x1="139.700000" y1="69.000000" x2="142.700000" y2="68.000000"  transform="rotate(0.000000,142.700000,68.000000)" style="stroke: black; stroke-width:0.25;"/>
<rect x="275.800000" y="41.000000" width="25.800000" height="24.000000" rx="0" ry="0" style="stroke:none;fill:#cccccc;"/>
<rect x="274.800000" y="40.000000" width="25.800000" height="24.000000" rx="0" ry="0" style="stroke:none;fill:#4B71A1;"/>
<text x="287.700000" y="54.000000" font-family="Arial" font-size="7" text-anchor="middle" fill="#FFFFFF">attach</text>
<circle cx="276.800000" cy="42.000000" r="1"/>
<line x1="271.800000" y1="47.000000" x2="274.800000" y2="48.000000"  transform="rotate(0.000000,274.800000,48.000000)" style="stroke: black; stroke-width:0.25;"/>
<line x1="271.800000" y1="49.000000" x2="274.800000" y2="48.000000"  transform="rotate(0.000000,274.800000,48.000000)" style="stroke: black; stroke-width:0.25;"/>
<line x1="271.800000" y1="55.000000" x2="274.800000" y2="56.000000"  transform="rotate(0.000000,274.800000,56.000000)" style="stroke: black; stroke-width:0.25;"/>
<line x1="271.800000" y1="57.000000" x2="274.800000" y2="56.000000"  transform="rotate(0.000000,274.800000,56.000000)" style="stroke: black; stroke-width:0.25;"/>
<line x1="15.000000" y1="15.000000" x2="15.000000" y2="89.000000"  style="stroke: black; stroke-linecap:round; stroke-width:0.25; stroke-dasharray:3,3;"/>
<line x1="15.000000" y1="89.000000" x2="317.600000" y2="89.000000"  style="stroke: black; stroke-linecap:round; stroke-width:0.25; stroke-dasharray:3,3;"/>
<line x1="317.600000" y1="89.000000" x2="317.600000" y2="15.000000"  style="stroke: black; stroke-linecap:round; stroke-width:0.25; stroke-dasharray:3,3;"/>
<line x1="15.000000" y1="15.000000" x2="20.000000" y2="15.000000"  style="stroke: black; stroke-linecap:round; stroke-width:0.25; stroke-dasharray:3,3;"/>
<line x1="52.250000" y1="15.000000" x2="317.600000" y2="15.000000"  style="stroke: black; stroke-linecap:round; stroke-width:0.25; stroke-dasharray:3,3;"/>
<text x="20.000000" y="17.000000" font-family="Arial" font-size="7">outmeter</text>
<line x1="319.600000" y1="51.000000" x2="322.600000" y2="52.000000"  transform="rotate(0.000000,322.600000,52.000000)" style="stroke: black; stroke-width:0.25;"/>
<line x1="319.600000" y1="53.000000" x2="322.600000" y2="52.000000"  transform="rotate(0.000000,322.600000,52.000000)" style="stroke: black; stroke-width:0.25;"/>
<line x1="10.000000" y1="52.000000" x2="20.000000" y2="52.000000"  style="stroke:black; stroke-linecap:round; stroke-width:0.25;"/>
<line x1="20.000000" y1="52.000000" x2="24.000000" y2="52.000000"  style="stroke:black; stroke-linecap:round; stroke-width:0.25;"/>
<line x1="24.000000" y1="52.000000" x2="28.000000" y2="52.000000"  style="stroke:black; stroke-linecap:round; stroke-width:0.25;"/>
<line x1="28.000000" y1="52.000000" x2="28.000000" y2="52.000000"  style="stroke:black; stroke-linecap:round; stroke-width:0.25;"/>
<line x1="28.000000" y1="52.000000" x2="32.000000" y2="52.000000"  style="stroke:black; stroke-linecap:round; stroke-width:0.25;"/>
<line x1="88.000000" y1="68.000000" x2="92.000000" y2="68.000000"  style="stroke:black; stroke-linecap:round; stroke-width:0.25;"/>
<line x1="92.000000" y1="68.000000" x2="92.000000" y2="68.000000"  style="stroke:black; stroke-linecap:round; stroke-width:0.25;"/>
<line x1="92.000000" y1="68.000000" x2="96.000000" y2="68.000000"  style="stroke:black; stroke-linecap:round; stroke-width:0.25;"/>
<line x1="134.700000" y1="68.000000" x2="138.700000" y2="68.000000"  style="stroke:black; stroke-linecap:round; stroke-width:0.25;"/>
<line x1="138.700000" y1="68.000000" x2="138.700000" y2="68.000000"  style="stroke:black; stroke-linecap:round; stroke-width:0.25;"/>
<line x1="138.700000" y1="68.000000" x2="142.700000" y2="68.000000"  style="stroke:black; stroke-linecap:round; stroke-width:0.25;"/>
<line x1="173.400000" y1="36.000000" x2="177.400000" y2="36.000000"  style="stroke:black; stroke-linecap:round; stroke-width:0.25;"/>
<line x1="177.400000" y1="36.000000" x2="262.800000" y2="36.000000"  style="stroke:black; stroke-linecap:round; stroke-width:0.25;"/>
<line x1="258.800000" y1="68.000000" x2="262.800000" y2="68.000000"  style="stroke:black; stroke-linecap:round; stroke-width:0.25;"/>
<line x1="262.800000" y1="36.000000" x2="270.800000" y2="36.000000"  style="stroke:black; stroke-linecap:round; stroke-width:0.25;"/>
<line x1="262.800000" y1="56.000000" x2="270.800000" y2="56.000000"  style="stroke:black; stroke-linecap:round; stroke-width:0.25;"/>
<line x1="262.800000" y1="68.000000" x2="262.800000" y2="56.000000"  style="stroke:black; stroke-linecap:round; stroke-width:0.25;"/>
<line x1="262.800000" y1="68.000000" x2="262.800000" y2="68.000000"  style="stroke:black; stroke-linecap:round; stroke-width:0.25;"/>
<line x1="270.800000" y1="36.000000" x2="270.800000" y2="48.000000"  style="stroke:black; stroke-linecap:round; stroke-width:0.25;"/>
<line x1="270.800000" y1="48.000000" x2="270.800000" y2="48.000000"  style="stroke:black; stroke-linecap:round; stroke-width:0.25;"/>
<line x1="270.800000" y1="48.000000" x2="274.800000" y2="48.000000"  style="stroke:black; stroke-linecap:round; stroke-width:0.25;"/>
<line x1="270.800000" y1="56.000000" x2="274.800000" y2="56.000000"  style="stroke:black; stroke-linecap:round; stroke-width:0.25;"/>
<line x1="300.600000" y1="52.000000" x2="304.600000" y2="52.000000"  style="stroke:black; stroke-linecap:round; stroke-width:0.25;"/>
<line x1="304.600000" y1="52.000000" x2="304.600000" y2="52.000000"  style="stroke:black; stroke-linecap:round; stroke-width:0.25;"/>
<line x1="304.600000" y1="52.000000" x2="308.600000" y2="52.000000"  style="stroke:black; stroke-linecap:round; stroke-width:0.25;"/>
<line x1="308.600000" y1="52.000000" x2="312.600000" y2="52.000000"  style="stroke:black; stroke-linecap:round; stroke-width:0.25;"/>
<line x1="312.600000" y1="52.000000" x2="322.600000" y2="52.000000"  style="stroke:black; stroke-linecap:round; stroke-width:0.25;"/>
</svg>
