<?xml version="1.0"?>
<svg xmlns="http://www.w3.org/2000/svg" xmlns:xlink="http://www.w3.org/1999/xlink" viewBox="0 0 328.600000 100.000000" width="164.300000mm" height="50.000000mm" version="1.1">
<a xlink:href="chstrip-0x7f93e1844c30.svg">
<rect x="1.000000" y="1.000000" width="327.600000" height="99.000000" rx="0" ry="0" style="stroke:none;fill:#cccccc;"/>
<rect x="0.000000" y="0.000000" width="327.600000" height="99.000000" rx="0" ry="0" style="stroke:none;fill:#ffffff;"/>
</a>
<text x="10.000000" y="7.000000" font-family="Arial" font-size="7"></text>
<a xlink:href="pregroup-0x7f93e183d3e0.svg">
<rect x="33.000000" y="39.000000" width="129.000000" height="24.000000" rx="0" ry="0" style="stroke:none;fill:#cccccc;"/>
<rect x="32.000000" y="38.000000" width="129.000000" height="24.000000" rx="0" ry="0" style="stroke:none;fill:#003366;"/>
</a>
<a xlink:href="pregroup-0x7f93e183d3e0.svg">
<text x="96.500000" y="52.000000" font-family="Arial" font-size="7" text-anchor="middle" fill="#FFFFFF">pregroup(_&lt;:(...,_ : select2)</text>
</a>
<circle cx="34.000000" cy="40.000000" r="1"/>
<line x1="29.000000" y1="49.000000" x2="32.000000" y2="50.000000"  transform="rotate(0.000000,32.000000,50.000000)" style="stroke: black; stroke-width:0.25;"/>
<line x1="29.000000" y1="51.000000" x2="32.000000" y2="50.000000"  transform="rotate(0.000000,32.000000,50.000000)" style="stroke: black; stroke-width:0.25;"/>
<a xlink:href="gain-0x7f93db1c8280.svg">
<rect x="188.000000" y="43.000000" width="25.800000" height="24.000000" rx="0" ry="0" style="stroke:none;fill:#cccccc;"/>
<rect x="187.000000" y="42.000000" width="25.800000" height="24.000000" rx="0" ry="0" style="stroke:none;fill:#003366;"/>
</a>
<a xlink:href="gain-0x7f93db1c8280.svg">
<text x="199.900000" y="56.000000" font-family="Arial" font-size="7" text-anchor="middle" fill="#FFFFFF">gain</text>
</a>
<circle cx="189.000000" cy="44.000000" r="1"/>
<rect x="229.800000" y="39.000000" width="24.000000" height="24.000000" rx="0" ry="0" style="stroke:none;fill:#cccccc;"/>
<rect x="228.800000" y="38.000000" width="24.000000" height="24.000000" rx="0" ry="0" style="stroke:none;fill:#4B71A1;"/>
<text x="240.800000" y="52.000000" font-family="Arial" font-size="7" text-anchor="middle" fill="#FFFFFF">*</text>
<circle cx="230.800000" cy="40.000000" r="1"/>
<line x1="225.800000" y1="45.000000" x2="228.800000" y2="46.000000"  transform="rotate(0.000000,228.800000,46.000000)" style="stroke: black; stroke-width:0.25;"/>
<line x1="225.800000" y1="47.000000" x2="228.800000" y2="46.000000"  transform="rotate(0.000000,228.800000,46.000000)" style="stroke: black; stroke-width:0.25;"/>
<line x1="225.800000" y1="53.000000" x2="228.800000" y2="54.000000"  transform="rotate(0.000000,228.800000,54.000000)" style="stroke: black; stroke-width:0.25;"/>
<line x1="225.800000" y1="55.000000" x2="228.800000" y2="54.000000"  transform="rotate(0.000000,228.800000,54.000000)" style="stroke: black; stroke-width:0.25;"/>
<a xlink:href="rpol-0x7f93db1c9620.svg">
<rect x="261.800000" y="39.000000" width="25.800000" height="24.000000" rx="0" ry="0" style="stroke:none;fill:#cccccc;"/>
<rect x="260.800000" y="38.000000" width="25.800000" height="24.000000" rx="0" ry="0" style="stroke:none;fill:#003366;"/>
</a>
<a xlink:href="rpol-0x7f93db1c9620.svg">
<text x="273.700000" y="52.000000" font-family="Arial" font-size="7" text-anchor="middle" fill="#FFFFFF">rpol</text>
</a>
<circle cx="262.800000" cy="40.000000" r="1"/>
<line x1="257.800000" y1="49.000000" x2="260.800000" y2="50.000000"  transform="rotate(0.000000,260.800000,50.000000)" style="stroke: black; stroke-width:0.25;"/>
<line x1="257.800000" y1="51.000000" x2="260.800000" y2="50.000000"  transform="rotate(0.000000,260.800000,50.000000)" style="stroke: black; stroke-width:0.25;"/>
<line x1="178.000000" y1="25.000000" x2="178.000000" y2="75.000000"  style="stroke: black; stroke-linecap:round; stroke-width:0.25; stroke-dasharray:3,3;"/>
<line x1="178.000000" y1="75.000000" x2="295.600000" y2="75.000000"  style="stroke: black; stroke-linecap:round; stroke-width:0.25; stroke-dasharray:3,3;"/>
<line x1="295.600000" y1="75.000000" x2="295.600000" y2="25.000000"  style="stroke: black; stroke-linecap:round; stroke-width:0.25; stroke-dasharray:3,3;"/>
<line x1="178.000000" y1="25.000000" x2="183.000000" y2="25.000000"  style="stroke: black; stroke-linecap:round; stroke-width:0.25; stroke-dasharray:3,3;"/>
<line x1="253.950000" y1="25.000000" x2="295.600000" y2="25.000000"  style="stroke: black; stroke-linecap:round; stroke-width:0.25; stroke-dasharray:3,3;"/>
<text x="183.000000" y="27.000000" font-family="Arial" font-size="7">hgroup(PHASE &amp; GAIN)</text>
<line x1="15.000000" y1="15.000000" x2="15.000000" y2="85.000000"  style="stroke: black; stroke-linecap:round; stroke-width:0.25; stroke-dasharray:3,3;"/>
<line x1="15.000000" y1="85.000000" x2="313.600000" y2="85.000000"  style="stroke: black; stroke-linecap:round; stroke-width:0.25; stroke-dasharray:3,3;"/>
<line x1="313.600000" y1="85.000000" x2="313.600000" y2="15.000000"  style="stroke: black; stroke-linecap:round; stroke-width:0.25; stroke-dasharray:3,3;"/>
<line x1="15.000000" y1="15.000000" x2="20.000000" y2="15.000000"  style="stroke: black; stroke-linecap:round; stroke-width:0.25; stroke-dasharray:3,3;"/>
<line x1="45.800000" y1="15.000000" x2="313.600000" y2="15.000000"  style="stroke: black; stroke-linecap:round; stroke-width:0.25; stroke-dasharray:3,3;"/>
<text x="20.000000" y="17.000000" font-family="Arial" font-size="7">presec</text>
<line x1="315.600000" y1="49.000000" x2="318.600000" y2="50.000000"  transform="rotate(0.000000,318.600000,50.000000)" style="stroke: black; stroke-width:0.25;"/>
<line x1="315.600000" y1="51.000000" x2="318.600000" y2="50.000000"  transform="rotate(0.000000,318.600000,50.000000)" style="stroke: black; stroke-width:0.25;"/>
<line x1="10.000000" y1="50.000000" x2="20.000000" y2="50.000000"  style="stroke:black; stroke-linecap:round; stroke-width:0.25;"/>
<line x1="20.000000" y1="50.000000" x2="24.000000" y2="50.000000"  style="stroke:black; stroke-linecap:round; stroke-width:0.25;"/>
<line x1="24.000000" y1="50.000000" x2="28.000000" y2="50.000000"  style="stroke:black; stroke-linecap:round; stroke-width:0.25;"/>
<line x1="28.000000" y1="50.000000" x2="28.000000" y2="50.000000"  style="stroke:black; stroke-linecap:round; stroke-width:0.25;"/>
<line x1="28.000000" y1="50.000000" x2="32.000000" y2="50.000000"  style="stroke:black; stroke-linecap:round; stroke-width:0.25;"/>
<line x1="161.000000" y1="50.000000" x2="165.000000" y2="50.000000"  style="stroke:black; stroke-linecap:round; stroke-width:0.25;"/>
<line x1="165.000000" y1="34.000000" x2="173.000000" y2="34.000000"  style="stroke:black; stroke-linecap:round; stroke-width:0.25;"/>
<line x1="165.000000" y1="50.000000" x2="165.000000" y2="34.000000"  style="stroke:black; stroke-linecap:round; stroke-width:0.25;"/>
<line x1="165.000000" y1="50.000000" x2="165.000000" y2="50.000000"  style="stroke:black; stroke-linecap:round; stroke-width:0.25;"/>
<line x1="173.000000" y1="34.000000" x2="183.000000" y2="34.000000"  style="stroke:black; stroke-linecap:round; stroke-width:0.25;"/>
<line x1="183.000000" y1="34.000000" x2="199.900000" y2="34.000000"  style="stroke:black; stroke-linecap:round; stroke-width:0.25;"/>
<line x1="199.900000" y1="34.000000" x2="216.800000" y2="34.000000"  style="stroke:black; stroke-linecap:round; stroke-width:0.25;"/>
<line x1="212.800000" y1="54.000000" x2="216.800000" y2="54.000000"  style="stroke:black; stroke-linecap:round; stroke-width:0.25;"/>
<line x1="216.800000" y1="34.000000" x2="224.800000" y2="34.000000"  style="stroke:black; stroke-linecap:round; stroke-width:0.25;"/>
<line x1="216.800000" y1="54.000000" x2="224.800000" y2="54.000000"  style="stroke:black; stroke-linecap:round; stroke-width:0.25;"/>
<line x1="224.800000" y1="34.000000" x2="224.800000" y2="46.000000"  style="stroke:black; stroke-linecap:round; stroke-width:0.25;"/>
<line x1="224.800000" y1="46.000000" x2="224.800000" y2="46.000000"  style="stroke:black; stroke-linecap:round; stroke-width:0.25;"/>
<line x1="224.800000" y1="46.000000" x2="228.800000" y2="46.000000"  style="stroke:black; stroke-linecap:round; stroke-width:0.25;"/>
<line x1="224.800000" y1="54.000000" x2="228.800000" y2="54.000000"  style="stroke:black; stroke-linecap:round; stroke-width:0.25;"/>
<line x1="252.800000" y1="50.000000" x2="256.800000" y2="50.000000"  style="stroke:black; stroke-linecap:round; stroke-width:0.25;"/>
<line x1="256.800000" y1="50.000000" x2="256.800000" y2="50.000000"  style="stroke:black; stroke-linecap:round; stroke-width:0.25;"/>
<line x1="256.800000" y1="50.000000" x2="260.800000" y2="50.000000"  style="stroke:black; stroke-linecap:round; stroke-width:0.25;"/>
<line x1="286.600000" y1="50.000000" x2="290.600000" y2="50.000000"  style="stroke:black; stroke-linecap:round; stroke-width:0.25;"/>
<line x1="290.600000" y1="50.000000" x2="300.600000" y2="50.000000"  style="stroke:black; stroke-linecap:round; stroke-width:0.25;"/>
<line x1="300.600000" y1="50.000000" x2="300.600000" y2="50.000000"  style="stroke:black; stroke-linecap:round; stroke-width:0.25;"/>
<line x1="300.600000" y1="50.000000" x2="304.600000" y2="50.000000"  style="stroke:black; stroke-linecap:round; stroke-width:0.25;"/>
<line x1="304.600000" y1="50.000000" x2="308.600000" y2="50.000000"  style="stroke:black; stroke-linecap:round; stroke-width:0.25;"/>
<line x1="308.600000" y1="50.000000" x2="318.600000" y2="50.000000"  style="stroke:black; stroke-linecap:round; stroke-width:0.25;"/>
</svg>
