<?xml version="1.0"?>
<svg xmlns="http://www.w3.org/2000/svg" xmlns:xlink="http://www.w3.org/1999/xlink" viewBox="0 0 172.000000 612.000000" width="86.000000mm" height="306.000000mm" version="1.1">
<a xlink:href="prime-0x7f9ad2d2ae30.svg">
<rect x="1.000000" y="1.000000" width="171.000000" height="611.000000" rx="0" ry="0" style="stroke:none;fill:#cccccc;"/>
<rect x="0.000000" y="0.000000" width="171.000000" height="611.000000" rx="0" ry="0" style="stroke:none;fill:#ffffff;"/>
</a>
<text x="10.000000" y="7.000000" font-family="Arial" font-size="7"></text>
<rect x="35.000000" y="35.000000" width="24.000000" height="24.000000" rx="0" ry="0" style="stroke:none;fill:#cccccc;"/>
<rect x="34.000000" y="34.000000" width="24.000000" height="24.000000" rx="0" ry="0" style="stroke:none;fill:#f44800;"/>
<text x="46.000000" y="48.000000" font-family="Arial" font-size="7" text-anchor="middle" fill="#FFFFFF">2</text>
<circle cx="36.000000" cy="36.000000" r="1"/>
<line x1="25.000000" y1="25.000000" x2="25.000000" y2="67.000000"  style="stroke: black; stroke-linecap:round; stroke-width:0.25; stroke-dasharray:3,3;"/>
<line x1="25.000000" y1="67.000000" x2="67.000000" y2="67.000000"  style="stroke: black; stroke-linecap:round; stroke-width:0.25; stroke-dasharray:3,3;"/>
<line x1="67.000000" y1="67.000000" x2="67.000000" y2="25.000000"  style="stroke: black; stroke-linecap:round; stroke-width:0.25; stroke-dasharray:3,3;"/>
<line x1="25.000000" y1="25.000000" x2="30.000000" y2="25.000000"  style="stroke: black; stroke-linecap:round; stroke-width:0.25; stroke-dasharray:3,3;"/>
<line x1="49.350000" y1="25.000000" x2="67.000000" y2="25.000000"  style="stroke: black; stroke-linecap:round; stroke-width:0.25; stroke-dasharray:3,3;"/>
<text x="30.000000" y="27.000000" font-family="Arial" font-size="7">left</text>
<rect x="35.000000" y="87.000000" width="24.000000" height="24.000000" rx="0" ry="0" style="stroke:none;fill:#cccccc;"/>
<rect x="34.000000" y="86.000000" width="24.000000" height="24.000000" rx="0" ry="0" style="stroke:none;fill:#f44800;"/>
<text x="46.000000" y="100.000000" font-family="Arial" font-size="7" text-anchor="middle" fill="#FFFFFF">3</text>
<circle cx="36.000000" cy="88.000000" r="1"/>
<line x1="25.000000" y1="77.000000" x2="25.000000" y2="119.000000"  style="stroke: black; stroke-linecap:round; stroke-width:0.25; stroke-dasharray:3,3;"/>
<line x1="25.000000" y1="119.000000" x2="67.000000" y2="119.000000"  style="stroke: black; stroke-linecap:round; stroke-width:0.25; stroke-dasharray:3,3;"/>
<line x1="67.000000" y1="119.000000" x2="67.000000" y2="77.000000"  style="stroke: black; stroke-linecap:round; stroke-width:0.25; stroke-dasharray:3,3;"/>
<line x1="25.000000" y1="77.000000" x2="30.000000" y2="77.000000"  style="stroke: black; stroke-linecap:round; stroke-width:0.25; stroke-dasharray:3,3;"/>
<line x1="49.350000" y1="77.000000" x2="67.000000" y2="77.000000"  style="stroke: black; stroke-linecap:round; stroke-width:0.25; stroke-dasharray:3,3;"/>
<text x="30.000000" y="79.000000" font-family="Arial" font-size="7">left</text>
<rect x="35.000000" y="139.000000" width="24.000000" height="24.000000" rx="0" ry="0" style="stroke:none;fill:#cccccc;"/>
<rect x="34.000000" y="138.000000" width="24.000000" height="24.000000" rx="0" ry="0" style="stroke:none;fill:#f44800;"/>
<text x="46.000000" y="152.000000" font-family="Arial" font-size="7" text-anchor="middle" fill="#FFFFFF">5</text>
<circle cx="36.000000" cy="140.000000" r="1"/>
<line x1="25.000000" y1="129.000000" x2="25.000000" y2="171.000000"  style="stroke: black; stroke-linecap:round; stroke-width:0.25; stroke-dasharray:3,3;"/>
<line x1="25.000000" y1="171.000000" x2="67.000000" y2="171.000000"  style="stroke: black; stroke-linecap:round; stroke-width:0.25; stroke-dasharray:3,3;"/>
<line x1="67.000000" y1="171.000000" x2="67.000000" y2="129.000000"  style="stroke: black; stroke-linecap:round; stroke-width:0.25; stroke-dasharray:3,3;"/>
<line x1="25.000000" y1="129.000000" x2="30.000000" y2="129.000000"  style="stroke: black; stroke-linecap:round; stroke-width:0.25; stroke-dasharray:3,3;"/>
<line x1="42.900000" y1="129.000000" x2="67.000000" y2="129.000000"  style="stroke: black; stroke-linecap:round; stroke-width:0.25; stroke-dasharray:3,3;"/>
<text x="30.000000" y="131.000000" font-family="Arial" font-size="7">NB</text>
<rect x="35.000000" y="181.000000" width="24.000000" height="24.000000" rx="0" ry="0" style="stroke:none;fill:#cccccc;"/>
<rect x="34.000000" y="180.000000" width="24.000000" height="24.000000" rx="0" ry="0" style="stroke:none;fill:#f44800;"/>
<text x="46.000000" y="194.000000" font-family="Arial" font-size="7" text-anchor="middle" fill="#FFFFFF">7</text>
<circle cx="36.000000" cy="182.000000" r="1"/>
<rect x="35.000000" y="213.000000" width="24.000000" height="24.000000" rx="0" ry="0" style="stroke:none;fill:#cccccc;"/>
<rect x="34.000000" y="212.000000" width="24.000000" height="24.000000" rx="0" ry="0" style="stroke:none;fill:#f44800;"/>
<text x="46.000000" y="226.000000" font-family="Arial" font-size="7" text-anchor="middle" fill="#FFFFFF">11</text>
<circle cx="36.000000" cy="214.000000" r="1"/>
<rect x="35.000000" y="245.000000" width="24.000000" height="24.000000" rx="0" ry="0" style="stroke:none;fill:#cccccc;"/>
<rect x="34.000000" y="244.000000" width="24.000000" height="24.000000" rx="0" ry="0" style="stroke:none;fill:#f44800;"/>
<text x="46.000000" y="258.000000" font-family="Arial" font-size="7" text-anchor="middle" fill="#FFFFFF">13</text>
<circle cx="36.000000" cy="246.000000" r="1"/>
<rect x="35.000000" y="277.000000" width="24.000000" height="24.000000" rx="0" ry="0" style="stroke:none;fill:#cccccc;"/>
<rect x="34.000000" y="276.000000" width="24.000000" height="24.000000" rx="0" ry="0" style="stroke:none;fill:#f44800;"/>
<text x="46.000000" y="290.000000" font-family="Arial" font-size="7" text-anchor="middle" fill="#FFFFFF">17</text>
<circle cx="36.000000" cy="278.000000" r="1"/>
<rect x="35.000000" y="309.000000" width="24.000000" height="24.000000" rx="0" ry="0" style="stroke:none;fill:#cccccc;"/>
<rect x="34.000000" y="308.000000" width="24.000000" height="24.000000" rx="0" ry="0" style="stroke:none;fill:#f44800;"/>
<text x="46.000000" y="322.000000" font-family="Arial" font-size="7" text-anchor="middle" fill="#FFFFFF">19</text>
<circle cx="36.000000" cy="310.000000" r="1"/>
<rect x="35.000000" y="341.000000" width="24.000000" height="24.000000" rx="0" ry="0" style="stroke:none;fill:#cccccc;"/>
<rect x="34.000000" y="340.000000" width="24.000000" height="24.000000" rx="0" ry="0" style="stroke:none;fill:#f44800;"/>
<text x="46.000000" y="354.000000" font-family="Arial" font-size="7" text-anchor="middle" fill="#FFFFFF">23</text>
<circle cx="36.000000" cy="342.000000" r="1"/>
<rect x="35.000000" y="373.000000" width="24.000000" height="24.000000" rx="0" ry="0" style="stroke:none;fill:#cccccc;"/>
<rect x="34.000000" y="372.000000" width="24.000000" height="24.000000" rx="0" ry="0" style="stroke:none;fill:#f44800;"/>
<text x="46.000000" y="386.000000" font-family="Arial" font-size="7" text-anchor="middle" fill="#FFFFFF">29</text>
<circle cx="36.000000" cy="374.000000" r="1"/>
<rect x="35.000000" y="405.000000" width="24.000000" height="24.000000" rx="0" ry="0" style="stroke:none;fill:#cccccc;"/>
<rect x="34.000000" y="404.000000" width="24.000000" height="24.000000" rx="0" ry="0" style="stroke:none;fill:#f44800;"/>
<text x="46.000000" y="418.000000" font-family="Arial" font-size="7" text-anchor="middle" fill="#FFFFFF">31</text>
<circle cx="36.000000" cy="406.000000" r="1"/>
<rect x="35.000000" y="437.000000" width="24.000000" height="24.000000" rx="0" ry="0" style="stroke:none;fill:#cccccc;"/>
<rect x="34.000000" y="436.000000" width="24.000000" height="24.000000" rx="0" ry="0" style="stroke:none;fill:#f44800;"/>
<text x="46.000000" y="450.000000" font-family="Arial" font-size="7" text-anchor="middle" fill="#FFFFFF">37</text>
<circle cx="36.000000" cy="438.000000" r="1"/>
<rect x="35.000000" y="469.000000" width="24.000000" height="24.000000" rx="0" ry="0" style="stroke:none;fill:#cccccc;"/>
<rect x="34.000000" y="468.000000" width="24.000000" height="24.000000" rx="0" ry="0" style="stroke:none;fill:#f44800;"/>
<text x="46.000000" y="482.000000" font-family="Arial" font-size="7" text-anchor="middle" fill="#FFFFFF">41</text>
<circle cx="36.000000" cy="470.000000" r="1"/>
<rect x="35.000000" y="501.000000" width="24.000000" height="24.000000" rx="0" ry="0" style="stroke:none;fill:#cccccc;"/>
<rect x="34.000000" y="500.000000" width="24.000000" height="24.000000" rx="0" ry="0" style="stroke:none;fill:#f44800;"/>
<text x="46.000000" y="514.000000" font-family="Arial" font-size="7" text-anchor="middle" fill="#FFFFFF">43</text>
<circle cx="36.000000" cy="502.000000" r="1"/>
<rect x="35.000000" y="533.000000" width="24.000000" height="24.000000" rx="0" ry="0" style="stroke:none;fill:#cccccc;"/>
<rect x="34.000000" y="532.000000" width="24.000000" height="24.000000" rx="0" ry="0" style="stroke:none;fill:#f44800;"/>
<text x="46.000000" y="546.000000" font-family="Arial" font-size="7" text-anchor="middle" fill="#FFFFFF">47</text>
<circle cx="36.000000" cy="534.000000" r="1"/>
<rect x="35.000000" y="565.000000" width="24.000000" height="24.000000" rx="0" ry="0" style="stroke:none;fill:#cccccc;"/>
<rect x="34.000000" y="564.000000" width="24.000000" height="24.000000" rx="0" ry="0" style="stroke:none;fill:#f44800;"/>
<text x="46.000000" y="578.000000" font-family="Arial" font-size="7" text-anchor="middle" fill="#FFFFFF">53</text>
<circle cx="36.000000" cy="566.000000" r="1"/>
<line x1="15.000000" y1="15.000000" x2="15.000000" y2="597.000000"  style="stroke: black; stroke-linecap:round; stroke-width:0.25; stroke-dasharray:3,3;"/>
<line x1="15.000000" y1="597.000000" x2="157.000000" y2="597.000000"  style="stroke: black; stroke-linecap:round; stroke-width:0.25; stroke-dasharray:3,3;"/>
<line x1="157.000000" y1="597.000000" x2="157.000000" y2="15.000000"  style="stroke: black; stroke-linecap:round; stroke-width:0.25; stroke-dasharray:3,3;"/>
<line x1="15.000000" y1="15.000000" x2="20.000000" y2="15.000000"  style="stroke: black; stroke-linecap:round; stroke-width:0.25; stroke-dasharray:3,3;"/>
<line x1="45.800000" y1="15.000000" x2="157.000000" y2="15.000000"  style="stroke: black; stroke-linecap:round; stroke-width:0.25; stroke-dasharray:3,3;"/>
<text x="20.000000" y="17.000000" font-family="Arial" font-size="7">primes</text>
<line x1="159.000000" y1="245.000000" x2="162.000000" y2="246.000000"  transform="rotate(0.000000,162.000000,246.000000)" style="stroke: black; stroke-width:0.25;"/>
<line x1="159.000000" y1="247.000000" x2="162.000000" y2="246.000000"  transform="rotate(0.000000,162.000000,246.000000)" style="stroke: black; stroke-width:0.25;"/>
<line x1="159.000000" y1="253.000000" x2="162.000000" y2="254.000000"  transform="rotate(0.000000,162.000000,254.000000)" style="stroke: black; stroke-width:0.25;"/>
<line x1="159.000000" y1="255.000000" x2="162.000000" y2="254.000000"  transform="rotate(0.000000,162.000000,254.000000)" style="stroke: black; stroke-width:0.25;"/>
<line x1="159.000000" y1="261.000000" x2="162.000000" y2="262.000000"  transform="rotate(0.000000,162.000000,262.000000)" style="stroke: black; stroke-width:0.25;"/>
<line x1="159.000000" y1="263.000000" x2="162.000000" y2="262.000000"  transform="rotate(0.000000,162.000000,262.000000)" style="stroke: black; stroke-width:0.25;"/>
<line x1="159.000000" y1="269.000000" x2="162.000000" y2="270.000000"  transform="rotate(0.000000,162.000000,270.000000)" style="stroke: black; stroke-width:0.25;"/>
<line x1="159.000000" y1="271.000000" x2="162.000000" y2="270.000000"  transform="rotate(0.000000,162.000000,270.000000)" style="stroke: black; stroke-width:0.25;"/>
<line x1="159.000000" y1="277.000000" x2="162.000000" y2="278.000000"  transform="rotate(0.000000,162.000000,278.000000)" style="stroke: black; stroke-width:0.25;"/>
<line x1="159.000000" y1="279.000000" x2="162.000000" y2="278.000000"  transform="rotate(0.000000,162.000000,278.000000)" style="stroke: black; stroke-width:0.25;"/>
<line x1="159.000000" y1="285.000000" x2="162.000000" y2="286.000000"  transform="rotate(0.000000,162.000000,286.000000)" style="stroke: black; stroke-width:0.25;"/>
<line x1="159.000000" y1="287.000000" x2="162.000000" y2="286.000000"  transform="rotate(0.000000,162.000000,286.000000)" style="stroke: black; stroke-width:0.25;"/>
<line x1="159.000000" y1="293.000000" x2="162.000000" y2="294.000000"  transform="rotate(0.000000,162.000000,294.000000)" style="stroke: black; stroke-width:0.25;"/>
<line x1="159.000000" y1="295.000000" x2="162.000000" y2="294.000000"  transform="rotate(0.000000,162.000000,294.000000)" style="stroke: black; stroke-width:0.25;"/>
<line x1="159.000000" y1="301.000000" x2="162.000000" y2="302.000000"  transform="rotate(0.000000,162.000000,302.000000)" style="stroke: black; stroke-width:0.25;"/>
<line x1="159.000000" y1="303.000000" x2="162.000000" y2="302.000000"  transform="rotate(0.000000,162.000000,302.000000)" style="stroke: black; stroke-width:0.25;"/>
<line x1="159.000000" y1="309.000000" x2="162.000000" y2="310.000000"  transform="rotate(0.000000,162.000000,310.000000)" style="stroke: black; stroke-width:0.25;"/>
<line x1="159.000000" y1="311.000000" x2="162.000000" y2="310.000000"  transform="rotate(0.000000,162.000000,310.000000)" style="stroke: black; stroke-width:0.25;"/>
<line x1="159.000000" y1="317.000000" x2="162.000000" y2="318.000000"  transform="rotate(0.000000,162.000000,318.000000)" style="stroke: black; stroke-width:0.25;"/>
<line x1="159.000000" y1="319.000000" x2="162.000000" y2="318.000000"  transform="rotate(0.000000,162.000000,318.000000)" style="stroke: black; stroke-width:0.25;"/>
<line x1="159.000000" y1="325.000000" x2="162.000000" y2="326.000000"  transform="rotate(0.000000,162.000000,326.000000)" style="stroke: black; stroke-width:0.25;"/>
<line x1="159.000000" y1="327.000000" x2="162.000000" y2="326.000000"  transform="rotate(0.000000,162.000000,326.000000)" style="stroke: black; stroke-width:0.25;"/>
<line x1="159.000000" y1="333.000000" x2="162.000000" y2="334.000000"  transform="rotate(0.000000,162.000000,334.000000)" style="stroke: black; stroke-width:0.25;"/>
<line x1="159.000000" y1="335.000000" x2="162.000000" y2="334.000000"  transform="rotate(0.000000,162.000000,334.000000)" style="stroke: black; stroke-width:0.25;"/>
<line x1="159.000000" y1="341.000000" x2="162.000000" y2="342.000000"  transform="rotate(0.000000,162.000000,342.000000)" style="stroke: black; stroke-width:0.25;"/>
<line x1="159.000000" y1="343.000000" x2="162.000000" y2="342.000000"  transform="rotate(0.000000,162.000000,342.000000)" style="stroke: black; stroke-width:0.25;"/>
<line x1="159.000000" y1="349.000000" x2="162.000000" y2="350.000000"  transform="rotate(0.000000,162.000000,350.000000)" style="stroke: black; stroke-width:0.25;"/>
<line x1="159.000000" y1="351.000000" x2="162.000000" y2="350.000000"  transform="rotate(0.000000,162.000000,350.000000)" style="stroke: black; stroke-width:0.25;"/>
<line x1="159.000000" y1="357.000000" x2="162.000000" y2="358.000000"  transform="rotate(0.000000,162.000000,358.000000)" style="stroke: black; stroke-width:0.25;"/>
<line x1="159.000000" y1="359.000000" x2="162.000000" y2="358.000000"  transform="rotate(0.000000,162.000000,358.000000)" style="stroke: black; stroke-width:0.25;"/>
<line x1="159.000000" y1="365.000000" x2="162.000000" y2="366.000000"  transform="rotate(0.000000,162.000000,366.000000)" style="stroke: black; stroke-width:0.25;"/>
<line x1="159.000000" y1="367.000000" x2="162.000000" y2="366.000000"  transform="rotate(0.000000,162.000000,366.000000)" style="stroke: black; stroke-width:0.25;"/>
<line x1="58.000000" y1="46.000000" x2="62.000000" y2="46.000000"  style="stroke:black; stroke-linecap:round; stroke-width:0.25;"/>
<line x1="58.000000" y1="98.000000" x2="62.000000" y2="98.000000"  style="stroke:black; stroke-linecap:round; stroke-width:0.25;"/>
<line x1="58.000000" y1="150.000000" x2="62.000000" y2="150.000000"  style="stroke:black; stroke-linecap:round; stroke-width:0.25;"/>
<line x1="58.000000" y1="192.000000" x2="62.000000" y2="192.000000"  style="stroke:black; stroke-linecap:round; stroke-width:0.25;"/>
<line x1="58.000000" y1="224.000000" x2="62.000000" y2="224.000000"  style="stroke:black; stroke-linecap:round; stroke-width:0.25;"/>
<line x1="58.000000" y1="256.000000" x2="62.000000" y2="256.000000"  style="stroke:black; stroke-linecap:round; stroke-width:0.25;"/>
<line x1="58.000000" y1="288.000000" x2="62.000000" y2="288.000000"  style="stroke:black; stroke-linecap:round; stroke-width:0.25;"/>
<line x1="58.000000" y1="320.000000" x2="62.000000" y2="320.000000"  style="stroke:black; stroke-linecap:round; stroke-width:0.25;"/>
<line x1="58.000000" y1="352.000000" x2="62.000000" y2="352.000000"  style="stroke:black; stroke-linecap:round; stroke-width:0.25;"/>
<line x1="58.000000" y1="384.000000" x2="62.000000" y2="384.000000"  style="stroke:black; stroke-linecap:round; stroke-width:0.25;"/>
<line x1="58.000000" y1="416.000000" x2="62.000000" y2="416.000000"  style="stroke:black; stroke-linecap:round; stroke-width:0.25;"/>
<line x1="58.000000" y1="448.000000" x2="62.000000" y2="448.000000"  style="stroke:black; stroke-linecap:round; stroke-width:0.25;"/>
<line x1="58.000000" y1="480.000000" x2="62.000000" y2="480.000000"  style="stroke:black; stroke-linecap:round; stroke-width:0.25;"/>
<line x1="58.000000" y1="512.000000" x2="62.000000" y2="512.000000"  style="stroke:black; stroke-linecap:round; stroke-width:0.25;"/>
<line x1="58.000000" y1="544.000000" x2="62.000000" y2="544.000000"  style="stroke:black; stroke-linecap:round; stroke-width:0.25;"/>
<line x1="58.000000" y1="576.000000" x2="62.000000" y2="576.000000"  style="stroke:black; stroke-linecap:round; stroke-width:0.25;"/>
<line x1="62.000000" y1="46.000000" x2="72.000000" y2="46.000000"  style="stroke:black; stroke-linecap:round; stroke-width:0.25;"/>
<line x1="62.000000" y1="98.000000" x2="72.000000" y2="98.000000"  style="stroke:black; stroke-linecap:round; stroke-width:0.25;"/>
<line x1="62.000000" y1="150.000000" x2="72.000000" y2="150.000000"  style="stroke:black; stroke-linecap:round; stroke-width:0.25;"/>
<line x1="62.000000" y1="192.000000" x2="72.000000" y2="192.000000"  style="stroke:black; stroke-linecap:round; stroke-width:0.25;"/>
<line x1="62.000000" y1="224.000000" x2="72.000000" y2="224.000000"  style="stroke:black; stroke-linecap:round; stroke-width:0.25;"/>
<line x1="62.000000" y1="256.000000" x2="72.000000" y2="256.000000"  style="stroke:black; stroke-linecap:round; stroke-width:0.25;"/>
<line x1="62.000000" y1="288.000000" x2="72.000000" y2="288.000000"  style="stroke:black; stroke-linecap:round; stroke-width:0.25;"/>
<line x1="62.000000" y1="320.000000" x2="72.000000" y2="320.000000"  style="stroke:black; stroke-linecap:round; stroke-width:0.25;"/>
<line x1="62.000000" y1="352.000000" x2="72.000000" y2="352.000000"  style="stroke:black; stroke-linecap:round; stroke-width:0.25;"/>
<line x1="62.000000" y1="384.000000" x2="72.000000" y2="384.000000"  style="stroke:black; stroke-linecap:round; stroke-width:0.25;"/>
<line x1="62.000000" y1="416.000000" x2="72.000000" y2="416.000000"  style="stroke:black; stroke-linecap:round; stroke-width:0.25;"/>
<line x1="62.000000" y1="448.000000" x2="72.000000" y2="448.000000"  style="stroke:black; stroke-linecap:round; stroke-width:0.25;"/>
<line x1="62.000000" y1="480.000000" x2="72.000000" y2="480.000000"  style="stroke:black; stroke-linecap:round; stroke-width:0.25;"/>
<line x1="62.000000" y1="512.000000" x2="72.000000" y2="512.000000"  style="stroke:black; stroke-linecap:round; stroke-width:0.25;"/>
<line x1="62.000000" y1="544.000000" x2="72.000000" y2="544.000000"  style="stroke:black; stroke-linecap:round; stroke-width:0.25;"/>
<line x1="62.000000" y1="576.000000" x2="72.000000" y2="576.000000"  style="stroke:black; stroke-linecap:round; stroke-width:0.25;"/>
<line x1="72.000000" y1="46.000000" x2="144.000000" y2="46.000000"  style="stroke:black; stroke-linecap:round; stroke-width:0.25;"/>
<line x1="72.000000" y1="98.000000" x2="136.000000" y2="98.000000"  style="stroke:black; stroke-linecap:round; stroke-width:0.25;"/>
<line x1="72.000000" y1="150.000000" x2="128.000000" y2="150.000000"  style="stroke:black; stroke-linecap:round; stroke-width:0.25;"/>
<line x1="72.000000" y1="192.000000" x2="120.000000" y2="192.000000"  style="stroke:black; stroke-linecap:round; stroke-width:0.25;"/>
<line x1="72.000000" y1="224.000000" x2="112.000000" y2="224.000000"  style="stroke:black; stroke-linecap:round; stroke-width:0.25;"/>
<line x1="72.000000" y1="256.000000" x2="104.000000" y2="256.000000"  style="stroke:black; stroke-linecap:round; stroke-width:0.25;"/>
<line x1="72.000000" y1="288.000000" x2="96.000000" y2="288.000000"  style="stroke:black; stroke-linecap:round; stroke-width:0.25;"/>
<line x1="72.000000" y1="302.000000" x2="144.000000" y2="302.000000"  style="stroke:black; stroke-linecap:round; stroke-width:0.25;"/>
<line x1="72.000000" y1="320.000000" x2="72.000000" y2="302.000000"  style="stroke:black; stroke-linecap:round; stroke-width:0.25;"/>
<line x1="72.000000" y1="320.000000" x2="72.000000" y2="320.000000"  style="stroke:black; stroke-linecap:round; stroke-width:0.25;"/>
<line x1="72.000000" y1="352.000000" x2="80.000000" y2="352.000000"  style="stroke:black; stroke-linecap:round; stroke-width:0.25;"/>
<line x1="72.000000" y1="384.000000" x2="88.000000" y2="384.000000"  style="stroke:black; stroke-linecap:round; stroke-width:0.25;"/>
<line x1="72.000000" y1="416.000000" x2="96.000000" y2="416.000000"  style="stroke:black; stroke-linecap:round; stroke-width:0.25;"/>
<line x1="72.000000" y1="448.000000" x2="104.000000" y2="448.000000"  style="stroke:black; stroke-linecap:round; stroke-width:0.25;"/>
<line x1="72.000000" y1="480.000000" x2="112.000000" y2="480.000000"  style="stroke:black; stroke-linecap:round; stroke-width:0.25;"/>
<line x1="72.000000" y1="512.000000" x2="120.000000" y2="512.000000"  style="stroke:black; stroke-linecap:round; stroke-width:0.25;"/>
<line x1="72.000000" y1="544.000000" x2="128.000000" y2="544.000000"  style="stroke:black; stroke-linecap:round; stroke-width:0.25;"/>
<line x1="72.000000" y1="576.000000" x2="136.000000" y2="576.000000"  style="stroke:black; stroke-linecap:round; stroke-width:0.25;"/>
<line x1="80.000000" y1="310.000000" x2="144.000000" y2="310.000000"  style="stroke:black; stroke-linecap:round; stroke-width:0.25;"/>
<line x1="80.000000" y1="352.000000" x2="80.000000" y2="310.000000"  style="stroke:black; stroke-linecap:round; stroke-width:0.25;"/>
<line x1="88.000000" y1="318.000000" x2="144.000000" y2="318.000000"  style="stroke:black; stroke-linecap:round; stroke-width:0.25;"/>
<line x1="88.000000" y1="384.000000" x2="88.000000" y2="318.000000"  style="stroke:black; stroke-linecap:round; stroke-width:0.25;"/>
<line x1="96.000000" y1="288.000000" x2="96.000000" y2="294.000000"  style="stroke:black; stroke-linecap:round; stroke-width:0.25;"/>
<line x1="96.000000" y1="294.000000" x2="144.000000" y2="294.000000"  style="stroke:black; stroke-linecap:round; stroke-width:0.25;"/>
<line x1="96.000000" y1="326.000000" x2="144.000000" y2="326.000000"  style="stroke:black; stroke-linecap:round; stroke-width:0.25;"/>
<line x1="96.000000" y1="416.000000" x2="96.000000" y2="326.000000"  style="stroke:black; stroke-linecap:round; stroke-width:0.25;"/>
<line x1="104.000000" y1="256.000000" x2="104.000000" y2="286.000000"  style="stroke:black; stroke-linecap:round; stroke-width:0.25;"/>
<line x1="104.000000" y1="286.000000" x2="144.000000" y2="286.000000"  style="stroke:black; stroke-linecap:round; stroke-width:0.25;"/>
<line x1="104.000000" y1="334.000000" x2="144.000000" y2="334.000000"  style="stroke:black; stroke-linecap:round; stroke-width:0.25;"/>
<line x1="104.000000" y1="448.000000" x2="104.000000" y2="334.000000"  style="stroke:black; stroke-linecap:round; stroke-width:0.25;"/>
<line x1="112.000000" y1="224.000000" x2="112.000000" y2="278.000000"  style="stroke:black; stroke-linecap:round; stroke-width:0.25;"/>
<line x1="112.000000" y1="278.000000" x2="144.000000" y2="278.000000"  style="stroke:black; stroke-linecap:round; stroke-width:0.25;"/>
<line x1="112.000000" y1="342.000000" x2="144.000000" y2="342.000000"  style="stroke:black; stroke-linecap:round; stroke-width:0.25;"/>
<line x1="112.000000" y1="480.000000" x2="112.000000" y2="342.000000"  style="stroke:black; stroke-linecap:round; stroke-width:0.25;"/>
<line x1="120.000000" y1="192.000000" x2="120.000000" y2="270.000000"  style="stroke:black; stroke-linecap:round; stroke-width:0.25;"/>
<line x1="120.000000" y1="270.000000" x2="144.000000" y2="270.000000"  style="stroke:black; stroke-linecap:round; stroke-width:0.25;"/>
<line x1="120.000000" y1="350.000000" x2="144.000000" y2="350.000000"  style="stroke:black; stroke-linecap:round; stroke-width:0.25;"/>
<line x1="120.000000" y1="512.000000" x2="120.000000" y2="350.000000"  style="stroke:black; stroke-linecap:round; stroke-width:0.25;"/>
<line x1="128.000000" y1="150.000000" x2="128.000000" y2="262.000000"  style="stroke:black; stroke-linecap:round; stroke-width:0.25;"/>
<line x1="128.000000" y1="262.000000" x2="144.000000" y2="262.000000"  style="stroke:black; stroke-linecap:round; stroke-width:0.25;"/>
<line x1="128.000000" y1="358.000000" x2="144.000000" y2="358.000000"  style="stroke:black; stroke-linecap:round; stroke-width:0.25;"/>
<line x1="128.000000" y1="544.000000" x2="128.000000" y2="358.000000"  style="stroke:black; stroke-linecap:round; stroke-width:0.25;"/>
<line x1="136.000000" y1="98.000000" x2="136.000000" y2="254.000000"  style="stroke:black; stroke-linecap:round; stroke-width:0.25;"/>
<line x1="136.000000" y1="254.000000" x2="144.000000" y2="254.000000"  style="stroke:black; stroke-linecap:round; stroke-width:0.25;"/>
<line x1="136.000000" y1="366.000000" x2="144.000000" y2="366.000000"  style="stroke:black; stroke-linecap:round; stroke-width:0.25;"/>
<line x1="136.000000" y1="576.000000" x2="136.000000" y2="366.000000"  style="stroke:black; stroke-linecap:round; stroke-width:0.25;"/>
<line x1="144.000000" y1="46.000000" x2="144.000000" y2="246.000000"  style="stroke:black; stroke-linecap:round; stroke-width:0.25;"/>
<line x1="144.000000" y1="246.000000" x2="144.000000" y2="246.000000"  style="stroke:black; stroke-linecap:round; stroke-width:0.25;"/>
<line x1="144.000000" y1="246.000000" x2="148.000000" y2="246.000000"  style="stroke:black; stroke-linecap:round; stroke-width:0.25;"/>
<line x1="144.000000" y1="254.000000" x2="148.000000" y2="254.000000"  style="stroke:black; stroke-linecap:round; stroke-width:0.25;"/>
<line x1="144.000000" y1="262.000000" x2="148.000000" y2="262.000000"  style="stroke:black; stroke-linecap:round; stroke-width:0.25;"/>
<line x1="144.000000" y1="270.000000" x2="148.000000" y2="270.000000"  style="stroke:black; stroke-linecap:round; stroke-width:0.25;"/>
<line x1="144.000000" y1="278.000000" x2="148.000000" y2="278.000000"  style="stroke:black; stroke-linecap:round; stroke-width:0.25;"/>
<line x1="144.000000" y1="286.000000" x2="148.000000" y2="286.000000"  style="stroke:black; stroke-linecap:round; stroke-width:0.25;"/>
<line x1="144.000000" y1="294.000000" x2="148.000000" y2="294.000000"  style="stroke:black; stroke-linecap:round; stroke-width:0.25;"/>
<line x1="144.000000" y1="302.000000" x2="148.000000" y2="302.000000"  style="stroke:black; stroke-linecap:round; stroke-width:0.25;"/>
<line x1="144.000000" y1="310.000000" x2="148.000000" y2="310.000000"  style="stroke:black; stroke-linecap:round; stroke-width:0.25;"/>
<line x1="144.000000" y1="318.000000" x2="148.000000" y2="318.000000"  style="stroke:black; stroke-linecap:round; stroke-width:0.25;"/>
<line x1="144.000000" y1="326.000000" x2="148.000000" y2="326.000000"  style="stroke:black; stroke-linecap:round; stroke-width:0.25;"/>
<line x1="144.000000" y1="334.000000" x2="148.000000" y2="334.000000"  style="stroke:black; stroke-linecap:round; stroke-width:0.25;"/>
<line x1="144.000000" y1="342.000000" x2="148.000000" y2="342.000000"  style="stroke:black; stroke-linecap:round; stroke-width:0.25;"/>
<line x1="144.000000" y1="350.000000" x2="148.000000" y2="350.000000"  style="stroke:black; stroke-linecap:round; stroke-width:0.25;"/>
<line x1="144.000000" y1="358.000000" x2="148.000000" y2="358.000000"  style="stroke:black; stroke-linecap:round; stroke-width:0.25;"/>
<line x1="144.000000" y1="366.000000" x2="148.000000" y2="366.000000"  style="stroke:black; stroke-linecap:round; stroke-width:0.25;"/>
<line x1="148.000000" y1="246.000000" x2="152.000000" y2="246.000000"  style="stroke:black; stroke-linecap:round; stroke-width:0.25;"/>
<line x1="148.000000" y1="254.000000" x2="152.000000" y2="254.000000"  style="stroke:black; stroke-linecap:round; stroke-width:0.25;"/>
<line x1="148.000000" y1="262.000000" x2="152.000000" y2="262.000000"  style="stroke:black; stroke-linecap:round; stroke-width:0.25;"/>
<line x1="148.000000" y1="270.000000" x2="152.000000" y2="270.000000"  style="stroke:black; stroke-linecap:round; stroke-width:0.25;"/>
<line x1="148.000000" y1="278.000000" x2="152.000000" y2="278.000000"  style="stroke:black; stroke-linecap:round; stroke-width:0.25;"/>
<line x1="148.000000" y1="286.000000" x2="152.000000" y2="286.000000"  style="stroke:black; stroke-linecap:round; stroke-width:0.25;"/>
<line x1="148.000000" y1="294.000000" x2="152.000000" y2="294.000000"  style="stroke:black; stroke-linecap:round; stroke-width:0.25;"/>
<line x1="148.000000" y1="302.000000" x2="152.000000" y2="302.000000"  style="stroke:black; stroke-linecap:round; stroke-width:0.25;"/>
<line x1="148.000000" y1="310.000000" x2="152.000000" y2="310.000000"  style="stroke:black; stroke-linecap:round; stroke-width:0.25;"/>
<line x1="148.000000" y1="318.000000" x2="152.000000" y2="318.000000"  style="stroke:black; stroke-linecap:round; stroke-width:0.25;"/>
<line x1="148.000000" y1="326.000000" x2="152.000000" y2="326.000000"  style="stroke:black; stroke-linecap:round; stroke-width:0.25;"/>
<line x1="148.000000" y1="334.000000" x2="152.000000" y2="334.000000"  style="stroke:black; stroke-linecap:round; stroke-width:0.25;"/>
<line x1="148.000000" y1="342.000000" x2="152.000000" y2="342.000000"  style="stroke:black; stroke-linecap:round; stroke-width:0.25;"/>
<line x1="148.000000" y1="350.000000" x2="152.000000" y2="350.000000"  style="stroke:black; stroke-linecap:round; stroke-width:0.25;"/>
<line x1="148.000000" y1="358.000000" x2="152.000000" y2="358.000000"  style="stroke:black; stroke-linecap:round; stroke-width:0.25;"/>
<line x1="148.000000" y1="366.000000" x2="152.000000" y2="366.000000"  style="stroke:black; stroke-linecap:round; stroke-width:0.25;"/>
<line x1="152.000000" y1="246.000000" x2="162.000000" y2="246.000000"  style="stroke:black; stroke-linecap:round; stroke-width:0.25;"/>
<line x1="152.000000" y1="254.000000" x2="162.000000" y2="254.000000"  style="stroke:black; stroke-linecap:round; stroke-width:0.25;"/>
<line x1="152.000000" y1="262.000000" x2="162.000000" y2="262.000000"  style="stroke:black; stroke-linecap:round; stroke-width:0.25;"/>
<line x1="152.000000" y1="270.000000" x2="162.000000" y2="270.000000"  style="stroke:black; stroke-linecap:round; stroke-width:0.25;"/>
<line x1="152.000000" y1="278.000000" x2="162.000000" y2="278.000000"  style="stroke:black; stroke-linecap:round; stroke-width:0.25;"/>
<line x1="152.000000" y1="286.000000" x2="162.000000" y2="286.000000"  style="stroke:black; stroke-linecap:round; stroke-width:0.25;"/>
<line x1="152.000000" y1="294.000000" x2="162.000000" y2="294.000000"  style="stroke:black; stroke-linecap:round; stroke-width:0.25;"/>
<line x1="152.000000" y1="302.000000" x2="162.000000" y2="302.000000"  style="stroke:black; stroke-linecap:round; stroke-width:0.25;"/>
<line x1="152.000000" y1="310.000000" x2="162.000000" y2="310.000000"  style="stroke:black; stroke-linecap:round; stroke-width:0.25;"/>
<line x1="152.000000" y1="318.000000" x2="162.000000" y2="318.000000"  style="stroke:black; stroke-linecap:round; stroke-width:0.25;"/>
<line x1="152.000000" y1="326.000000" x2="162.000000" y2="326.000000"  style="stroke:black; stroke-linecap:round; stroke-width:0.25;"/>
<line x1="152.000000" y1="334.000000" x2="162.000000" y2="334.000000"  style="stroke:black; stroke-linecap:round; stroke-width:0.25;"/>
<line x1="152.000000" y1="342.000000" x2="162.000000" y2="342.000000"  style="stroke:black; stroke-linecap:round; stroke-width:0.25;"/>
<line x1="152.000000" y1="350.000000" x2="162.000000" y2="350.000000"  style="stroke:black; stroke-linecap:round; stroke-width:0.25;"/>
<line x1="152.000000" y1="358.000000" x2="162.000000" y2="358.000000"  style="stroke:black; stroke-linecap:round; stroke-width:0.25;"/>
<line x1="152.000000" y1="366.000000" x2="162.000000" y2="366.000000"  style="stroke:black; stroke-linecap:round; stroke-width:0.25;"/>
</svg>
