<?xml version="1.0"?>
<svg xmlns="http://www.w3.org/2000/svg" xmlns:xlink="http://www.w3.org/1999/xlink" viewBox="0 0 374.900000 112.000000" width="187.450000mm" height="56.000000mm" version="1.1">
<a xlink:href="BP1-0x7fe546c44ac0.svg">
<rect x="1.000000" y="1.000000" width="373.900000" height="111.000000" rx="0" ry="0" style="stroke:none;fill:#cccccc;"/>
<rect x="0.000000" y="0.000000" width="373.900000" height="111.000000" rx="0" ry="0" style="stroke:none;fill:#ffffff;"/>
</a>
<text x="10.000000" y="7.000000" font-family="Arial" font-size="7"></text>
<rect x="45.000000" y="45.000000" width="245.100000" height="24.000000" rx="0" ry="0" style="stroke:none;fill:#cccccc;"/>
<rect x="44.000000" y="44.000000" width="245.100000" height="24.000000" rx="0" ry="0" style="stroke:none;fill:#477881;"/>
<text x="166.550000" y="58.000000" font-family="Arial" font-size="7" text-anchor="middle" fill="#FFFFFF">vslider(Q 1, 40.0f, 1.0f, 1000.0f, 0.10000000000000001f)</text>
<circle cx="46.000000" cy="46.000000" r="1"/>
<a xlink:href="smoo-0x7fe5468a7370.svg">
<rect x="298.100000" y="45.000000" width="25.800000" height="24.000000" rx="0" ry="0" style="stroke:none;fill:#cccccc;"/>
<rect x="297.100000" y="44.000000" width="25.800000" height="24.000000" rx="0" ry="0" style="stroke:none;fill:#003366;"/>
</a>
<a xlink:href="smoo-0x7fe5468a7370.svg">
<text x="310.000000" y="58.000000" font-family="Arial" font-size="7" text-anchor="middle" fill="#FFFFFF">smoo</text>
</a>
<circle cx="299.100000" cy="46.000000" r="1"/>
<line x1="294.100000" y1="55.000000" x2="297.100000" y2="56.000000"  transform="rotate(0.000000,297.100000,56.000000)" style="stroke: black; stroke-width:0.25;"/>
<line x1="294.100000" y1="57.000000" x2="297.100000" y2="56.000000"  transform="rotate(0.000000,297.100000,56.000000)" style="stroke: black; stroke-width:0.25;"/>
<line x1="35.000000" y1="35.000000" x2="35.000000" y2="77.000000"  style="stroke: black; stroke-linecap:round; stroke-width:0.25; stroke-dasharray:3,3;"/>
<line x1="35.000000" y1="77.000000" x2="331.900000" y2="77.000000"  style="stroke: black; stroke-linecap:round; stroke-width:0.25; stroke-dasharray:3,3;"/>
<line x1="331.900000" y1="77.000000" x2="331.900000" y2="35.000000"  style="stroke: black; stroke-linecap:round; stroke-width:0.25; stroke-dasharray:3,3;"/>
<line x1="35.000000" y1="35.000000" x2="40.000000" y2="35.000000"  style="stroke: black; stroke-linecap:round; stroke-width:0.25; stroke-dasharray:3,3;"/>
<line x1="85.150000" y1="35.000000" x2="331.900000" y2="35.000000"  style="stroke: black; stroke-linecap:round; stroke-width:0.25; stroke-dasharray:3,3;"/>
<text x="40.000000" y="37.000000" font-family="Arial" font-size="7">hgroup(Band)</text>
<line x1="25.000000" y1="25.000000" x2="25.000000" y2="87.000000"  style="stroke: black; stroke-linecap:round; stroke-width:0.25; stroke-dasharray:3,3;"/>
<line x1="25.000000" y1="87.000000" x2="341.900000" y2="87.000000"  style="stroke: black; stroke-linecap:round; stroke-width:0.25; stroke-dasharray:3,3;"/>
<line x1="341.900000" y1="87.000000" x2="341.900000" y2="25.000000"  style="stroke: black; stroke-linecap:round; stroke-width:0.25; stroke-dasharray:3,3;"/>
<line x1="25.000000" y1="25.000000" x2="30.000000" y2="25.000000"  style="stroke: black; stroke-linecap:round; stroke-width:0.25; stroke-dasharray:3,3;"/>
<line x1="104.175000" y1="25.000000" x2="341.900000" y2="25.000000"  style="stroke: black; stroke-linecap:round; stroke-width:0.25; stroke-dasharray:3,3;"/>
<text x="30.000000" y="27.000000" font-family="Arial" font-size="7">vgroup(PARAMETRIC EQ)</text>
<line x1="15.000000" y1="15.000000" x2="15.000000" y2="97.000000"  style="stroke: black; stroke-linecap:round; stroke-width:0.25; stroke-dasharray:3,3;"/>
<line x1="15.000000" y1="97.000000" x2="359.900000" y2="97.000000"  style="stroke: black; stroke-linecap:round; stroke-width:0.25; stroke-dasharray:3,3;"/>
<line x1="359.900000" y1="97.000000" x2="359.900000" y2="15.000000"  style="stroke: black; stroke-linecap:round; stroke-width:0.25; stroke-dasharray:3,3;"/>
<line x1="15.000000" y1="15.000000" x2="20.000000" y2="15.000000"  style="stroke: black; stroke-linecap:round; stroke-width:0.25; stroke-dasharray:3,3;"/>
<line x1="32.900000" y1="15.000000" x2="359.900000" y2="15.000000"  style="stroke: black; stroke-linecap:round; stroke-width:0.25; stroke-dasharray:3,3;"/>
<text x="20.000000" y="17.000000" font-family="Arial" font-size="7">Q1</text>
<line x1="361.900000" y1="55.000000" x2="364.900000" y2="56.000000"  transform="rotate(0.000000,364.900000,56.000000)" style="stroke: black; stroke-width:0.25;"/>
<line x1="361.900000" y1="57.000000" x2="364.900000" y2="56.000000"  transform="rotate(0.000000,364.900000,56.000000)" style="stroke: black; stroke-width:0.25;"/>
<line x1="289.100000" y1="56.000000" x2="293.100000" y2="56.000000"  style="stroke:black; stroke-linecap:round; stroke-width:0.25;"/>
<line x1="293.100000" y1="56.000000" x2="293.100000" y2="56.000000"  style="stroke:black; stroke-linecap:round; stroke-width:0.25;"/>
<line x1="293.100000" y1="56.000000" x2="297.100000" y2="56.000000"  style="stroke:black; stroke-linecap:round; stroke-width:0.25;"/>
<line x1="322.900000" y1="56.000000" x2="326.900000" y2="56.000000"  style="stroke:black; stroke-linecap:round; stroke-width:0.25;"/>
<line x1="326.900000" y1="56.000000" x2="336.900000" y2="56.000000"  style="stroke:black; stroke-linecap:round; stroke-width:0.25;"/>
<line x1="336.900000" y1="56.000000" x2="346.900000" y2="56.000000"  style="stroke:black; stroke-linecap:round; stroke-width:0.25;"/>
<line x1="346.900000" y1="56.000000" x2="350.900000" y2="56.000000"  style="stroke:black; stroke-linecap:round; stroke-width:0.25;"/>
<line x1="346.900000" y1="56.000000" x2="346.900000" y2="56.000000"  style="stroke:black; stroke-linecap:round; stroke-width:0.25;"/>
<line x1="350.900000" y1="56.000000" x2="354.900000" y2="56.000000"  style="stroke:black; stroke-linecap:round; stroke-width:0.25;"/>
<line x1="354.900000" y1="56.000000" x2="364.900000" y2="56.000000"  style="stroke:black; stroke-linecap:round; stroke-width:0.25;"/>
</svg>
