<?xml version="1.0"?>
<svg xmlns="http://www.w3.org/2000/svg" xmlns:xlink="http://www.w3.org/1999/xlink" viewBox="0 0 561.400000 556.000000" width="280.700000mm" height="278.000000mm" version="1.1">
<a xlink:href="spat-0x7fe54e59db40.svg">
<rect x="1.000000" y="1.000000" width="560.400000" height="555.000000" rx="0" ry="0" style="stroke:none;fill:#cccccc;"/>
<rect x="0.000000" y="0.000000" width="560.400000" height="555.000000" rx="0" ry="0" style="stroke:none;fill:#ffffff;"/>
</a>
<text x="10.000000" y="7.000000" font-family="Arial" font-size="7"></text>
<rect x="120.950000" y="35.000000" width="193.500000" height="24.000000" rx="0" ry="0" style="stroke:none;fill:#cccccc;"/>
<rect x="119.950000" y="34.000000" width="193.500000" height="24.000000" rx="0" ry="0" style="stroke:none;fill:#477881;"/>
<text x="216.700000" y="48.000000" font-family="Arial" font-size="7" text-anchor="middle" fill="#FFFFFF">hslider(h1 distance, 1.0f, 0.0f, 1.0f, 0.01f)</text>
<circle cx="121.950000" cy="36.000000" r="1"/>
<line x1="110.950000" y1="25.000000" x2="110.950000" y2="67.000000"  style="stroke: black; stroke-linecap:round; stroke-width:0.25; stroke-dasharray:3,3;"/>
<line x1="110.950000" y1="67.000000" x2="322.450000" y2="67.000000"  style="stroke: black; stroke-linecap:round; stroke-width:0.25; stroke-dasharray:3,3;"/>
<line x1="322.450000" y1="67.000000" x2="322.450000" y2="25.000000"  style="stroke: black; stroke-linecap:round; stroke-width:0.25; stroke-dasharray:3,3;"/>
<line x1="110.950000" y1="25.000000" x2="115.950000" y2="25.000000"  style="stroke: black; stroke-linecap:round; stroke-width:0.25; stroke-dasharray:3,3;"/>
<line x1="141.750000" y1="25.000000" x2="322.450000" y2="25.000000"  style="stroke: black; stroke-linecap:round; stroke-width:0.25; stroke-dasharray:3,3;"/>
<text x="115.950000" y="27.000000" font-family="Arial" font-size="7">h1dist</text>
<rect x="205.700000" y="77.000000" width="24.000000" height="24.000000" rx="0" ry="0" style="stroke:none;fill:#cccccc;"/>
<rect x="204.700000" y="76.000000" width="24.000000" height="24.000000" rx="0" ry="0" style="stroke:none;fill:#f44800;"/>
<text x="216.700000" y="90.000000" font-family="Arial" font-size="7" text-anchor="middle" fill="#FFFFFF">2</text>
<circle cx="206.700000" cy="78.000000" r="1"/>
<rect x="340.450000" y="51.000000" width="24.000000" height="24.000000" rx="0" ry="0" style="stroke:none;fill:#cccccc;"/>
<rect x="339.450000" y="50.000000" width="24.000000" height="24.000000" rx="0" ry="0" style="stroke:none;fill:#4B71A1;"/>
<text x="351.450000" y="64.000000" font-family="Arial" font-size="7" text-anchor="middle" fill="#FFFFFF">/</text>
<circle cx="341.450000" cy="52.000000" r="1"/>
<line x1="336.450000" y1="57.000000" x2="339.450000" y2="58.000000"  transform="rotate(0.000000,339.450000,58.000000)" style="stroke: black; stroke-width:0.25;"/>
<line x1="336.450000" y1="59.000000" x2="339.450000" y2="58.000000"  transform="rotate(0.000000,339.450000,58.000000)" style="stroke: black; stroke-width:0.25;"/>
<line x1="336.450000" y1="65.000000" x2="339.450000" y2="66.000000"  transform="rotate(0.000000,339.450000,66.000000)" style="stroke: black; stroke-width:0.25;"/>
<line x1="336.450000" y1="67.000000" x2="339.450000" y2="66.000000"  transform="rotate(0.000000,339.450000,66.000000)" style="stroke: black; stroke-width:0.25;"/>
<rect x="225.700000" y="109.000000" width="24.000000" height="24.000000" rx="0" ry="0" style="stroke:none;fill:#cccccc;"/>
<rect x="224.700000" y="108.000000" width="24.000000" height="24.000000" rx="0" ry="0" style="stroke:none;fill:#f44800;"/>
<text x="236.700000" y="122.000000" font-family="Arial" font-size="7" text-anchor="middle" fill="#FFFFFF">0.5</text>
<circle cx="226.700000" cy="110.000000" r="1"/>
<rect x="380.450000" y="67.000000" width="24.000000" height="24.000000" rx="0" ry="0" style="stroke:none;fill:#cccccc;"/>
<rect x="379.450000" y="66.000000" width="24.000000" height="24.000000" rx="0" ry="0" style="stroke:none;fill:#4B71A1;"/>
<text x="391.450000" y="80.000000" font-family="Arial" font-size="7" text-anchor="middle" fill="#FFFFFF">+</text>
<circle cx="381.450000" cy="68.000000" r="1"/>
<line x1="376.450000" y1="73.000000" x2="379.450000" y2="74.000000"  transform="rotate(0.000000,379.450000,74.000000)" style="stroke: black; stroke-width:0.25;"/>
<line x1="376.450000" y1="75.000000" x2="379.450000" y2="74.000000"  transform="rotate(0.000000,379.450000,74.000000)" style="stroke: black; stroke-width:0.25;"/>
<line x1="376.450000" y1="81.000000" x2="379.450000" y2="82.000000"  transform="rotate(0.000000,379.450000,82.000000)" style="stroke: black; stroke-width:0.25;"/>
<line x1="376.450000" y1="83.000000" x2="379.450000" y2="82.000000"  transform="rotate(0.000000,379.450000,82.000000)" style="stroke: black; stroke-width:0.25;"/>
<rect x="208.800000" y="141.000000" width="24.000000" height="24.000000" rx="0" ry="0" style="stroke:none;fill:#cccccc;"/>
<rect x="207.800000" y="140.000000" width="24.000000" height="24.000000" rx="0" ry="0" style="stroke:none;fill:#f44800;"/>
<text x="219.800000" y="154.000000" font-family="Arial" font-size="7" text-anchor="middle" fill="#FFFFFF">0</text>
<circle cx="209.800000" cy="142.000000" r="1"/>
<rect x="188.800000" y="173.000000" width="24.000000" height="24.000000" rx="0" ry="0" style="stroke:none;fill:#cccccc;"/>
<rect x="187.800000" y="172.000000" width="24.000000" height="24.000000" rx="0" ry="0" style="stroke:none;fill:#f44800;"/>
<text x="199.800000" y="186.000000" font-family="Arial" font-size="7" text-anchor="middle" fill="#FFFFFF">1</text>
<circle cx="189.800000" cy="174.000000" r="1"/>
<a xlink:href="h1ramp-0x7fe54e3d2fb0.svg">
<rect x="51.000000" y="205.000000" width="25.800000" height="24.000000" rx="0" ry="0" style="stroke:none;fill:#cccccc;"/>
<rect x="50.000000" y="204.000000" width="25.800000" height="24.000000" rx="0" ry="0" style="stroke:none;fill:#003366;"/>
</a>
<a xlink:href="h1ramp-0x7fe54e3d2fb0.svg">
<text x="62.900000" y="218.000000" font-family="Arial" font-size="7" text-anchor="middle" fill="#FFFFFF">h1ramp</text>
</a>
<circle cx="52.000000" cy="206.000000" r="1"/>
<rect x="51.900000" y="237.000000" width="24.000000" height="24.000000" rx="0" ry="0" style="stroke:none;fill:#cccccc;"/>
<rect x="50.900000" y="236.000000" width="24.000000" height="24.000000" rx="0" ry="0" style="stroke:none;fill:#f44800;"/>
<text x="62.900000" y="250.000000" font-family="Arial" font-size="7" text-anchor="middle" fill="#FFFFFF">0.5</text>
<circle cx="52.900000" cy="238.000000" r="1"/>
<rect x="92.800000" y="221.000000" width="24.000000" height="24.000000" rx="0" ry="0" style="stroke:none;fill:#cccccc;"/>
<rect x="91.800000" y="220.000000" width="24.000000" height="24.000000" rx="0" ry="0" style="stroke:none;fill:#4B71A1;"/>
<text x="103.800000" y="234.000000" font-family="Arial" font-size="7" text-anchor="middle" fill="#FFFFFF">+</text>
<circle cx="93.800000" cy="222.000000" r="1"/>
<line x1="88.800000" y1="227.000000" x2="91.800000" y2="228.000000"  transform="rotate(0.000000,91.800000,228.000000)" style="stroke: black; stroke-width:0.25;"/>
<line x1="88.800000" y1="229.000000" x2="91.800000" y2="228.000000"  transform="rotate(0.000000,91.800000,228.000000)" style="stroke: black; stroke-width:0.25;"/>
<line x1="88.800000" y1="235.000000" x2="91.800000" y2="236.000000"  transform="rotate(0.000000,91.800000,236.000000)" style="stroke: black; stroke-width:0.25;"/>
<line x1="88.800000" y1="237.000000" x2="91.800000" y2="236.000000"  transform="rotate(0.000000,91.800000,236.000000)" style="stroke: black; stroke-width:0.25;"/>
<rect x="35.000000" y="279.000000" width="24.000000" height="24.000000" rx="0" ry="0" style="stroke:none;fill:#cccccc;"/>
<rect x="34.000000" y="278.000000" width="24.000000" height="24.000000" rx="0" ry="0" style="stroke:none;fill:#f44800;"/>
<text x="46.000000" y="292.000000" font-family="Arial" font-size="7" text-anchor="middle" fill="#FFFFFF">4</text>
<circle cx="36.000000" cy="280.000000" r="1"/>
<line x1="25.000000" y1="269.000000" x2="25.000000" y2="311.000000"  style="stroke: black; stroke-linecap:round; stroke-width:0.25; stroke-dasharray:3,3;"/>
<line x1="25.000000" y1="311.000000" x2="67.000000" y2="311.000000"  style="stroke: black; stroke-linecap:round; stroke-width:0.25; stroke-dasharray:3,3;"/>
<line x1="67.000000" y1="311.000000" x2="67.000000" y2="269.000000"  style="stroke: black; stroke-linecap:round; stroke-width:0.25; stroke-dasharray:3,3;"/>
<line x1="25.000000" y1="269.000000" x2="30.000000" y2="269.000000"  style="stroke: black; stroke-linecap:round; stroke-width:0.25; stroke-dasharray:3,3;"/>
<line x1="42.900000" y1="269.000000" x2="67.000000" y2="269.000000"  style="stroke: black; stroke-linecap:round; stroke-width:0.25; stroke-dasharray:3,3;"/>
<text x="30.000000" y="271.000000" font-family="Arial" font-size="7">nb</text>
<rect x="77.000000" y="279.000000" width="25.800000" height="24.000000" rx="0" ry="0" style="stroke:none;fill:#cccccc;"/>
<rect x="76.000000" y="278.000000" width="25.800000" height="24.000000" rx="0" ry="0" style="stroke:none;fill:#4B71A1;"/>
<text x="88.900000" y="292.000000" font-family="Arial" font-size="7" text-anchor="middle" fill="#FFFFFF">float</text>
<circle cx="78.000000" cy="280.000000" r="1"/>
<line x1="73.000000" y1="289.000000" x2="76.000000" y2="290.000000"  transform="rotate(0.000000,76.000000,290.000000)" style="stroke: black; stroke-width:0.25;"/>
<line x1="73.000000" y1="291.000000" x2="76.000000" y2="290.000000"  transform="rotate(0.000000,76.000000,290.000000)" style="stroke: black; stroke-width:0.25;"/>
<rect x="51.900000" y="331.000000" width="24.000000" height="24.000000" rx="0" ry="0" style="stroke:none;fill:#cccccc;"/>
<rect x="50.900000" y="330.000000" width="24.000000" height="24.000000" rx="0" ry="0" style="stroke:none;fill:#f44800;"/>
<text x="62.900000" y="344.000000" font-family="Arial" font-size="7" text-anchor="middle" fill="#FFFFFF">4</text>
<circle cx="52.900000" cy="332.000000" r="1"/>
<line x1="41.900000" y1="321.000000" x2="41.900000" y2="363.000000"  style="stroke: black; stroke-linecap:round; stroke-width:0.25; stroke-dasharray:3,3;"/>
<line x1="41.900000" y1="363.000000" x2="83.900000" y2="363.000000"  style="stroke: black; stroke-linecap:round; stroke-width:0.25; stroke-dasharray:3,3;"/>
<line x1="83.900000" y1="363.000000" x2="83.900000" y2="321.000000"  style="stroke: black; stroke-linecap:round; stroke-width:0.25; stroke-dasharray:3,3;"/>
<line x1="41.900000" y1="321.000000" x2="46.900000" y2="321.000000"  style="stroke: black; stroke-linecap:round; stroke-width:0.25; stroke-dasharray:3,3;"/>
<line x1="59.800000" y1="321.000000" x2="83.900000" y2="321.000000"  style="stroke: black; stroke-linecap:round; stroke-width:0.25; stroke-dasharray:3,3;"/>
<text x="46.900000" y="323.000000" font-family="Arial" font-size="7">nb</text>
<rect x="118.800000" y="305.000000" width="24.000000" height="24.000000" rx="0" ry="0" style="stroke:none;fill:#cccccc;"/>
<rect x="117.800000" y="304.000000" width="24.000000" height="24.000000" rx="0" ry="0" style="stroke:none;fill:#4B71A1;"/>
<text x="129.800000" y="318.000000" font-family="Arial" font-size="7" text-anchor="middle" fill="#FFFFFF">/</text>
<circle cx="119.800000" cy="306.000000" r="1"/>
<line x1="114.800000" y1="311.000000" x2="117.800000" y2="312.000000"  transform="rotate(0.000000,117.800000,312.000000)" style="stroke: black; stroke-width:0.25;"/>
<line x1="114.800000" y1="313.000000" x2="117.800000" y2="312.000000"  transform="rotate(0.000000,117.800000,312.000000)" style="stroke: black; stroke-width:0.25;"/>
<line x1="114.800000" y1="319.000000" x2="117.800000" y2="320.000000"  transform="rotate(0.000000,117.800000,320.000000)" style="stroke: black; stroke-width:0.25;"/>
<line x1="114.800000" y1="321.000000" x2="117.800000" y2="320.000000"  transform="rotate(0.000000,117.800000,320.000000)" style="stroke: black; stroke-width:0.25;"/>
<rect x="158.800000" y="273.000000" width="24.000000" height="24.000000" rx="0" ry="0" style="stroke:none;fill:#cccccc;"/>
<rect x="157.800000" y="272.000000" width="24.000000" height="24.000000" rx="0" ry="0" style="stroke:none;fill:#4B71A1;"/>
<text x="169.800000" y="286.000000" font-family="Arial" font-size="7" text-anchor="middle" fill="#FFFFFF">+</text>
<circle cx="159.800000" cy="274.000000" r="1"/>
<line x1="154.800000" y1="279.000000" x2="157.800000" y2="280.000000"  transform="rotate(0.000000,157.800000,280.000000)" style="stroke: black; stroke-width:0.25;"/>
<line x1="154.800000" y1="281.000000" x2="157.800000" y2="280.000000"  transform="rotate(0.000000,157.800000,280.000000)" style="stroke: black; stroke-width:0.25;"/>
<line x1="154.800000" y1="287.000000" x2="157.800000" y2="288.000000"  transform="rotate(0.000000,157.800000,288.000000)" style="stroke: black; stroke-width:0.25;"/>
<line x1="154.800000" y1="289.000000" x2="157.800000" y2="288.000000"  transform="rotate(0.000000,157.800000,288.000000)" style="stroke: black; stroke-width:0.25;"/>
<rect x="91.900000" y="373.000000" width="24.000000" height="24.000000" rx="0" ry="0" style="stroke:none;fill:#cccccc;"/>
<rect x="90.900000" y="372.000000" width="24.000000" height="24.000000" rx="0" ry="0" style="stroke:none;fill:#f44800;"/>
<text x="102.900000" y="386.000000" font-family="Arial" font-size="7" text-anchor="middle" fill="#FFFFFF">1</text>
<circle cx="92.900000" cy="374.000000" r="1"/>
<rect x="198.800000" y="289.000000" width="25.800000" height="24.000000" rx="0" ry="0" style="stroke:none;fill:#cccccc;"/>
<rect x="197.800000" y="288.000000" width="25.800000" height="24.000000" rx="0" ry="0" style="stroke:none;fill:#4B71A1;"/>
<text x="210.700000" y="302.000000" font-family="Arial" font-size="7" text-anchor="middle" fill="#FFFFFF">fmod</text>
<circle cx="199.800000" cy="290.000000" r="1"/>
<line x1="194.800000" y1="295.000000" x2="197.800000" y2="296.000000"  transform="rotate(0.000000,197.800000,296.000000)" style="stroke: black; stroke-width:0.25;"/>
<line x1="194.800000" y1="297.000000" x2="197.800000" y2="296.000000"  transform="rotate(0.000000,197.800000,296.000000)" style="stroke: black; stroke-width:0.25;"/>
<line x1="194.800000" y1="303.000000" x2="197.800000" y2="304.000000"  transform="rotate(0.000000,197.800000,304.000000)" style="stroke: black; stroke-width:0.25;"/>
<line x1="194.800000" y1="305.000000" x2="197.800000" y2="304.000000"  transform="rotate(0.000000,197.800000,304.000000)" style="stroke: black; stroke-width:0.25;"/>
<rect x="112.800000" y="405.000000" width="24.000000" height="24.000000" rx="0" ry="0" style="stroke:none;fill:#cccccc;"/>
<rect x="111.800000" y="404.000000" width="24.000000" height="24.000000" rx="0" ry="0" style="stroke:none;fill:#f44800;"/>
<text x="123.800000" y="418.000000" font-family="Arial" font-size="7" text-anchor="middle" fill="#FFFFFF">0.5</text>
<circle cx="113.800000" cy="406.000000" r="1"/>
<rect x="240.600000" y="305.000000" width="24.000000" height="24.000000" rx="0" ry="0" style="stroke:none;fill:#cccccc;"/>
<rect x="239.600000" y="304.000000" width="24.000000" height="24.000000" rx="0" ry="0" style="stroke:none;fill:#4B71A1;"/>
<text x="251.600000" y="318.000000" font-family="Arial" font-size="7" text-anchor="middle" fill="#FFFFFF">-</text>
<circle cx="241.600000" cy="306.000000" r="1"/>
<line x1="236.600000" y1="311.000000" x2="239.600000" y2="312.000000"  transform="rotate(0.000000,239.600000,312.000000)" style="stroke: black; stroke-width:0.25;"/>
<line x1="236.600000" y1="313.000000" x2="239.600000" y2="312.000000"  transform="rotate(0.000000,239.600000,312.000000)" style="stroke: black; stroke-width:0.25;"/>
<line x1="236.600000" y1="319.000000" x2="239.600000" y2="320.000000"  transform="rotate(0.000000,239.600000,320.000000)" style="stroke: black; stroke-width:0.25;"/>
<line x1="236.600000" y1="321.000000" x2="239.600000" y2="320.000000"  transform="rotate(0.000000,239.600000,320.000000)" style="stroke: black; stroke-width:0.25;"/>
<rect x="272.600000" y="305.000000" width="24.000000" height="24.000000" rx="0" ry="0" style="stroke:none;fill:#cccccc;"/>
<rect x="271.600000" y="304.000000" width="24.000000" height="24.000000" rx="0" ry="0" style="stroke:none;fill:#4B71A1;"/>
<text x="283.600000" y="318.000000" font-family="Arial" font-size="7" text-anchor="middle" fill="#FFFFFF">abs</text>
<circle cx="273.600000" cy="306.000000" r="1"/>
<line x1="268.600000" y1="315.000000" x2="271.600000" y2="316.000000"  transform="rotate(0.000000,271.600000,316.000000)" style="stroke: black; stroke-width:0.25;"/>
<line x1="268.600000" y1="317.000000" x2="271.600000" y2="316.000000"  transform="rotate(0.000000,271.600000,316.000000)" style="stroke: black; stroke-width:0.25;"/>
<rect x="148.800000" y="447.000000" width="24.000000" height="24.000000" rx="0" ry="0" style="stroke:none;fill:#cccccc;"/>
<rect x="147.800000" y="446.000000" width="24.000000" height="24.000000" rx="0" ry="0" style="stroke:none;fill:#f44800;"/>
<text x="159.800000" y="460.000000" font-family="Arial" font-size="7" text-anchor="middle" fill="#FFFFFF">4</text>
<circle cx="149.800000" cy="448.000000" r="1"/>
<line x1="138.800000" y1="437.000000" x2="138.800000" y2="479.000000"  style="stroke: black; stroke-linecap:round; stroke-width:0.25; stroke-dasharray:3,3;"/>
<line x1="138.800000" y1="479.000000" x2="180.800000" y2="479.000000"  style="stroke: black; stroke-linecap:round; stroke-width:0.25; stroke-dasharray:3,3;"/>
<line x1="180.800000" y1="479.000000" x2="180.800000" y2="437.000000"  style="stroke: black; stroke-linecap:round; stroke-width:0.25; stroke-dasharray:3,3;"/>
<line x1="138.800000" y1="437.000000" x2="143.800000" y2="437.000000"  style="stroke: black; stroke-linecap:round; stroke-width:0.25; stroke-dasharray:3,3;"/>
<line x1="156.700000" y1="437.000000" x2="180.800000" y2="437.000000"  style="stroke: black; stroke-linecap:round; stroke-width:0.25; stroke-dasharray:3,3;"/>
<text x="143.800000" y="439.000000" font-family="Arial" font-size="7">nb</text>
<rect x="312.600000" y="331.000000" width="24.000000" height="24.000000" rx="0" ry="0" style="stroke:none;fill:#cccccc;"/>
<rect x="311.600000" y="330.000000" width="24.000000" height="24.000000" rx="0" ry="0" style="stroke:none;fill:#4B71A1;"/>
<text x="323.600000" y="344.000000" font-family="Arial" font-size="7" text-anchor="middle" fill="#FFFFFF">*</text>
<circle cx="313.600000" cy="332.000000" r="1"/>
<line x1="308.600000" y1="337.000000" x2="311.600000" y2="338.000000"  transform="rotate(0.000000,311.600000,338.000000)" style="stroke: black; stroke-width:0.25;"/>
<line x1="308.600000" y1="339.000000" x2="311.600000" y2="338.000000"  transform="rotate(0.000000,311.600000,338.000000)" style="stroke: black; stroke-width:0.25;"/>
<line x1="308.600000" y1="345.000000" x2="311.600000" y2="346.000000"  transform="rotate(0.000000,311.600000,346.000000)" style="stroke: black; stroke-width:0.25;"/>
<line x1="308.600000" y1="347.000000" x2="311.600000" y2="346.000000"  transform="rotate(0.000000,311.600000,346.000000)" style="stroke: black; stroke-width:0.25;"/>
<rect x="84.050000" y="499.000000" width="193.500000" height="24.000000" rx="0" ry="0" style="stroke:none;fill:#cccccc;"/>
<rect x="83.050000" y="498.000000" width="193.500000" height="24.000000" rx="0" ry="0" style="stroke:none;fill:#477881;"/>
<text x="179.800000" y="512.000000" font-family="Arial" font-size="7" text-anchor="middle" fill="#FFFFFF">hslider(h1 distance, 1.0f, 0.0f, 1.0f, 0.01f)</text>
<circle cx="85.050000" cy="500.000000" r="1"/>
<line x1="74.050000" y1="489.000000" x2="74.050000" y2="531.000000"  style="stroke: black; stroke-linecap:round; stroke-width:0.25; stroke-dasharray:3,3;"/>
<line x1="74.050000" y1="531.000000" x2="285.550000" y2="531.000000"  style="stroke: black; stroke-linecap:round; stroke-width:0.25; stroke-dasharray:3,3;"/>
<line x1="285.550000" y1="531.000000" x2="285.550000" y2="489.000000"  style="stroke: black; stroke-linecap:round; stroke-width:0.25; stroke-dasharray:3,3;"/>
<line x1="74.050000" y1="489.000000" x2="79.050000" y2="489.000000"  style="stroke: black; stroke-linecap:round; stroke-width:0.25; stroke-dasharray:3,3;"/>
<line x1="104.850000" y1="489.000000" x2="285.550000" y2="489.000000"  style="stroke: black; stroke-linecap:round; stroke-width:0.25; stroke-dasharray:3,3;"/>
<text x="79.050000" y="491.000000" font-family="Arial" font-size="7">h1dist</text>
<rect x="352.600000" y="357.000000" width="24.000000" height="24.000000" rx="0" ry="0" style="stroke:none;fill:#cccccc;"/>
<rect x="351.600000" y="356.000000" width="24.000000" height="24.000000" rx="0" ry="0" style="stroke:none;fill:#4B71A1;"/>
<text x="363.600000" y="370.000000" font-family="Arial" font-size="7" text-anchor="middle" fill="#FFFFFF">*</text>
<circle cx="353.600000" cy="358.000000" r="1"/>
<line x1="348.600000" y1="363.000000" x2="351.600000" y2="364.000000"  transform="rotate(0.000000,351.600000,364.000000)" style="stroke: black; stroke-width:0.25;"/>
<line x1="348.600000" y1="365.000000" x2="351.600000" y2="364.000000"  transform="rotate(0.000000,351.600000,364.000000)" style="stroke: black; stroke-width:0.25;"/>
<line x1="348.600000" y1="371.000000" x2="351.600000" y2="372.000000"  transform="rotate(0.000000,351.600000,372.000000)" style="stroke: black; stroke-width:0.25;"/>
<line x1="348.600000" y1="373.000000" x2="351.600000" y2="372.000000"  transform="rotate(0.000000,351.600000,372.000000)" style="stroke: black; stroke-width:0.25;"/>
<rect x="392.600000" y="341.000000" width="24.000000" height="24.000000" rx="0" ry="0" style="stroke:none;fill:#cccccc;"/>
<rect x="391.600000" y="340.000000" width="24.000000" height="24.000000" rx="0" ry="0" style="stroke:none;fill:#4B71A1;"/>
<text x="403.600000" y="354.000000" font-family="Arial" font-size="7" text-anchor="middle" fill="#FFFFFF">-</text>
<circle cx="393.600000" cy="342.000000" r="1"/>
<line x1="388.600000" y1="347.000000" x2="391.600000" y2="348.000000"  transform="rotate(0.000000,391.600000,348.000000)" style="stroke: black; stroke-width:0.25;"/>
<line x1="388.600000" y1="349.000000" x2="391.600000" y2="348.000000"  transform="rotate(0.000000,391.600000,348.000000)" style="stroke: black; stroke-width:0.25;"/>
<line x1="388.600000" y1="355.000000" x2="391.600000" y2="356.000000"  transform="rotate(0.000000,391.600000,356.000000)" style="stroke: black; stroke-width:0.25;"/>
<line x1="388.600000" y1="357.000000" x2="391.600000" y2="356.000000"  transform="rotate(0.000000,391.600000,356.000000)" style="stroke: black; stroke-width:0.25;"/>
<rect x="432.600000" y="325.000000" width="24.000000" height="24.000000" rx="0" ry="0" style="stroke:none;fill:#cccccc;"/>
<rect x="431.600000" y="324.000000" width="24.000000" height="24.000000" rx="0" ry="0" style="stroke:none;fill:#4B71A1;"/>
<text x="443.600000" y="338.000000" font-family="Arial" font-size="7" text-anchor="middle" fill="#FFFFFF">max</text>
<circle cx="433.600000" cy="326.000000" r="1"/>
<line x1="428.600000" y1="331.000000" x2="431.600000" y2="332.000000"  transform="rotate(0.000000,431.600000,332.000000)" style="stroke: black; stroke-width:0.25;"/>
<line x1="428.600000" y1="333.000000" x2="431.600000" y2="332.000000"  transform="rotate(0.000000,431.600000,332.000000)" style="stroke: black; stroke-width:0.25;"/>
<line x1="428.600000" y1="339.000000" x2="431.600000" y2="340.000000"  transform="rotate(0.000000,431.600000,340.000000)" style="stroke: black; stroke-width:0.25;"/>
<line x1="428.600000" y1="341.000000" x2="431.600000" y2="340.000000"  transform="rotate(0.000000,431.600000,340.000000)" style="stroke: black; stroke-width:0.25;"/>
<rect x="464.600000" y="325.000000" width="25.800000" height="24.000000" rx="0" ry="0" style="stroke:none;fill:#cccccc;"/>
<rect x="463.600000" y="324.000000" width="25.800000" height="24.000000" rx="0" ry="0" style="stroke:none;fill:#4B71A1;"/>
<text x="476.500000" y="338.000000" font-family="Arial" font-size="7" text-anchor="middle" fill="#FFFFFF">sqrt</text>
<circle cx="465.600000" cy="326.000000" r="1"/>
<line x1="460.600000" y1="335.000000" x2="463.600000" y2="336.000000"  transform="rotate(0.000000,463.600000,336.000000)" style="stroke: black; stroke-width:0.25;"/>
<line x1="460.600000" y1="337.000000" x2="463.600000" y2="336.000000"  transform="rotate(0.000000,463.600000,336.000000)" style="stroke: black; stroke-width:0.25;"/>
<rect x="506.400000" y="267.000000" width="24.000000" height="24.000000" rx="0" ry="0" style="stroke:none;fill:#cccccc;"/>
<rect x="505.400000" y="266.000000" width="24.000000" height="24.000000" rx="0" ry="0" style="stroke:none;fill:#4B71A1;"/>
<text x="517.400000" y="280.000000" font-family="Arial" font-size="7" text-anchor="middle" fill="#FFFFFF">*</text>
<circle cx="507.400000" cy="268.000000" r="1"/>
<line x1="502.400000" y1="273.000000" x2="505.400000" y2="274.000000"  transform="rotate(0.000000,505.400000,274.000000)" style="stroke: black; stroke-width:0.25;"/>
<line x1="502.400000" y1="275.000000" x2="505.400000" y2="274.000000"  transform="rotate(0.000000,505.400000,274.000000)" style="stroke: black; stroke-width:0.25;"/>
<line x1="502.400000" y1="281.000000" x2="505.400000" y2="282.000000"  transform="rotate(0.000000,505.400000,282.000000)" style="stroke: black; stroke-width:0.25;"/>
<line x1="502.400000" y1="283.000000" x2="505.400000" y2="282.000000"  transform="rotate(0.000000,505.400000,282.000000)" style="stroke: black; stroke-width:0.25;"/>
<line x1="15.000000" y1="15.000000" x2="15.000000" y2="541.000000"  style="stroke: black; stroke-linecap:round; stroke-width:0.25; stroke-dasharray:3,3;"/>
<line x1="15.000000" y1="541.000000" x2="546.400000" y2="541.000000"  style="stroke: black; stroke-linecap:round; stroke-width:0.25; stroke-dasharray:3,3;"/>
<line x1="546.400000" y1="541.000000" x2="546.400000" y2="15.000000"  style="stroke: black; stroke-linecap:round; stroke-width:0.25; stroke-dasharray:3,3;"/>
<line x1="15.000000" y1="15.000000" x2="20.000000" y2="15.000000"  style="stroke: black; stroke-linecap:round; stroke-width:0.25; stroke-dasharray:3,3;"/>
<line x1="119.975000" y1="15.000000" x2="546.400000" y2="15.000000"  style="stroke: black; stroke-linecap:round; stroke-width:0.25; stroke-dasharray:3,3;"/>
<text x="20.000000" y="17.000000" font-family="Arial" font-size="7">scaler(0)(4)(...1.0f, 0.01f))</text>
<line x1="548.400000" y1="277.000000" x2="551.400000" y2="278.000000"  transform="rotate(0.000000,551.400000,278.000000)" style="stroke: black; stroke-width:0.25;"/>
<line x1="548.400000" y1="279.000000" x2="551.400000" y2="278.000000"  transform="rotate(0.000000,551.400000,278.000000)" style="stroke: black; stroke-width:0.25;"/>
<line x1="58.000000" y1="290.000000" x2="62.000000" y2="290.000000"  style="stroke:black; stroke-linecap:round; stroke-width:0.25;"/>
<line x1="62.000000" y1="290.000000" x2="72.000000" y2="290.000000"  style="stroke:black; stroke-linecap:round; stroke-width:0.25;"/>
<line x1="72.000000" y1="290.000000" x2="72.000000" y2="290.000000"  style="stroke:black; stroke-linecap:round; stroke-width:0.25;"/>
<line x1="72.000000" y1="290.000000" x2="76.000000" y2="290.000000"  style="stroke:black; stroke-linecap:round; stroke-width:0.25;"/>
<line x1="74.900000" y1="248.000000" x2="78.900000" y2="248.000000"  style="stroke:black; stroke-linecap:round; stroke-width:0.25;"/>
<line x1="74.900000" y1="342.000000" x2="78.900000" y2="342.000000"  style="stroke:black; stroke-linecap:round; stroke-width:0.25;"/>
<line x1="75.800000" y1="216.000000" x2="79.800000" y2="216.000000"  style="stroke:black; stroke-linecap:round; stroke-width:0.25;"/>
<line x1="78.900000" y1="248.000000" x2="79.800000" y2="248.000000"  style="stroke:black; stroke-linecap:round; stroke-width:0.25;"/>
<line x1="78.900000" y1="342.000000" x2="88.900000" y2="342.000000"  style="stroke:black; stroke-linecap:round; stroke-width:0.25;"/>
<line x1="79.800000" y1="216.000000" x2="87.800000" y2="216.000000"  style="stroke:black; stroke-linecap:round; stroke-width:0.25;"/>
<line x1="79.800000" y1="236.000000" x2="87.800000" y2="236.000000"  style="stroke:black; stroke-linecap:round; stroke-width:0.25;"/>
<line x1="79.800000" y1="248.000000" x2="79.800000" y2="236.000000"  style="stroke:black; stroke-linecap:round; stroke-width:0.25;"/>
<line x1="79.800000" y1="248.000000" x2="79.800000" y2="248.000000"  style="stroke:black; stroke-linecap:round; stroke-width:0.25;"/>
<line x1="87.800000" y1="216.000000" x2="87.800000" y2="228.000000"  style="stroke:black; stroke-linecap:round; stroke-width:0.25;"/>
<line x1="87.800000" y1="228.000000" x2="87.800000" y2="228.000000"  style="stroke:black; stroke-linecap:round; stroke-width:0.25;"/>
<line x1="87.800000" y1="228.000000" x2="91.800000" y2="228.000000"  style="stroke:black; stroke-linecap:round; stroke-width:0.25;"/>
<line x1="87.800000" y1="236.000000" x2="91.800000" y2="236.000000"  style="stroke:black; stroke-linecap:round; stroke-width:0.25;"/>
<line x1="88.900000" y1="342.000000" x2="105.800000" y2="342.000000"  style="stroke:black; stroke-linecap:round; stroke-width:0.25;"/>
<line x1="101.800000" y1="290.000000" x2="105.800000" y2="290.000000"  style="stroke:black; stroke-linecap:round; stroke-width:0.25;"/>
<line x1="105.800000" y1="290.000000" x2="113.800000" y2="290.000000"  style="stroke:black; stroke-linecap:round; stroke-width:0.25;"/>
<line x1="105.800000" y1="320.000000" x2="113.800000" y2="320.000000"  style="stroke:black; stroke-linecap:round; stroke-width:0.25;"/>
<line x1="105.800000" y1="342.000000" x2="105.800000" y2="320.000000"  style="stroke:black; stroke-linecap:round; stroke-width:0.25;"/>
<line x1="105.800000" y1="342.000000" x2="105.800000" y2="342.000000"  style="stroke:black; stroke-linecap:round; stroke-width:0.25;"/>
<line x1="113.800000" y1="290.000000" x2="113.800000" y2="312.000000"  style="stroke:black; stroke-linecap:round; stroke-width:0.25;"/>
<line x1="113.800000" y1="312.000000" x2="113.800000" y2="312.000000"  style="stroke:black; stroke-linecap:round; stroke-width:0.25;"/>
<line x1="113.800000" y1="312.000000" x2="117.800000" y2="312.000000"  style="stroke:black; stroke-linecap:round; stroke-width:0.25;"/>
<line x1="113.800000" y1="320.000000" x2="117.800000" y2="320.000000"  style="stroke:black; stroke-linecap:round; stroke-width:0.25;"/>
<line x1="114.900000" y1="384.000000" x2="118.900000" y2="384.000000"  style="stroke:black; stroke-linecap:round; stroke-width:0.25;"/>
<line x1="115.800000" y1="232.000000" x2="119.800000" y2="232.000000"  style="stroke:black; stroke-linecap:round; stroke-width:0.25;"/>
<line x1="118.900000" y1="384.000000" x2="185.800000" y2="384.000000"  style="stroke:black; stroke-linecap:round; stroke-width:0.25;"/>
<line x1="119.800000" y1="232.000000" x2="145.800000" y2="232.000000"  style="stroke:black; stroke-linecap:round; stroke-width:0.25;"/>
<line x1="135.800000" y1="416.000000" x2="139.800000" y2="416.000000"  style="stroke:black; stroke-linecap:round; stroke-width:0.25;"/>
<line x1="139.800000" y1="416.000000" x2="227.600000" y2="416.000000"  style="stroke:black; stroke-linecap:round; stroke-width:0.25;"/>
<line x1="141.800000" y1="316.000000" x2="145.800000" y2="316.000000"  style="stroke:black; stroke-linecap:round; stroke-width:0.25;"/>
<line x1="145.800000" y1="232.000000" x2="153.800000" y2="232.000000"  style="stroke:black; stroke-linecap:round; stroke-width:0.25;"/>
<line x1="145.800000" y1="288.000000" x2="153.800000" y2="288.000000"  style="stroke:black; stroke-linecap:round; stroke-width:0.25;"/>
<line x1="145.800000" y1="316.000000" x2="145.800000" y2="288.000000"  style="stroke:black; stroke-linecap:round; stroke-width:0.25;"/>
<line x1="145.800000" y1="316.000000" x2="145.800000" y2="316.000000"  style="stroke:black; stroke-linecap:round; stroke-width:0.25;"/>
<line x1="153.800000" y1="232.000000" x2="153.800000" y2="280.000000"  style="stroke:black; stroke-linecap:round; stroke-width:0.25;"/>
<line x1="153.800000" y1="280.000000" x2="153.800000" y2="280.000000"  style="stroke:black; stroke-linecap:round; stroke-width:0.25;"/>
<line x1="153.800000" y1="280.000000" x2="157.800000" y2="280.000000"  style="stroke:black; stroke-linecap:round; stroke-width:0.25;"/>
<line x1="153.800000" y1="288.000000" x2="157.800000" y2="288.000000"  style="stroke:black; stroke-linecap:round; stroke-width:0.25;"/>
<line x1="171.800000" y1="458.000000" x2="175.800000" y2="458.000000"  style="stroke:black; stroke-linecap:round; stroke-width:0.25;"/>
<line x1="175.800000" y1="458.000000" x2="185.800000" y2="458.000000"  style="stroke:black; stroke-linecap:round; stroke-width:0.25;"/>
<line x1="181.800000" y1="284.000000" x2="185.800000" y2="284.000000"  style="stroke:black; stroke-linecap:round; stroke-width:0.25;"/>
<line x1="185.800000" y1="284.000000" x2="193.800000" y2="284.000000"  style="stroke:black; stroke-linecap:round; stroke-width:0.25;"/>
<line x1="185.800000" y1="304.000000" x2="193.800000" y2="304.000000"  style="stroke:black; stroke-linecap:round; stroke-width:0.25;"/>
<line x1="185.800000" y1="384.000000" x2="185.800000" y2="304.000000"  style="stroke:black; stroke-linecap:round; stroke-width:0.25;"/>
<line x1="185.800000" y1="384.000000" x2="185.800000" y2="384.000000"  style="stroke:black; stroke-linecap:round; stroke-width:0.25;"/>
<line x1="185.800000" y1="458.000000" x2="299.600000" y2="458.000000"  style="stroke:black; stroke-linecap:round; stroke-width:0.25;"/>
<line x1="193.800000" y1="284.000000" x2="193.800000" y2="296.000000"  style="stroke:black; stroke-linecap:round; stroke-width:0.25;"/>
<line x1="193.800000" y1="296.000000" x2="193.800000" y2="296.000000"  style="stroke:black; stroke-linecap:round; stroke-width:0.25;"/>
<line x1="193.800000" y1="296.000000" x2="197.800000" y2="296.000000"  style="stroke:black; stroke-linecap:round; stroke-width:0.25;"/>
<line x1="193.800000" y1="304.000000" x2="197.800000" y2="304.000000"  style="stroke:black; stroke-linecap:round; stroke-width:0.25;"/>
<line x1="211.800000" y1="184.000000" x2="215.800000" y2="184.000000"  style="stroke:black; stroke-linecap:round; stroke-width:0.25;"/>
<line x1="215.800000" y1="184.000000" x2="379.600000" y2="184.000000"  style="stroke:black; stroke-linecap:round; stroke-width:0.25;"/>
<line x1="223.600000" y1="300.000000" x2="227.600000" y2="300.000000"  style="stroke:black; stroke-linecap:round; stroke-width:0.25;"/>
<line x1="227.600000" y1="300.000000" x2="235.600000" y2="300.000000"  style="stroke:black; stroke-linecap:round; stroke-width:0.25;"/>
<line x1="227.600000" y1="320.000000" x2="235.600000" y2="320.000000"  style="stroke:black; stroke-linecap:round; stroke-width:0.25;"/>
<line x1="227.600000" y1="416.000000" x2="227.600000" y2="320.000000"  style="stroke:black; stroke-linecap:round; stroke-width:0.25;"/>
<line x1="227.600000" y1="416.000000" x2="227.600000" y2="416.000000"  style="stroke:black; stroke-linecap:round; stroke-width:0.25;"/>
<line x1="228.700000" y1="88.000000" x2="232.700000" y2="88.000000"  style="stroke:black; stroke-linecap:round; stroke-width:0.25;"/>
<line x1="231.800000" y1="152.000000" x2="235.800000" y2="152.000000"  style="stroke:black; stroke-linecap:round; stroke-width:0.25;"/>
<line x1="232.700000" y1="88.000000" x2="327.450000" y2="88.000000"  style="stroke:black; stroke-linecap:round; stroke-width:0.25;"/>
<line x1="235.600000" y1="300.000000" x2="235.600000" y2="312.000000"  style="stroke:black; stroke-linecap:round; stroke-width:0.25;"/>
<line x1="235.600000" y1="312.000000" x2="235.600000" y2="312.000000"  style="stroke:black; stroke-linecap:round; stroke-width:0.25;"/>
<line x1="235.600000" y1="312.000000" x2="239.600000" y2="312.000000"  style="stroke:black; stroke-linecap:round; stroke-width:0.25;"/>
<line x1="235.600000" y1="320.000000" x2="239.600000" y2="320.000000"  style="stroke:black; stroke-linecap:round; stroke-width:0.25;"/>
<line x1="235.800000" y1="152.000000" x2="419.600000" y2="152.000000"  style="stroke:black; stroke-linecap:round; stroke-width:0.25;"/>
<line x1="248.700000" y1="120.000000" x2="252.700000" y2="120.000000"  style="stroke:black; stroke-linecap:round; stroke-width:0.25;"/>
<line x1="252.700000" y1="120.000000" x2="367.450000" y2="120.000000"  style="stroke:black; stroke-linecap:round; stroke-width:0.25;"/>
<line x1="263.600000" y1="316.000000" x2="267.600000" y2="316.000000"  style="stroke:black; stroke-linecap:round; stroke-width:0.25;"/>
<line x1="267.600000" y1="316.000000" x2="267.600000" y2="316.000000"  style="stroke:black; stroke-linecap:round; stroke-width:0.25;"/>
<line x1="267.600000" y1="316.000000" x2="271.600000" y2="316.000000"  style="stroke:black; stroke-linecap:round; stroke-width:0.25;"/>
<line x1="276.550000" y1="510.000000" x2="280.550000" y2="510.000000"  style="stroke:black; stroke-linecap:round; stroke-width:0.25;"/>
<line x1="280.550000" y1="510.000000" x2="290.550000" y2="510.000000"  style="stroke:black; stroke-linecap:round; stroke-width:0.25;"/>
<line x1="290.550000" y1="510.000000" x2="339.600000" y2="510.000000"  style="stroke:black; stroke-linecap:round; stroke-width:0.25;"/>
<line x1="295.600000" y1="316.000000" x2="299.600000" y2="316.000000"  style="stroke:black; stroke-linecap:round; stroke-width:0.25;"/>
<line x1="299.600000" y1="316.000000" x2="307.600000" y2="316.000000"  style="stroke:black; stroke-linecap:round; stroke-width:0.25;"/>
<line x1="299.600000" y1="346.000000" x2="307.600000" y2="346.000000"  style="stroke:black; stroke-linecap:round; stroke-width:0.25;"/>
<line x1="299.600000" y1="458.000000" x2="299.600000" y2="346.000000"  style="stroke:black; stroke-linecap:round; stroke-width:0.25;"/>
<line x1="299.600000" y1="458.000000" x2="299.600000" y2="458.000000"  style="stroke:black; stroke-linecap:round; stroke-width:0.25;"/>
<line x1="307.600000" y1="316.000000" x2="307.600000" y2="338.000000"  style="stroke:black; stroke-linecap:round; stroke-width:0.25;"/>
<line x1="307.600000" y1="338.000000" x2="307.600000" y2="338.000000"  style="stroke:black; stroke-linecap:round; stroke-width:0.25;"/>
<line x1="307.600000" y1="338.000000" x2="311.600000" y2="338.000000"  style="stroke:black; stroke-linecap:round; stroke-width:0.25;"/>
<line x1="307.600000" y1="346.000000" x2="311.600000" y2="346.000000"  style="stroke:black; stroke-linecap:round; stroke-width:0.25;"/>
<line x1="313.450000" y1="46.000000" x2="317.450000" y2="46.000000"  style="stroke:black; stroke-linecap:round; stroke-width:0.25;"/>
<line x1="317.450000" y1="46.000000" x2="327.450000" y2="46.000000"  style="stroke:black; stroke-linecap:round; stroke-width:0.25;"/>
<line x1="327.450000" y1="46.000000" x2="335.450000" y2="46.000000"  style="stroke:black; stroke-linecap:round; stroke-width:0.25;"/>
<line x1="327.450000" y1="66.000000" x2="335.450000" y2="66.000000"  style="stroke:black; stroke-linecap:round; stroke-width:0.25;"/>
<line x1="327.450000" y1="88.000000" x2="327.450000" y2="66.000000"  style="stroke:black; stroke-linecap:round; stroke-width:0.25;"/>
<line x1="327.450000" y1="88.000000" x2="327.450000" y2="88.000000"  style="stroke:black; stroke-linecap:round; stroke-width:0.25;"/>
<line x1="335.450000" y1="46.000000" x2="335.450000" y2="58.000000"  style="stroke:black; stroke-linecap:round; stroke-width:0.25;"/>
<line x1="335.450000" y1="58.000000" x2="335.450000" y2="58.000000"  style="stroke:black; stroke-linecap:round; stroke-width:0.25;"/>
<line x1="335.450000" y1="58.000000" x2="339.450000" y2="58.000000"  style="stroke:black; stroke-linecap:round; stroke-width:0.25;"/>
<line x1="335.450000" y1="66.000000" x2="339.450000" y2="66.000000"  style="stroke:black; stroke-linecap:round; stroke-width:0.25;"/>
<line x1="335.600000" y1="342.000000" x2="339.600000" y2="342.000000"  style="stroke:black; stroke-linecap:round; stroke-width:0.25;"/>
<line x1="339.600000" y1="342.000000" x2="347.600000" y2="342.000000"  style="stroke:black; stroke-linecap:round; stroke-width:0.25;"/>
<line x1="339.600000" y1="372.000000" x2="347.600000" y2="372.000000"  style="stroke:black; stroke-linecap:round; stroke-width:0.25;"/>
<line x1="339.600000" y1="510.000000" x2="339.600000" y2="372.000000"  style="stroke:black; stroke-linecap:round; stroke-width:0.25;"/>
<line x1="339.600000" y1="510.000000" x2="339.600000" y2="510.000000"  style="stroke:black; stroke-linecap:round; stroke-width:0.25;"/>
<line x1="347.600000" y1="342.000000" x2="347.600000" y2="364.000000"  style="stroke:black; stroke-linecap:round; stroke-width:0.25;"/>
<line x1="347.600000" y1="364.000000" x2="347.600000" y2="364.000000"  style="stroke:black; stroke-linecap:round; stroke-width:0.25;"/>
<line x1="347.600000" y1="364.000000" x2="351.600000" y2="364.000000"  style="stroke:black; stroke-linecap:round; stroke-width:0.25;"/>
<line x1="347.600000" y1="372.000000" x2="351.600000" y2="372.000000"  style="stroke:black; stroke-linecap:round; stroke-width:0.25;"/>
<line x1="363.450000" y1="62.000000" x2="367.450000" y2="62.000000"  style="stroke:black; stroke-linecap:round; stroke-width:0.25;"/>
<line x1="367.450000" y1="62.000000" x2="375.450000" y2="62.000000"  style="stroke:black; stroke-linecap:round; stroke-width:0.25;"/>
<line x1="367.450000" y1="82.000000" x2="375.450000" y2="82.000000"  style="stroke:black; stroke-linecap:round; stroke-width:0.25;"/>
<line x1="367.450000" y1="120.000000" x2="367.450000" y2="82.000000"  style="stroke:black; stroke-linecap:round; stroke-width:0.25;"/>
<line x1="367.450000" y1="120.000000" x2="367.450000" y2="120.000000"  style="stroke:black; stroke-linecap:round; stroke-width:0.25;"/>
<line x1="375.450000" y1="62.000000" x2="375.450000" y2="74.000000"  style="stroke:black; stroke-linecap:round; stroke-width:0.25;"/>
<line x1="375.450000" y1="74.000000" x2="375.450000" y2="74.000000"  style="stroke:black; stroke-linecap:round; stroke-width:0.25;"/>
<line x1="375.450000" y1="74.000000" x2="379.450000" y2="74.000000"  style="stroke:black; stroke-linecap:round; stroke-width:0.25;"/>
<line x1="375.450000" y1="82.000000" x2="379.450000" y2="82.000000"  style="stroke:black; stroke-linecap:round; stroke-width:0.25;"/>
<line x1="375.600000" y1="368.000000" x2="379.600000" y2="368.000000"  style="stroke:black; stroke-linecap:round; stroke-width:0.25;"/>
<line x1="379.600000" y1="184.000000" x2="387.600000" y2="184.000000"  style="stroke:black; stroke-linecap:round; stroke-width:0.25;"/>
<line x1="379.600000" y1="356.000000" x2="387.600000" y2="356.000000"  style="stroke:black; stroke-linecap:round; stroke-width:0.25;"/>
<line x1="379.600000" y1="368.000000" x2="379.600000" y2="356.000000"  style="stroke:black; stroke-linecap:round; stroke-width:0.25;"/>
<line x1="379.600000" y1="368.000000" x2="379.600000" y2="368.000000"  style="stroke:black; stroke-linecap:round; stroke-width:0.25;"/>
<line x1="387.600000" y1="184.000000" x2="387.600000" y2="348.000000"  style="stroke:black; stroke-linecap:round; stroke-width:0.25;"/>
<line x1="387.600000" y1="348.000000" x2="387.600000" y2="348.000000"  style="stroke:black; stroke-linecap:round; stroke-width:0.25;"/>
<line x1="387.600000" y1="348.000000" x2="391.600000" y2="348.000000"  style="stroke:black; stroke-linecap:round; stroke-width:0.25;"/>
<line x1="387.600000" y1="356.000000" x2="391.600000" y2="356.000000"  style="stroke:black; stroke-linecap:round; stroke-width:0.25;"/>
<line x1="403.450000" y1="78.000000" x2="407.450000" y2="78.000000"  style="stroke:black; stroke-linecap:round; stroke-width:0.25;"/>
<line x1="407.450000" y1="78.000000" x2="493.400000" y2="78.000000"  style="stroke:black; stroke-linecap:round; stroke-width:0.25;"/>
<line x1="415.600000" y1="352.000000" x2="419.600000" y2="352.000000"  style="stroke:black; stroke-linecap:round; stroke-width:0.25;"/>
<line x1="419.600000" y1="152.000000" x2="427.600000" y2="152.000000"  style="stroke:black; stroke-linecap:round; stroke-width:0.25;"/>
<line x1="419.600000" y1="340.000000" x2="427.600000" y2="340.000000"  style="stroke:black; stroke-linecap:round; stroke-width:0.25;"/>
<line x1="419.600000" y1="352.000000" x2="419.600000" y2="340.000000"  style="stroke:black; stroke-linecap:round; stroke-width:0.25;"/>
<line x1="419.600000" y1="352.000000" x2="419.600000" y2="352.000000"  style="stroke:black; stroke-linecap:round; stroke-width:0.25;"/>
<line x1="427.600000" y1="152.000000" x2="427.600000" y2="332.000000"  style="stroke:black; stroke-linecap:round; stroke-width:0.25;"/>
<line x1="427.600000" y1="332.000000" x2="427.600000" y2="332.000000"  style="stroke:black; stroke-linecap:round; stroke-width:0.25;"/>
<line x1="427.600000" y1="332.000000" x2="431.600000" y2="332.000000"  style="stroke:black; stroke-linecap:round; stroke-width:0.25;"/>
<line x1="427.600000" y1="340.000000" x2="431.600000" y2="340.000000"  style="stroke:black; stroke-linecap:round; stroke-width:0.25;"/>
<line x1="455.600000" y1="336.000000" x2="459.600000" y2="336.000000"  style="stroke:black; stroke-linecap:round; stroke-width:0.25;"/>
<line x1="459.600000" y1="336.000000" x2="459.600000" y2="336.000000"  style="stroke:black; stroke-linecap:round; stroke-width:0.25;"/>
<line x1="459.600000" y1="336.000000" x2="463.600000" y2="336.000000"  style="stroke:black; stroke-linecap:round; stroke-width:0.25;"/>
<line x1="489.400000" y1="336.000000" x2="493.400000" y2="336.000000"  style="stroke:black; stroke-linecap:round; stroke-width:0.25;"/>
<line x1="493.400000" y1="282.000000" x2="501.400000" y2="282.000000"  style="stroke:black; stroke-linecap:round; stroke-width:0.25;"/>
<line x1="493.400000" y1="336.000000" x2="493.400000" y2="282.000000"  style="stroke:black; stroke-linecap:round; stroke-width:0.25;"/>
<line x1="493.400000" y1="336.000000" x2="493.400000" y2="336.000000"  style="stroke:black; stroke-linecap:round; stroke-width:0.25;"/>
<line x1="493.400000" y1="78.000000" x2="501.400000" y2="78.000000"  style="stroke:black; stroke-linecap:round; stroke-width:0.25;"/>
<line x1="501.400000" y1="274.000000" x2="505.400000" y2="274.000000"  style="stroke:black; stroke-linecap:round; stroke-width:0.25;"/>
<line x1="501.400000" y1="282.000000" x2="505.400000" y2="282.000000"  style="stroke:black; stroke-linecap:round; stroke-width:0.25;"/>
<line x1="501.400000" y1="78.000000" x2="501.400000" y2="274.000000"  style="stroke:black; stroke-linecap:round; stroke-width:0.25;"/>
<line x1="501.400000" y1="274.000000" x2="501.400000" y2="274.000000"  style="stroke:black; stroke-linecap:round; stroke-width:0.25;"/>
<line x1="529.400000" y1="278.000000" x2="533.400000" y2="278.000000"  style="stroke:black; stroke-linecap:round; stroke-width:0.25;"/>
<line x1="533.400000" y1="278.000000" x2="533.400000" y2="278.000000"  style="stroke:black; stroke-linecap:round; stroke-width:0.25;"/>
<line x1="533.400000" y1="278.000000" x2="537.400000" y2="278.000000"  style="stroke:black; stroke-linecap:round; stroke-width:0.25;"/>
<line x1="537.400000" y1="278.000000" x2="541.400000" y2="278.000000"  style="stroke:black; stroke-linecap:round; stroke-width:0.25;"/>
<line x1="541.400000" y1="278.000000" x2="551.400000" y2="278.000000"  style="stroke:black; stroke-linecap:round; stroke-width:0.25;"/>
</svg>
