<?xml version="1.0"?>
<svg xmlns="http://www.w3.org/2000/svg" xmlns:xlink="http://www.w3.org/1999/xlink" viewBox="0 0 245.400000 168.000000" width="122.700000mm" height="84.000000mm" version="1.1">
<a xlink:href="selectn-0x7fd9fcfabbf0.svg">
<rect x="1.000000" y="1.000000" width="244.400000" height="167.000000" rx="0" ry="0" style="stroke:none;fill:#cccccc;"/>
<rect x="0.000000" y="0.000000" width="244.400000" height="167.000000" rx="0" ry="0" style="stroke:none;fill:#ffffff;"/>
</a>
<text x="10.000000" y="7.000000" font-family="Arial" font-size="7"></text>
<rect x="41.000000" y="57.000000" width="24.000000" height="24.000000" rx="0" ry="0" style="stroke:none;fill:#cccccc;"/>
<rect x="40.000000" y="56.000000" width="24.000000" height="24.000000" rx="0" ry="0" style="stroke:none;fill:#47945E;"/>
<text x="52.000000" y="70.000000" font-family="Arial" font-size="7" text-anchor="middle" fill="#FFFFFF">x</text>
<circle cx="42.000000" cy="58.000000" r="1"/>
<line x1="37.000000" y1="67.000000" x2="40.000000" y2="68.000000"  transform="rotate(0.000000,40.000000,68.000000)" style="stroke: black; stroke-width:0.25;"/>
<line x1="37.000000" y1="69.000000" x2="40.000000" y2="68.000000"  transform="rotate(0.000000,40.000000,68.000000)" style="stroke: black; stroke-width:0.25;"/>
<rect x="41.000000" y="89.000000" width="24.000000" height="24.000000" rx="0" ry="0" style="stroke:none;fill:#cccccc;"/>
<rect x="40.000000" y="88.000000" width="24.000000" height="24.000000" rx="0" ry="0" style="stroke:none;fill:#47945E;"/>
<text x="52.000000" y="102.000000" font-family="Arial" font-size="7" text-anchor="middle" fill="#FFFFFF">y</text>
<circle cx="42.000000" cy="90.000000" r="1"/>
<line x1="37.000000" y1="99.000000" x2="40.000000" y2="100.000000"  transform="rotate(0.000000,40.000000,100.000000)" style="stroke: black; stroke-width:0.25;"/>
<line x1="37.000000" y1="101.000000" x2="40.000000" y2="100.000000"  transform="rotate(0.000000,40.000000,100.000000)" style="stroke: black; stroke-width:0.25;"/>
<a xlink:href="channel-0x7fd9f34f7730.svg">
<rect x="73.000000" y="25.000000" width="38.700000" height="24.000000" rx="0" ry="0" style="stroke:none;fill:#cccccc;"/>
<rect x="72.000000" y="24.000000" width="38.700000" height="24.000000" rx="0" ry="0" style="stroke:none;fill:#003366;"/>
</a>
<a xlink:href="channel-0x7fd9f34f7730.svg">
<text x="91.350000" y="38.000000" font-family="Arial" font-size="7" text-anchor="middle" fill="#FFFFFF">channel</text>
</a>
<circle cx="74.000000" cy="26.000000" r="1"/>
<rect x="80.350000" y="57.000000" width="24.000000" height="24.000000" rx="0" ry="0" style="stroke:none;fill:#cccccc;"/>
<rect x="79.350000" y="56.000000" width="24.000000" height="24.000000" rx="0" ry="0" style="stroke:none;fill:#f44800;"/>
<text x="91.350000" y="70.000000" font-family="Arial" font-size="7" text-anchor="middle" fill="#FFFFFF">14</text>
<circle cx="81.350000" cy="58.000000" r="1"/>
<rect x="127.700000" y="41.000000" width="24.000000" height="24.000000" rx="0" ry="0" style="stroke:none;fill:#cccccc;"/>
<rect x="126.700000" y="40.000000" width="24.000000" height="24.000000" rx="0" ry="0" style="stroke:none;fill:#4B71A1;"/>
<text x="138.700000" y="54.000000" font-family="Arial" font-size="7" text-anchor="middle" fill="#FFFFFF">&gt;=</text>
<circle cx="128.700000" cy="42.000000" r="1"/>
<line x1="123.700000" y1="47.000000" x2="126.700000" y2="48.000000"  transform="rotate(0.000000,126.700000,48.000000)" style="stroke: black; stroke-width:0.25;"/>
<line x1="123.700000" y1="49.000000" x2="126.700000" y2="48.000000"  transform="rotate(0.000000,126.700000,48.000000)" style="stroke: black; stroke-width:0.25;"/>
<line x1="123.700000" y1="55.000000" x2="126.700000" y2="56.000000"  transform="rotate(0.000000,126.700000,56.000000)" style="stroke: black; stroke-width:0.25;"/>
<line x1="123.700000" y1="57.000000" x2="126.700000" y2="56.000000"  transform="rotate(0.000000,126.700000,56.000000)" style="stroke: black; stroke-width:0.25;"/>
<rect x="100.350000" y="89.000000" width="24.000000" height="24.000000" rx="0" ry="0" style="stroke:none;fill:#cccccc;"/>
<rect x="99.350000" y="88.000000" width="24.000000" height="24.000000" rx="0" ry="0" style="stroke:none;fill:#47945E;"/>
<text x="111.350000" y="102.000000" font-family="Arial" font-size="7" text-anchor="middle" fill="#FFFFFF">x</text>
<circle cx="101.350000" cy="90.000000" r="1"/>
<rect x="100.350000" y="121.000000" width="24.000000" height="24.000000" rx="0" ry="0" style="stroke:none;fill:#cccccc;"/>
<rect x="99.350000" y="120.000000" width="24.000000" height="24.000000" rx="0" ry="0" style="stroke:none;fill:#47945E;"/>
<text x="111.350000" y="134.000000" font-family="Arial" font-size="7" text-anchor="middle" fill="#FFFFFF">y</text>
<circle cx="101.350000" cy="122.000000" r="1"/>
<rect x="175.700000" y="73.000000" width="38.700000" height="24.000000" rx="0" ry="0" style="stroke:none;fill:#cccccc;"/>
<rect x="174.700000" y="72.000000" width="38.700000" height="24.000000" rx="0" ry="0" style="stroke:none;fill:#4B71A1;"/>
<text x="194.050000" y="86.000000" font-family="Arial" font-size="7" text-anchor="middle" fill="#FFFFFF">select2</text>
<circle cx="176.700000" cy="74.000000" r="1"/>
<line x1="171.700000" y1="75.000000" x2="174.700000" y2="76.000000"  transform="rotate(0.000000,174.700000,76.000000)" style="stroke: black; stroke-width:0.25;"/>
<line x1="171.700000" y1="77.000000" x2="174.700000" y2="76.000000"  transform="rotate(0.000000,174.700000,76.000000)" style="stroke: black; stroke-width:0.25;"/>
<line x1="171.700000" y1="83.000000" x2="174.700000" y2="84.000000"  transform="rotate(0.000000,174.700000,84.000000)" style="stroke: black; stroke-width:0.25;"/>
<line x1="171.700000" y1="85.000000" x2="174.700000" y2="84.000000"  transform="rotate(0.000000,174.700000,84.000000)" style="stroke: black; stroke-width:0.25;"/>
<line x1="171.700000" y1="91.000000" x2="174.700000" y2="92.000000"  transform="rotate(0.000000,174.700000,92.000000)" style="stroke: black; stroke-width:0.25;"/>
<line x1="171.700000" y1="93.000000" x2="174.700000" y2="92.000000"  transform="rotate(0.000000,174.700000,92.000000)" style="stroke: black; stroke-width:0.25;"/>
<line x1="15.000000" y1="15.000000" x2="15.000000" y2="153.000000"  style="stroke: black; stroke-linecap:round; stroke-width:0.25; stroke-dasharray:3,3;"/>
<line x1="15.000000" y1="153.000000" x2="230.400000" y2="153.000000"  style="stroke: black; stroke-linecap:round; stroke-width:0.25; stroke-dasharray:3,3;"/>
<line x1="230.400000" y1="153.000000" x2="230.400000" y2="15.000000"  style="stroke: black; stroke-linecap:round; stroke-width:0.25; stroke-dasharray:3,3;"/>
<line x1="15.000000" y1="15.000000" x2="20.000000" y2="15.000000"  style="stroke: black; stroke-linecap:round; stroke-width:0.25; stroke-dasharray:3,3;"/>
<line x1="132.875000" y1="15.000000" x2="230.400000" y2="15.000000"  style="stroke: black; stroke-linecap:round; stroke-width:0.25; stroke-dasharray:3,3;"/>
<text x="20.000000" y="17.000000" font-family="Arial" font-size="7">selector(nent... 1.0f) : int)(14)</text>
<line x1="232.400000" y1="83.000000" x2="235.400000" y2="84.000000"  transform="rotate(0.000000,235.400000,84.000000)" style="stroke: black; stroke-width:0.25;"/>
<line x1="232.400000" y1="85.000000" x2="235.400000" y2="84.000000"  transform="rotate(0.000000,235.400000,84.000000)" style="stroke: black; stroke-width:0.25;"/>
<line x1="10.000000" y1="80.000000" x2="20.000000" y2="80.000000"  style="stroke:black; stroke-linecap:round; stroke-width:0.25;"/>
<line x1="10.000000" y1="88.000000" x2="20.000000" y2="88.000000"  style="stroke:black; stroke-linecap:round; stroke-width:0.25;"/>
<line x1="20.000000" y1="80.000000" x2="24.000000" y2="80.000000"  style="stroke:black; stroke-linecap:round; stroke-width:0.25;"/>
<line x1="20.000000" y1="88.000000" x2="24.000000" y2="88.000000"  style="stroke:black; stroke-linecap:round; stroke-width:0.25;"/>
<line x1="24.000000" y1="80.000000" x2="28.000000" y2="80.000000"  style="stroke:black; stroke-linecap:round; stroke-width:0.25;"/>
<line x1="24.000000" y1="88.000000" x2="28.000000" y2="88.000000"  style="stroke:black; stroke-linecap:round; stroke-width:0.25;"/>
<line x1="28.000000" y1="68.000000" x2="36.000000" y2="68.000000"  style="stroke:black; stroke-linecap:round; stroke-width:0.25;"/>
<line x1="28.000000" y1="80.000000" x2="28.000000" y2="68.000000"  style="stroke:black; stroke-linecap:round; stroke-width:0.25;"/>
<line x1="28.000000" y1="80.000000" x2="28.000000" y2="80.000000"  style="stroke:black; stroke-linecap:round; stroke-width:0.25;"/>
<line x1="28.000000" y1="88.000000" x2="36.000000" y2="88.000000"  style="stroke:black; stroke-linecap:round; stroke-width:0.25;"/>
<line x1="36.000000" y1="68.000000" x2="40.000000" y2="68.000000"  style="stroke:black; stroke-linecap:round; stroke-width:0.25;"/>
<line x1="36.000000" y1="88.000000" x2="36.000000" y2="100.000000"  style="stroke:black; stroke-linecap:round; stroke-width:0.25;"/>
<line x1="36.000000" y1="100.000000" x2="36.000000" y2="100.000000"  style="stroke:black; stroke-linecap:round; stroke-width:0.25;"/>
<line x1="36.000000" y1="100.000000" x2="40.000000" y2="100.000000"  style="stroke:black; stroke-linecap:round; stroke-width:0.25;"/>
<line x1="103.350000" y1="68.000000" x2="107.350000" y2="68.000000"  style="stroke:black; stroke-linecap:round; stroke-width:0.25;"/>
<line x1="107.350000" y1="68.000000" x2="114.700000" y2="68.000000"  style="stroke:black; stroke-linecap:round; stroke-width:0.25;"/>
<line x1="110.700000" y1="36.000000" x2="114.700000" y2="36.000000"  style="stroke:black; stroke-linecap:round; stroke-width:0.25;"/>
<line x1="114.700000" y1="36.000000" x2="122.700000" y2="36.000000"  style="stroke:black; stroke-linecap:round; stroke-width:0.25;"/>
<line x1="114.700000" y1="56.000000" x2="122.700000" y2="56.000000"  style="stroke:black; stroke-linecap:round; stroke-width:0.25;"/>
<line x1="114.700000" y1="68.000000" x2="114.700000" y2="56.000000"  style="stroke:black; stroke-linecap:round; stroke-width:0.25;"/>
<line x1="114.700000" y1="68.000000" x2="114.700000" y2="68.000000"  style="stroke:black; stroke-linecap:round; stroke-width:0.25;"/>
<line x1="122.700000" y1="36.000000" x2="122.700000" y2="48.000000"  style="stroke:black; stroke-linecap:round; stroke-width:0.25;"/>
<line x1="122.700000" y1="48.000000" x2="122.700000" y2="48.000000"  style="stroke:black; stroke-linecap:round; stroke-width:0.25;"/>
<line x1="122.700000" y1="48.000000" x2="126.700000" y2="48.000000"  style="stroke:black; stroke-linecap:round; stroke-width:0.25;"/>
<line x1="122.700000" y1="56.000000" x2="126.700000" y2="56.000000"  style="stroke:black; stroke-linecap:round; stroke-width:0.25;"/>
<line x1="123.350000" y1="100.000000" x2="127.350000" y2="100.000000"  style="stroke:black; stroke-linecap:round; stroke-width:0.25;"/>
<line x1="123.350000" y1="132.000000" x2="127.350000" y2="132.000000"  style="stroke:black; stroke-linecap:round; stroke-width:0.25;"/>
<line x1="127.350000" y1="100.000000" x2="154.700000" y2="100.000000"  style="stroke:black; stroke-linecap:round; stroke-width:0.25;"/>
<line x1="127.350000" y1="132.000000" x2="154.700000" y2="132.000000"  style="stroke:black; stroke-linecap:round; stroke-width:0.25;"/>
<line x1="150.700000" y1="52.000000" x2="154.700000" y2="52.000000"  style="stroke:black; stroke-linecap:round; stroke-width:0.25;"/>
<line x1="154.700000" y1="52.000000" x2="170.700000" y2="52.000000"  style="stroke:black; stroke-linecap:round; stroke-width:0.25;"/>
<line x1="154.700000" y1="84.000000" x2="170.700000" y2="84.000000"  style="stroke:black; stroke-linecap:round; stroke-width:0.25;"/>
<line x1="154.700000" y1="100.000000" x2="154.700000" y2="84.000000"  style="stroke:black; stroke-linecap:round; stroke-width:0.25;"/>
<line x1="154.700000" y1="100.000000" x2="154.700000" y2="100.000000"  style="stroke:black; stroke-linecap:round; stroke-width:0.25;"/>
<line x1="154.700000" y1="132.000000" x2="162.700000" y2="132.000000"  style="stroke:black; stroke-linecap:round; stroke-width:0.25;"/>
<line x1="162.700000" y1="92.000000" x2="170.700000" y2="92.000000"  style="stroke:black; stroke-linecap:round; stroke-width:0.25;"/>
<line x1="162.700000" y1="132.000000" x2="162.700000" y2="92.000000"  style="stroke:black; stroke-linecap:round; stroke-width:0.25;"/>
<line x1="170.700000" y1="52.000000" x2="170.700000" y2="76.000000"  style="stroke:black; stroke-linecap:round; stroke-width:0.25;"/>
<line x1="170.700000" y1="76.000000" x2="170.700000" y2="76.000000"  style="stroke:black; stroke-linecap:round; stroke-width:0.25;"/>
<line x1="170.700000" y1="76.000000" x2="174.700000" y2="76.000000"  style="stroke:black; stroke-linecap:round; stroke-width:0.25;"/>
<line x1="170.700000" y1="84.000000" x2="174.700000" y2="84.000000"  style="stroke:black; stroke-linecap:round; stroke-width:0.25;"/>
<line x1="170.700000" y1="92.000000" x2="174.700000" y2="92.000000"  style="stroke:black; stroke-linecap:round; stroke-width:0.25;"/>
<line x1="213.400000" y1="84.000000" x2="217.400000" y2="84.000000"  style="stroke:black; stroke-linecap:round; stroke-width:0.25;"/>
<line x1="217.400000" y1="84.000000" x2="217.400000" y2="84.000000"  style="stroke:black; stroke-linecap:round; stroke-width:0.25;"/>
<line x1="217.400000" y1="84.000000" x2="221.400000" y2="84.000000"  style="stroke:black; stroke-linecap:round; stroke-width:0.25;"/>
<line x1="221.400000" y1="84.000000" x2="225.400000" y2="84.000000"  style="stroke:black; stroke-linecap:round; stroke-width:0.25;"/>
<line x1="225.400000" y1="84.000000" x2="235.400000" y2="84.000000"  style="stroke:black; stroke-linecap:round; stroke-width:0.25;"/>
</svg>
