<?xml version="1.0"?>
<svg xmlns="http://www.w3.org/2000/svg" xmlns:xlink="http://www.w3.org/1999/xlink" viewBox="0 0 157.800000 284.000000" width="78.900000mm" height="142.000000mm" version="1.1">
<a xlink:href="crota-0x7fe54e82f050.svg">
<rect x="1.000000" y="1.000000" width="156.800000" height="283.000000" rx="0" ry="0" style="stroke:none;fill:#cccccc;"/>
<rect x="0.000000" y="0.000000" width="156.800000" height="283.000000" rx="0" ry="0" style="stroke:none;fill:#ffffff;"/>
</a>
<text x="10.000000" y="7.000000" font-family="Arial" font-size="7"></text>
<a xlink:href="adel-0x7fe546ce8a80.svg">
<rect x="67.000000" y="35.000000" width="25.800000" height="24.000000" rx="0" ry="0" style="stroke:none;fill:#cccccc;"/>
<rect x="66.000000" y="34.000000" width="25.800000" height="24.000000" rx="0" ry="0" style="stroke:none;fill:#003366;"/>
</a>
<a xlink:href="adel-0x7fe546ce8a80.svg">
<text x="78.900000" y="48.000000" font-family="Arial" font-size="7" text-anchor="middle" fill="#FFFFFF">adel</text>
</a>
<circle cx="68.000000" cy="36.000000" r="1"/>
<line x1="63.000000" y1="45.000000" x2="66.000000" y2="46.000000"  transform="rotate(0.000000,66.000000,46.000000)" style="stroke: black; stroke-width:0.25;"/>
<line x1="63.000000" y1="47.000000" x2="66.000000" y2="46.000000"  transform="rotate(0.000000,66.000000,46.000000)" style="stroke: black; stroke-width:0.25;"/>
<a xlink:href="are4-0x7fe546ce95c0.svg">
<rect x="67.000000" y="67.000000" width="25.800000" height="24.000000" rx="0" ry="0" style="stroke:none;fill:#cccccc;"/>
<rect x="66.000000" y="66.000000" width="25.800000" height="24.000000" rx="0" ry="0" style="stroke:none;fill:#003366;"/>
</a>
<a xlink:href="are4-0x7fe546ce95c0.svg">
<text x="78.900000" y="80.000000" font-family="Arial" font-size="7" text-anchor="middle" fill="#FFFFFF">are4</text>
</a>
<circle cx="68.000000" cy="68.000000" r="1"/>
<line x1="63.000000" y1="77.000000" x2="66.000000" y2="78.000000"  transform="rotate(0.000000,66.000000,78.000000)" style="stroke: black; stroke-width:0.25;"/>
<line x1="63.000000" y1="79.000000" x2="66.000000" y2="78.000000"  transform="rotate(0.000000,66.000000,78.000000)" style="stroke: black; stroke-width:0.25;"/>
<a xlink:href="ar80-0x7fe546cea100.svg">
<rect x="67.000000" y="99.000000" width="25.800000" height="24.000000" rx="0" ry="0" style="stroke:none;fill:#cccccc;"/>
<rect x="66.000000" y="98.000000" width="25.800000" height="24.000000" rx="0" ry="0" style="stroke:none;fill:#003366;"/>
</a>
<a xlink:href="ar80-0x7fe546cea100.svg">
<text x="78.900000" y="112.000000" font-family="Arial" font-size="7" text-anchor="middle" fill="#FFFFFF">ar80</text>
</a>
<circle cx="68.000000" cy="100.000000" r="1"/>
<line x1="63.000000" y1="109.000000" x2="66.000000" y2="110.000000"  transform="rotate(0.000000,66.000000,110.000000)" style="stroke: black; stroke-width:0.25;"/>
<line x1="63.000000" y1="111.000000" x2="66.000000" y2="110.000000"  transform="rotate(0.000000,66.000000,110.000000)" style="stroke: black; stroke-width:0.25;"/>
<a xlink:href="ahar-0x7fe546ceac40.svg">
<rect x="67.000000" y="131.000000" width="25.800000" height="24.000000" rx="0" ry="0" style="stroke:none;fill:#cccccc;"/>
<rect x="66.000000" y="130.000000" width="25.800000" height="24.000000" rx="0" ry="0" style="stroke:none;fill:#003366;"/>
</a>
<a xlink:href="ahar-0x7fe546ceac40.svg">
<text x="78.900000" y="144.000000" font-family="Arial" font-size="7" text-anchor="middle" fill="#FFFFFF">ahar</text>
</a>
<circle cx="68.000000" cy="132.000000" r="1"/>
<line x1="63.000000" y1="141.000000" x2="66.000000" y2="142.000000"  transform="rotate(0.000000,66.000000,142.000000)" style="stroke: black; stroke-width:0.25;"/>
<line x1="63.000000" y1="143.000000" x2="66.000000" y2="142.000000"  transform="rotate(0.000000,66.000000,142.000000)" style="stroke: black; stroke-width:0.25;"/>
<a xlink:href="aha1-0x7fe546ceb780.svg">
<rect x="67.000000" y="163.000000" width="25.800000" height="24.000000" rx="0" ry="0" style="stroke:none;fill:#cccccc;"/>
<rect x="66.000000" y="162.000000" width="25.800000" height="24.000000" rx="0" ry="0" style="stroke:none;fill:#003366;"/>
</a>
<a xlink:href="aha1-0x7fe546ceb780.svg">
<text x="78.900000" y="176.000000" font-family="Arial" font-size="7" text-anchor="middle" fill="#FFFFFF">aha1</text>
</a>
<circle cx="68.000000" cy="164.000000" r="1"/>
<line x1="63.000000" y1="173.000000" x2="66.000000" y2="174.000000"  transform="rotate(0.000000,66.000000,174.000000)" style="stroke: black; stroke-width:0.25;"/>
<line x1="63.000000" y1="175.000000" x2="66.000000" y2="174.000000"  transform="rotate(0.000000,66.000000,174.000000)" style="stroke: black; stroke-width:0.25;"/>
<a xlink:href="aha2-0x7fe546cec2c0.svg">
<rect x="67.000000" y="195.000000" width="25.800000" height="24.000000" rx="0" ry="0" style="stroke:none;fill:#cccccc;"/>
<rect x="66.000000" y="194.000000" width="25.800000" height="24.000000" rx="0" ry="0" style="stroke:none;fill:#003366;"/>
</a>
<a xlink:href="aha2-0x7fe546cec2c0.svg">
<text x="78.900000" y="208.000000" font-family="Arial" font-size="7" text-anchor="middle" fill="#FFFFFF">aha2</text>
</a>
<circle cx="68.000000" cy="196.000000" r="1"/>
<line x1="63.000000" y1="205.000000" x2="66.000000" y2="206.000000"  transform="rotate(0.000000,66.000000,206.000000)" style="stroke: black; stroke-width:0.25;"/>
<line x1="63.000000" y1="207.000000" x2="66.000000" y2="206.000000"  transform="rotate(0.000000,66.000000,206.000000)" style="stroke: black; stroke-width:0.25;"/>
<a xlink:href="aha3-0x7fe546cecd40.svg">
<rect x="67.000000" y="227.000000" width="25.800000" height="24.000000" rx="0" ry="0" style="stroke:none;fill:#cccccc;"/>
<rect x="66.000000" y="226.000000" width="25.800000" height="24.000000" rx="0" ry="0" style="stroke:none;fill:#003366;"/>
</a>
<a xlink:href="aha3-0x7fe546cecd40.svg">
<text x="78.900000" y="240.000000" font-family="Arial" font-size="7" text-anchor="middle" fill="#FFFFFF">aha3</text>
</a>
<circle cx="68.000000" cy="228.000000" r="1"/>
<line x1="63.000000" y1="237.000000" x2="66.000000" y2="238.000000"  transform="rotate(0.000000,66.000000,238.000000)" style="stroke: black; stroke-width:0.25;"/>
<line x1="63.000000" y1="239.000000" x2="66.000000" y2="238.000000"  transform="rotate(0.000000,66.000000,238.000000)" style="stroke: black; stroke-width:0.25;"/>
<line x1="57.000000" y1="25.000000" x2="57.000000" y2="259.000000"  style="stroke: black; stroke-linecap:round; stroke-width:0.25; stroke-dasharray:3,3;"/>
<line x1="57.000000" y1="259.000000" x2="100.800000" y2="259.000000"  style="stroke: black; stroke-linecap:round; stroke-width:0.25; stroke-dasharray:3,3;"/>
<line x1="100.800000" y1="259.000000" x2="100.800000" y2="25.000000"  style="stroke: black; stroke-linecap:round; stroke-width:0.25; stroke-dasharray:3,3;"/>
<line x1="57.000000" y1="25.000000" x2="62.000000" y2="25.000000"  style="stroke: black; stroke-linecap:round; stroke-width:0.25; stroke-dasharray:3,3;"/>
<line x1="100.800000" y1="25.000000" x2="100.800000" y2="25.000000"  style="stroke: black; stroke-linecap:round; stroke-width:0.25; stroke-dasharray:3,3;"/>
<text x="62.000000" y="27.000000" font-family="Arial" font-size="7">vgroup(PROCESSES SENDS)</text>
<line x1="15.000000" y1="15.000000" x2="15.000000" y2="269.000000"  style="stroke: black; stroke-linecap:round; stroke-width:0.25; stroke-dasharray:3,3;"/>
<line x1="15.000000" y1="269.000000" x2="142.800000" y2="269.000000"  style="stroke: black; stroke-linecap:round; stroke-width:0.25; stroke-dasharray:3,3;"/>
<line x1="142.800000" y1="269.000000" x2="142.800000" y2="15.000000"  style="stroke: black; stroke-linecap:round; stroke-width:0.25; stroke-dasharray:3,3;"/>
<line x1="15.000000" y1="15.000000" x2="20.000000" y2="15.000000"  style="stroke: black; stroke-linecap:round; stroke-width:0.25; stroke-dasharray:3,3;"/>
<line x1="42.575000" y1="15.000000" x2="142.800000" y2="15.000000"  style="stroke: black; stroke-linecap:round; stroke-width:0.25; stroke-dasharray:3,3;"/>
<text x="20.000000" y="17.000000" font-family="Arial" font-size="7">sends</text>
<line x1="144.800000" y1="117.000000" x2="147.800000" y2="118.000000"  transform="rotate(0.000000,147.800000,118.000000)" style="stroke: black; stroke-width:0.25;"/>
<line x1="144.800000" y1="119.000000" x2="147.800000" y2="118.000000"  transform="rotate(0.000000,147.800000,118.000000)" style="stroke: black; stroke-width:0.25;"/>
<line x1="144.800000" y1="125.000000" x2="147.800000" y2="126.000000"  transform="rotate(0.000000,147.800000,126.000000)" style="stroke: black; stroke-width:0.25;"/>
<line x1="144.800000" y1="127.000000" x2="147.800000" y2="126.000000"  transform="rotate(0.000000,147.800000,126.000000)" style="stroke: black; stroke-width:0.25;"/>
<line x1="144.800000" y1="133.000000" x2="147.800000" y2="134.000000"  transform="rotate(0.000000,147.800000,134.000000)" style="stroke: black; stroke-width:0.25;"/>
<line x1="144.800000" y1="135.000000" x2="147.800000" y2="134.000000"  transform="rotate(0.000000,147.800000,134.000000)" style="stroke: black; stroke-width:0.25;"/>
<line x1="144.800000" y1="141.000000" x2="147.800000" y2="142.000000"  transform="rotate(0.000000,147.800000,142.000000)" style="stroke: black; stroke-width:0.25;"/>
<line x1="144.800000" y1="143.000000" x2="147.800000" y2="142.000000"  transform="rotate(0.000000,147.800000,142.000000)" style="stroke: black; stroke-width:0.25;"/>
<line x1="144.800000" y1="149.000000" x2="147.800000" y2="150.000000"  transform="rotate(0.000000,147.800000,150.000000)" style="stroke: black; stroke-width:0.25;"/>
<line x1="144.800000" y1="151.000000" x2="147.800000" y2="150.000000"  transform="rotate(0.000000,147.800000,150.000000)" style="stroke: black; stroke-width:0.25;"/>
<line x1="144.800000" y1="157.000000" x2="147.800000" y2="158.000000"  transform="rotate(0.000000,147.800000,158.000000)" style="stroke: black; stroke-width:0.25;"/>
<line x1="144.800000" y1="159.000000" x2="147.800000" y2="158.000000"  transform="rotate(0.000000,147.800000,158.000000)" style="stroke: black; stroke-width:0.25;"/>
<line x1="144.800000" y1="165.000000" x2="147.800000" y2="166.000000"  transform="rotate(0.000000,147.800000,166.000000)" style="stroke: black; stroke-width:0.25;"/>
<line x1="144.800000" y1="167.000000" x2="147.800000" y2="166.000000"  transform="rotate(0.000000,147.800000,166.000000)" style="stroke: black; stroke-width:0.25;"/>
<line x1="10.000000" y1="118.000000" x2="20.000000" y2="118.000000"  style="stroke:black; stroke-linecap:round; stroke-width:0.25;"/>
<line x1="10.000000" y1="126.000000" x2="20.000000" y2="126.000000"  style="stroke:black; stroke-linecap:round; stroke-width:0.25;"/>
<line x1="10.000000" y1="134.000000" x2="20.000000" y2="134.000000"  style="stroke:black; stroke-linecap:round; stroke-width:0.25;"/>
<line x1="10.000000" y1="142.000000" x2="20.000000" y2="142.000000"  style="stroke:black; stroke-linecap:round; stroke-width:0.25;"/>
<line x1="10.000000" y1="150.000000" x2="20.000000" y2="150.000000"  style="stroke:black; stroke-linecap:round; stroke-width:0.25;"/>
<line x1="10.000000" y1="158.000000" x2="20.000000" y2="158.000000"  style="stroke:black; stroke-linecap:round; stroke-width:0.25;"/>
<line x1="10.000000" y1="166.000000" x2="20.000000" y2="166.000000"  style="stroke:black; stroke-linecap:round; stroke-width:0.25;"/>
<line x1="20.000000" y1="118.000000" x2="24.000000" y2="118.000000"  style="stroke:black; stroke-linecap:round; stroke-width:0.25;"/>
<line x1="20.000000" y1="126.000000" x2="24.000000" y2="126.000000"  style="stroke:black; stroke-linecap:round; stroke-width:0.25;"/>
<line x1="20.000000" y1="134.000000" x2="24.000000" y2="134.000000"  style="stroke:black; stroke-linecap:round; stroke-width:0.25;"/>
<line x1="20.000000" y1="142.000000" x2="24.000000" y2="142.000000"  style="stroke:black; stroke-linecap:round; stroke-width:0.25;"/>
<line x1="20.000000" y1="150.000000" x2="24.000000" y2="150.000000"  style="stroke:black; stroke-linecap:round; stroke-width:0.25;"/>
<line x1="20.000000" y1="158.000000" x2="24.000000" y2="158.000000"  style="stroke:black; stroke-linecap:round; stroke-width:0.25;"/>
<line x1="20.000000" y1="166.000000" x2="24.000000" y2="166.000000"  style="stroke:black; stroke-linecap:round; stroke-width:0.25;"/>
<line x1="24.000000" y1="118.000000" x2="28.000000" y2="118.000000"  style="stroke:black; stroke-linecap:round; stroke-width:0.25;"/>
<line x1="24.000000" y1="126.000000" x2="28.000000" y2="126.000000"  style="stroke:black; stroke-linecap:round; stroke-width:0.25;"/>
<line x1="24.000000" y1="134.000000" x2="28.000000" y2="134.000000"  style="stroke:black; stroke-linecap:round; stroke-width:0.25;"/>
<line x1="24.000000" y1="142.000000" x2="28.000000" y2="142.000000"  style="stroke:black; stroke-linecap:round; stroke-width:0.25;"/>
<line x1="24.000000" y1="150.000000" x2="28.000000" y2="150.000000"  style="stroke:black; stroke-linecap:round; stroke-width:0.25;"/>
<line x1="24.000000" y1="158.000000" x2="28.000000" y2="158.000000"  style="stroke:black; stroke-linecap:round; stroke-width:0.25;"/>
<line x1="24.000000" y1="166.000000" x2="28.000000" y2="166.000000"  style="stroke:black; stroke-linecap:round; stroke-width:0.25;"/>
<line x1="28.000000" y1="46.000000" x2="52.000000" y2="46.000000"  style="stroke:black; stroke-linecap:round; stroke-width:0.25;"/>
<line x1="28.000000" y1="118.000000" x2="28.000000" y2="46.000000"  style="stroke:black; stroke-linecap:round; stroke-width:0.25;"/>
<line x1="28.000000" y1="118.000000" x2="28.000000" y2="118.000000"  style="stroke:black; stroke-linecap:round; stroke-width:0.25;"/>
<line x1="28.000000" y1="126.000000" x2="36.000000" y2="126.000000"  style="stroke:black; stroke-linecap:round; stroke-width:0.25;"/>
<line x1="28.000000" y1="134.000000" x2="44.000000" y2="134.000000"  style="stroke:black; stroke-linecap:round; stroke-width:0.25;"/>
<line x1="28.000000" y1="142.000000" x2="52.000000" y2="142.000000"  style="stroke:black; stroke-linecap:round; stroke-width:0.25;"/>
<line x1="28.000000" y1="150.000000" x2="52.000000" y2="150.000000"  style="stroke:black; stroke-linecap:round; stroke-width:0.25;"/>
<line x1="28.000000" y1="158.000000" x2="44.000000" y2="158.000000"  style="stroke:black; stroke-linecap:round; stroke-width:0.25;"/>
<line x1="28.000000" y1="166.000000" x2="36.000000" y2="166.000000"  style="stroke:black; stroke-linecap:round; stroke-width:0.25;"/>
<line x1="36.000000" y1="78.000000" x2="52.000000" y2="78.000000"  style="stroke:black; stroke-linecap:round; stroke-width:0.25;"/>
<line x1="36.000000" y1="126.000000" x2="36.000000" y2="78.000000"  style="stroke:black; stroke-linecap:round; stroke-width:0.25;"/>
<line x1="36.000000" y1="166.000000" x2="36.000000" y2="238.000000"  style="stroke:black; stroke-linecap:round; stroke-width:0.25;"/>
<line x1="36.000000" y1="238.000000" x2="52.000000" y2="238.000000"  style="stroke:black; stroke-linecap:round; stroke-width:0.25;"/>
<line x1="44.000000" y1="110.000000" x2="52.000000" y2="110.000000"  style="stroke:black; stroke-linecap:round; stroke-width:0.25;"/>
<line x1="44.000000" y1="134.000000" x2="44.000000" y2="110.000000"  style="stroke:black; stroke-linecap:round; stroke-width:0.25;"/>
<line x1="44.000000" y1="158.000000" x2="44.000000" y2="206.000000"  style="stroke:black; stroke-linecap:round; stroke-width:0.25;"/>
<line x1="44.000000" y1="206.000000" x2="52.000000" y2="206.000000"  style="stroke:black; stroke-linecap:round; stroke-width:0.25;"/>
<line x1="52.000000" y1="46.000000" x2="62.000000" y2="46.000000"  style="stroke:black; stroke-linecap:round; stroke-width:0.25;"/>
<line x1="52.000000" y1="78.000000" x2="62.000000" y2="78.000000"  style="stroke:black; stroke-linecap:round; stroke-width:0.25;"/>
<line x1="52.000000" y1="110.000000" x2="62.000000" y2="110.000000"  style="stroke:black; stroke-linecap:round; stroke-width:0.25;"/>
<line x1="52.000000" y1="142.000000" x2="62.000000" y2="142.000000"  style="stroke:black; stroke-linecap:round; stroke-width:0.25;"/>
<line x1="52.000000" y1="150.000000" x2="52.000000" y2="174.000000"  style="stroke:black; stroke-linecap:round; stroke-width:0.25;"/>
<line x1="52.000000" y1="174.000000" x2="52.000000" y2="174.000000"  style="stroke:black; stroke-linecap:round; stroke-width:0.25;"/>
<line x1="52.000000" y1="174.000000" x2="62.000000" y2="174.000000"  style="stroke:black; stroke-linecap:round; stroke-width:0.25;"/>
<line x1="52.000000" y1="206.000000" x2="62.000000" y2="206.000000"  style="stroke:black; stroke-linecap:round; stroke-width:0.25;"/>
<line x1="52.000000" y1="238.000000" x2="62.000000" y2="238.000000"  style="stroke:black; stroke-linecap:round; stroke-width:0.25;"/>
<line x1="62.000000" y1="46.000000" x2="66.000000" y2="46.000000"  style="stroke:black; stroke-linecap:round; stroke-width:0.25;"/>
<line x1="62.000000" y1="78.000000" x2="66.000000" y2="78.000000"  style="stroke:black; stroke-linecap:round; stroke-width:0.25;"/>
<line x1="62.000000" y1="110.000000" x2="66.000000" y2="110.000000"  style="stroke:black; stroke-linecap:round; stroke-width:0.25;"/>
<line x1="62.000000" y1="142.000000" x2="66.000000" y2="142.000000"  style="stroke:black; stroke-linecap:round; stroke-width:0.25;"/>
<line x1="62.000000" y1="174.000000" x2="66.000000" y2="174.000000"  style="stroke:black; stroke-linecap:round; stroke-width:0.25;"/>
<line x1="62.000000" y1="206.000000" x2="66.000000" y2="206.000000"  style="stroke:black; stroke-linecap:round; stroke-width:0.25;"/>
<line x1="62.000000" y1="238.000000" x2="66.000000" y2="238.000000"  style="stroke:black; stroke-linecap:round; stroke-width:0.25;"/>
<line x1="91.800000" y1="46.000000" x2="95.800000" y2="46.000000"  style="stroke:black; stroke-linecap:round; stroke-width:0.25;"/>
<line x1="91.800000" y1="78.000000" x2="95.800000" y2="78.000000"  style="stroke:black; stroke-linecap:round; stroke-width:0.25;"/>
<line x1="91.800000" y1="110.000000" x2="95.800000" y2="110.000000"  style="stroke:black; stroke-linecap:round; stroke-width:0.25;"/>
<line x1="91.800000" y1="142.000000" x2="95.800000" y2="142.000000"  style="stroke:black; stroke-linecap:round; stroke-width:0.25;"/>
<line x1="91.800000" y1="174.000000" x2="95.800000" y2="174.000000"  style="stroke:black; stroke-linecap:round; stroke-width:0.25;"/>
<line x1="91.800000" y1="206.000000" x2="95.800000" y2="206.000000"  style="stroke:black; stroke-linecap:round; stroke-width:0.25;"/>
<line x1="91.800000" y1="238.000000" x2="95.800000" y2="238.000000"  style="stroke:black; stroke-linecap:round; stroke-width:0.25;"/>
<line x1="95.800000" y1="46.000000" x2="105.800000" y2="46.000000"  style="stroke:black; stroke-linecap:round; stroke-width:0.25;"/>
<line x1="95.800000" y1="78.000000" x2="105.800000" y2="78.000000"  style="stroke:black; stroke-linecap:round; stroke-width:0.25;"/>
<line x1="95.800000" y1="110.000000" x2="105.800000" y2="110.000000"  style="stroke:black; stroke-linecap:round; stroke-width:0.25;"/>
<line x1="95.800000" y1="142.000000" x2="105.800000" y2="142.000000"  style="stroke:black; stroke-linecap:round; stroke-width:0.25;"/>
<line x1="95.800000" y1="174.000000" x2="105.800000" y2="174.000000"  style="stroke:black; stroke-linecap:round; stroke-width:0.25;"/>
<line x1="95.800000" y1="206.000000" x2="105.800000" y2="206.000000"  style="stroke:black; stroke-linecap:round; stroke-width:0.25;"/>
<line x1="95.800000" y1="238.000000" x2="105.800000" y2="238.000000"  style="stroke:black; stroke-linecap:round; stroke-width:0.25;"/>
<line x1="105.800000" y1="46.000000" x2="129.800000" y2="46.000000"  style="stroke:black; stroke-linecap:round; stroke-width:0.25;"/>
<line x1="105.800000" y1="78.000000" x2="121.800000" y2="78.000000"  style="stroke:black; stroke-linecap:round; stroke-width:0.25;"/>
<line x1="105.800000" y1="110.000000" x2="113.800000" y2="110.000000"  style="stroke:black; stroke-linecap:round; stroke-width:0.25;"/>
<line x1="105.800000" y1="142.000000" x2="129.800000" y2="142.000000"  style="stroke:black; stroke-linecap:round; stroke-width:0.25;"/>
<line x1="105.800000" y1="150.000000" x2="129.800000" y2="150.000000"  style="stroke:black; stroke-linecap:round; stroke-width:0.25;"/>
<line x1="105.800000" y1="174.000000" x2="105.800000" y2="150.000000"  style="stroke:black; stroke-linecap:round; stroke-width:0.25;"/>
<line x1="105.800000" y1="174.000000" x2="105.800000" y2="174.000000"  style="stroke:black; stroke-linecap:round; stroke-width:0.25;"/>
<line x1="105.800000" y1="206.000000" x2="113.800000" y2="206.000000"  style="stroke:black; stroke-linecap:round; stroke-width:0.25;"/>
<line x1="105.800000" y1="238.000000" x2="121.800000" y2="238.000000"  style="stroke:black; stroke-linecap:round; stroke-width:0.25;"/>
<line x1="113.800000" y1="110.000000" x2="113.800000" y2="134.000000"  style="stroke:black; stroke-linecap:round; stroke-width:0.25;"/>
<line x1="113.800000" y1="134.000000" x2="129.800000" y2="134.000000"  style="stroke:black; stroke-linecap:round; stroke-width:0.25;"/>
<line x1="113.800000" y1="158.000000" x2="129.800000" y2="158.000000"  style="stroke:black; stroke-linecap:round; stroke-width:0.25;"/>
<line x1="113.800000" y1="206.000000" x2="113.800000" y2="158.000000"  style="stroke:black; stroke-linecap:round; stroke-width:0.25;"/>
<line x1="121.800000" y1="78.000000" x2="121.800000" y2="126.000000"  style="stroke:black; stroke-linecap:round; stroke-width:0.25;"/>
<line x1="121.800000" y1="126.000000" x2="129.800000" y2="126.000000"  style="stroke:black; stroke-linecap:round; stroke-width:0.25;"/>
<line x1="121.800000" y1="166.000000" x2="129.800000" y2="166.000000"  style="stroke:black; stroke-linecap:round; stroke-width:0.25;"/>
<line x1="121.800000" y1="238.000000" x2="121.800000" y2="166.000000"  style="stroke:black; stroke-linecap:round; stroke-width:0.25;"/>
<line x1="129.800000" y1="46.000000" x2="129.800000" y2="118.000000"  style="stroke:black; stroke-linecap:round; stroke-width:0.25;"/>
<line x1="129.800000" y1="118.000000" x2="129.800000" y2="118.000000"  style="stroke:black; stroke-linecap:round; stroke-width:0.25;"/>
<line x1="129.800000" y1="118.000000" x2="133.800000" y2="118.000000"  style="stroke:black; stroke-linecap:round; stroke-width:0.25;"/>
<line x1="129.800000" y1="126.000000" x2="133.800000" y2="126.000000"  style="stroke:black; stroke-linecap:round; stroke-width:0.25;"/>
<line x1="129.800000" y1="134.000000" x2="133.800000" y2="134.000000"  style="stroke:black; stroke-linecap:round; stroke-width:0.25;"/>
<line x1="129.800000" y1="142.000000" x2="133.800000" y2="142.000000"  style="stroke:black; stroke-linecap:round; stroke-width:0.25;"/>
<line x1="129.800000" y1="150.000000" x2="133.800000" y2="150.000000"  style="stroke:black; stroke-linecap:round; stroke-width:0.25;"/>
<line x1="129.800000" y1="158.000000" x2="133.800000" y2="158.000000"  style="stroke:black; stroke-linecap:round; stroke-width:0.25;"/>
<line x1="129.800000" y1="166.000000" x2="133.800000" y2="166.000000"  style="stroke:black; stroke-linecap:round; stroke-width:0.25;"/>
<line x1="133.800000" y1="118.000000" x2="137.800000" y2="118.000000"  style="stroke:black; stroke-linecap:round; stroke-width:0.25;"/>
<line x1="133.800000" y1="126.000000" x2="137.800000" y2="126.000000"  style="stroke:black; stroke-linecap:round; stroke-width:0.25;"/>
<line x1="133.800000" y1="134.000000" x2="137.800000" y2="134.000000"  style="stroke:black; stroke-linecap:round; stroke-width:0.25;"/>
<line x1="133.800000" y1="142.000000" x2="137.800000" y2="142.000000"  style="stroke:black; stroke-linecap:round; stroke-width:0.25;"/>
<line x1="133.800000" y1="150.000000" x2="137.800000" y2="150.000000"  style="stroke:black; stroke-linecap:round; stroke-width:0.25;"/>
<line x1="133.800000" y1="158.000000" x2="137.800000" y2="158.000000"  style="stroke:black; stroke-linecap:round; stroke-width:0.25;"/>
<line x1="133.800000" y1="166.000000" x2="137.800000" y2="166.000000"  style="stroke:black; stroke-linecap:round; stroke-width:0.25;"/>
<line x1="137.800000" y1="118.000000" x2="147.800000" y2="118.000000"  style="stroke:black; stroke-linecap:round; stroke-width:0.25;"/>
<line x1="137.800000" y1="126.000000" x2="147.800000" y2="126.000000"  style="stroke:black; stroke-linecap:round; stroke-width:0.25;"/>
<line x1="137.800000" y1="134.000000" x2="147.800000" y2="134.000000"  style="stroke:black; stroke-linecap:round; stroke-width:0.25;"/>
<line x1="137.800000" y1="142.000000" x2="147.800000" y2="142.000000"  style="stroke:black; stroke-linecap:round; stroke-width:0.25;"/>
<line x1="137.800000" y1="150.000000" x2="147.800000" y2="150.000000"  style="stroke:black; stroke-linecap:round; stroke-width:0.25;"/>
<line x1="137.800000" y1="158.000000" x2="147.800000" y2="158.000000"  style="stroke:black; stroke-linecap:round; stroke-width:0.25;"/>
<line x1="137.800000" y1="166.000000" x2="147.800000" y2="166.000000"  style="stroke:black; stroke-linecap:round; stroke-width:0.25;"/>
</svg>
