<?xml version="1.0"?>
<svg xmlns="http://www.w3.org/2000/svg" xmlns:xlink="http://www.w3.org/1999/xlink" viewBox="0 0 205.800000 340.000000" width="102.900000mm" height="170.000000mm" version="1.1">
<a xlink:href="crota-0x7fc29574d440.svg">
<rect x="1.000000" y="1.000000" width="204.800000" height="339.000000" rx="0" ry="0" style="stroke:none;fill:#cccccc;"/>
<rect x="0.000000" y="0.000000" width="204.800000" height="339.000000" rx="0" ry="0" style="stroke:none;fill:#ffffff;"/>
</a>
<text x="10.000000" y="7.000000" font-family="Arial" font-size="7"></text>
<a xlink:href="adel-0x7fc28eaaee30.svg">
<rect x="75.000000" y="43.000000" width="25.800000" height="24.000000" rx="0" ry="0" style="stroke:none;fill:#cccccc;"/>
<rect x="74.000000" y="42.000000" width="25.800000" height="24.000000" rx="0" ry="0" style="stroke:none;fill:#003366;"/>
</a>
<a xlink:href="adel-0x7fc28eaaee30.svg">
<text x="86.900000" y="56.000000" font-family="Arial" font-size="7" text-anchor="middle" fill="#FFFFFF">adel</text>
</a>
<circle cx="76.000000" cy="44.000000" r="1"/>
<rect x="116.800000" y="39.000000" width="24.000000" height="24.000000" rx="0" ry="0" style="stroke:none;fill:#cccccc;"/>
<rect x="115.800000" y="38.000000" width="24.000000" height="24.000000" rx="0" ry="0" style="stroke:none;fill:#4B71A1;"/>
<text x="127.800000" y="52.000000" font-family="Arial" font-size="7" text-anchor="middle" fill="#FFFFFF">*</text>
<circle cx="117.800000" cy="40.000000" r="1"/>
<line x1="112.800000" y1="45.000000" x2="115.800000" y2="46.000000"  transform="rotate(0.000000,115.800000,46.000000)" style="stroke: black; stroke-width:0.25;"/>
<line x1="112.800000" y1="47.000000" x2="115.800000" y2="46.000000"  transform="rotate(0.000000,115.800000,46.000000)" style="stroke: black; stroke-width:0.25;"/>
<line x1="112.800000" y1="53.000000" x2="115.800000" y2="54.000000"  transform="rotate(0.000000,115.800000,54.000000)" style="stroke: black; stroke-width:0.25;"/>
<line x1="112.800000" y1="55.000000" x2="115.800000" y2="54.000000"  transform="rotate(0.000000,115.800000,54.000000)" style="stroke: black; stroke-width:0.25;"/>
<a xlink:href="are4-0x7fc28eaafc40.svg">
<rect x="75.000000" y="83.000000" width="25.800000" height="24.000000" rx="0" ry="0" style="stroke:none;fill:#cccccc;"/>
<rect x="74.000000" y="82.000000" width="25.800000" height="24.000000" rx="0" ry="0" style="stroke:none;fill:#003366;"/>
</a>
<a xlink:href="are4-0x7fc28eaafc40.svg">
<text x="86.900000" y="96.000000" font-family="Arial" font-size="7" text-anchor="middle" fill="#FFFFFF">are4</text>
</a>
<circle cx="76.000000" cy="84.000000" r="1"/>
<rect x="116.800000" y="79.000000" width="24.000000" height="24.000000" rx="0" ry="0" style="stroke:none;fill:#cccccc;"/>
<rect x="115.800000" y="78.000000" width="24.000000" height="24.000000" rx="0" ry="0" style="stroke:none;fill:#4B71A1;"/>
<text x="127.800000" y="92.000000" font-family="Arial" font-size="7" text-anchor="middle" fill="#FFFFFF">*</text>
<circle cx="117.800000" cy="80.000000" r="1"/>
<line x1="112.800000" y1="85.000000" x2="115.800000" y2="86.000000"  transform="rotate(0.000000,115.800000,86.000000)" style="stroke: black; stroke-width:0.25;"/>
<line x1="112.800000" y1="87.000000" x2="115.800000" y2="86.000000"  transform="rotate(0.000000,115.800000,86.000000)" style="stroke: black; stroke-width:0.25;"/>
<line x1="112.800000" y1="93.000000" x2="115.800000" y2="94.000000"  transform="rotate(0.000000,115.800000,94.000000)" style="stroke: black; stroke-width:0.25;"/>
<line x1="112.800000" y1="95.000000" x2="115.800000" y2="94.000000"  transform="rotate(0.000000,115.800000,94.000000)" style="stroke: black; stroke-width:0.25;"/>
<a xlink:href="ar80-0x7fc28eab0a50.svg">
<rect x="75.000000" y="123.000000" width="25.800000" height="24.000000" rx="0" ry="0" style="stroke:none;fill:#cccccc;"/>
<rect x="74.000000" y="122.000000" width="25.800000" height="24.000000" rx="0" ry="0" style="stroke:none;fill:#003366;"/>
</a>
<a xlink:href="ar80-0x7fc28eab0a50.svg">
<text x="86.900000" y="136.000000" font-family="Arial" font-size="7" text-anchor="middle" fill="#FFFFFF">ar80</text>
</a>
<circle cx="76.000000" cy="124.000000" r="1"/>
<rect x="116.800000" y="119.000000" width="24.000000" height="24.000000" rx="0" ry="0" style="stroke:none;fill:#cccccc;"/>
<rect x="115.800000" y="118.000000" width="24.000000" height="24.000000" rx="0" ry="0" style="stroke:none;fill:#4B71A1;"/>
<text x="127.800000" y="132.000000" font-family="Arial" font-size="7" text-anchor="middle" fill="#FFFFFF">*</text>
<circle cx="117.800000" cy="120.000000" r="1"/>
<line x1="112.800000" y1="125.000000" x2="115.800000" y2="126.000000"  transform="rotate(0.000000,115.800000,126.000000)" style="stroke: black; stroke-width:0.25;"/>
<line x1="112.800000" y1="127.000000" x2="115.800000" y2="126.000000"  transform="rotate(0.000000,115.800000,126.000000)" style="stroke: black; stroke-width:0.25;"/>
<line x1="112.800000" y1="133.000000" x2="115.800000" y2="134.000000"  transform="rotate(0.000000,115.800000,134.000000)" style="stroke: black; stroke-width:0.25;"/>
<line x1="112.800000" y1="135.000000" x2="115.800000" y2="134.000000"  transform="rotate(0.000000,115.800000,134.000000)" style="stroke: black; stroke-width:0.25;"/>
<a xlink:href="ahar-0x7fc28eab1860.svg">
<rect x="75.000000" y="163.000000" width="25.800000" height="24.000000" rx="0" ry="0" style="stroke:none;fill:#cccccc;"/>
<rect x="74.000000" y="162.000000" width="25.800000" height="24.000000" rx="0" ry="0" style="stroke:none;fill:#003366;"/>
</a>
<a xlink:href="ahar-0x7fc28eab1860.svg">
<text x="86.900000" y="176.000000" font-family="Arial" font-size="7" text-anchor="middle" fill="#FFFFFF">ahar</text>
</a>
<circle cx="76.000000" cy="164.000000" r="1"/>
<rect x="116.800000" y="159.000000" width="24.000000" height="24.000000" rx="0" ry="0" style="stroke:none;fill:#cccccc;"/>
<rect x="115.800000" y="158.000000" width="24.000000" height="24.000000" rx="0" ry="0" style="stroke:none;fill:#4B71A1;"/>
<text x="127.800000" y="172.000000" font-family="Arial" font-size="7" text-anchor="middle" fill="#FFFFFF">*</text>
<circle cx="117.800000" cy="160.000000" r="1"/>
<line x1="112.800000" y1="165.000000" x2="115.800000" y2="166.000000"  transform="rotate(0.000000,115.800000,166.000000)" style="stroke: black; stroke-width:0.25;"/>
<line x1="112.800000" y1="167.000000" x2="115.800000" y2="166.000000"  transform="rotate(0.000000,115.800000,166.000000)" style="stroke: black; stroke-width:0.25;"/>
<line x1="112.800000" y1="173.000000" x2="115.800000" y2="174.000000"  transform="rotate(0.000000,115.800000,174.000000)" style="stroke: black; stroke-width:0.25;"/>
<line x1="112.800000" y1="175.000000" x2="115.800000" y2="174.000000"  transform="rotate(0.000000,115.800000,174.000000)" style="stroke: black; stroke-width:0.25;"/>
<a xlink:href="aha1-0x7fc28eab2670.svg">
<rect x="75.000000" y="203.000000" width="25.800000" height="24.000000" rx="0" ry="0" style="stroke:none;fill:#cccccc;"/>
<rect x="74.000000" y="202.000000" width="25.800000" height="24.000000" rx="0" ry="0" style="stroke:none;fill:#003366;"/>
</a>
<a xlink:href="aha1-0x7fc28eab2670.svg">
<text x="86.900000" y="216.000000" font-family="Arial" font-size="7" text-anchor="middle" fill="#FFFFFF">aha1</text>
</a>
<circle cx="76.000000" cy="204.000000" r="1"/>
<rect x="116.800000" y="199.000000" width="24.000000" height="24.000000" rx="0" ry="0" style="stroke:none;fill:#cccccc;"/>
<rect x="115.800000" y="198.000000" width="24.000000" height="24.000000" rx="0" ry="0" style="stroke:none;fill:#4B71A1;"/>
<text x="127.800000" y="212.000000" font-family="Arial" font-size="7" text-anchor="middle" fill="#FFFFFF">*</text>
<circle cx="117.800000" cy="200.000000" r="1"/>
<line x1="112.800000" y1="205.000000" x2="115.800000" y2="206.000000"  transform="rotate(0.000000,115.800000,206.000000)" style="stroke: black; stroke-width:0.25;"/>
<line x1="112.800000" y1="207.000000" x2="115.800000" y2="206.000000"  transform="rotate(0.000000,115.800000,206.000000)" style="stroke: black; stroke-width:0.25;"/>
<line x1="112.800000" y1="213.000000" x2="115.800000" y2="214.000000"  transform="rotate(0.000000,115.800000,214.000000)" style="stroke: black; stroke-width:0.25;"/>
<line x1="112.800000" y1="215.000000" x2="115.800000" y2="214.000000"  transform="rotate(0.000000,115.800000,214.000000)" style="stroke: black; stroke-width:0.25;"/>
<a xlink:href="aha2-0x7fc28eab3480.svg">
<rect x="75.000000" y="243.000000" width="25.800000" height="24.000000" rx="0" ry="0" style="stroke:none;fill:#cccccc;"/>
<rect x="74.000000" y="242.000000" width="25.800000" height="24.000000" rx="0" ry="0" style="stroke:none;fill:#003366;"/>
</a>
<a xlink:href="aha2-0x7fc28eab3480.svg">
<text x="86.900000" y="256.000000" font-family="Arial" font-size="7" text-anchor="middle" fill="#FFFFFF">aha2</text>
</a>
<circle cx="76.000000" cy="244.000000" r="1"/>
<rect x="116.800000" y="239.000000" width="24.000000" height="24.000000" rx="0" ry="0" style="stroke:none;fill:#cccccc;"/>
<rect x="115.800000" y="238.000000" width="24.000000" height="24.000000" rx="0" ry="0" style="stroke:none;fill:#4B71A1;"/>
<text x="127.800000" y="252.000000" font-family="Arial" font-size="7" text-anchor="middle" fill="#FFFFFF">*</text>
<circle cx="117.800000" cy="240.000000" r="1"/>
<line x1="112.800000" y1="245.000000" x2="115.800000" y2="246.000000"  transform="rotate(0.000000,115.800000,246.000000)" style="stroke: black; stroke-width:0.25;"/>
<line x1="112.800000" y1="247.000000" x2="115.800000" y2="246.000000"  transform="rotate(0.000000,115.800000,246.000000)" style="stroke: black; stroke-width:0.25;"/>
<line x1="112.800000" y1="253.000000" x2="115.800000" y2="254.000000"  transform="rotate(0.000000,115.800000,254.000000)" style="stroke: black; stroke-width:0.25;"/>
<line x1="112.800000" y1="255.000000" x2="115.800000" y2="254.000000"  transform="rotate(0.000000,115.800000,254.000000)" style="stroke: black; stroke-width:0.25;"/>
<a xlink:href="aha3-0x7fc28eab41d0.svg">
<rect x="75.000000" y="283.000000" width="25.800000" height="24.000000" rx="0" ry="0" style="stroke:none;fill:#cccccc;"/>
<rect x="74.000000" y="282.000000" width="25.800000" height="24.000000" rx="0" ry="0" style="stroke:none;fill:#003366;"/>
</a>
<a xlink:href="aha3-0x7fc28eab41d0.svg">
<text x="86.900000" y="296.000000" font-family="Arial" font-size="7" text-anchor="middle" fill="#FFFFFF">aha3</text>
</a>
<circle cx="76.000000" cy="284.000000" r="1"/>
<rect x="116.800000" y="279.000000" width="24.000000" height="24.000000" rx="0" ry="0" style="stroke:none;fill:#cccccc;"/>
<rect x="115.800000" y="278.000000" width="24.000000" height="24.000000" rx="0" ry="0" style="stroke:none;fill:#4B71A1;"/>
<text x="127.800000" y="292.000000" font-family="Arial" font-size="7" text-anchor="middle" fill="#FFFFFF">*</text>
<circle cx="117.800000" cy="280.000000" r="1"/>
<line x1="112.800000" y1="285.000000" x2="115.800000" y2="286.000000"  transform="rotate(0.000000,115.800000,286.000000)" style="stroke: black; stroke-width:0.25;"/>
<line x1="112.800000" y1="287.000000" x2="115.800000" y2="286.000000"  transform="rotate(0.000000,115.800000,286.000000)" style="stroke: black; stroke-width:0.25;"/>
<line x1="112.800000" y1="293.000000" x2="115.800000" y2="294.000000"  transform="rotate(0.000000,115.800000,294.000000)" style="stroke: black; stroke-width:0.25;"/>
<line x1="112.800000" y1="295.000000" x2="115.800000" y2="294.000000"  transform="rotate(0.000000,115.800000,294.000000)" style="stroke: black; stroke-width:0.25;"/>
<line x1="65.000000" y1="25.000000" x2="65.000000" y2="315.000000"  style="stroke: black; stroke-linecap:round; stroke-width:0.25; stroke-dasharray:3,3;"/>
<line x1="65.000000" y1="315.000000" x2="148.800000" y2="315.000000"  style="stroke: black; stroke-linecap:round; stroke-width:0.25; stroke-dasharray:3,3;"/>
<line x1="148.800000" y1="315.000000" x2="148.800000" y2="25.000000"  style="stroke: black; stroke-linecap:round; stroke-width:0.25; stroke-dasharray:3,3;"/>
<line x1="65.000000" y1="25.000000" x2="70.000000" y2="25.000000"  style="stroke: black; stroke-linecap:round; stroke-width:0.25; stroke-dasharray:3,3;"/>
<line x1="118.375000" y1="25.000000" x2="148.800000" y2="25.000000"  style="stroke: black; stroke-linecap:round; stroke-width:0.25; stroke-dasharray:3,3;"/>
<text x="70.000000" y="27.000000" font-family="Arial" font-size="7">vgroup(SENDS)</text>
<line x1="15.000000" y1="15.000000" x2="15.000000" y2="325.000000"  style="stroke: black; stroke-linecap:round; stroke-width:0.25; stroke-dasharray:3,3;"/>
<line x1="15.000000" y1="325.000000" x2="190.800000" y2="325.000000"  style="stroke: black; stroke-linecap:round; stroke-width:0.25; stroke-dasharray:3,3;"/>
<line x1="190.800000" y1="325.000000" x2="190.800000" y2="15.000000"  style="stroke: black; stroke-linecap:round; stroke-width:0.25; stroke-dasharray:3,3;"/>
<line x1="15.000000" y1="15.000000" x2="20.000000" y2="15.000000"  style="stroke: black; stroke-linecap:round; stroke-width:0.25; stroke-dasharray:3,3;"/>
<line x1="42.575000" y1="15.000000" x2="190.800000" y2="15.000000"  style="stroke: black; stroke-linecap:round; stroke-width:0.25; stroke-dasharray:3,3;"/>
<text x="20.000000" y="17.000000" font-family="Arial" font-size="7">sends</text>
<line x1="192.800000" y1="145.000000" x2="195.800000" y2="146.000000"  transform="rotate(0.000000,195.800000,146.000000)" style="stroke: black; stroke-width:0.25;"/>
<line x1="192.800000" y1="147.000000" x2="195.800000" y2="146.000000"  transform="rotate(0.000000,195.800000,146.000000)" style="stroke: black; stroke-width:0.25;"/>
<line x1="192.800000" y1="153.000000" x2="195.800000" y2="154.000000"  transform="rotate(0.000000,195.800000,154.000000)" style="stroke: black; stroke-width:0.25;"/>
<line x1="192.800000" y1="155.000000" x2="195.800000" y2="154.000000"  transform="rotate(0.000000,195.800000,154.000000)" style="stroke: black; stroke-width:0.25;"/>
<line x1="192.800000" y1="161.000000" x2="195.800000" y2="162.000000"  transform="rotate(0.000000,195.800000,162.000000)" style="stroke: black; stroke-width:0.25;"/>
<line x1="192.800000" y1="163.000000" x2="195.800000" y2="162.000000"  transform="rotate(0.000000,195.800000,162.000000)" style="stroke: black; stroke-width:0.25;"/>
<line x1="192.800000" y1="169.000000" x2="195.800000" y2="170.000000"  transform="rotate(0.000000,195.800000,170.000000)" style="stroke: black; stroke-width:0.25;"/>
<line x1="192.800000" y1="171.000000" x2="195.800000" y2="170.000000"  transform="rotate(0.000000,195.800000,170.000000)" style="stroke: black; stroke-width:0.25;"/>
<line x1="192.800000" y1="177.000000" x2="195.800000" y2="178.000000"  transform="rotate(0.000000,195.800000,178.000000)" style="stroke: black; stroke-width:0.25;"/>
<line x1="192.800000" y1="179.000000" x2="195.800000" y2="178.000000"  transform="rotate(0.000000,195.800000,178.000000)" style="stroke: black; stroke-width:0.25;"/>
<line x1="192.800000" y1="185.000000" x2="195.800000" y2="186.000000"  transform="rotate(0.000000,195.800000,186.000000)" style="stroke: black; stroke-width:0.25;"/>
<line x1="192.800000" y1="187.000000" x2="195.800000" y2="186.000000"  transform="rotate(0.000000,195.800000,186.000000)" style="stroke: black; stroke-width:0.25;"/>
<line x1="192.800000" y1="193.000000" x2="195.800000" y2="194.000000"  transform="rotate(0.000000,195.800000,194.000000)" style="stroke: black; stroke-width:0.25;"/>
<line x1="192.800000" y1="195.000000" x2="195.800000" y2="194.000000"  transform="rotate(0.000000,195.800000,194.000000)" style="stroke: black; stroke-width:0.25;"/>
<line x1="10.000000" y1="146.000000" x2="20.000000" y2="146.000000"  style="stroke:black; stroke-linecap:round; stroke-width:0.25;"/>
<line x1="10.000000" y1="154.000000" x2="20.000000" y2="154.000000"  style="stroke:black; stroke-linecap:round; stroke-width:0.25;"/>
<line x1="10.000000" y1="162.000000" x2="20.000000" y2="162.000000"  style="stroke:black; stroke-linecap:round; stroke-width:0.25;"/>
<line x1="10.000000" y1="170.000000" x2="20.000000" y2="170.000000"  style="stroke:black; stroke-linecap:round; stroke-width:0.25;"/>
<line x1="10.000000" y1="178.000000" x2="20.000000" y2="178.000000"  style="stroke:black; stroke-linecap:round; stroke-width:0.25;"/>
<line x1="10.000000" y1="186.000000" x2="20.000000" y2="186.000000"  style="stroke:black; stroke-linecap:round; stroke-width:0.25;"/>
<line x1="10.000000" y1="194.000000" x2="20.000000" y2="194.000000"  style="stroke:black; stroke-linecap:round; stroke-width:0.25;"/>
<line x1="20.000000" y1="146.000000" x2="24.000000" y2="146.000000"  style="stroke:black; stroke-linecap:round; stroke-width:0.25;"/>
<line x1="20.000000" y1="154.000000" x2="24.000000" y2="154.000000"  style="stroke:black; stroke-linecap:round; stroke-width:0.25;"/>
<line x1="20.000000" y1="162.000000" x2="24.000000" y2="162.000000"  style="stroke:black; stroke-linecap:round; stroke-width:0.25;"/>
<line x1="20.000000" y1="170.000000" x2="24.000000" y2="170.000000"  style="stroke:black; stroke-linecap:round; stroke-width:0.25;"/>
<line x1="20.000000" y1="178.000000" x2="24.000000" y2="178.000000"  style="stroke:black; stroke-linecap:round; stroke-width:0.25;"/>
<line x1="20.000000" y1="186.000000" x2="24.000000" y2="186.000000"  style="stroke:black; stroke-linecap:round; stroke-width:0.25;"/>
<line x1="20.000000" y1="194.000000" x2="24.000000" y2="194.000000"  style="stroke:black; stroke-linecap:round; stroke-width:0.25;"/>
<line x1="24.000000" y1="146.000000" x2="28.000000" y2="146.000000"  style="stroke:black; stroke-linecap:round; stroke-width:0.25;"/>
<line x1="24.000000" y1="154.000000" x2="28.000000" y2="154.000000"  style="stroke:black; stroke-linecap:round; stroke-width:0.25;"/>
<line x1="24.000000" y1="162.000000" x2="28.000000" y2="162.000000"  style="stroke:black; stroke-linecap:round; stroke-width:0.25;"/>
<line x1="24.000000" y1="170.000000" x2="28.000000" y2="170.000000"  style="stroke:black; stroke-linecap:round; stroke-width:0.25;"/>
<line x1="24.000000" y1="178.000000" x2="28.000000" y2="178.000000"  style="stroke:black; stroke-linecap:round; stroke-width:0.25;"/>
<line x1="24.000000" y1="186.000000" x2="28.000000" y2="186.000000"  style="stroke:black; stroke-linecap:round; stroke-width:0.25;"/>
<line x1="24.000000" y1="194.000000" x2="28.000000" y2="194.000000"  style="stroke:black; stroke-linecap:round; stroke-width:0.25;"/>
<line x1="28.000000" y1="34.000000" x2="60.000000" y2="34.000000"  style="stroke:black; stroke-linecap:round; stroke-width:0.25;"/>
<line x1="28.000000" y1="146.000000" x2="28.000000" y2="34.000000"  style="stroke:black; stroke-linecap:round; stroke-width:0.25;"/>
<line x1="28.000000" y1="146.000000" x2="28.000000" y2="146.000000"  style="stroke:black; stroke-linecap:round; stroke-width:0.25;"/>
<line x1="28.000000" y1="154.000000" x2="36.000000" y2="154.000000"  style="stroke:black; stroke-linecap:round; stroke-width:0.25;"/>
<line x1="28.000000" y1="162.000000" x2="44.000000" y2="162.000000"  style="stroke:black; stroke-linecap:round; stroke-width:0.25;"/>
<line x1="28.000000" y1="170.000000" x2="52.000000" y2="170.000000"  style="stroke:black; stroke-linecap:round; stroke-width:0.25;"/>
<line x1="28.000000" y1="178.000000" x2="60.000000" y2="178.000000"  style="stroke:black; stroke-linecap:round; stroke-width:0.25;"/>
<line x1="28.000000" y1="186.000000" x2="52.000000" y2="186.000000"  style="stroke:black; stroke-linecap:round; stroke-width:0.25;"/>
<line x1="28.000000" y1="194.000000" x2="44.000000" y2="194.000000"  style="stroke:black; stroke-linecap:round; stroke-width:0.25;"/>
<line x1="36.000000" y1="74.000000" x2="60.000000" y2="74.000000"  style="stroke:black; stroke-linecap:round; stroke-width:0.25;"/>
<line x1="36.000000" y1="154.000000" x2="36.000000" y2="74.000000"  style="stroke:black; stroke-linecap:round; stroke-width:0.25;"/>
<line x1="44.000000" y1="114.000000" x2="60.000000" y2="114.000000"  style="stroke:black; stroke-linecap:round; stroke-width:0.25;"/>
<line x1="44.000000" y1="162.000000" x2="44.000000" y2="114.000000"  style="stroke:black; stroke-linecap:round; stroke-width:0.25;"/>
<line x1="44.000000" y1="194.000000" x2="44.000000" y2="274.000000"  style="stroke:black; stroke-linecap:round; stroke-width:0.25;"/>
<line x1="44.000000" y1="274.000000" x2="60.000000" y2="274.000000"  style="stroke:black; stroke-linecap:round; stroke-width:0.25;"/>
<line x1="52.000000" y1="154.000000" x2="60.000000" y2="154.000000"  style="stroke:black; stroke-linecap:round; stroke-width:0.25;"/>
<line x1="52.000000" y1="170.000000" x2="52.000000" y2="154.000000"  style="stroke:black; stroke-linecap:round; stroke-width:0.25;"/>
<line x1="52.000000" y1="186.000000" x2="52.000000" y2="234.000000"  style="stroke:black; stroke-linecap:round; stroke-width:0.25;"/>
<line x1="52.000000" y1="234.000000" x2="60.000000" y2="234.000000"  style="stroke:black; stroke-linecap:round; stroke-width:0.25;"/>
<line x1="60.000000" y1="34.000000" x2="70.000000" y2="34.000000"  style="stroke:black; stroke-linecap:round; stroke-width:0.25;"/>
<line x1="60.000000" y1="74.000000" x2="70.000000" y2="74.000000"  style="stroke:black; stroke-linecap:round; stroke-width:0.25;"/>
<line x1="60.000000" y1="114.000000" x2="70.000000" y2="114.000000"  style="stroke:black; stroke-linecap:round; stroke-width:0.25;"/>
<line x1="60.000000" y1="154.000000" x2="70.000000" y2="154.000000"  style="stroke:black; stroke-linecap:round; stroke-width:0.25;"/>
<line x1="60.000000" y1="178.000000" x2="60.000000" y2="194.000000"  style="stroke:black; stroke-linecap:round; stroke-width:0.25;"/>
<line x1="60.000000" y1="194.000000" x2="60.000000" y2="194.000000"  style="stroke:black; stroke-linecap:round; stroke-width:0.25;"/>
<line x1="60.000000" y1="194.000000" x2="70.000000" y2="194.000000"  style="stroke:black; stroke-linecap:round; stroke-width:0.25;"/>
<line x1="60.000000" y1="234.000000" x2="70.000000" y2="234.000000"  style="stroke:black; stroke-linecap:round; stroke-width:0.25;"/>
<line x1="60.000000" y1="274.000000" x2="70.000000" y2="274.000000"  style="stroke:black; stroke-linecap:round; stroke-width:0.25;"/>
<line x1="70.000000" y1="34.000000" x2="86.900000" y2="34.000000"  style="stroke:black; stroke-linecap:round; stroke-width:0.25;"/>
<line x1="70.000000" y1="74.000000" x2="86.900000" y2="74.000000"  style="stroke:black; stroke-linecap:round; stroke-width:0.25;"/>
<line x1="70.000000" y1="114.000000" x2="86.900000" y2="114.000000"  style="stroke:black; stroke-linecap:round; stroke-width:0.25;"/>
<line x1="70.000000" y1="154.000000" x2="86.900000" y2="154.000000"  style="stroke:black; stroke-linecap:round; stroke-width:0.25;"/>
<line x1="70.000000" y1="194.000000" x2="86.900000" y2="194.000000"  style="stroke:black; stroke-linecap:round; stroke-width:0.25;"/>
<line x1="70.000000" y1="234.000000" x2="86.900000" y2="234.000000"  style="stroke:black; stroke-linecap:round; stroke-width:0.25;"/>
<line x1="70.000000" y1="274.000000" x2="86.900000" y2="274.000000"  style="stroke:black; stroke-linecap:round; stroke-width:0.25;"/>
<line x1="86.900000" y1="34.000000" x2="103.800000" y2="34.000000"  style="stroke:black; stroke-linecap:round; stroke-width:0.25;"/>
<line x1="86.900000" y1="74.000000" x2="103.800000" y2="74.000000"  style="stroke:black; stroke-linecap:round; stroke-width:0.25;"/>
<line x1="86.900000" y1="114.000000" x2="103.800000" y2="114.000000"  style="stroke:black; stroke-linecap:round; stroke-width:0.25;"/>
<line x1="86.900000" y1="154.000000" x2="103.800000" y2="154.000000"  style="stroke:black; stroke-linecap:round; stroke-width:0.25;"/>
<line x1="86.900000" y1="194.000000" x2="103.800000" y2="194.000000"  style="stroke:black; stroke-linecap:round; stroke-width:0.25;"/>
<line x1="86.900000" y1="234.000000" x2="103.800000" y2="234.000000"  style="stroke:black; stroke-linecap:round; stroke-width:0.25;"/>
<line x1="86.900000" y1="274.000000" x2="103.800000" y2="274.000000"  style="stroke:black; stroke-linecap:round; stroke-width:0.25;"/>
<line x1="99.800000" y1="54.000000" x2="103.800000" y2="54.000000"  style="stroke:black; stroke-linecap:round; stroke-width:0.25;"/>
<line x1="99.800000" y1="94.000000" x2="103.800000" y2="94.000000"  style="stroke:black; stroke-linecap:round; stroke-width:0.25;"/>
<line x1="99.800000" y1="134.000000" x2="103.800000" y2="134.000000"  style="stroke:black; stroke-linecap:round; stroke-width:0.25;"/>
<line x1="99.800000" y1="174.000000" x2="103.800000" y2="174.000000"  style="stroke:black; stroke-linecap:round; stroke-width:0.25;"/>
<line x1="99.800000" y1="214.000000" x2="103.800000" y2="214.000000"  style="stroke:black; stroke-linecap:round; stroke-width:0.25;"/>
<line x1="99.800000" y1="254.000000" x2="103.800000" y2="254.000000"  style="stroke:black; stroke-linecap:round; stroke-width:0.25;"/>
<line x1="99.800000" y1="294.000000" x2="103.800000" y2="294.000000"  style="stroke:black; stroke-linecap:round; stroke-width:0.25;"/>
<line x1="103.800000" y1="54.000000" x2="111.800000" y2="54.000000"  style="stroke:black; stroke-linecap:round; stroke-width:0.25;"/>
<line x1="103.800000" y1="94.000000" x2="111.800000" y2="94.000000"  style="stroke:black; stroke-linecap:round; stroke-width:0.25;"/>
<line x1="103.800000" y1="134.000000" x2="111.800000" y2="134.000000"  style="stroke:black; stroke-linecap:round; stroke-width:0.25;"/>
<line x1="103.800000" y1="174.000000" x2="111.800000" y2="174.000000"  style="stroke:black; stroke-linecap:round; stroke-width:0.25;"/>
<line x1="103.800000" y1="214.000000" x2="111.800000" y2="214.000000"  style="stroke:black; stroke-linecap:round; stroke-width:0.25;"/>
<line x1="103.800000" y1="254.000000" x2="111.800000" y2="254.000000"  style="stroke:black; stroke-linecap:round; stroke-width:0.25;"/>
<line x1="103.800000" y1="294.000000" x2="111.800000" y2="294.000000"  style="stroke:black; stroke-linecap:round; stroke-width:0.25;"/>
<line x1="103.800000" y1="34.000000" x2="111.800000" y2="34.000000"  style="stroke:black; stroke-linecap:round; stroke-width:0.25;"/>
<line x1="103.800000" y1="74.000000" x2="111.800000" y2="74.000000"  style="stroke:black; stroke-linecap:round; stroke-width:0.25;"/>
<line x1="103.800000" y1="114.000000" x2="111.800000" y2="114.000000"  style="stroke:black; stroke-linecap:round; stroke-width:0.25;"/>
<line x1="103.800000" y1="154.000000" x2="111.800000" y2="154.000000"  style="stroke:black; stroke-linecap:round; stroke-width:0.25;"/>
<line x1="103.800000" y1="194.000000" x2="111.800000" y2="194.000000"  style="stroke:black; stroke-linecap:round; stroke-width:0.25;"/>
<line x1="103.800000" y1="234.000000" x2="111.800000" y2="234.000000"  style="stroke:black; stroke-linecap:round; stroke-width:0.25;"/>
<line x1="103.800000" y1="274.000000" x2="111.800000" y2="274.000000"  style="stroke:black; stroke-linecap:round; stroke-width:0.25;"/>
<line x1="111.800000" y1="46.000000" x2="115.800000" y2="46.000000"  style="stroke:black; stroke-linecap:round; stroke-width:0.25;"/>
<line x1="111.800000" y1="54.000000" x2="115.800000" y2="54.000000"  style="stroke:black; stroke-linecap:round; stroke-width:0.25;"/>
<line x1="111.800000" y1="86.000000" x2="115.800000" y2="86.000000"  style="stroke:black; stroke-linecap:round; stroke-width:0.25;"/>
<line x1="111.800000" y1="94.000000" x2="115.800000" y2="94.000000"  style="stroke:black; stroke-linecap:round; stroke-width:0.25;"/>
<line x1="111.800000" y1="126.000000" x2="115.800000" y2="126.000000"  style="stroke:black; stroke-linecap:round; stroke-width:0.25;"/>
<line x1="111.800000" y1="134.000000" x2="115.800000" y2="134.000000"  style="stroke:black; stroke-linecap:round; stroke-width:0.25;"/>
<line x1="111.800000" y1="166.000000" x2="115.800000" y2="166.000000"  style="stroke:black; stroke-linecap:round; stroke-width:0.25;"/>
<line x1="111.800000" y1="174.000000" x2="115.800000" y2="174.000000"  style="stroke:black; stroke-linecap:round; stroke-width:0.25;"/>
<line x1="111.800000" y1="206.000000" x2="115.800000" y2="206.000000"  style="stroke:black; stroke-linecap:round; stroke-width:0.25;"/>
<line x1="111.800000" y1="214.000000" x2="115.800000" y2="214.000000"  style="stroke:black; stroke-linecap:round; stroke-width:0.25;"/>
<line x1="111.800000" y1="246.000000" x2="115.800000" y2="246.000000"  style="stroke:black; stroke-linecap:round; stroke-width:0.25;"/>
<line x1="111.800000" y1="254.000000" x2="115.800000" y2="254.000000"  style="stroke:black; stroke-linecap:round; stroke-width:0.25;"/>
<line x1="111.800000" y1="286.000000" x2="115.800000" y2="286.000000"  style="stroke:black; stroke-linecap:round; stroke-width:0.25;"/>
<line x1="111.800000" y1="294.000000" x2="115.800000" y2="294.000000"  style="stroke:black; stroke-linecap:round; stroke-width:0.25;"/>
<line x1="111.800000" y1="34.000000" x2="111.800000" y2="46.000000"  style="stroke:black; stroke-linecap:round; stroke-width:0.25;"/>
<line x1="111.800000" y1="46.000000" x2="111.800000" y2="46.000000"  style="stroke:black; stroke-linecap:round; stroke-width:0.25;"/>
<line x1="111.800000" y1="74.000000" x2="111.800000" y2="86.000000"  style="stroke:black; stroke-linecap:round; stroke-width:0.25;"/>
<line x1="111.800000" y1="86.000000" x2="111.800000" y2="86.000000"  style="stroke:black; stroke-linecap:round; stroke-width:0.25;"/>
<line x1="111.800000" y1="114.000000" x2="111.800000" y2="126.000000"  style="stroke:black; stroke-linecap:round; stroke-width:0.25;"/>
<line x1="111.800000" y1="126.000000" x2="111.800000" y2="126.000000"  style="stroke:black; stroke-linecap:round; stroke-width:0.25;"/>
<line x1="111.800000" y1="154.000000" x2="111.800000" y2="166.000000"  style="stroke:black; stroke-linecap:round; stroke-width:0.25;"/>
<line x1="111.800000" y1="166.000000" x2="111.800000" y2="166.000000"  style="stroke:black; stroke-linecap:round; stroke-width:0.25;"/>
<line x1="111.800000" y1="194.000000" x2="111.800000" y2="206.000000"  style="stroke:black; stroke-linecap:round; stroke-width:0.25;"/>
<line x1="111.800000" y1="206.000000" x2="111.800000" y2="206.000000"  style="stroke:black; stroke-linecap:round; stroke-width:0.25;"/>
<line x1="111.800000" y1="234.000000" x2="111.800000" y2="246.000000"  style="stroke:black; stroke-linecap:round; stroke-width:0.25;"/>
<line x1="111.800000" y1="246.000000" x2="111.800000" y2="246.000000"  style="stroke:black; stroke-linecap:round; stroke-width:0.25;"/>
<line x1="111.800000" y1="274.000000" x2="111.800000" y2="286.000000"  style="stroke:black; stroke-linecap:round; stroke-width:0.25;"/>
<line x1="111.800000" y1="286.000000" x2="111.800000" y2="286.000000"  style="stroke:black; stroke-linecap:round; stroke-width:0.25;"/>
<line x1="139.800000" y1="50.000000" x2="143.800000" y2="50.000000"  style="stroke:black; stroke-linecap:round; stroke-width:0.25;"/>
<line x1="139.800000" y1="90.000000" x2="143.800000" y2="90.000000"  style="stroke:black; stroke-linecap:round; stroke-width:0.25;"/>
<line x1="139.800000" y1="130.000000" x2="143.800000" y2="130.000000"  style="stroke:black; stroke-linecap:round; stroke-width:0.25;"/>
<line x1="139.800000" y1="170.000000" x2="143.800000" y2="170.000000"  style="stroke:black; stroke-linecap:round; stroke-width:0.25;"/>
<line x1="139.800000" y1="210.000000" x2="143.800000" y2="210.000000"  style="stroke:black; stroke-linecap:round; stroke-width:0.25;"/>
<line x1="139.800000" y1="250.000000" x2="143.800000" y2="250.000000"  style="stroke:black; stroke-linecap:round; stroke-width:0.25;"/>
<line x1="139.800000" y1="290.000000" x2="143.800000" y2="290.000000"  style="stroke:black; stroke-linecap:round; stroke-width:0.25;"/>
<line x1="143.800000" y1="50.000000" x2="153.800000" y2="50.000000"  style="stroke:black; stroke-linecap:round; stroke-width:0.25;"/>
<line x1="143.800000" y1="90.000000" x2="153.800000" y2="90.000000"  style="stroke:black; stroke-linecap:round; stroke-width:0.25;"/>
<line x1="143.800000" y1="130.000000" x2="153.800000" y2="130.000000"  style="stroke:black; stroke-linecap:round; stroke-width:0.25;"/>
<line x1="143.800000" y1="170.000000" x2="153.800000" y2="170.000000"  style="stroke:black; stroke-linecap:round; stroke-width:0.25;"/>
<line x1="143.800000" y1="210.000000" x2="153.800000" y2="210.000000"  style="stroke:black; stroke-linecap:round; stroke-width:0.25;"/>
<line x1="143.800000" y1="250.000000" x2="153.800000" y2="250.000000"  style="stroke:black; stroke-linecap:round; stroke-width:0.25;"/>
<line x1="143.800000" y1="290.000000" x2="153.800000" y2="290.000000"  style="stroke:black; stroke-linecap:round; stroke-width:0.25;"/>
<line x1="153.800000" y1="50.000000" x2="177.800000" y2="50.000000"  style="stroke:black; stroke-linecap:round; stroke-width:0.25;"/>
<line x1="153.800000" y1="90.000000" x2="169.800000" y2="90.000000"  style="stroke:black; stroke-linecap:round; stroke-width:0.25;"/>
<line x1="153.800000" y1="130.000000" x2="161.800000" y2="130.000000"  style="stroke:black; stroke-linecap:round; stroke-width:0.25;"/>
<line x1="153.800000" y1="170.000000" x2="177.800000" y2="170.000000"  style="stroke:black; stroke-linecap:round; stroke-width:0.25;"/>
<line x1="153.800000" y1="178.000000" x2="177.800000" y2="178.000000"  style="stroke:black; stroke-linecap:round; stroke-width:0.25;"/>
<line x1="153.800000" y1="210.000000" x2="153.800000" y2="178.000000"  style="stroke:black; stroke-linecap:round; stroke-width:0.25;"/>
<line x1="153.800000" y1="210.000000" x2="153.800000" y2="210.000000"  style="stroke:black; stroke-linecap:round; stroke-width:0.25;"/>
<line x1="153.800000" y1="250.000000" x2="161.800000" y2="250.000000"  style="stroke:black; stroke-linecap:round; stroke-width:0.25;"/>
<line x1="153.800000" y1="290.000000" x2="169.800000" y2="290.000000"  style="stroke:black; stroke-linecap:round; stroke-width:0.25;"/>
<line x1="161.800000" y1="130.000000" x2="161.800000" y2="162.000000"  style="stroke:black; stroke-linecap:round; stroke-width:0.25;"/>
<line x1="161.800000" y1="162.000000" x2="177.800000" y2="162.000000"  style="stroke:black; stroke-linecap:round; stroke-width:0.25;"/>
<line x1="161.800000" y1="186.000000" x2="177.800000" y2="186.000000"  style="stroke:black; stroke-linecap:round; stroke-width:0.25;"/>
<line x1="161.800000" y1="250.000000" x2="161.800000" y2="186.000000"  style="stroke:black; stroke-linecap:round; stroke-width:0.25;"/>
<line x1="169.800000" y1="90.000000" x2="169.800000" y2="154.000000"  style="stroke:black; stroke-linecap:round; stroke-width:0.25;"/>
<line x1="169.800000" y1="154.000000" x2="177.800000" y2="154.000000"  style="stroke:black; stroke-linecap:round; stroke-width:0.25;"/>
<line x1="169.800000" y1="194.000000" x2="177.800000" y2="194.000000"  style="stroke:black; stroke-linecap:round; stroke-width:0.25;"/>
<line x1="169.800000" y1="290.000000" x2="169.800000" y2="194.000000"  style="stroke:black; stroke-linecap:round; stroke-width:0.25;"/>
<line x1="177.800000" y1="50.000000" x2="177.800000" y2="146.000000"  style="stroke:black; stroke-linecap:round; stroke-width:0.25;"/>
<line x1="177.800000" y1="146.000000" x2="177.800000" y2="146.000000"  style="stroke:black; stroke-linecap:round; stroke-width:0.25;"/>
<line x1="177.800000" y1="146.000000" x2="181.800000" y2="146.000000"  style="stroke:black; stroke-linecap:round; stroke-width:0.25;"/>
<line x1="177.800000" y1="154.000000" x2="181.800000" y2="154.000000"  style="stroke:black; stroke-linecap:round; stroke-width:0.25;"/>
<line x1="177.800000" y1="162.000000" x2="181.800000" y2="162.000000"  style="stroke:black; stroke-linecap:round; stroke-width:0.25;"/>
<line x1="177.800000" y1="170.000000" x2="181.800000" y2="170.000000"  style="stroke:black; stroke-linecap:round; stroke-width:0.25;"/>
<line x1="177.800000" y1="178.000000" x2="181.800000" y2="178.000000"  style="stroke:black; stroke-linecap:round; stroke-width:0.25;"/>
<line x1="177.800000" y1="186.000000" x2="181.800000" y2="186.000000"  style="stroke:black; stroke-linecap:round; stroke-width:0.25;"/>
<line x1="177.800000" y1="194.000000" x2="181.800000" y2="194.000000"  style="stroke:black; stroke-linecap:round; stroke-width:0.25;"/>
<line x1="181.800000" y1="146.000000" x2="185.800000" y2="146.000000"  style="stroke:black; stroke-linecap:round; stroke-width:0.25;"/>
<line x1="181.800000" y1="154.000000" x2="185.800000" y2="154.000000"  style="stroke:black; stroke-linecap:round; stroke-width:0.25;"/>
<line x1="181.800000" y1="162.000000" x2="185.800000" y2="162.000000"  style="stroke:black; stroke-linecap:round; stroke-width:0.25;"/>
<line x1="181.800000" y1="170.000000" x2="185.800000" y2="170.000000"  style="stroke:black; stroke-linecap:round; stroke-width:0.25;"/>
<line x1="181.800000" y1="178.000000" x2="185.800000" y2="178.000000"  style="stroke:black; stroke-linecap:round; stroke-width:0.25;"/>
<line x1="181.800000" y1="186.000000" x2="185.800000" y2="186.000000"  style="stroke:black; stroke-linecap:round; stroke-width:0.25;"/>
<line x1="181.800000" y1="194.000000" x2="185.800000" y2="194.000000"  style="stroke:black; stroke-linecap:round; stroke-width:0.25;"/>
<line x1="185.800000" y1="146.000000" x2="195.800000" y2="146.000000"  style="stroke:black; stroke-linecap:round; stroke-width:0.25;"/>
<line x1="185.800000" y1="154.000000" x2="195.800000" y2="154.000000"  style="stroke:black; stroke-linecap:round; stroke-width:0.25;"/>
<line x1="185.800000" y1="162.000000" x2="195.800000" y2="162.000000"  style="stroke:black; stroke-linecap:round; stroke-width:0.25;"/>
<line x1="185.800000" y1="170.000000" x2="195.800000" y2="170.000000"  style="stroke:black; stroke-linecap:round; stroke-width:0.25;"/>
<line x1="185.800000" y1="178.000000" x2="195.800000" y2="178.000000"  style="stroke:black; stroke-linecap:round; stroke-width:0.25;"/>
<line x1="185.800000" y1="186.000000" x2="195.800000" y2="186.000000"  style="stroke:black; stroke-linecap:round; stroke-width:0.25;"/>
<line x1="185.800000" y1="194.000000" x2="195.800000" y2="194.000000"  style="stroke:black; stroke-linecap:round; stroke-width:0.25;"/>
</svg>
