<?xml version="1.0"?>
<svg xmlns="http://www.w3.org/2000/svg" xmlns:xlink="http://www.w3.org/1999/xlink" viewBox="0 0 436.000000 200.000000" width="218.000000mm" height="100.000000mm" version="1.1">
<a xlink:href="hal3-0x7f9ada01e260.svg">
<rect x="1.000000" y="1.000000" width="435.000000" height="199.000000" rx="0" ry="0" style="stroke:none;fill:#cccccc;"/>
<rect x="0.000000" y="0.000000" width="435.000000" height="199.000000" rx="0" ry="0" style="stroke:none;fill:#ffffff;"/>
</a>
<text x="10.000000" y="7.000000" font-family="Arial" font-size="7"></text>
<a xlink:href="scaler-0x7f9ad9f14370.svg">
<rect x="83.000000" y="33.000000" width="129.000000" height="24.000000" rx="0" ry="0" style="stroke:none;fill:#cccccc;"/>
<rect x="82.000000" y="32.000000" width="129.000000" height="24.000000" rx="0" ry="0" style="stroke:none;fill:#003366;"/>
</a>
<a xlink:href="scaler-0x7f9ad9f14370.svg">
<text x="146.500000" y="46.000000" font-family="Arial" font-size="7" text-anchor="middle" fill="#FFFFFF">scaler(0)(4)(...1.0f, 0.01f))</text>
</a>
<circle cx="84.000000" cy="34.000000" r="1"/>
<a xlink:href="smooth-0x7f9ad9b32c80.svg">
<rect x="220.000000" y="33.000000" width="129.000000" height="24.000000" rx="0" ry="0" style="stroke:none;fill:#cccccc;"/>
<rect x="219.000000" y="32.000000" width="129.000000" height="24.000000" rx="0" ry="0" style="stroke:none;fill:#003366;"/>
</a>
<a xlink:href="smooth-0x7f9ad9b32c80.svg">
<text x="283.500000" y="46.000000" font-family="Arial" font-size="7" text-anchor="middle" fill="#FFFFFF">smooth(0.99990000000000001f)</text>
</a>
<circle cx="221.000000" cy="34.000000" r="1"/>
<line x1="216.000000" y1="43.000000" x2="219.000000" y2="44.000000"  transform="rotate(0.000000,219.000000,44.000000)" style="stroke: black; stroke-width:0.25;"/>
<line x1="216.000000" y1="45.000000" x2="219.000000" y2="44.000000"  transform="rotate(0.000000,219.000000,44.000000)" style="stroke: black; stroke-width:0.25;"/>
<rect x="365.000000" y="29.000000" width="24.000000" height="24.000000" rx="0" ry="0" style="stroke:none;fill:#cccccc;"/>
<rect x="364.000000" y="28.000000" width="24.000000" height="24.000000" rx="0" ry="0" style="stroke:none;fill:#4B71A1;"/>
<text x="376.000000" y="42.000000" font-family="Arial" font-size="7" text-anchor="middle" fill="#FFFFFF">*</text>
<circle cx="366.000000" cy="30.000000" r="1"/>
<line x1="361.000000" y1="35.000000" x2="364.000000" y2="36.000000"  transform="rotate(0.000000,364.000000,36.000000)" style="stroke: black; stroke-width:0.25;"/>
<line x1="361.000000" y1="37.000000" x2="364.000000" y2="36.000000"  transform="rotate(0.000000,364.000000,36.000000)" style="stroke: black; stroke-width:0.25;"/>
<line x1="361.000000" y1="43.000000" x2="364.000000" y2="44.000000"  transform="rotate(0.000000,364.000000,44.000000)" style="stroke: black; stroke-width:0.25;"/>
<line x1="361.000000" y1="45.000000" x2="364.000000" y2="44.000000"  transform="rotate(0.000000,364.000000,44.000000)" style="stroke: black; stroke-width:0.25;"/>
<a xlink:href="scaler-0x7f9ad9f081c0.svg">
<rect x="83.000000" y="73.000000" width="129.000000" height="24.000000" rx="0" ry="0" style="stroke:none;fill:#cccccc;"/>
<rect x="82.000000" y="72.000000" width="129.000000" height="24.000000" rx="0" ry="0" style="stroke:none;fill:#003366;"/>
</a>
<a xlink:href="scaler-0x7f9ad9f081c0.svg">
<text x="146.500000" y="86.000000" font-family="Arial" font-size="7" text-anchor="middle" fill="#FFFFFF">scaler(1)(4)(...1.0f, 0.01f))</text>
</a>
<circle cx="84.000000" cy="74.000000" r="1"/>
<a xlink:href="smooth-0x7f9ad9b32c80.svg">
<rect x="220.000000" y="73.000000" width="129.000000" height="24.000000" rx="0" ry="0" style="stroke:none;fill:#cccccc;"/>
<rect x="219.000000" y="72.000000" width="129.000000" height="24.000000" rx="0" ry="0" style="stroke:none;fill:#003366;"/>
</a>
<a xlink:href="smooth-0x7f9ad9b32c80.svg">
<text x="283.500000" y="86.000000" font-family="Arial" font-size="7" text-anchor="middle" fill="#FFFFFF">smooth(0.99990000000000001f)</text>
</a>
<circle cx="221.000000" cy="74.000000" r="1"/>
<line x1="216.000000" y1="83.000000" x2="219.000000" y2="84.000000"  transform="rotate(0.000000,219.000000,84.000000)" style="stroke: black; stroke-width:0.25;"/>
<line x1="216.000000" y1="85.000000" x2="219.000000" y2="84.000000"  transform="rotate(0.000000,219.000000,84.000000)" style="stroke: black; stroke-width:0.25;"/>
<rect x="365.000000" y="69.000000" width="24.000000" height="24.000000" rx="0" ry="0" style="stroke:none;fill:#cccccc;"/>
<rect x="364.000000" y="68.000000" width="24.000000" height="24.000000" rx="0" ry="0" style="stroke:none;fill:#4B71A1;"/>
<text x="376.000000" y="82.000000" font-family="Arial" font-size="7" text-anchor="middle" fill="#FFFFFF">*</text>
<circle cx="366.000000" cy="70.000000" r="1"/>
<line x1="361.000000" y1="75.000000" x2="364.000000" y2="76.000000"  transform="rotate(0.000000,364.000000,76.000000)" style="stroke: black; stroke-width:0.25;"/>
<line x1="361.000000" y1="77.000000" x2="364.000000" y2="76.000000"  transform="rotate(0.000000,364.000000,76.000000)" style="stroke: black; stroke-width:0.25;"/>
<line x1="361.000000" y1="83.000000" x2="364.000000" y2="84.000000"  transform="rotate(0.000000,364.000000,84.000000)" style="stroke: black; stroke-width:0.25;"/>
<line x1="361.000000" y1="85.000000" x2="364.000000" y2="84.000000"  transform="rotate(0.000000,364.000000,84.000000)" style="stroke: black; stroke-width:0.25;"/>
<a xlink:href="scaler-0x7f9ad9df7f90.svg">
<rect x="83.000000" y="113.000000" width="129.000000" height="24.000000" rx="0" ry="0" style="stroke:none;fill:#cccccc;"/>
<rect x="82.000000" y="112.000000" width="129.000000" height="24.000000" rx="0" ry="0" style="stroke:none;fill:#003366;"/>
</a>
<a xlink:href="scaler-0x7f9ad9df7f90.svg">
<text x="146.500000" y="126.000000" font-family="Arial" font-size="7" text-anchor="middle" fill="#FFFFFF">scaler(2)(4)(...1.0f, 0.01f))</text>
</a>
<circle cx="84.000000" cy="114.000000" r="1"/>
<a xlink:href="smooth-0x7f9ad9b32c80.svg">
<rect x="220.000000" y="113.000000" width="129.000000" height="24.000000" rx="0" ry="0" style="stroke:none;fill:#cccccc;"/>
<rect x="219.000000" y="112.000000" width="129.000000" height="24.000000" rx="0" ry="0" style="stroke:none;fill:#003366;"/>
</a>
<a xlink:href="smooth-0x7f9ad9b32c80.svg">
<text x="283.500000" y="126.000000" font-family="Arial" font-size="7" text-anchor="middle" fill="#FFFFFF">smooth(0.99990000000000001f)</text>
</a>
<circle cx="221.000000" cy="114.000000" r="1"/>
<line x1="216.000000" y1="123.000000" x2="219.000000" y2="124.000000"  transform="rotate(0.000000,219.000000,124.000000)" style="stroke: black; stroke-width:0.25;"/>
<line x1="216.000000" y1="125.000000" x2="219.000000" y2="124.000000"  transform="rotate(0.000000,219.000000,124.000000)" style="stroke: black; stroke-width:0.25;"/>
<rect x="365.000000" y="109.000000" width="24.000000" height="24.000000" rx="0" ry="0" style="stroke:none;fill:#cccccc;"/>
<rect x="364.000000" y="108.000000" width="24.000000" height="24.000000" rx="0" ry="0" style="stroke:none;fill:#4B71A1;"/>
<text x="376.000000" y="122.000000" font-family="Arial" font-size="7" text-anchor="middle" fill="#FFFFFF">*</text>
<circle cx="366.000000" cy="110.000000" r="1"/>
<line x1="361.000000" y1="115.000000" x2="364.000000" y2="116.000000"  transform="rotate(0.000000,364.000000,116.000000)" style="stroke: black; stroke-width:0.25;"/>
<line x1="361.000000" y1="117.000000" x2="364.000000" y2="116.000000"  transform="rotate(0.000000,364.000000,116.000000)" style="stroke: black; stroke-width:0.25;"/>
<line x1="361.000000" y1="123.000000" x2="364.000000" y2="124.000000"  transform="rotate(0.000000,364.000000,124.000000)" style="stroke: black; stroke-width:0.25;"/>
<line x1="361.000000" y1="125.000000" x2="364.000000" y2="124.000000"  transform="rotate(0.000000,364.000000,124.000000)" style="stroke: black; stroke-width:0.25;"/>
<a xlink:href="scaler-0x7f9ad9debde0.svg">
<rect x="83.000000" y="153.000000" width="129.000000" height="24.000000" rx="0" ry="0" style="stroke:none;fill:#cccccc;"/>
<rect x="82.000000" y="152.000000" width="129.000000" height="24.000000" rx="0" ry="0" style="stroke:none;fill:#003366;"/>
</a>
<a xlink:href="scaler-0x7f9ad9debde0.svg">
<text x="146.500000" y="166.000000" font-family="Arial" font-size="7" text-anchor="middle" fill="#FFFFFF">scaler(3)(4)(...1.0f, 0.01f))</text>
</a>
<circle cx="84.000000" cy="154.000000" r="1"/>
<a xlink:href="smooth-0x7f9ad9b32c80.svg">
<rect x="220.000000" y="153.000000" width="129.000000" height="24.000000" rx="0" ry="0" style="stroke:none;fill:#cccccc;"/>
<rect x="219.000000" y="152.000000" width="129.000000" height="24.000000" rx="0" ry="0" style="stroke:none;fill:#003366;"/>
</a>
<a xlink:href="smooth-0x7f9ad9b32c80.svg">
<text x="283.500000" y="166.000000" font-family="Arial" font-size="7" text-anchor="middle" fill="#FFFFFF">smooth(0.99990000000000001f)</text>
</a>
<circle cx="221.000000" cy="154.000000" r="1"/>
<line x1="216.000000" y1="163.000000" x2="219.000000" y2="164.000000"  transform="rotate(0.000000,219.000000,164.000000)" style="stroke: black; stroke-width:0.25;"/>
<line x1="216.000000" y1="165.000000" x2="219.000000" y2="164.000000"  transform="rotate(0.000000,219.000000,164.000000)" style="stroke: black; stroke-width:0.25;"/>
<rect x="365.000000" y="149.000000" width="24.000000" height="24.000000" rx="0" ry="0" style="stroke:none;fill:#cccccc;"/>
<rect x="364.000000" y="148.000000" width="24.000000" height="24.000000" rx="0" ry="0" style="stroke:none;fill:#4B71A1;"/>
<text x="376.000000" y="162.000000" font-family="Arial" font-size="7" text-anchor="middle" fill="#FFFFFF">*</text>
<circle cx="366.000000" cy="150.000000" r="1"/>
<line x1="361.000000" y1="155.000000" x2="364.000000" y2="156.000000"  transform="rotate(0.000000,364.000000,156.000000)" style="stroke: black; stroke-width:0.25;"/>
<line x1="361.000000" y1="157.000000" x2="364.000000" y2="156.000000"  transform="rotate(0.000000,364.000000,156.000000)" style="stroke: black; stroke-width:0.25;"/>
<line x1="361.000000" y1="163.000000" x2="364.000000" y2="164.000000"  transform="rotate(0.000000,364.000000,164.000000)" style="stroke: black; stroke-width:0.25;"/>
<line x1="361.000000" y1="165.000000" x2="364.000000" y2="164.000000"  transform="rotate(0.000000,364.000000,164.000000)" style="stroke: black; stroke-width:0.25;"/>
<line x1="15.000000" y1="15.000000" x2="15.000000" y2="185.000000"  style="stroke: black; stroke-linecap:round; stroke-width:0.25; stroke-dasharray:3,3;"/>
<line x1="15.000000" y1="185.000000" x2="421.000000" y2="185.000000"  style="stroke: black; stroke-linecap:round; stroke-width:0.25; stroke-dasharray:3,3;"/>
<line x1="421.000000" y1="185.000000" x2="421.000000" y2="15.000000"  style="stroke: black; stroke-linecap:round; stroke-width:0.25; stroke-dasharray:3,3;"/>
<line x1="15.000000" y1="15.000000" x2="20.000000" y2="15.000000"  style="stroke: black; stroke-linecap:round; stroke-width:0.25; stroke-dasharray:3,3;"/>
<line x1="119.975000" y1="15.000000" x2="421.000000" y2="15.000000"  style="stroke: black; stroke-linecap:round; stroke-width:0.25; stroke-dasharray:3,3;"/>
<text x="20.000000" y="17.000000" font-family="Arial" font-size="7">spat(4)(closu...1.0f, 0.01f))</text>
<line x1="423.000000" y1="87.000000" x2="426.000000" y2="88.000000"  transform="rotate(0.000000,426.000000,88.000000)" style="stroke: black; stroke-width:0.25;"/>
<line x1="423.000000" y1="89.000000" x2="426.000000" y2="88.000000"  transform="rotate(0.000000,426.000000,88.000000)" style="stroke: black; stroke-width:0.25;"/>
<line x1="423.000000" y1="95.000000" x2="426.000000" y2="96.000000"  transform="rotate(0.000000,426.000000,96.000000)" style="stroke: black; stroke-width:0.25;"/>
<line x1="423.000000" y1="97.000000" x2="426.000000" y2="96.000000"  transform="rotate(0.000000,426.000000,96.000000)" style="stroke: black; stroke-width:0.25;"/>
<line x1="423.000000" y1="103.000000" x2="426.000000" y2="104.000000"  transform="rotate(0.000000,426.000000,104.000000)" style="stroke: black; stroke-width:0.25;"/>
<line x1="423.000000" y1="105.000000" x2="426.000000" y2="104.000000"  transform="rotate(0.000000,426.000000,104.000000)" style="stroke: black; stroke-width:0.25;"/>
<line x1="423.000000" y1="111.000000" x2="426.000000" y2="112.000000"  transform="rotate(0.000000,426.000000,112.000000)" style="stroke: black; stroke-width:0.25;"/>
<line x1="423.000000" y1="113.000000" x2="426.000000" y2="112.000000"  transform="rotate(0.000000,426.000000,112.000000)" style="stroke: black; stroke-width:0.25;"/>
<line x1="10.000000" y1="100.000000" x2="20.000000" y2="100.000000"  style="stroke:black; stroke-linecap:round; stroke-width:0.25;"/>
<line x1="20.000000" y1="100.000000" x2="24.000000" y2="100.000000"  style="stroke:black; stroke-linecap:round; stroke-width:0.25;"/>
<line x1="24.000000" y1="100.000000" x2="28.000000" y2="100.000000"  style="stroke:black; stroke-linecap:round; stroke-width:0.25;"/>
<line x1="28.000000" y1="100.000000" x2="28.000000" y2="100.000000"  style="stroke:black; stroke-linecap:round; stroke-width:0.25;"/>
<line x1="28.000000" y1="100.000000" x2="32.000000" y2="100.000000"  style="stroke:black; stroke-linecap:round; stroke-width:0.25;"/>
<line x1="32.000000" y1="100.000000" x2="36.000000" y2="100.000000"  style="stroke:black; stroke-linecap:round; stroke-width:0.25;"/>
<line x1="36.000000" y1="100.000000" x2="78.000000" y2="24.000000"  style="stroke:black; stroke-linecap:round; stroke-width:0.25;"/>
<line x1="36.000000" y1="100.000000" x2="78.000000" y2="64.000000"  style="stroke:black; stroke-linecap:round; stroke-width:0.25;"/>
<line x1="36.000000" y1="100.000000" x2="78.000000" y2="104.000000"  style="stroke:black; stroke-linecap:round; stroke-width:0.25;"/>
<line x1="36.000000" y1="100.000000" x2="78.000000" y2="144.000000"  style="stroke:black; stroke-linecap:round; stroke-width:0.25;"/>
<line x1="78.000000" y1="24.000000" x2="215.000000" y2="24.000000"  style="stroke:black; stroke-linecap:round; stroke-width:0.25;"/>
<line x1="78.000000" y1="64.000000" x2="215.000000" y2="64.000000"  style="stroke:black; stroke-linecap:round; stroke-width:0.25;"/>
<line x1="78.000000" y1="104.000000" x2="215.000000" y2="104.000000"  style="stroke:black; stroke-linecap:round; stroke-width:0.25;"/>
<line x1="78.000000" y1="144.000000" x2="215.000000" y2="144.000000"  style="stroke:black; stroke-linecap:round; stroke-width:0.25;"/>
<line x1="211.000000" y1="44.000000" x2="215.000000" y2="44.000000"  style="stroke:black; stroke-linecap:round; stroke-width:0.25;"/>
<line x1="211.000000" y1="84.000000" x2="215.000000" y2="84.000000"  style="stroke:black; stroke-linecap:round; stroke-width:0.25;"/>
<line x1="211.000000" y1="124.000000" x2="215.000000" y2="124.000000"  style="stroke:black; stroke-linecap:round; stroke-width:0.25;"/>
<line x1="211.000000" y1="164.000000" x2="215.000000" y2="164.000000"  style="stroke:black; stroke-linecap:round; stroke-width:0.25;"/>
<line x1="215.000000" y1="24.000000" x2="352.000000" y2="24.000000"  style="stroke:black; stroke-linecap:round; stroke-width:0.25;"/>
<line x1="215.000000" y1="44.000000" x2="215.000000" y2="44.000000"  style="stroke:black; stroke-linecap:round; stroke-width:0.25;"/>
<line x1="215.000000" y1="44.000000" x2="219.000000" y2="44.000000"  style="stroke:black; stroke-linecap:round; stroke-width:0.25;"/>
<line x1="215.000000" y1="64.000000" x2="352.000000" y2="64.000000"  style="stroke:black; stroke-linecap:round; stroke-width:0.25;"/>
<line x1="215.000000" y1="84.000000" x2="215.000000" y2="84.000000"  style="stroke:black; stroke-linecap:round; stroke-width:0.25;"/>
<line x1="215.000000" y1="84.000000" x2="219.000000" y2="84.000000"  style="stroke:black; stroke-linecap:round; stroke-width:0.25;"/>
<line x1="215.000000" y1="104.000000" x2="352.000000" y2="104.000000"  style="stroke:black; stroke-linecap:round; stroke-width:0.25;"/>
<line x1="215.000000" y1="124.000000" x2="215.000000" y2="124.000000"  style="stroke:black; stroke-linecap:round; stroke-width:0.25;"/>
<line x1="215.000000" y1="124.000000" x2="219.000000" y2="124.000000"  style="stroke:black; stroke-linecap:round; stroke-width:0.25;"/>
<line x1="215.000000" y1="144.000000" x2="352.000000" y2="144.000000"  style="stroke:black; stroke-linecap:round; stroke-width:0.25;"/>
<line x1="215.000000" y1="164.000000" x2="215.000000" y2="164.000000"  style="stroke:black; stroke-linecap:round; stroke-width:0.25;"/>
<line x1="215.000000" y1="164.000000" x2="219.000000" y2="164.000000"  style="stroke:black; stroke-linecap:round; stroke-width:0.25;"/>
<line x1="348.000000" y1="44.000000" x2="352.000000" y2="44.000000"  style="stroke:black; stroke-linecap:round; stroke-width:0.25;"/>
<line x1="348.000000" y1="84.000000" x2="352.000000" y2="84.000000"  style="stroke:black; stroke-linecap:round; stroke-width:0.25;"/>
<line x1="348.000000" y1="124.000000" x2="352.000000" y2="124.000000"  style="stroke:black; stroke-linecap:round; stroke-width:0.25;"/>
<line x1="348.000000" y1="164.000000" x2="352.000000" y2="164.000000"  style="stroke:black; stroke-linecap:round; stroke-width:0.25;"/>
<line x1="352.000000" y1="24.000000" x2="360.000000" y2="24.000000"  style="stroke:black; stroke-linecap:round; stroke-width:0.25;"/>
<line x1="352.000000" y1="44.000000" x2="360.000000" y2="44.000000"  style="stroke:black; stroke-linecap:round; stroke-width:0.25;"/>
<line x1="352.000000" y1="64.000000" x2="360.000000" y2="64.000000"  style="stroke:black; stroke-linecap:round; stroke-width:0.25;"/>
<line x1="352.000000" y1="84.000000" x2="360.000000" y2="84.000000"  style="stroke:black; stroke-linecap:round; stroke-width:0.25;"/>
<line x1="352.000000" y1="104.000000" x2="360.000000" y2="104.000000"  style="stroke:black; stroke-linecap:round; stroke-width:0.25;"/>
<line x1="352.000000" y1="124.000000" x2="360.000000" y2="124.000000"  style="stroke:black; stroke-linecap:round; stroke-width:0.25;"/>
<line x1="352.000000" y1="144.000000" x2="360.000000" y2="144.000000"  style="stroke:black; stroke-linecap:round; stroke-width:0.25;"/>
<line x1="352.000000" y1="164.000000" x2="360.000000" y2="164.000000"  style="stroke:black; stroke-linecap:round; stroke-width:0.25;"/>
<line x1="360.000000" y1="24.000000" x2="360.000000" y2="36.000000"  style="stroke:black; stroke-linecap:round; stroke-width:0.25;"/>
<line x1="360.000000" y1="36.000000" x2="360.000000" y2="36.000000"  style="stroke:black; stroke-linecap:round; stroke-width:0.25;"/>
<line x1="360.000000" y1="36.000000" x2="364.000000" y2="36.000000"  style="stroke:black; stroke-linecap:round; stroke-width:0.25;"/>
<line x1="360.000000" y1="44.000000" x2="364.000000" y2="44.000000"  style="stroke:black; stroke-linecap:round; stroke-width:0.25;"/>
<line x1="360.000000" y1="64.000000" x2="360.000000" y2="76.000000"  style="stroke:black; stroke-linecap:round; stroke-width:0.25;"/>
<line x1="360.000000" y1="76.000000" x2="360.000000" y2="76.000000"  style="stroke:black; stroke-linecap:round; stroke-width:0.25;"/>
<line x1="360.000000" y1="76.000000" x2="364.000000" y2="76.000000"  style="stroke:black; stroke-linecap:round; stroke-width:0.25;"/>
<line x1="360.000000" y1="84.000000" x2="364.000000" y2="84.000000"  style="stroke:black; stroke-linecap:round; stroke-width:0.25;"/>
<line x1="360.000000" y1="104.000000" x2="360.000000" y2="116.000000"  style="stroke:black; stroke-linecap:round; stroke-width:0.25;"/>
<line x1="360.000000" y1="116.000000" x2="360.000000" y2="116.000000"  style="stroke:black; stroke-linecap:round; stroke-width:0.25;"/>
<line x1="360.000000" y1="116.000000" x2="364.000000" y2="116.000000"  style="stroke:black; stroke-linecap:round; stroke-width:0.25;"/>
<line x1="360.000000" y1="124.000000" x2="364.000000" y2="124.000000"  style="stroke:black; stroke-linecap:round; stroke-width:0.25;"/>
<line x1="360.000000" y1="144.000000" x2="360.000000" y2="156.000000"  style="stroke:black; stroke-linecap:round; stroke-width:0.25;"/>
<line x1="360.000000" y1="156.000000" x2="360.000000" y2="156.000000"  style="stroke:black; stroke-linecap:round; stroke-width:0.25;"/>
<line x1="360.000000" y1="156.000000" x2="364.000000" y2="156.000000"  style="stroke:black; stroke-linecap:round; stroke-width:0.25;"/>
<line x1="360.000000" y1="164.000000" x2="364.000000" y2="164.000000"  style="stroke:black; stroke-linecap:round; stroke-width:0.25;"/>
<line x1="388.000000" y1="40.000000" x2="392.000000" y2="40.000000"  style="stroke:black; stroke-linecap:round; stroke-width:0.25;"/>
<line x1="388.000000" y1="80.000000" x2="392.000000" y2="80.000000"  style="stroke:black; stroke-linecap:round; stroke-width:0.25;"/>
<line x1="388.000000" y1="120.000000" x2="392.000000" y2="120.000000"  style="stroke:black; stroke-linecap:round; stroke-width:0.25;"/>
<line x1="388.000000" y1="160.000000" x2="392.000000" y2="160.000000"  style="stroke:black; stroke-linecap:round; stroke-width:0.25;"/>
<line x1="392.000000" y1="40.000000" x2="408.000000" y2="40.000000"  style="stroke:black; stroke-linecap:round; stroke-width:0.25;"/>
<line x1="392.000000" y1="80.000000" x2="400.000000" y2="80.000000"  style="stroke:black; stroke-linecap:round; stroke-width:0.25;"/>
<line x1="392.000000" y1="104.000000" x2="408.000000" y2="104.000000"  style="stroke:black; stroke-linecap:round; stroke-width:0.25;"/>
<line x1="392.000000" y1="120.000000" x2="392.000000" y2="104.000000"  style="stroke:black; stroke-linecap:round; stroke-width:0.25;"/>
<line x1="392.000000" y1="120.000000" x2="392.000000" y2="120.000000"  style="stroke:black; stroke-linecap:round; stroke-width:0.25;"/>
<line x1="392.000000" y1="160.000000" x2="400.000000" y2="160.000000"  style="stroke:black; stroke-linecap:round; stroke-width:0.25;"/>
<line x1="400.000000" y1="80.000000" x2="400.000000" y2="96.000000"  style="stroke:black; stroke-linecap:round; stroke-width:0.25;"/>
<line x1="400.000000" y1="96.000000" x2="408.000000" y2="96.000000"  style="stroke:black; stroke-linecap:round; stroke-width:0.25;"/>
<line x1="400.000000" y1="112.000000" x2="408.000000" y2="112.000000"  style="stroke:black; stroke-linecap:round; stroke-width:0.25;"/>
<line x1="400.000000" y1="160.000000" x2="400.000000" y2="112.000000"  style="stroke:black; stroke-linecap:round; stroke-width:0.25;"/>
<line x1="408.000000" y1="40.000000" x2="408.000000" y2="88.000000"  style="stroke:black; stroke-linecap:round; stroke-width:0.25;"/>
<line x1="408.000000" y1="88.000000" x2="408.000000" y2="88.000000"  style="stroke:black; stroke-linecap:round; stroke-width:0.25;"/>
<line x1="408.000000" y1="88.000000" x2="412.000000" y2="88.000000"  style="stroke:black; stroke-linecap:round; stroke-width:0.25;"/>
<line x1="408.000000" y1="96.000000" x2="412.000000" y2="96.000000"  style="stroke:black; stroke-linecap:round; stroke-width:0.25;"/>
<line x1="408.000000" y1="104.000000" x2="412.000000" y2="104.000000"  style="stroke:black; stroke-linecap:round; stroke-width:0.25;"/>
<line x1="408.000000" y1="112.000000" x2="412.000000" y2="112.000000"  style="stroke:black; stroke-linecap:round; stroke-width:0.25;"/>
<line x1="412.000000" y1="88.000000" x2="416.000000" y2="88.000000"  style="stroke:black; stroke-linecap:round; stroke-width:0.25;"/>
<line x1="412.000000" y1="96.000000" x2="416.000000" y2="96.000000"  style="stroke:black; stroke-linecap:round; stroke-width:0.25;"/>
<line x1="412.000000" y1="104.000000" x2="416.000000" y2="104.000000"  style="stroke:black; stroke-linecap:round; stroke-width:0.25;"/>
<line x1="412.000000" y1="112.000000" x2="416.000000" y2="112.000000"  style="stroke:black; stroke-linecap:round; stroke-width:0.25;"/>
<line x1="416.000000" y1="88.000000" x2="426.000000" y2="88.000000"  style="stroke:black; stroke-linecap:round; stroke-width:0.25;"/>
<line x1="416.000000" y1="96.000000" x2="426.000000" y2="96.000000"  style="stroke:black; stroke-linecap:round; stroke-width:0.25;"/>
<line x1="416.000000" y1="104.000000" x2="426.000000" y2="104.000000"  style="stroke:black; stroke-linecap:round; stroke-width:0.25;"/>
<line x1="416.000000" y1="112.000000" x2="426.000000" y2="112.000000"  style="stroke:black; stroke-linecap:round; stroke-width:0.25;"/>
</svg>
