<?xml version="1.0"?>
<svg xmlns="http://www.w3.org/2000/svg" xmlns:xlink="http://www.w3.org/1999/xlink" viewBox="0 0 548.200000 388.000000" width="274.100000mm" height="194.000000mm" version="1.1">
<a xlink:href="harmonizer-0x7fd9fd065490.svg">
<rect x="1.000000" y="1.000000" width="547.200000" height="387.000000" rx="0" ry="0" style="stroke:none;fill:#cccccc;"/>
<rect x="0.000000" y="0.000000" width="547.200000" height="387.000000" rx="0" ry="0" style="stroke:none;fill:#ffffff;"/>
</a>
<text x="10.000000" y="7.000000" font-family="Arial" font-size="7"></text>
<rect x="33.000000" y="183.000000" width="24.000000" height="24.000000" rx="0" ry="0" style="stroke:none;fill:#cccccc;"/>
<rect x="32.000000" y="182.000000" width="24.000000" height="24.000000" rx="0" ry="0" style="stroke:none;fill:#47945E;"/>
<text x="44.000000" y="196.000000" font-family="Arial" font-size="7" text-anchor="middle" fill="#FFFFFF">sig</text>
<circle cx="34.000000" cy="184.000000" r="1"/>
<line x1="29.000000" y1="193.000000" x2="32.000000" y2="194.000000"  transform="rotate(0.000000,32.000000,194.000000)" style="stroke: black; stroke-width:0.25;"/>
<line x1="29.000000" y1="195.000000" x2="32.000000" y2="194.000000"  transform="rotate(0.000000,32.000000,194.000000)" style="stroke: black; stroke-width:0.25;"/>
<a xlink:href="fdelay-0x7fd9fd04a480.svg">
<rect x="173.700000" y="25.000000" width="154.800000" height="24.000000" rx="0" ry="0" style="stroke:none;fill:#cccccc;"/>
<rect x="172.700000" y="24.000000" width="154.800000" height="24.000000" rx="0" ry="0" style="stroke:none;fill:#003366;"/>
</a>
<a xlink:href="fdelay-0x7fd9fd04a480.svg">
<text x="250.100000" y="38.000000" font-family="Arial" font-size="7" text-anchor="middle" fill="#FFFFFF">fdelay(65536)...f) : fmod)~_)(x124)</text>
</a>
<circle cx="174.700000" cy="26.000000" r="1"/>
<a xlink:href="d-0x7fd9fd02b1f0.svg">
<rect x="189.100000" y="57.000000" width="24.000000" height="24.000000" rx="0" ry="0" style="stroke:none;fill:#cccccc;"/>
<rect x="188.100000" y="56.000000" width="24.000000" height="24.000000" rx="0" ry="0" style="stroke:none;fill:#003366;"/>
</a>
<a xlink:href="d-0x7fd9fd02b1f0.svg">
<text x="200.100000" y="70.000000" font-family="Arial" font-size="7" text-anchor="middle" fill="#FFFFFF">d</text>
</a>
<circle cx="190.100000" cy="58.000000" r="1"/>
<rect x="85.000000" y="89.000000" width="232.200000" height="24.000000" rx="0" ry="0" style="stroke:none;fill:#cccccc;"/>
<rect x="84.000000" y="88.000000" width="232.200000" height="24.000000" rx="0" ry="0" style="stroke:none;fill:#477881;"/>
<text x="200.100000" y="102.000000" font-family="Arial" font-size="7" text-anchor="middle" fill="#FFFFFF">hslider(xfade (samples), 10.0f, 1.0f, 10000.0f, 1.0f)</text>
<circle cx="86.000000" cy="90.000000" r="1"/>
<rect x="333.200000" y="73.000000" width="24.000000" height="24.000000" rx="0" ry="0" style="stroke:none;fill:#cccccc;"/>
<rect x="332.200000" y="72.000000" width="24.000000" height="24.000000" rx="0" ry="0" style="stroke:none;fill:#4B71A1;"/>
<text x="344.200000" y="86.000000" font-family="Arial" font-size="7" text-anchor="middle" fill="#FFFFFF">/</text>
<circle cx="334.200000" cy="74.000000" r="1"/>
<line x1="329.200000" y1="79.000000" x2="332.200000" y2="80.000000"  transform="rotate(0.000000,332.200000,80.000000)" style="stroke: black; stroke-width:0.25;"/>
<line x1="329.200000" y1="81.000000" x2="332.200000" y2="80.000000"  transform="rotate(0.000000,332.200000,80.000000)" style="stroke: black; stroke-width:0.25;"/>
<line x1="329.200000" y1="87.000000" x2="332.200000" y2="88.000000"  transform="rotate(0.000000,332.200000,88.000000)" style="stroke: black; stroke-width:0.25;"/>
<line x1="329.200000" y1="89.000000" x2="332.200000" y2="88.000000"  transform="rotate(0.000000,332.200000,88.000000)" style="stroke: black; stroke-width:0.25;"/>
<rect x="209.100000" y="131.000000" width="24.000000" height="24.000000" rx="0" ry="0" style="stroke:none;fill:#cccccc;"/>
<rect x="208.100000" y="130.000000" width="24.000000" height="24.000000" rx="0" ry="0" style="stroke:none;fill:#f44800;"/>
<text x="220.100000" y="144.000000" font-family="Arial" font-size="7" text-anchor="middle" fill="#FFFFFF">1</text>
<circle cx="210.100000" cy="132.000000" r="1"/>
<line x1="199.100000" y1="121.000000" x2="199.100000" y2="163.000000"  style="stroke: black; stroke-linecap:round; stroke-width:0.25; stroke-dasharray:3,3;"/>
<line x1="199.100000" y1="163.000000" x2="241.100000" y2="163.000000"  style="stroke: black; stroke-linecap:round; stroke-width:0.25; stroke-dasharray:3,3;"/>
<line x1="241.100000" y1="163.000000" x2="241.100000" y2="121.000000"  style="stroke: black; stroke-linecap:round; stroke-width:0.25; stroke-dasharray:3,3;"/>
<line x1="199.100000" y1="121.000000" x2="204.100000" y2="121.000000"  style="stroke: black; stroke-linecap:round; stroke-width:0.25; stroke-dasharray:3,3;"/>
<line x1="213.775000" y1="121.000000" x2="241.100000" y2="121.000000"  style="stroke: black; stroke-linecap:round; stroke-width:0.25; stroke-dasharray:3,3;"/>
<text x="204.100000" y="123.000000" font-family="Arial" font-size="7">S</text>
<rect x="383.200000" y="99.000000" width="24.000000" height="24.000000" rx="0" ry="0" style="stroke:none;fill:#cccccc;"/>
<rect x="382.200000" y="98.000000" width="24.000000" height="24.000000" rx="0" ry="0" style="stroke:none;fill:#4B71A1;"/>
<text x="394.200000" y="112.000000" font-family="Arial" font-size="7" text-anchor="middle" fill="#FFFFFF">min</text>
<circle cx="384.200000" cy="100.000000" r="1"/>
<line x1="379.200000" y1="105.000000" x2="382.200000" y2="106.000000"  transform="rotate(0.000000,382.200000,106.000000)" style="stroke: black; stroke-width:0.25;"/>
<line x1="379.200000" y1="107.000000" x2="382.200000" y2="106.000000"  transform="rotate(0.000000,382.200000,106.000000)" style="stroke: black; stroke-width:0.25;"/>
<line x1="379.200000" y1="113.000000" x2="382.200000" y2="114.000000"  transform="rotate(0.000000,382.200000,114.000000)" style="stroke: black; stroke-width:0.25;"/>
<line x1="379.200000" y1="115.000000" x2="382.200000" y2="114.000000"  transform="rotate(0.000000,382.200000,114.000000)" style="stroke: black; stroke-width:0.25;"/>
<line x1="373.200000" y1="89.000000" x2="373.200000" y2="131.000000"  style="stroke: black; stroke-linecap:round; stroke-width:0.25; stroke-dasharray:3,3;"/>
<line x1="373.200000" y1="131.000000" x2="415.200000" y2="131.000000"  style="stroke: black; stroke-linecap:round; stroke-width:0.25; stroke-dasharray:3,3;"/>
<line x1="415.200000" y1="131.000000" x2="415.200000" y2="89.000000"  style="stroke: black; stroke-linecap:round; stroke-width:0.25; stroke-dasharray:3,3;"/>
<line x1="373.200000" y1="89.000000" x2="378.200000" y2="89.000000"  style="stroke: black; stroke-linecap:round; stroke-width:0.25; stroke-dasharray:3,3;"/>
<line x1="397.550000" y1="89.000000" x2="415.200000" y2="89.000000"  style="stroke: black; stroke-linecap:round; stroke-width:0.25; stroke-dasharray:3,3;"/>
<text x="378.200000" y="91.000000" font-family="Arial" font-size="7">fmin</text>
<rect x="433.200000" y="83.000000" width="24.000000" height="24.000000" rx="0" ry="0" style="stroke:none;fill:#cccccc;"/>
<rect x="432.200000" y="82.000000" width="24.000000" height="24.000000" rx="0" ry="0" style="stroke:none;fill:#4B71A1;"/>
<text x="444.200000" y="96.000000" font-family="Arial" font-size="7" text-anchor="middle" fill="#FFFFFF">*</text>
<circle cx="434.200000" cy="84.000000" r="1"/>
<line x1="429.200000" y1="89.000000" x2="432.200000" y2="90.000000"  transform="rotate(0.000000,432.200000,90.000000)" style="stroke: black; stroke-width:0.25;"/>
<line x1="429.200000" y1="91.000000" x2="432.200000" y2="90.000000"  transform="rotate(0.000000,432.200000,90.000000)" style="stroke: black; stroke-width:0.25;"/>
<line x1="429.200000" y1="97.000000" x2="432.200000" y2="98.000000"  transform="rotate(0.000000,432.200000,98.000000)" style="stroke: black; stroke-width:0.25;"/>
<line x1="429.200000" y1="99.000000" x2="432.200000" y2="98.000000"  transform="rotate(0.000000,432.200000,98.000000)" style="stroke: black; stroke-width:0.25;"/>
<a xlink:href="fdelay-0x7fd9fd064030.svg">
<rect x="173.700000" y="173.000000" width="154.800000" height="24.000000" rx="0" ry="0" style="stroke:none;fill:#cccccc;"/>
<rect x="172.700000" y="172.000000" width="154.800000" height="24.000000" rx="0" ry="0" style="stroke:none;fill:#003366;"/>
</a>
<a xlink:href="fdelay-0x7fd9fd064030.svg">
<text x="250.100000" y="186.000000" font-family="Arial" font-size="7" text-anchor="middle" fill="#FFFFFF">fdelay(65536)...f, 1.0f) : +)(x124)</text>
</a>
<circle cx="174.700000" cy="174.000000" r="1"/>
<rect x="219.100000" y="215.000000" width="24.000000" height="24.000000" rx="0" ry="0" style="stroke:none;fill:#cccccc;"/>
<rect x="218.100000" y="214.000000" width="24.000000" height="24.000000" rx="0" ry="0" style="stroke:none;fill:#f44800;"/>
<text x="230.100000" y="228.000000" font-family="Arial" font-size="7" text-anchor="middle" fill="#FFFFFF">1</text>
<circle cx="220.100000" cy="216.000000" r="1"/>
<line x1="209.100000" y1="205.000000" x2="209.100000" y2="247.000000"  style="stroke: black; stroke-linecap:round; stroke-width:0.25; stroke-dasharray:3,3;"/>
<line x1="209.100000" y1="247.000000" x2="251.100000" y2="247.000000"  style="stroke: black; stroke-linecap:round; stroke-width:0.25; stroke-dasharray:3,3;"/>
<line x1="251.100000" y1="247.000000" x2="251.100000" y2="205.000000"  style="stroke: black; stroke-linecap:round; stroke-width:0.25; stroke-dasharray:3,3;"/>
<line x1="209.100000" y1="205.000000" x2="214.100000" y2="205.000000"  style="stroke: black; stroke-linecap:round; stroke-width:0.25; stroke-dasharray:3,3;"/>
<line x1="223.775000" y1="205.000000" x2="251.100000" y2="205.000000"  style="stroke: black; stroke-linecap:round; stroke-width:0.25; stroke-dasharray:3,3;"/>
<text x="214.100000" y="207.000000" font-family="Arial" font-size="7">S</text>
<a xlink:href="d-0x7fd9fd02b1f0.svg">
<rect x="169.100000" y="257.000000" width="24.000000" height="24.000000" rx="0" ry="0" style="stroke:none;fill:#cccccc;"/>
<rect x="168.100000" y="256.000000" width="24.000000" height="24.000000" rx="0" ry="0" style="stroke:none;fill:#003366;"/>
</a>
<a xlink:href="d-0x7fd9fd02b1f0.svg">
<text x="180.100000" y="270.000000" font-family="Arial" font-size="7" text-anchor="middle" fill="#FFFFFF">d</text>
</a>
<circle cx="170.100000" cy="258.000000" r="1"/>
<rect x="65.000000" y="289.000000" width="232.200000" height="24.000000" rx="0" ry="0" style="stroke:none;fill:#cccccc;"/>
<rect x="64.000000" y="288.000000" width="232.200000" height="24.000000" rx="0" ry="0" style="stroke:none;fill:#477881;"/>
<text x="180.100000" y="302.000000" font-family="Arial" font-size="7" text-anchor="middle" fill="#FFFFFF">hslider(xfade (samples), 10.0f, 1.0f, 10000.0f, 1.0f)</text>
<circle cx="66.000000" cy="290.000000" r="1"/>
<rect x="313.200000" y="273.000000" width="24.000000" height="24.000000" rx="0" ry="0" style="stroke:none;fill:#cccccc;"/>
<rect x="312.200000" y="272.000000" width="24.000000" height="24.000000" rx="0" ry="0" style="stroke:none;fill:#4B71A1;"/>
<text x="324.200000" y="286.000000" font-family="Arial" font-size="7" text-anchor="middle" fill="#FFFFFF">/</text>
<circle cx="314.200000" cy="274.000000" r="1"/>
<line x1="309.200000" y1="279.000000" x2="312.200000" y2="280.000000"  transform="rotate(0.000000,312.200000,280.000000)" style="stroke: black; stroke-width:0.25;"/>
<line x1="309.200000" y1="281.000000" x2="312.200000" y2="280.000000"  transform="rotate(0.000000,312.200000,280.000000)" style="stroke: black; stroke-width:0.25;"/>
<line x1="309.200000" y1="287.000000" x2="312.200000" y2="288.000000"  transform="rotate(0.000000,312.200000,288.000000)" style="stroke: black; stroke-width:0.25;"/>
<line x1="309.200000" y1="289.000000" x2="312.200000" y2="288.000000"  transform="rotate(0.000000,312.200000,288.000000)" style="stroke: black; stroke-width:0.25;"/>
<rect x="189.100000" y="331.000000" width="24.000000" height="24.000000" rx="0" ry="0" style="stroke:none;fill:#cccccc;"/>
<rect x="188.100000" y="330.000000" width="24.000000" height="24.000000" rx="0" ry="0" style="stroke:none;fill:#f44800;"/>
<text x="200.100000" y="344.000000" font-family="Arial" font-size="7" text-anchor="middle" fill="#FFFFFF">1</text>
<circle cx="190.100000" cy="332.000000" r="1"/>
<line x1="179.100000" y1="321.000000" x2="179.100000" y2="363.000000"  style="stroke: black; stroke-linecap:round; stroke-width:0.25; stroke-dasharray:3,3;"/>
<line x1="179.100000" y1="363.000000" x2="221.100000" y2="363.000000"  style="stroke: black; stroke-linecap:round; stroke-width:0.25; stroke-dasharray:3,3;"/>
<line x1="221.100000" y1="363.000000" x2="221.100000" y2="321.000000"  style="stroke: black; stroke-linecap:round; stroke-width:0.25; stroke-dasharray:3,3;"/>
<line x1="179.100000" y1="321.000000" x2="184.100000" y2="321.000000"  style="stroke: black; stroke-linecap:round; stroke-width:0.25; stroke-dasharray:3,3;"/>
<line x1="193.775000" y1="321.000000" x2="221.100000" y2="321.000000"  style="stroke: black; stroke-linecap:round; stroke-width:0.25; stroke-dasharray:3,3;"/>
<text x="184.100000" y="323.000000" font-family="Arial" font-size="7">S</text>
<rect x="363.200000" y="299.000000" width="24.000000" height="24.000000" rx="0" ry="0" style="stroke:none;fill:#cccccc;"/>
<rect x="362.200000" y="298.000000" width="24.000000" height="24.000000" rx="0" ry="0" style="stroke:none;fill:#4B71A1;"/>
<text x="374.200000" y="312.000000" font-family="Arial" font-size="7" text-anchor="middle" fill="#FFFFFF">min</text>
<circle cx="364.200000" cy="300.000000" r="1"/>
<line x1="359.200000" y1="305.000000" x2="362.200000" y2="306.000000"  transform="rotate(0.000000,362.200000,306.000000)" style="stroke: black; stroke-width:0.25;"/>
<line x1="359.200000" y1="307.000000" x2="362.200000" y2="306.000000"  transform="rotate(0.000000,362.200000,306.000000)" style="stroke: black; stroke-width:0.25;"/>
<line x1="359.200000" y1="313.000000" x2="362.200000" y2="314.000000"  transform="rotate(0.000000,362.200000,314.000000)" style="stroke: black; stroke-width:0.25;"/>
<line x1="359.200000" y1="315.000000" x2="362.200000" y2="314.000000"  transform="rotate(0.000000,362.200000,314.000000)" style="stroke: black; stroke-width:0.25;"/>
<line x1="353.200000" y1="289.000000" x2="353.200000" y2="331.000000"  style="stroke: black; stroke-linecap:round; stroke-width:0.25; stroke-dasharray:3,3;"/>
<line x1="353.200000" y1="331.000000" x2="395.200000" y2="331.000000"  style="stroke: black; stroke-linecap:round; stroke-width:0.25; stroke-dasharray:3,3;"/>
<line x1="395.200000" y1="331.000000" x2="395.200000" y2="289.000000"  style="stroke: black; stroke-linecap:round; stroke-width:0.25; stroke-dasharray:3,3;"/>
<line x1="353.200000" y1="289.000000" x2="358.200000" y2="289.000000"  style="stroke: black; stroke-linecap:round; stroke-width:0.25; stroke-dasharray:3,3;"/>
<line x1="377.550000" y1="289.000000" x2="395.200000" y2="289.000000"  style="stroke: black; stroke-linecap:round; stroke-width:0.25; stroke-dasharray:3,3;"/>
<text x="358.200000" y="291.000000" font-family="Arial" font-size="7">fmin</text>
<rect x="413.200000" y="273.000000" width="24.000000" height="24.000000" rx="0" ry="0" style="stroke:none;fill:#cccccc;"/>
<rect x="412.200000" y="272.000000" width="24.000000" height="24.000000" rx="0" ry="0" style="stroke:none;fill:#4B71A1;"/>
<text x="424.200000" y="286.000000" font-family="Arial" font-size="7" text-anchor="middle" fill="#FFFFFF">-</text>
<circle cx="414.200000" cy="274.000000" r="1"/>
<line x1="409.200000" y1="279.000000" x2="412.200000" y2="280.000000"  transform="rotate(0.000000,412.200000,280.000000)" style="stroke: black; stroke-width:0.25;"/>
<line x1="409.200000" y1="281.000000" x2="412.200000" y2="280.000000"  transform="rotate(0.000000,412.200000,280.000000)" style="stroke: black; stroke-width:0.25;"/>
<line x1="409.200000" y1="287.000000" x2="412.200000" y2="288.000000"  transform="rotate(0.000000,412.200000,288.000000)" style="stroke: black; stroke-width:0.25;"/>
<line x1="409.200000" y1="289.000000" x2="412.200000" y2="288.000000"  transform="rotate(0.000000,412.200000,288.000000)" style="stroke: black; stroke-width:0.25;"/>
<rect x="453.200000" y="257.000000" width="24.000000" height="24.000000" rx="0" ry="0" style="stroke:none;fill:#cccccc;"/>
<rect x="452.200000" y="256.000000" width="24.000000" height="24.000000" rx="0" ry="0" style="stroke:none;fill:#4B71A1;"/>
<text x="464.200000" y="270.000000" font-family="Arial" font-size="7" text-anchor="middle" fill="#FFFFFF">*</text>
<circle cx="454.200000" cy="258.000000" r="1"/>
<line x1="449.200000" y1="263.000000" x2="452.200000" y2="264.000000"  transform="rotate(0.000000,452.200000,264.000000)" style="stroke: black; stroke-width:0.25;"/>
<line x1="449.200000" y1="265.000000" x2="452.200000" y2="264.000000"  transform="rotate(0.000000,452.200000,264.000000)" style="stroke: black; stroke-width:0.25;"/>
<line x1="449.200000" y1="271.000000" x2="452.200000" y2="272.000000"  transform="rotate(0.000000,452.200000,272.000000)" style="stroke: black; stroke-width:0.25;"/>
<line x1="449.200000" y1="273.000000" x2="452.200000" y2="272.000000"  transform="rotate(0.000000,452.200000,272.000000)" style="stroke: black; stroke-width:0.25;"/>
<rect x="493.200000" y="183.000000" width="24.000000" height="24.000000" rx="0" ry="0" style="stroke:none;fill:#cccccc;"/>
<rect x="492.200000" y="182.000000" width="24.000000" height="24.000000" rx="0" ry="0" style="stroke:none;fill:#4B71A1;"/>
<text x="504.200000" y="196.000000" font-family="Arial" font-size="7" text-anchor="middle" fill="#FFFFFF">+</text>
<circle cx="494.200000" cy="184.000000" r="1"/>
<line x1="489.200000" y1="189.000000" x2="492.200000" y2="190.000000"  transform="rotate(0.000000,492.200000,190.000000)" style="stroke: black; stroke-width:0.25;"/>
<line x1="489.200000" y1="191.000000" x2="492.200000" y2="190.000000"  transform="rotate(0.000000,492.200000,190.000000)" style="stroke: black; stroke-width:0.25;"/>
<line x1="489.200000" y1="197.000000" x2="492.200000" y2="198.000000"  transform="rotate(0.000000,492.200000,198.000000)" style="stroke: black; stroke-width:0.25;"/>
<line x1="489.200000" y1="199.000000" x2="492.200000" y2="198.000000"  transform="rotate(0.000000,492.200000,198.000000)" style="stroke: black; stroke-width:0.25;"/>
<line x1="15.000000" y1="15.000000" x2="15.000000" y2="373.000000"  style="stroke: black; stroke-linecap:round; stroke-width:0.25; stroke-dasharray:3,3;"/>
<line x1="15.000000" y1="373.000000" x2="533.200000" y2="373.000000"  style="stroke: black; stroke-linecap:round; stroke-width:0.25; stroke-dasharray:3,3;"/>
<line x1="533.200000" y1="373.000000" x2="533.200000" y2="15.000000"  style="stroke: black; stroke-linecap:round; stroke-width:0.25; stroke-dasharray:3,3;"/>
<line x1="15.000000" y1="15.000000" x2="20.000000" y2="15.000000"  style="stroke: black; stroke-linecap:round; stroke-width:0.25; stroke-dasharray:3,3;"/>
<line x1="119.975000" y1="15.000000" x2="533.200000" y2="15.000000"  style="stroke: black; stroke-linecap:round; stroke-width:0.25; stroke-dasharray:3,3;"/>
<text x="20.000000" y="17.000000" font-family="Arial" font-size="7">transpose(hsl...0.0f, 0.01f))</text>
<line x1="535.200000" y1="193.000000" x2="538.200000" y2="194.000000"  transform="rotate(0.000000,538.200000,194.000000)" style="stroke: black; stroke-width:0.25;"/>
<line x1="535.200000" y1="195.000000" x2="538.200000" y2="194.000000"  transform="rotate(0.000000,538.200000,194.000000)" style="stroke: black; stroke-width:0.25;"/>
<line x1="10.000000" y1="194.000000" x2="20.000000" y2="194.000000"  style="stroke:black; stroke-linecap:round; stroke-width:0.25;"/>
<line x1="20.000000" y1="194.000000" x2="24.000000" y2="194.000000"  style="stroke:black; stroke-linecap:round; stroke-width:0.25;"/>
<line x1="24.000000" y1="194.000000" x2="28.000000" y2="194.000000"  style="stroke:black; stroke-linecap:round; stroke-width:0.25;"/>
<line x1="28.000000" y1="194.000000" x2="28.000000" y2="194.000000"  style="stroke:black; stroke-linecap:round; stroke-width:0.25;"/>
<line x1="28.000000" y1="194.000000" x2="32.000000" y2="194.000000"  style="stroke:black; stroke-linecap:round; stroke-width:0.25;"/>
<line x1="192.100000" y1="268.000000" x2="196.100000" y2="268.000000"  style="stroke:black; stroke-linecap:round; stroke-width:0.25;"/>
<line x1="196.100000" y1="268.000000" x2="300.200000" y2="268.000000"  style="stroke:black; stroke-linecap:round; stroke-width:0.25;"/>
<line x1="212.100000" y1="68.000000" x2="216.100000" y2="68.000000"  style="stroke:black; stroke-linecap:round; stroke-width:0.25;"/>
<line x1="212.100000" y1="342.000000" x2="216.100000" y2="342.000000"  style="stroke:black; stroke-linecap:round; stroke-width:0.25;"/>
<line x1="216.100000" y1="68.000000" x2="320.200000" y2="68.000000"  style="stroke:black; stroke-linecap:round; stroke-width:0.25;"/>
<line x1="216.100000" y1="342.000000" x2="226.100000" y2="342.000000"  style="stroke:black; stroke-linecap:round; stroke-width:0.25;"/>
<line x1="226.100000" y1="342.000000" x2="340.200000" y2="342.000000"  style="stroke:black; stroke-linecap:round; stroke-width:0.25;"/>
<line x1="232.100000" y1="142.000000" x2="236.100000" y2="142.000000"  style="stroke:black; stroke-linecap:round; stroke-width:0.25;"/>
<line x1="236.100000" y1="142.000000" x2="246.100000" y2="142.000000"  style="stroke:black; stroke-linecap:round; stroke-width:0.25;"/>
<line x1="242.100000" y1="226.000000" x2="246.100000" y2="226.000000"  style="stroke:black; stroke-linecap:round; stroke-width:0.25;"/>
<line x1="246.100000" y1="142.000000" x2="360.200000" y2="142.000000"  style="stroke:black; stroke-linecap:round; stroke-width:0.25;"/>
<line x1="246.100000" y1="226.000000" x2="256.100000" y2="226.000000"  style="stroke:black; stroke-linecap:round; stroke-width:0.25;"/>
<line x1="256.100000" y1="226.000000" x2="400.200000" y2="226.000000"  style="stroke:black; stroke-linecap:round; stroke-width:0.25;"/>
<line x1="296.200000" y1="300.000000" x2="300.200000" y2="300.000000"  style="stroke:black; stroke-linecap:round; stroke-width:0.25;"/>
<line x1="300.200000" y1="268.000000" x2="308.200000" y2="268.000000"  style="stroke:black; stroke-linecap:round; stroke-width:0.25;"/>
<line x1="300.200000" y1="288.000000" x2="308.200000" y2="288.000000"  style="stroke:black; stroke-linecap:round; stroke-width:0.25;"/>
<line x1="300.200000" y1="300.000000" x2="300.200000" y2="288.000000"  style="stroke:black; stroke-linecap:round; stroke-width:0.25;"/>
<line x1="300.200000" y1="300.000000" x2="300.200000" y2="300.000000"  style="stroke:black; stroke-linecap:round; stroke-width:0.25;"/>
<line x1="308.200000" y1="268.000000" x2="308.200000" y2="280.000000"  style="stroke:black; stroke-linecap:round; stroke-width:0.25;"/>
<line x1="308.200000" y1="280.000000" x2="308.200000" y2="280.000000"  style="stroke:black; stroke-linecap:round; stroke-width:0.25;"/>
<line x1="308.200000" y1="280.000000" x2="312.200000" y2="280.000000"  style="stroke:black; stroke-linecap:round; stroke-width:0.25;"/>
<line x1="308.200000" y1="288.000000" x2="312.200000" y2="288.000000"  style="stroke:black; stroke-linecap:round; stroke-width:0.25;"/>
<line x1="316.200000" y1="100.000000" x2="320.200000" y2="100.000000"  style="stroke:black; stroke-linecap:round; stroke-width:0.25;"/>
<line x1="320.200000" y1="68.000000" x2="328.200000" y2="68.000000"  style="stroke:black; stroke-linecap:round; stroke-width:0.25;"/>
<line x1="320.200000" y1="88.000000" x2="328.200000" y2="88.000000"  style="stroke:black; stroke-linecap:round; stroke-width:0.25;"/>
<line x1="320.200000" y1="100.000000" x2="320.200000" y2="88.000000"  style="stroke:black; stroke-linecap:round; stroke-width:0.25;"/>
<line x1="320.200000" y1="100.000000" x2="320.200000" y2="100.000000"  style="stroke:black; stroke-linecap:round; stroke-width:0.25;"/>
<line x1="327.500000" y1="36.000000" x2="331.500000" y2="36.000000"  style="stroke:black; stroke-linecap:round; stroke-width:0.25;"/>
<line x1="327.500000" y1="184.000000" x2="331.500000" y2="184.000000"  style="stroke:black; stroke-linecap:round; stroke-width:0.25;"/>
<line x1="328.200000" y1="68.000000" x2="328.200000" y2="80.000000"  style="stroke:black; stroke-linecap:round; stroke-width:0.25;"/>
<line x1="328.200000" y1="80.000000" x2="328.200000" y2="80.000000"  style="stroke:black; stroke-linecap:round; stroke-width:0.25;"/>
<line x1="328.200000" y1="80.000000" x2="332.200000" y2="80.000000"  style="stroke:black; stroke-linecap:round; stroke-width:0.25;"/>
<line x1="328.200000" y1="88.000000" x2="332.200000" y2="88.000000"  style="stroke:black; stroke-linecap:round; stroke-width:0.25;"/>
<line x1="331.500000" y1="36.000000" x2="420.200000" y2="36.000000"  style="stroke:black; stroke-linecap:round; stroke-width:0.25;"/>
<line x1="331.500000" y1="184.000000" x2="440.200000" y2="184.000000"  style="stroke:black; stroke-linecap:round; stroke-width:0.25;"/>
<line x1="336.200000" y1="284.000000" x2="340.200000" y2="284.000000"  style="stroke:black; stroke-linecap:round; stroke-width:0.25;"/>
<line x1="340.200000" y1="284.000000" x2="348.200000" y2="284.000000"  style="stroke:black; stroke-linecap:round; stroke-width:0.25;"/>
<line x1="340.200000" y1="314.000000" x2="348.200000" y2="314.000000"  style="stroke:black; stroke-linecap:round; stroke-width:0.25;"/>
<line x1="340.200000" y1="342.000000" x2="340.200000" y2="314.000000"  style="stroke:black; stroke-linecap:round; stroke-width:0.25;"/>
<line x1="340.200000" y1="342.000000" x2="340.200000" y2="342.000000"  style="stroke:black; stroke-linecap:round; stroke-width:0.25;"/>
<line x1="348.200000" y1="284.000000" x2="348.200000" y2="306.000000"  style="stroke:black; stroke-linecap:round; stroke-width:0.25;"/>
<line x1="348.200000" y1="306.000000" x2="348.200000" y2="306.000000"  style="stroke:black; stroke-linecap:round; stroke-width:0.25;"/>
<line x1="348.200000" y1="306.000000" x2="358.200000" y2="306.000000"  style="stroke:black; stroke-linecap:round; stroke-width:0.25;"/>
<line x1="348.200000" y1="314.000000" x2="358.200000" y2="314.000000"  style="stroke:black; stroke-linecap:round; stroke-width:0.25;"/>
<line x1="356.200000" y1="84.000000" x2="360.200000" y2="84.000000"  style="stroke:black; stroke-linecap:round; stroke-width:0.25;"/>
<line x1="358.200000" y1="306.000000" x2="362.200000" y2="306.000000"  style="stroke:black; stroke-linecap:round; stroke-width:0.25;"/>
<line x1="358.200000" y1="314.000000" x2="362.200000" y2="314.000000"  style="stroke:black; stroke-linecap:round; stroke-width:0.25;"/>
<line x1="360.200000" y1="84.000000" x2="368.200000" y2="84.000000"  style="stroke:black; stroke-linecap:round; stroke-width:0.25;"/>
<line x1="360.200000" y1="114.000000" x2="368.200000" y2="114.000000"  style="stroke:black; stroke-linecap:round; stroke-width:0.25;"/>
<line x1="360.200000" y1="142.000000" x2="360.200000" y2="114.000000"  style="stroke:black; stroke-linecap:round; stroke-width:0.25;"/>
<line x1="360.200000" y1="142.000000" x2="360.200000" y2="142.000000"  style="stroke:black; stroke-linecap:round; stroke-width:0.25;"/>
<line x1="368.200000" y1="84.000000" x2="368.200000" y2="106.000000"  style="stroke:black; stroke-linecap:round; stroke-width:0.25;"/>
<line x1="368.200000" y1="106.000000" x2="368.200000" y2="106.000000"  style="stroke:black; stroke-linecap:round; stroke-width:0.25;"/>
<line x1="368.200000" y1="106.000000" x2="378.200000" y2="106.000000"  style="stroke:black; stroke-linecap:round; stroke-width:0.25;"/>
<line x1="368.200000" y1="114.000000" x2="378.200000" y2="114.000000"  style="stroke:black; stroke-linecap:round; stroke-width:0.25;"/>
<line x1="378.200000" y1="106.000000" x2="382.200000" y2="106.000000"  style="stroke:black; stroke-linecap:round; stroke-width:0.25;"/>
<line x1="378.200000" y1="114.000000" x2="382.200000" y2="114.000000"  style="stroke:black; stroke-linecap:round; stroke-width:0.25;"/>
<line x1="386.200000" y1="310.000000" x2="390.200000" y2="310.000000"  style="stroke:black; stroke-linecap:round; stroke-width:0.25;"/>
<line x1="390.200000" y1="310.000000" x2="400.200000" y2="310.000000"  style="stroke:black; stroke-linecap:round; stroke-width:0.25;"/>
<line x1="400.200000" y1="288.000000" x2="408.200000" y2="288.000000"  style="stroke:black; stroke-linecap:round; stroke-width:0.25;"/>
<line x1="400.200000" y1="310.000000" x2="400.200000" y2="288.000000"  style="stroke:black; stroke-linecap:round; stroke-width:0.25;"/>
<line x1="400.200000" y1="310.000000" x2="400.200000" y2="310.000000"  style="stroke:black; stroke-linecap:round; stroke-width:0.25;"/>
<line x1="400.200000" y1="226.000000" x2="408.200000" y2="226.000000"  style="stroke:black; stroke-linecap:round; stroke-width:0.25;"/>
<line x1="406.200000" y1="110.000000" x2="410.200000" y2="110.000000"  style="stroke:black; stroke-linecap:round; stroke-width:0.25;"/>
<line x1="408.200000" y1="280.000000" x2="412.200000" y2="280.000000"  style="stroke:black; stroke-linecap:round; stroke-width:0.25;"/>
<line x1="408.200000" y1="288.000000" x2="412.200000" y2="288.000000"  style="stroke:black; stroke-linecap:round; stroke-width:0.25;"/>
<line x1="408.200000" y1="226.000000" x2="408.200000" y2="280.000000"  style="stroke:black; stroke-linecap:round; stroke-width:0.25;"/>
<line x1="408.200000" y1="280.000000" x2="408.200000" y2="280.000000"  style="stroke:black; stroke-linecap:round; stroke-width:0.25;"/>
<line x1="410.200000" y1="110.000000" x2="420.200000" y2="110.000000"  style="stroke:black; stroke-linecap:round; stroke-width:0.25;"/>
<line x1="420.200000" y1="36.000000" x2="428.200000" y2="36.000000"  style="stroke:black; stroke-linecap:round; stroke-width:0.25;"/>
<line x1="420.200000" y1="98.000000" x2="428.200000" y2="98.000000"  style="stroke:black; stroke-linecap:round; stroke-width:0.25;"/>
<line x1="420.200000" y1="110.000000" x2="420.200000" y2="98.000000"  style="stroke:black; stroke-linecap:round; stroke-width:0.25;"/>
<line x1="420.200000" y1="110.000000" x2="420.200000" y2="110.000000"  style="stroke:black; stroke-linecap:round; stroke-width:0.25;"/>
<line x1="428.200000" y1="36.000000" x2="428.200000" y2="90.000000"  style="stroke:black; stroke-linecap:round; stroke-width:0.25;"/>
<line x1="428.200000" y1="90.000000" x2="428.200000" y2="90.000000"  style="stroke:black; stroke-linecap:round; stroke-width:0.25;"/>
<line x1="428.200000" y1="90.000000" x2="432.200000" y2="90.000000"  style="stroke:black; stroke-linecap:round; stroke-width:0.25;"/>
<line x1="428.200000" y1="98.000000" x2="432.200000" y2="98.000000"  style="stroke:black; stroke-linecap:round; stroke-width:0.25;"/>
<line x1="436.200000" y1="284.000000" x2="440.200000" y2="284.000000"  style="stroke:black; stroke-linecap:round; stroke-width:0.25;"/>
<line x1="440.200000" y1="184.000000" x2="448.200000" y2="184.000000"  style="stroke:black; stroke-linecap:round; stroke-width:0.25;"/>
<line x1="440.200000" y1="272.000000" x2="448.200000" y2="272.000000"  style="stroke:black; stroke-linecap:round; stroke-width:0.25;"/>
<line x1="440.200000" y1="284.000000" x2="440.200000" y2="272.000000"  style="stroke:black; stroke-linecap:round; stroke-width:0.25;"/>
<line x1="440.200000" y1="284.000000" x2="440.200000" y2="284.000000"  style="stroke:black; stroke-linecap:round; stroke-width:0.25;"/>
<line x1="448.200000" y1="184.000000" x2="448.200000" y2="264.000000"  style="stroke:black; stroke-linecap:round; stroke-width:0.25;"/>
<line x1="448.200000" y1="264.000000" x2="448.200000" y2="264.000000"  style="stroke:black; stroke-linecap:round; stroke-width:0.25;"/>
<line x1="448.200000" y1="264.000000" x2="452.200000" y2="264.000000"  style="stroke:black; stroke-linecap:round; stroke-width:0.25;"/>
<line x1="448.200000" y1="272.000000" x2="452.200000" y2="272.000000"  style="stroke:black; stroke-linecap:round; stroke-width:0.25;"/>
<line x1="456.200000" y1="94.000000" x2="460.200000" y2="94.000000"  style="stroke:black; stroke-linecap:round; stroke-width:0.25;"/>
<line x1="460.200000" y1="94.000000" x2="480.200000" y2="94.000000"  style="stroke:black; stroke-linecap:round; stroke-width:0.25;"/>
<line x1="476.200000" y1="268.000000" x2="480.200000" y2="268.000000"  style="stroke:black; stroke-linecap:round; stroke-width:0.25;"/>
<line x1="480.200000" y1="94.000000" x2="488.200000" y2="94.000000"  style="stroke:black; stroke-linecap:round; stroke-width:0.25;"/>
<line x1="480.200000" y1="198.000000" x2="488.200000" y2="198.000000"  style="stroke:black; stroke-linecap:round; stroke-width:0.25;"/>
<line x1="480.200000" y1="268.000000" x2="480.200000" y2="198.000000"  style="stroke:black; stroke-linecap:round; stroke-width:0.25;"/>
<line x1="480.200000" y1="268.000000" x2="480.200000" y2="268.000000"  style="stroke:black; stroke-linecap:round; stroke-width:0.25;"/>
<line x1="488.200000" y1="94.000000" x2="488.200000" y2="190.000000"  style="stroke:black; stroke-linecap:round; stroke-width:0.25;"/>
<line x1="488.200000" y1="190.000000" x2="488.200000" y2="190.000000"  style="stroke:black; stroke-linecap:round; stroke-width:0.25;"/>
<line x1="488.200000" y1="190.000000" x2="492.200000" y2="190.000000"  style="stroke:black; stroke-linecap:round; stroke-width:0.25;"/>
<line x1="488.200000" y1="198.000000" x2="492.200000" y2="198.000000"  style="stroke:black; stroke-linecap:round; stroke-width:0.25;"/>
<line x1="516.200000" y1="194.000000" x2="520.200000" y2="194.000000"  style="stroke:black; stroke-linecap:round; stroke-width:0.25;"/>
<line x1="520.200000" y1="194.000000" x2="520.200000" y2="194.000000"  style="stroke:black; stroke-linecap:round; stroke-width:0.25;"/>
<line x1="520.200000" y1="194.000000" x2="524.200000" y2="194.000000"  style="stroke:black; stroke-linecap:round; stroke-width:0.25;"/>
<line x1="524.200000" y1="194.000000" x2="528.200000" y2="194.000000"  style="stroke:black; stroke-linecap:round; stroke-width:0.25;"/>
<line x1="528.200000" y1="194.000000" x2="538.200000" y2="194.000000"  style="stroke:black; stroke-linecap:round; stroke-width:0.25;"/>
</svg>
